<?xml version="1.0" encoding="utf-8"?>
<!-- Generator: Adobe Illustrator 19.1.0, SVG Export Plug-In . SVG Version: 6.00 Build 0)  -->
<svg version="1.1" id="Layer_1" xmlns="http://www.w3.org/2000/svg" xmlns:xlink="http://www.w3.org/1999/xlink" x="0px" y="0px"
	 viewBox="-297 388 17 17" style="enable-background:new -297 388 17 17;" xml:space="preserve">
<style type="text/css">
	.st0{fill:#D5B5FB;}
</style>
<g>
	<g>
		<path class="st0" d="M-280.8,402.4l-6.3-6l6.3-5.9c0.4-0.4,0.4-1,0-1.4s-1-0.4-1.4,0l-6.3,5.9l-6.3-5.8c-0.4-0.4-1-0.4-1.5,0
			c-0.4,0.4-0.4,1,0,1.4l6.3,5.9l-6.3,6c-0.4,0.4-0.4,1,0,1.4s1.1,0.4,1.5,0l6.3-6l6.3,5.9c0.4,0.4,1.1,0.4,1.5,0
			C-280.4,403.4-280.4,402.8-280.8,402.4z"/>
	</g>
</g>
</svg>
