<?xml version="1.0" encoding="utf-8"?>
<!-- Generator: Adobe Illustrator 19.2.0, SVG Export Plug-In . SVG Version: 6.00 Build 0)  -->
<svg version="1.1" id="Layer_1" xmlns="http://www.w3.org/2000/svg" xmlns:xlink="http://www.w3.org/1999/xlink" x="0px" y="0px"
	 viewBox="0 0 618.3 444.7" style="enable-background:new 0 0 618.3 444.7;" xml:space="preserve">
<style type="text/css">
	.st0{fill:#FDECF1;}
	.st1{fill:#FEF04F;}
	.st2{fill:#F3F3F4;}
</style>
<g>
	<g>
		<path class="st0" d="M45.6,90.9L77.2,8.2c2.4-6.2,9.3-9.3,15.5-6.9l130.5,49.9c6.2,2.4,9.3,9.3,6.9,15.5l-31.7,82.7
			c-2.4,6.2-9.3,9.3-15.5,6.9L52.5,106.4C46.3,104.1,43.2,97.1,45.6,90.9z"/>
		
			<rect x="179.2" y="95.6" transform="matrix(-0.3573 0.934 -0.934 -0.3573 393.9229 -52.0662)" class="st0" width="71.3" height="27.8"/>
	</g>
	
		<ellipse transform="matrix(0.9976 -6.992065e-02 6.992065e-02 0.9976 -8.8871 21.7686)" class="st1" cx="306.5" cy="137.8" rx="18" ry="18"/>
	<circle class="st2" cx="298" cy="214.7" r="18"/>
	<circle class="st2" cx="456" cy="423.7" r="18"/>
	<ellipse transform="matrix(0.187 -0.9824 0.9824 0.187 166.2792 833.9263)" class="st2" cx="587" cy="316.5" rx="18" ry="18"/>
	<ellipse transform="matrix(0.8862 -0.4634 0.4634 0.8862 -121.525 297.3502)" class="st1" cx="544.4" cy="396" rx="18" ry="18"/>
	<circle class="st1" cx="200.1" cy="241.8" r="18"/>
	<circle class="st1" cx="372.5" cy="252.1" r="18"/>
	<circle class="st2" cx="533.6" cy="250.1" r="18"/>
	<circle class="st1" cx="481.4" cy="301.7" r="18"/>
	<circle class="st2" cx="316" cy="356.3" r="18"/>
</g>
</svg>
