<svg xmlns="http://www.w3.org/2000/svg" width="22" height="28" viewBox="0 0 22 28">
  <defs>
    <style>
      .cls-1 {
        fill: #c286fc;
        stroke: #c286fc;
        stroke-linejoin: round;
        stroke-width: 1px;
        fill-rule: evenodd;
      }
    </style>
  </defs>
  <path class="cls-1" d="M10.987,23.458a1,1,0,0,1-1.026-.963V3.964a1.028,1.028,0,0,1,2.051,0V22.495A1,1,0,0,1,10.987,23.458Zm0,1.544L3.3,17.781a0.922,0.922,0,0,1,0-1.362,1.073,1.073,0,0,1,1.45,0l6.24,5.86,6.24-5.86a1.072,1.072,0,0,1,1.45,0,0.922,0.922,0,0,1,0,1.362Z"/>
</svg>
