<?xml version="1.0" encoding="utf-8"?>
<!-- Generator: Adobe Illustrator 19.2.1, SVG Export Plug-In . SVG Version: 6.00 Build 0)  -->
<svg version="1.1" id="Layer_1" xmlns="http://www.w3.org/2000/svg" xmlns:xlink="http://www.w3.org/1999/xlink" x="0px" y="0px"
	 viewBox="0 0 500 500" style="enable-background:new 0 0 500 500;" xml:space="preserve">
<style type="text/css">
	.st0{fill:#FFFFFF;}
</style>
<path class="st0" d="M412.8,111.7c10.2,0,18.2-8,18.2-18.1c0-10.2-7.9-18.2-18.1-18.2s-18.2,8-18.2,18.1
	C394.7,103.7,402.7,111.7,412.8,111.7z M413.1,78.5c8.2,0.1,14.9,6.9,14.9,15.2s-7,15.2-15.2,15.1c-8.3-0.2-15.1-7.1-15-15.4
	C397.9,85.1,404.8,78.4,413.1,78.5z M312.9,154.5c8.5,6,17,12,25.5,18c0.3,0.3,0.7,0.5,1.3,0.9c0.2-0.4,0.5-0.7,1-1.1
	c0.9-1.3,1.7-2.6,2.7-3.8c0.9-1.1,0.7-1.6-0.4-2.4c-5.2-3.6-10.4-7.2-15.5-10.9c-1.6-1.1-4.4-1.9-4.5-3.7c0-1.7,2.2-3.3,3.2-5.1
	c0.7-1.3,1.4-1.2,2.4-0.4c1.6,1.3,3.3,2.4,5,3.6c4.9,3.5,4.9,3.5,8.3-1.7c0.6-1,0.6-1.5-0.4-2.1c-2.1-1.4-4.1-2.9-6.1-4.3
	c-4.1-2.8-4-2.8-1.1-6.8c0.8-1.2,1.4-1.2,2.6-0.4c4.9,3.6,9.9,7.1,14.9,10.6c1.5,1.1,3.1,3,4.5,2.9c1.6-0.2,2.2-2.8,3.5-4.2
	c1-1.1,0.9-1.8-0.4-2.7c-8.2-5.7-16.4-11.5-24.5-17.3c-1.1-0.8-1.7-0.8-2.5,0.4c-6.6,9.4-13.2,18.8-19.8,28.1
	C311.8,153.2,311.7,153.7,312.9,154.5z M406.4,103.6c0.9-0.1,1.8,0.1,1.7-1.3c0-1.6,0.2-3.2,0-4.8c-0.2-2,0.7-2.5,2.4-2.2
	c1.1,0.1,2.1,0.5,2.8,1.5c0.9,1.4,2,2.6,2.6,4.1c1,2.5,2.6,3.2,5.3,2.4c-1.8-2.9-3.4-5.9-6-8.3c0.2-0.1,0.4-0.2,0.6-0.3
	c3.3-1.3,4.6-3.3,4.2-6.1c-0.4-2.6-2.4-4.2-5.8-4.4c-2.6-0.1-5.1,0-7.7-0.1c-1.1,0-1.5,0.3-1.5,1.5c0,5.5,0,11.1,0,16.7
	C404.9,103.4,405.4,103.7,406.4,103.6z M408.2,87.3c0-0.2,0.4-0.5,0.6-0.5c2.1-0.1,4.2-0.4,6.3,0.4c1,0.4,1.6,1.3,1.6,2.4
	c0,1.2-0.6,2.1-1.7,2.5c-1.3,0.5-2.5,0.5-3.9,0.5c-0.8-0.3-2.4,0.6-2.8-0.5C407.9,90.6,408.2,88.9,408.2,87.3z M262.2,138.6
	c6.3,1.3,12.5,2.8,18.7,4.1c8.5,1.8,15.8-1.2,19.8-8c2.2-3.7,3.1-7.7,3.3-13.3c0.1-6.9-5.5-13.4-14.8-15.6
	c-6.3-1.4-12.6-2.7-18.9-4.2c-1.3-0.3-1.8,0-2.1,1.3c-2.4,11.2-4.9,22.3-7.4,33.5C260.5,137.8,260.7,138.3,262.2,138.6z
	 M269.9,131.1c1.5-6.5,2.9-13,4.3-19.6c0.2-0.9,0.6-1.2,1.5-1c4.5,1.1,9.1,1.8,13.5,3.2c5.6,1.7,7.8,5.8,6.8,11.8
	c-1,6.4-4.9,10-11.5,10c-4.1-0.4-8.9-1.9-13.8-2.9C269.8,132.4,269.7,131.9,269.9,131.1z M377.5,245.7c-2.4-0.1-3.7,0.7-5,2.6
	c-12.2,17.2-24.4,34.4-36.6,51.7c-1.1,1.5-1.5,1.5-2.5,0c-2.8-4.1-5.7-8-8.6-12c-9.7-13.6-19.5-27.2-29.2-40.8
	c-0.5-0.7-0.9-1.5-2-1.5c-7.1,0-14.2,0-21.8,0c0.7,1,1,1.6,1.6,2.1c16.8,23.7,33.6,47.4,50.4,71.1c0.8,1.3,1.2,2.4,1.2,3.9
	c-0.1,17.4,0,34.8-0.1,52.2c0,1.7,0.4,2.2,2.2,2.2c4.7-0.1,9.5-0.1,14.3,0c1.9,0.1,2.5-0.4,2.5-2.4c-0.1-17.4-0.1-34.8-0.1-52.2
	c0-1.3,0.3-2.3,1.1-3.4c17.3-23.8,34.7-47.5,52-71.3c0.4-0.6,1.2-1.1,0.9-2.1C391,245.8,384.3,245.9,377.5,245.7z M280.3,213.6
	c1.6-0.2,2-0.6,2-2.2c0-9.8,0-19.7,0-29.5c0-5.6,0-5.5-5.7-5.5c-1.6,0-1.9,0.5-1.9,2c0.1,6.7,0,13.4,0,20.1c0,0.7,0.3,1.5-0.3,2.1
	c-1-0.3-1.4-1.1-1.9-1.8c-5-6.1-10.2-12.1-14.9-18.5c-2.2-3.1-4.7-4.3-8.4-3.9c-1.7,0.2-2.3,0.4-2.3,2.3c0,10,0,20,0,30
	c0,4.9,0,4.7,4.8,4.9c2.2,0,2.9-0.5,2.8-2.8c-0.2-7.2-0.1-14.4-0.1-21.8c1,0.3,1.3,0.9,1.6,1.4c5.1,6.3,10.4,12.5,15.3,19
	C273.7,212.6,276.3,214.1,280.3,213.6z M250.3,56.3c-109,0-197.9,88.5-198.1,197c-0.2,110,87.5,197.1,194.2,199
	c111.5,2,200.6-87.3,201.8-195.7C449.4,145.7,359.9,56.3,250.3,56.3z M246.7,437.8c-98.6-1.8-180.1-82.4-180-184.3
	C66.9,153,149.3,70.9,250.3,70.9c101.5-0.1,184.7,83.1,183.3,186C432.3,357.3,349.5,439.6,246.7,437.8z M213.8,142.3
	c0.4-1.8,1-3.5,1.4-5.3c0.3-1.3,0.9-1.8,2.2-2c5.8-1,11.5-1.9,17.3-3.1c1.9-0.4,3.2-0.3,4.1,1.6c2,4.5,5.3,5.7,10,4
	c1.8-0.7,2-0.9,0.9-2.4c-6.3-8.5-12.5-17-18.8-25.5c-1.6-2.2-2.7-5.5-5-6.2c-2.4-0.7-5.4,0.7-8.2,1.1c-1.2,0.2-1.7,0.7-2,1.9
	c-0.8,3-1.7,5.9-2.5,8.9c-2.8,9.8-5.5,19.7-8.4,29.9c2.5-0.5,4.8-1,7.2-1.1C213.1,143.9,213.6,143.4,213.8,142.3z M222.5,111.2
	c3.2,4.4,6.1,8.4,9.1,12.4c0.4,0.6,0.3,0.9-0.4,1.1c-4.3,0.8-8.6,1.5-13.2,2.3C219.5,121.7,220.9,116.7,222.5,111.2z M222.1,176.4
	c-1.7,0-2,0.5-2,2.1c0,9.8,0,19.7,0,29.5c0,5.6,0,5.6,5.7,5.5c1.5,0,1.8-0.5,1.8-1.9c0-5.6,0-11.2,0-16.8c0-4.3,0-8.6-0.1-12.9
	C227.5,176.4,227.5,176.5,222.1,176.4z M251,245.7c-4.6,0.2-9.2,0.2-13.7,0c-2.3-0.1-2.8,0.6-2.8,2.8c0,31.4,0,62.7,0,94.1
	c0,0.8,0.3,1.7-0.3,2.5c-0.7-0.2-0.9-0.8-1.3-1.2c-11.3-14.4-22.5-28.8-33.8-43.2c-14-17.8-27.9-35.6-41.8-53.4
	c-0.9-1.2-1.8-1.6-3.3-1.6c-4.8,0.1-9.7,0.2-14.5,0c-2.1-0.1-2.4,0.6-2.4,2.5c0,22.1,0,44.2,0,66.3c0,20.1,0.1,40.3,0,60.4
	c0,1.6,0.4,2.3,2.2,2.2c4.6-0.1,9.3,0,13.9,0c2.9,0,2.9,0,2.9-2.8c0-31.4,0-62.7,0-94.1c0-0.8-0.2-1.7,0.4-2.8c2,2.6,4,5,5.9,7.3
	c23.8,30.4,47.5,60.7,71.2,91.1c0.8,1,1.6,1.3,2.8,1.3c4.7,0,9.5,0,14.3,0c2.9,0,2.9,0,2.9-2.8c0-27.6,0-55.3,0-82.9
	c0-14.4-0.1-28.8,0-43.2C253.6,246.2,253,245.6,251,245.7z M160.4,171.9c0.6,0.8,1.1,1.2,2.1,0.4c1.2-1,2.5-1.8,3.8-2.6
	c1.1-0.6,1.1-1.2,0.4-2.2c-2.3-3.2-4.5-6.5-6.7-9.8c-1.8-2.7-3.7-5.4-5.5-8.1c0.1-0.1,0.2-0.3,0.3-0.4c6.8,2.6,13.7,5.2,20.9,7.9
	c0-7.5,0-14.7,0-22.2c1.1,0.3,1.3,0.8,2,1.4c2.9,4.3,5.8,8.6,8.8,12.9c1.1,1.5,1.9,4.1,3.4,4.3c1.4,0.1,3-2,4.7-2.9
	c1.3-0.7,1.2-1.4,0.4-2.5c-5.8-8.4-11.6-16.9-17.4-25.4c-3-4.3-3-4.2-7.3-1.4c-1.5,0.9-2,2-2,3.7c0,6.3-0.2,12.6-0.2,18.9
	c0,1.5-0.4,1.8-1.8,1.2c-4.8-1.8-9.8-3.2-14.4-5.5c-4.2-2.1-7.4-1.8-10.6,1.4c-0.1,0-0.1,0.1-0.2,0.1c-1,0.5-1,1-0.4,1.9
	C147.3,152.6,153.8,162.3,160.4,171.9z"/>
</svg>
