<?xml version="1.0" encoding="utf-8"?>
<!-- Generator: Adobe Illustrator 19.1.0, SVG Export Plug-In . SVG Version: 6.00 Build 0)  -->
<svg version="1.1" id="Layer_1" xmlns="http://www.w3.org/2000/svg" xmlns:xlink="http://www.w3.org/1999/xlink" x="0px" y="0px"
	 viewBox="0 0 121.9 121.9" style="enable-background:new 0 0 121.9 121.9;" xml:space="preserve">
<style type="text/css">
	.st0{fill:#12254A;}
</style>
<g>
	<g>
		<path class="st0" d="M102.8,106.8l-63.3,0c9.5-14.1,62.8-92.9,62.8-92.9c0.3-0.5,0.5-1,0.5-1.5c0,0,0-0.1,0-0.2V3.2l0,0l0,0H23.5
			v12.2H86c0,0-61.9,91.6-61.9,91.7c-0.3,0.5-0.5,1-0.5,1.5c0,0,0,0.1,0,0.2v0V119h79.2V106.8z"/>
		<path class="st0" d="M26.6,70.2c5,0,9.1-4.1,9.1-9.1S31.6,52,26.6,52c-5,0-9.1,4.1-9.1,9.1S21.5,70.2,26.6,70.2"/>
		<rect x="90.6" y="58" class="st0" width="18.3" height="6.1"/>
	</g>
</g>
</svg>
