<?xml version="1.0" encoding="utf-8"?>
<!-- Generator: Adobe Illustrator 19.0.0, SVG Export Plug-In . SVG Version: 6.00 Build 0)  -->
<svg version="1.1" id="Layer_1" xmlns="http://www.w3.org/2000/svg" xmlns:xlink="http://www.w3.org/1999/xlink" x="0px" y="0px"
	 viewBox="0 0 77.6 77.6" style="enable-background:new 0 0 77.6 77.6;" xml:space="preserve">
<style type="text/css">
	.st0{fill:#F05C77;}
	.st1{fill:#FFFFFF;}
	.st2{fill:none;}
</style>
<g>
	<path id="XMLID_13_" class="st0" d="M66.2,77.6H11.4C5.1,77.6,0,72.5,0,66.2V11.4C0,5.1,5.1,0,11.4,0h54.9
		c6.3,0,11.4,5.1,11.4,11.4v54.9C77.6,72.5,72.5,77.6,66.2,77.6z"/>
</g>
<path id="XMLID_74_" class="st1" d="M71.5,1.3L38.8,35.7L6.1,1.3C3.5,0,0.9,3.1,1.7,5.4l34.9,36.8c0.6,0.6,1.4,0.9,2.2,0.9
	s1.6-0.3,2.2-0.9L75.9,5.4C76.5,3.2,74.5,0.9,71.5,1.3z"/>
<path id="XMLID_69_" class="st2" d="M66.2,77.6H11.4C5.1,77.6,0,72.5,0,66.2V11.4C0,5.1,5.1,0,11.4,0h54.9c6.3,0,11.4,5.1,11.4,11.4
	v54.9C77.6,72.5,72.5,77.6,66.2,77.6z"/>
</svg>
