<?xml version="1.0" encoding="utf-8"?>
<!-- Generator: Adobe Illustrator 19.0.0, SVG Export Plug-In . SVG Version: 6.00 Build 0)  -->
<svg version="1.1" id="Layer_1" xmlns="http://www.w3.org/2000/svg" xmlns:xlink="http://www.w3.org/1999/xlink" x="0px" y="0px"
	 viewBox="0 0 77.6 77.6" style="enable-background:new 0 0 77.6 77.6;" xml:space="preserve">
<style type="text/css">
	.st0{fill:#F05C77;}
	.st1{fill:#FFFFFF;}
</style>
<path id="XMLID_6_" class="st0" d="M66.2,77.6H11.4C5.1,77.6,0,72.5,0,66.2V11.4C0,5.1,5.1,0,11.4,0h54.9c6.3,0,11.4,5.1,11.4,11.4
	v54.9C77.6,72.5,72.5,77.6,66.2,77.6z"/>
<path id="XMLID_5_" class="st1" d="M15.5,53.6c4.6,0.1,8.9-0.7,13-3.6c-4-1-6.9-2.9-8.4-7c1.2-0.1,2.1-0.1,3.4-0.2
	c-4.2-1.9-6.6-4.9-6.9-9.7c1.3,0.3,2.3,0.6,3.5,0.9c-3.9-5.3-4.4-8.9-1.9-12.7c5.2,5.8,11.5,9.4,19.5,9.9c0-0.8,0-1.4,0-2
	c0-3.8,1.8-6.7,5.1-8.5c3.2-1.8,6.7-1.9,9.7,0.2c2.2,1.6,4,1.3,6.1,0.3c0.6-0.3,1.2-0.5,1.9-0.8c0.2,0.1,0.3,0.3,0.5,0.4
	c-1,1.4-2,2.9-3,4.4c1.2-0.3,2.5-0.6,3.8-1c0.1,0.1,0.2,0.3,0.3,0.4c-1.1,1.2-2.4,2.4-3.4,3.7c-0.5,0.7-1.1,1.6-1.1,2.4
	c-0.3,13.3-9.4,24.4-22.5,27c-6.7,1.3-13,0.2-18.9-3.1c-0.3-0.1-0.5-0.4-0.7-0.5C15.5,53.9,15.5,53.8,15.5,53.6z"/>
</svg>
