<?xml version="1.0" encoding="utf-8"?>
<!-- Generator: Adobe Illustrator 19.0.0, SVG Export Plug-In . SVG Version: 6.00 Build 0)  -->
<svg version="1.1" id="Layer_1" xmlns="http://www.w3.org/2000/svg" xmlns:xlink="http://www.w3.org/1999/xlink" x="0px" y="0px"
	 viewBox="0 0 100.1 105.4" style="enable-background:new 0 0 100.1 105.4;" xml:space="preserve">
<style type="text/css">
	.st0{fill:none;}
	.st1{fill:#FFFFFF;}
</style>
<g>
	<path class="st0" d="M86.6,39.3c2.4-1.9,4.7-4,6.7-6.2C83.3,21.8,67.2,15,49.8,15c-0.1,0-0.1,0-0.2,0c-17.3,0.1-33.4,6.8-43.3,18.1
		c1.8,2,3.7,3.9,5.9,5.6c0.5,0.1,0.9,0.3,1.3,0.6C37.7,55.1,62.4,55,86.6,39.3z M38.6,22c3-2.9,7.1-4.5,11.4-4.5c0,0,0,0,0,0
		c8.9,0,16.2,6.9,16.2,15.4c0,4.2-1.7,8.1-4.7,11c-3,2.9-7.1,4.5-11.4,4.5c0,0,0,0,0,0c-8.9,0-16.2-6.9-16.2-15.4
		C33.8,28.9,35.5,24.9,38.6,22z"/>
	<path class="st0" d="M50,44.9C50.1,44.9,50.1,44.9,50,44.9c3.4,0,6.6-1.3,9-3.6c2.4-2.3,3.7-5.3,3.6-8.4C62.7,26.4,57,21,50,21
		c0,0,0,0,0,0c-3.4,0-6.6,1.3-9,3.6c-2.4,2.3-3.7,5.3-3.6,8.4C37.4,39.6,43.1,44.9,50,44.9z M50,24.2c5,0,9.1,3.9,9.1,8.7
		c0,4.8-4.1,8.7-9.1,8.7c-5,0-9.1-3.9-9.1-8.7C41,28.2,45,24.2,50,24.2z"/>
	<g>
		<path class="st1" d="M50,17.5C50,17.5,50,17.5,50,17.5c-4.4,0-8.4,1.6-11.5,4.5c-3.1,2.9-4.8,6.8-4.7,11c0,8.5,7.3,15.4,16.2,15.4
			c0,0,0,0,0,0c4.3,0,8.4-1.6,11.4-4.5c3.1-2.9,4.8-6.8,4.7-11C66.2,24.4,59,17.5,50,17.5z M59.1,41.4c-2.4,2.3-5.6,3.5-9,3.6
			c0,0,0,0,0,0c-7,0-12.6-5.3-12.7-11.9c0-3.2,1.3-6.2,3.6-8.4c2.4-2.3,5.6-3.5,9-3.6c0,0,0,0,0,0c7,0,12.6,5.3,12.7,11.9
			C62.7,36.1,61.4,39.1,59.1,41.4z"/>
		<path class="st1" d="M50,24.2c-5,0-9.1,3.9-9.1,8.7c0,4.8,4.1,8.7,9.1,8.7c5,0,9.1-3.9,9.1-8.7C59.1,28.2,55.1,24.2,50,24.2z"/>
		<path class="st1" d="M99.9,20.9c0.4-0.9,0-1.9-0.9-2.4c-0.9-0.4-1.9,0-2.4,0.9c-1.2,2.7-4.1,4.6-7.2,4.8c-0.1,0-0.3,0.1-0.4,0.1
			c-0.9-0.7-1.7-1.3-2.6-1.9c3-1.7,5.3-4.6,6-7.9c0.2-1-0.4-1.9-1.4-2.1c-1-0.2-1.9,0.4-2.1,1.4c-0.6,2.9-2.9,5.4-5.8,6.2
			c-0.1,0-0.2,0.1-0.2,0.1c-1.6-1-3.4-1.9-5.1-2.7c2.5-2.2,4.4-4.9,5.7-7.8c0.4-0.9-0.1-1.9-1-2.3c-0.9-0.4-1.9,0.1-2.3,1
			c-1.2,3-3.4,5.7-6.1,7.6c-1.8-0.7-3.7-1.3-5.6-1.9c2.3-2.9,3.8-6.3,4.3-9.9c0.1-1-0.6-1.9-1.5-2c-1-0.1-1.9,0.6-2,1.5
			c-0.4,3.4-1.9,6.6-4.3,9.1c-0.1,0.1-0.1,0.2-0.2,0.3c-1.7-0.4-3.4-0.7-5.1-0.9c1.4-3.2,2.1-6.6,1.9-10.1c0-1-0.9-1.8-1.8-1.7
			c-1,0-1.7,0.9-1.7,1.9c0.1,3.3-0.6,6.6-2.1,9.5c-1.3-0.1-2.7-0.2-4.1-0.2l-0.2-9.8C51.8,0.7,51,0,50,0c-1,0-1.8,0.8-1.7,1.8
			l0.2,9.7c-1.5,0-3,0.1-4.5,0.2c-1.5-2.9-2.2-6.2-2-9.5c0-1-0.7-1.8-1.7-1.9c-1-0.1-1.8,0.7-1.8,1.7c-0.1,3.5,0.5,6.9,1.9,10.1
			c-1.7,0.2-3.4,0.5-5.1,0.9c0-0.1-0.1-0.1-0.1-0.2c-2.3-2.5-3.8-5.8-4.3-9.1c-0.1-1-1-1.7-2-1.5c-1,0.1-1.7,1-1.5,2
			c0.4,3.6,1.9,7,4.2,9.8c-1.9,0.5-3.8,1.1-5.6,1.8c-2.6-1.9-4.7-4.6-5.9-7.5c-0.4-0.9-1.4-1.3-2.3-1c-0.9,0.4-1.3,1.4-1,2.3
			c1.2,2.9,3.1,5.5,5.5,7.7c-1.8,0.8-3.5,1.7-5.2,2.7c-2.9-0.9-5.2-3.4-5.8-6.2c-0.2-1-1.1-1.6-2.1-1.4c-1,0.2-1.6,1.1-1.4,2.1
			c0.7,3.3,2.8,6.1,5.7,7.8c-0.9,0.6-1.8,1.3-2.7,2c-3-0.2-5.9-2.2-7.2-4.8C3,18.5,1.9,18.2,1,18.6C0.1,19-0.2,20,0.2,20.9
			c1.3,2.9,3.9,5.1,7,6.2C5.5,28.7,4,30.3,2.6,32c-0.5,0.7-0.5,1.6,0,2.3c1.5,1.8,3.2,3.5,4.9,5.2c-0.2,0.1-0.4,0.3-0.6,0.5
			c-1.7,1.6-2.1,3.9-1.1,5.9c1.1,2.1,2.7,4,4.7,5.5c2.9,2.3,6.2,3.8,9.4,5.4c4.3,2.1,8.4,4,11.4,7.5c3.8,4.5,3,9.5,2.1,15.3
			c-0.2,0.9-0.3,1.9-0.4,2.8l-2,14.1c-0.2,1.3-0.4,2.8-0.1,4.3c0.4,2,1.6,3.6,3.2,4.3c0.6,0.3,1.3,0.4,2,0.4c1.6,0,3.4-0.7,4.6-2.1
			c1.5-1.5,2.1-3.5,2.7-5.1l3.7-10.8c0.3-0.9,0.7-1.9,1.2-2.5c0.4-0.5,1-0.8,1.4-0.7c0.2,0.1,0.5,0.1,0.7,0c0.4-0.1,1,0.2,1.4,0.7
			c0.6,0.7,0.9,1.6,1.2,2.5l3.7,10.8c0.5,1.6,1.2,3.6,2.7,5.1c1.8,1.9,4.6,2.6,6.7,1.6c1.6-0.7,2.8-2.3,3.2-4.3
			c0.3-1.5,0.1-3-0.1-4.3l-2-14.1c-0.1-0.9-0.3-1.9-0.4-2.8c-1-5.8-1.8-10.8,2.1-15.3c2.9-3.4,7-5.4,11.4-7.5
			c3.2-1.5,6.5-3.1,9.4-5.4c2-1.5,3.6-3.5,4.7-5.5c1.1-2,0.7-4.4-1.1-5.9c-0.3-0.3-0.6-0.5-0.9-0.7c1.6-1.5,3.1-3,4.4-4.7
			c0.3-0.3,0.4-0.7,0.4-1.1v-0.6c0-0.4-0.1-0.8-0.4-1.1c-1.3-1.6-2.7-3-4.2-4.4C95.8,26.3,98.5,24,99.9,20.9z M88.6,42.3
			c0.9-0.6,1.7-0.2,2.2,0.2c0.3,0.3,0.7,0.9,0.3,1.7c-0.9,1.6-2.2,3.2-3.8,4.4c-2.6,2-5.6,3.5-8.8,5c-4.5,2.1-9.1,4.4-12.5,8.4
			c-4.9,5.8-3.9,12.1-2.9,18.2c0.1,0.9,0.3,1.8,0.4,2.7l2,14.1c0.2,1.1,0.3,2.2,0.1,3.2c-0.1,0.6-0.5,1.4-1.1,1.7
			c-0.8,0.4-2-0.1-2.7-0.8c-0.9-1-1.4-2.4-1.9-3.8l-3.7-10.8c-0.4-1.1-0.9-2.5-1.8-3.7c-1.2-1.4-2.9-2.1-4.5-1.9
			c-1.6-0.2-3.3,0.5-4.5,1.9c-1,1.2-1.4,2.5-1.8,3.7L40,97.1c-0.5,1.4-1,2.8-1.9,3.8c-0.7,0.7-1.8,1.2-2.7,0.8
			c-0.6-0.3-1-1.1-1.1-1.7c-0.2-1,0-2.1,0.1-3.2l2-14.1c0.1-0.9,0.3-1.8,0.4-2.7c1-6.1,2-12.4-2.9-18.1c-3.4-4-8.1-6.2-12.5-8.4
			c-3.2-1.5-6.2-3-8.8-5c-1.6-1.2-2.9-2.8-3.8-4.4c-0.4-0.8,0-1.4,0.3-1.7C9.6,42.2,10,42,10.5,42c0,0,0,0,0.1,0
			c0.3,0,0.6,0.1,1,0.3C36.9,58.8,63.1,58.8,88.6,42.3C88.5,42.3,88.6,42.3,88.6,42.3z M93.3,33.1c-2,2.3-4.2,4.3-6.7,6.2
			c-24.2,15.7-48.9,15.7-73.2,0c-0.4-0.3-0.9-0.5-1.3-0.6C10,37,8,35.1,6.3,33.1c9.9-11.3,26-18,43.3-18.1c0.1,0,0.1,0,0.2,0
			C67.2,15,83.3,21.8,93.3,33.1z"/>
	</g>
</g>
</svg>
