<?xml version="1.0" encoding="utf-8"?>
<!-- Generator: Adobe Illustrator 19.2.0, SVG Export Plug-In . SVG Version: 6.00 Build 0)  -->
<svg version="1.1" id="Layer_1" xmlns="http://www.w3.org/2000/svg" xmlns:xlink="http://www.w3.org/1999/xlink" x="0px" y="0px"
	 viewBox="0 0 618.3 792.6" style="enable-background:new 0 0 618.3 792.6;" xml:space="preserve">
<style type="text/css">
	.st0{fill:#FEF04E;}
	.st1{fill:#51C8EB;}
	.st2{fill:#F16474;}
	.st3{fill:#5CC1A0;}
	.st4{fill:#CDECF6;}
	.st5{fill:#F6F6F6;}
	.st6{fill:#FFFFFF;}
	.st7{fill:none;stroke:#CDECF6;stroke-width:6.8342;stroke-miterlimit:10;}
	.st8{fill:#F7B2C7;}
	.st9{fill:#A685BD;}
	.st10{fill:#12254A;}
</style>
<rect x="242.9" y="145.3" transform="matrix(0.7071 -0.7071 0.7071 0.7071 -35.2407 223.0907)" class="st0" width="17.6" height="17.6"/>
<rect x="428.1" y="765.3" transform="matrix(0.7071 -0.7071 0.7071 0.7071 -419.4079 535.6526)" class="st0" width="17.6" height="17.6"/>
<rect x="498.9" y="547.3" transform="matrix(0.7071 -0.7071 0.7071 0.7071 -244.5204 521.8538)" class="st0" width="17.6" height="17.6"/>
<rect x="291.3" y="653.3" transform="matrix(0.7071 -0.7071 0.7071 0.7071 -380.2785 406.1387)" class="st1" width="17.6" height="17.6"/>
<rect x="214.9" y="441.3" transform="matrix(0.7071 -0.7071 0.7071 0.7071 -252.7474 289.9871)" class="st2" width="17.6" height="17.6"/>
<rect x="506.9" y="253.3" transform="matrix(0.7071 -0.7071 0.7071 0.7071 -34.286 441.4008)" class="st3" width="17.6" height="17.6"/>
<rect x="2.5" y="232.5" transform="matrix(0.956 -0.2934 0.2934 0.956 -64.4965 54.4996)" class="st4" width="293.8" height="19.5"/>
<path class="st5" d="M292.4,206.8L11.4,293l44.2,144l280.9-86.2L292.4,206.8z M66.6,399.9l-27-87.8l87.8-27l27,87.8L66.6,399.9z"/>
<rect x="145.7" y="260" transform="matrix(0.956 -0.2934 0.2934 0.956 -68.2086 74.166)" class="st4" width="134.8" height="8.9"/>
<rect x="153.2" y="286.7" transform="matrix(0.956 -0.2934 0.2934 0.956 -76.5907 71.6909)" class="st4" width="94.9" height="8.9"/>
<rect x="159.5" y="305.4" transform="matrix(0.956 -0.2934 0.2934 0.956 -81.4384 76.7761)" class="st4" width="111.4" height="8.9"/>
<g id="XMLID_16_">
	<g id="XMLID_19_">
		<path id="XMLID_20_" class="st6" d="M122.4,354.8c-4.5,4.6-10.3,8.1-16.9,10c-4,1.2-8.1,1.6-12,1.5l16.9-52.1
			c0.1-0.3,0.1-0.5,0-0.8v-0.1l-1.2-4.1l0,0l0,0l-36.3,10.5l1.6,5.6l28.6-8.3l-16.3,50.2c-0.1,0.3-0.1,0.5,0,0.8v0.1l0,0l1,3.5
			c6.3,1,12.8,0.6,19.3-1.2c7.6-2.2,14.2-6.2,19.4-11.4L122.4,354.8z"/>
	</g>
	<path id="XMLID_18_" class="st6" d="M83,350.1c2.3-0.7,3.7-3.1,3-5.4s-3.1-3.7-5.4-3s-3.7,3.1-3,5.4S80.7,350.7,83,350.1"/>
	
		<rect id="XMLID_17_" x="111" y="334.8" transform="matrix(0.9609 -0.2769 0.2769 0.9609 -88.5992 45.0919)" class="st6" width="8.7" height="2.9"/>
</g>
<path id="XMLID_14_" class="st5" d="M392.3,570l-88.1-36.5c-14.8-6.1-22-23.3-15.8-38.2l80.7-194.7c6.1-14.8,23.3-22,38.2-15.8
	l88.1,36.5c14.8,6.1,22,23.3,15.8,38.2l-80.7,194.7C424.4,569,407.2,576.1,392.3,570z"/>
<path id="XMLID_13_" class="st3" d="M423.1,530.1l70.8-170.9c4.3-10.4-0.7-22.5-11.1-26.8l-74.5-30.9c-10.4-4.3-22.5,0.7-26.8,11.1
	l-70.8,170.9L423.1,530.1z"/>
<ellipse id="XMLID_12_" transform="matrix(0.3828 -0.9238 0.9238 0.3828 -266.0136 656.6224)" class="st7" cx="358.4" cy="527.4" rx="12.9" ry="12.9"/>
<line id="XMLID_11_" class="st7" x1="439.9" y1="306.8" x2="456.8" y2="313.8"/>
<polygon class="st8" points="438.7,205.8 438.7,257.8 489.2,205.8 "/>
<circle class="st8" cx="416.3" cy="118.3" r="114"/>
<polygon class="st0" points="477.6,109.4 473.4,96.7 434.9,96.7 423,60.1 409.6,60.1 397.7,96.7 359.2,96.7 355.1,109.4 386.3,132 
	374.4,168.7 385.2,176.6 416.3,153.8 447.5,176.6 458.3,168.7 446.3,132 "/>
<circle class="st9" cx="277" cy="203.1" r="6"/>
<g>
	<path class="st10" d="M377.8,408.4c3.4,1.3,7.3-0.3,8.7-3.8c1.3-3.4-0.3-7.3-3.8-8.7c-3.4-1.3-7.3,0.3-8.7,3.8
		C372.6,403.2,374.3,407.1,377.8,408.4"/>
	<path class="st10" d="M427.5,427.9c3.4,1.3,7.3-0.3,8.7-3.8c1.3-3.4-0.3-7.3-3.8-8.7c-3.4-1.3-7.3,0.3-8.7,3.8
		C422.4,422.7,424.1,426.6,427.5,427.9"/>
	<path class="st10" d="M421.1,450.8c-9.8,1.3-20,0.2-29.8-3.6c-6-2.3-11.3-5.5-16-9.4l69-47.5c0.4-0.3,0.6-0.6,0.7-0.9
		c0,0,0-0.1,0.1-0.2l2.4-6.1l0,0l0,0l-54-21.1l-3.2,8.3l42.5,16.6l-66.5,45.8c-0.4,0.3-0.6,0.6-0.7,0.9c0,0,0,0.1-0.1,0.2l0,0
		l-2,5.2c6.7,7,15,12.7,24.6,16.5c11.3,4.4,23,5.7,34.2,4.2L421.1,450.8z"/>
</g>
</svg>
