<?xml version="1.0" encoding="utf-8"?>
<!-- Generator: Adobe Illustrator 19.2.0, SVG Export Plug-In . SVG Version: 6.00 Build 0)  -->
<svg version="1.1" id="Layer_1" xmlns="http://www.w3.org/2000/svg" xmlns:xlink="http://www.w3.org/1999/xlink" x="0px" y="0px"
	 viewBox="0 0 617.6 682.3" style="enable-background:new 0 0 617.6 682.3;" xml:space="preserve">
<style type="text/css">
	.st0{fill:#E2E2E4;stroke:#76D0EB;stroke-width:11;stroke-miterlimit:10;}
	.st1{fill:none;stroke:#76D0EB;stroke-width:11;stroke-miterlimit:10;}
	.st2{fill:none;stroke:#F16574;stroke-width:11;stroke-miterlimit:10;}
	.st3{fill:#76D0EB;}
	.st4{fill:#E2E2E4;}
	.st5{fill:#FEF04F;}
	.st6{fill:none;stroke:#CDECF6;stroke-width:8.447;stroke-miterlimit:10;}
	.st7{fill:#F16574;}
	.st8{fill:none;stroke:#CDECF6;stroke-width:8.447;stroke-linecap:round;stroke-miterlimit:10;}
	.st9{fill:#F3F3F4;}
	.st10{fill:#FDECF1;}
	.st11{fill:#CDECF6;}
</style>
<g>
	
		<ellipse id="XMLID_46_" transform="matrix(0.9295 -0.3689 0.3689 0.9295 -229.9649 100.6672)" class="st0" cx="148.3" cy="651.7" rx="20.9" ry="20.9"/>
	<path id="XMLID_45_" class="st1" d="M140.4,630.1c-8.7-43.4-63.3-23.7-91.3-24.9c-13.7-0.6-27.9-6-35.9-17.2
		c-8.9-12.6-8.2-30.1-1.7-44.1s18-24.9,29.9-34.8"/>
	<path id="XMLID_44_" class="st2" d="M48.3,591.5"/>
</g>
<g id="XMLID_28_">
	<g>
		<g>
			<path class="st3" d="M71.6,525.5c-14,0-27.2-5.3-37.3-14.9c-10.5-10-16.5-23.4-16.8-37.9c-0.4-14.5,4.9-28.2,14.9-38.7
				c0.2-0.2,0.4-0.4,0.6-0.5l91-74.1c1.1-0.9,2.4-1.3,3.8-1.3c1.5,0,3,0.6,4.1,1.6c0.2,0.2,0.4,0.4,0.5,0.6c2.1,2.6,1.7,6.3-0.9,8.4
				l-90.7,73.9v0.1c-15.7,16.9-14.9,43.5,1.9,59.4c7.9,7.5,18.2,11.6,29.1,11.6c11.6,0,22.3-4.6,30.3-12.8l0,0l69.1-94.4
				c1.1-1.5,2.9-2.5,4.8-2.5c1.3,0,2.5,0.4,3.5,1.2c2.7,2,3.2,5.7,1.3,8.4L111.4,508c-0.2,0.2-0.3,0.4-0.5,0.6
				C100.6,519.5,86.6,525.5,71.6,525.5z"/>
		</g>
		<g>
			<path class="st4" d="M172.7,419.8c-1.5,0-3-0.6-4.1-1.6c-1.2-1.1-1.8-2.6-1.9-4.2c0-1.6,0.5-3.1,1.6-4.3
				c2.9-3.1,4.4-7.1,4.3-11.3c-0.1-4.2-1.9-8.2-4.9-11.1c-2.4-2.3-2.5-6.1-0.2-8.5c1.1-1.2,2.7-1.9,4.3-1.9c1.5,0,3,0.6,4.1,1.6
				c5.4,5.1,8.4,12,8.6,19.4c0.2,7.4-2.5,14.5-7.6,19.9C175.9,419.1,174.4,419.8,172.7,419.8z"/>
		</g>
		<g>
			<path class="st4" d="M123.7,373.2c-1.5,0-3-0.6-4.1-1.6c-2.4-2.3-2.5-6.1-0.2-8.5c5.3-5.6,12.5-8.6,20.2-8.6
				c7.2,0,14,2.7,19.1,7.6c1.2,1.1,1.8,2.6,1.9,4.2c0,1.6-0.5,3.1-1.6,4.3c-1.1,1.2-2.7,1.9-4.3,1.9c-1.5,0-3-0.6-4.1-1.6
				c-3-2.8-6.8-4.3-10.9-4.3c-4.4,0-8.5,1.7-11.5,4.9C126.9,372.6,125.4,373.2,123.7,373.2z"/>
		</g>
	</g>
</g>
<g>
	<g>
		<g>
			<path class="st4" d="M301.1,492.1c-0.7,0-1.3-0.4-1.5-1c-1.6-3.6-3.7-7-6.1-10.1c-2.5-3.1-5.3-5.9-8.4-8.3
				c-0.7-0.6-0.9-1.6-0.3-2.3l4.4-6.2c0.3-0.5,0.9-0.7,1.4-0.7c0.3,0,0.7,0.1,1,0.3c4.1,2.9,7.7,6.3,10.8,10.2
				c3.1,3.9,5.6,8.3,7.4,12.9c0.3,0.9-0.1,1.8-0.9,2.2l-7,2.9C301.5,492.1,301.3,492.1,301.1,492.1z"/>
		</g>
		<g>
			<path class="st5" d="M323.2,584.1c-15.5,0-29.8-7-39.4-19.1c-17.2-21.7-13.5-53.4,8.3-70.5c10-7.9,20.5-11.9,31.4-11.9
				c14.5,0,29.2,7.5,39.2,20.2l35.6,49c0.5,0.7,0.4,1.8-0.3,2.3l-6.5,5.1c-0.3,0.2-0.7,0.4-1.1,0.4c-0.1,0-0.1,0-0.2,0
				c-0.4-0.1-0.9-0.3-1.1-0.6l-3.7-4.7c-0.8-1-2-1.6-3.4-1.6c-1,0-1.9,0.3-2.6,0.9l-25,19.7C345.3,580.4,334.6,584.1,323.2,584.1z
				 M323.1,496.3c-8.5,0-16.6,2.8-23.3,8.1c-16.3,12.8-19,36.5-6.2,52.8c7.2,9.1,17.9,14.3,29.5,14.3c8.5,0,16.6-2.8,23.3-8.1
				c16.3-12.8,19-36.5,6.2-52.8C345.5,501.5,334.7,496.3,323.1,496.3z"/>
		</g>
		<g>
			<path class="st5" d="M249,490.2c-15.5,0-29.8-7-39.4-19.1c-8.3-10.5-12-23.7-10.5-37c1.6-13.3,8.2-25.2,18.7-33.5l25-19.7
				c1.9-1.5,2.2-4.2,0.7-6l-3.7-4.7c-0.3-0.4-0.4-0.8-0.4-1.2c0.1-0.4,0.3-0.9,0.6-1.1l6.5-5.1c0.3-0.2,0.7-0.4,1.1-0.4
				c0.5,0,1,0.2,1.3,0.6l39.4,45.9c7.6,9.6,11.9,21.6,11.8,33c-0.1,14.3-7,27.3-20,37.6C271.1,486.5,260.4,490.2,249,490.2
				L249,490.2z M248.9,402.4c-8.5,0-16.6,2.8-23.3,8.1c-7.9,6.2-12.9,15.1-14,25.1c-1.2,10,1.6,19.8,7.8,27.7
				c7.2,9.1,17.9,14.3,29.5,14.3c8.5,0,16.6-2.8,23.3-8.1c7.9-6.2,12.9-15.1,14-25.1c1.2-10-1.6-19.8-7.8-27.7
				C271.3,407.6,260.5,402.4,248.9,402.4z"/>
		</g>
	</g>
</g>
<g>
	<path class="st6" d="M191.9,79.6c5.1-2.9,9.3-6.8,12.5-11.3c7.7-10.9,9.6-25.6,3.5-38.6"/>
	<path class="st7" d="M251.2,218.4L86.9,294.2c-2.1,0.9-4.5,0-5.5-2L5.6,127.9c-0.9-2.1,0-4.5,2-5.5l164.3-75.8c2.1-0.9,4.5,0,5.5,2
		l75.8,164.3C254.2,215,253.3,217.4,251.2,218.4"/>
	<path class="st7" d="M262.5,223.3L98.1,299.1c-2.1,0.9-4.5,0-5.5-2L16.9,132.8c-0.9-2.1,0-4.5,2-5.5l164.3-75.8
		c2.1-0.9,4.5,0,5.5,2l75.8,164.3C265.4,219.9,264.5,222.3,262.5,223.3"/>
	<path class="st7" d="M273.7,228.2L109.4,304c-2.1,0.9-4.5,0-5.5-2L28.1,137.7c-0.9-2.1,0-4.5,2-5.5l164.3-75.8c2.1-0.9,4.5,0,5.5,2
		l75.8,164.3C276.7,224.8,275.8,227.2,273.7,228.2"/>
	<path class="st8" d="M207.9,29.7c-9-19.4-32-27.9-51.4-19c-19.4,9-27.9,32-19,51.4c5.1,11,14.7,18.6,25.7,21.3"/>
	<path class="st8" d="M100.2,79.4c-9-19.4-32-27.9-51.4-19c-19.4,9-27.9,32-19,51.4c5.1,11,14.7,18.6,25.7,21.3"/>
	<g>
		<path class="st4" d="M114.3,214.3c-7.7-16.7,2.9-33.8,10.6-46.3c0.6-1,1.2-2.1,1.9-3.1c5.8-9.6,11.2-18.6,8.4-24.6
			c-1.9-4.1-5.5-6.4-10-6.4c-2.5,0-5.2,0.7-8,2c-9.1,4.2-11.3,12.7-11.5,19.1l-0.1,3l-20.2-0.8l0.1-3c0.4-15.7,9.1-28.6,23.7-35.4
			c6-2.8,12-4.2,17.8-4.2c12.2,0,22.5,6.3,27.4,17c7.1,15.3-2.4,30.6-10.8,44l-0.6,0.9c-6,9.6-11.8,18.8-10.6,26.2l45.8-21.1
			l8.4,18.2l-65.1,30L114.3,214.3z"/>
	</g>
</g>
<path id="XMLID_15_" class="st9" d="M439.5,224.3l-60.2-19c-0.3,11.1-2.1,22.5-5.7,33.8c-4.9,15.7-12.7,29.6-22.4,41.3l61.1,19.3
	c8.7-12.4,15.7-26.5,20.5-41.8C436.4,246.6,438.6,235.4,439.5,224.3z"/>
<g>
	<path class="st10" d="M516.8,244.1L347.6,61.3c-0.6-0.6-0.6-1.6,0.1-2.2l8.2-7.6c0.6-0.6,1.6-0.6,2.2,0.1l169.2,182.8
		c0.6,0.6,0.6,1.6-0.1,2.2l-8.2,7.6C518.4,244.8,517.4,244.7,516.8,244.1z"/>
	
		<ellipse transform="matrix(0.7339 -0.6793 0.6793 0.7339 -22.4656 416.1537)" class="st7" cx="519.9" cy="236.7" rx="20.2" ry="20.2"/>
	
		<rect x="469.5" y="121.8" transform="matrix(0.7339 -0.6793 0.6793 0.7339 -2.3409 374.4341)" class="st7" width="14.4" height="136.8"/>
</g>
<g>
	
		<rect x="307.8" y="279" transform="matrix(0.3325 -0.9431 0.9431 0.3325 -77.6636 568.4676)" class="st11" width="110" height="120.1"/>
</g>
</svg>
