<?xml version="1.0" standalone="no"?><!DOCTYPE svg PUBLIC "-//W3C//DTD SVG 1.1//EN" "http://www.w3.org/Graphics/SVG/1.1/DTD/svg11.dtd" ><svg version="1.1" xmlns="http://www.w3.org/2000/svg"><defs><font horiz-adv-x="0" id="font"><font-face ascent="2048" bbox="-143 -508 2449 1946" cap-height="1434" descent="-512" font-family="Sharp Sans Zoc Doc" font-stretch="normal" font-style="normal" font-weight="600" units-per-em="2048" x-height="1024" /><missing-glyph d="M205 1495H1692V0H205ZM365 154H1532V1341H365ZM565 442 858 748 561 1059 655 1153 950 844 1245 1153 1339 1059 1042 748 1331 446 1237 352 950 651 659 348Z" horiz-adv-x="1896" /><glyph glyph-name=".null" horiz-adv-x="0" /><glyph d="M635 1495H807L1374 0H1208L1063 379H381L238 0H70ZM438 530H1006L721 1280Z" glyph-name="A" horiz-adv-x="1444" unicode="A" /><glyph d="M766 1495H1946V1343H975L1096 825H1946V674H1130L1251 154H1946V0H1124L1038 371H414L238 0H57ZM483 518H1004L834 1255Z" glyph-name="AE" horiz-adv-x="2101" unicode="&#198;" /><glyph d="M635 1495H807L1374 0H1208L1063 379H381L238 0H70ZM438 530H1006L721 1280ZM868 1946H1073L776 1614H629Z" glyph-name="Aacute" horiz-adv-x="1444" unicode="&#193;" /><glyph d="M635 1495H807L1374 0H1208L1063 379H381L238 0H70ZM438 530H1006L721 1280ZM639 1946H774L1018 1614H854L707 1819L561 1614H395Z" glyph-name="Acircumflex" horiz-adv-x="1444" unicode="&#194;" /><glyph d="M635 1495H807L1374 0H1208L1063 379H381L238 0H70ZM438 530H1006L721 1280ZM428 1722Q428 1747 437 1768Q446 1789 461.5 1804.5Q477 1820 498 1828.5Q519 1837 543 1837Q592 1837 624.5 1804.5Q657 1772 657 1722Q657 1698 648.5 1677.5Q640 1657 624.5 1641.5Q609 1626 588 1617Q567 1608 543 1608Q517 1608 496 1617Q475 1626 460 1641.5Q445 1657 436.5 1677.5Q428 1698 428 1722ZM774 1722Q774 1747 783 1768Q792 1789 807.5 1804.5Q823 1820 844 1828.5Q865 1837 889 1837Q913 1837 934 1828.5Q955 1820 970.5 1804.5Q986 1789 995 1768Q1004 1747 1004 1722Q1004 1698 995 1677.5Q986 1657 970.5 1641.5Q955 1626 934 1617Q913 1608 889 1608Q863 1608 842 1617Q821 1626 806 1641.5Q791 1657 782.5 1677.5Q774 1698 774 1722Z" glyph-name="Adieresis" horiz-adv-x="1444" unicode="&#196;" /><glyph d="M635 1495H807L1374 0H1208L1063 379H381L238 0H70ZM438 530H1006L721 1280ZM342 1946H545L786 1614H639Z" glyph-name="Agrave" horiz-adv-x="1444" unicode="&#192;" /><glyph d="M604 1413Q553 1442 522.5 1493Q492 1544 492 1606Q492 1653 509 1693.5Q526 1734 555.5 1763.5Q585 1793 624.5 1810Q664 1827 709 1827Q756 1827 796.5 1810Q837 1793 867 1763.5Q897 1734 914.5 1693.5Q932 1653 932 1606Q932 1549 905.5 1500.5Q879 1452 834 1423L1374 0H1208L1063 379H381L238 0H70ZM438 530H1006L721 1280ZM709 1503Q731 1503 750.5 1511Q770 1519 784 1533Q798 1547 806.5 1565.5Q815 1584 815 1606Q815 1627 806.5 1646.5Q798 1666 784 1680.5Q770 1695 750.5 1703.5Q731 1712 709 1712Q688 1712 669.5 1703.5Q651 1695 636.5 1680.5Q622 1666 614 1646.5Q606 1627 606 1606Q606 1584 614 1565.5Q622 1547 636.5 1533Q651 1519 669.5 1511Q688 1503 709 1503Z" glyph-name="Aring" horiz-adv-x="1444" unicode="&#197;" /><glyph d="M635 1495H807L1374 0H1208L1063 379H381L238 0H70ZM438 530H1006L721 1280ZM354 1614Q354 1670 369 1715.5Q384 1761 411 1793Q438 1825 475 1842.5Q512 1860 557 1860Q608 1860 647 1843Q686 1826 723 1804Q757 1783 788.5 1765Q820 1747 852 1747Q889 1747 910.5 1773Q932 1799 932 1853H1059Q1059 1796 1045.5 1750.5Q1032 1705 1006 1673Q980 1641 942 1623.5Q904 1606 854 1606Q825 1606 799.5 1612Q774 1618 751 1628Q728 1638 707.5 1649.5Q687 1661 668 1673Q639 1690 614 1704Q589 1718 557 1718Q522 1718 501.5 1693Q481 1668 481 1614Z" glyph-name="Atilde" horiz-adv-x="1444" unicode="&#195;" /><glyph d="M147 1495H692Q795 1495 879.5 1467Q964 1439 1024.5 1387Q1085 1335 1118 1262.5Q1151 1190 1151 1100Q1151 993 1103 909Q1055 825 963 778Q1074 733 1133 640.5Q1192 548 1192 420Q1192 323 1158 245.5Q1124 168 1062 113.5Q1000 59 913.5 29.5Q827 0 723 0H147ZM307 696V145H721Q791 145 848 166Q905 187 945.5 223.5Q986 260 1008 311Q1030 362 1030 422Q1030 483 1010 533.5Q990 584 950.5 620Q911 656 852.5 676Q794 696 717 696ZM307 1350V844H709Q777 844 829.5 863.5Q882 883 917.5 917.5Q953 952 971 998.5Q989 1045 989 1100Q989 1155 968 1201Q947 1247 908 1280Q869 1313 813.5 1331.5Q758 1350 690 1350Z" glyph-name="B" horiz-adv-x="1294" unicode="B" /><glyph d="M870 -20Q764 -20 666 7.5Q568 35 482.5 85Q397 135 327 205Q257 275 207 360.5Q157 446 129.5 544Q102 642 102 748Q102 854 129.5 952Q157 1050 207 1135Q257 1220 327 1290.5Q397 1361 482.5 1411Q568 1461 666 1488.5Q764 1516 870 1516Q977 1516 1075.5 1488Q1174 1460 1260 1409Q1346 1358 1416 1287Q1486 1216 1536 1130L1399 1051Q1360 1121 1305.5 1178.5Q1251 1236 1183 1277Q1115 1318 1036 1341Q957 1364 870 1364Q784 1364 706 1342Q628 1320 560.5 1279.5Q493 1239 439 1182.5Q385 1126 346.5 1057.5Q308 989 287 910.5Q266 832 266 748Q266 621 312 509Q358 397 439 313Q520 229 630.5 180Q741 131 870 131Q967 131 1051 155.5Q1135 180 1203.5 224.5Q1272 269 1325 330.5Q1378 392 1415 467L1556 393Q1508 301 1438.5 225Q1369 149 1281.5 94.5Q1194 40 1090.5 10Q987 -20 870 -20Z" glyph-name="C" horiz-adv-x="1612" unicode="C" /><glyph d="M868 -479Q771 -479 698 -448Q625 -417 569 -365L694 -289Q713 -304 731.5 -317.5Q750 -331 770 -341Q790 -351 814 -356.5Q838 -362 868 -362Q897 -362 922.5 -355.5Q948 -349 967 -338Q986 -327 997 -312Q1008 -297 1008 -279Q1008 -243 970.5 -224Q933 -205 862 -205H778V-14Q635 3 511.5 68.5Q388 134 297 236Q206 338 154 469Q102 600 102 748Q102 854 129.5 952Q157 1050 207 1135Q257 1220 327 1290.5Q397 1361 482.5 1411Q568 1461 666 1488.5Q764 1516 870 1516Q977 1516 1075.5 1488Q1174 1460 1260 1409Q1346 1358 1416 1287Q1486 1216 1536 1130L1399 1051Q1360 1121 1305.5 1178.5Q1251 1236 1183 1277Q1115 1318 1036 1341Q957 1364 870 1364Q784 1364 706 1342Q628 1320 560.5 1279.5Q493 1239 439 1182.5Q385 1126 346.5 1057.5Q308 989 287 910.5Q266 832 266 748Q266 621 312 509Q358 397 439 313Q520 229 630.5 180Q741 131 870 131Q967 131 1051 155.5Q1135 180 1203.5 224.5Q1272 269 1325 330.5Q1378 392 1415 467L1556 393Q1510 305 1444.5 231.5Q1379 158 1297 104.5Q1215 51 1117.5 19Q1020 -13 911 -18V-106Q966 -106 1011 -118.5Q1056 -131 1088 -153Q1120 -175 1137.5 -205.5Q1155 -236 1155 -272Q1155 -317 1132 -355Q1109 -393 1070 -420.5Q1031 -448 978.5 -463.5Q926 -479 868 -479Z" glyph-name="Ccedilla" horiz-adv-x="1612" unicode="&#199;" /><glyph d="M147 1495H565Q739 1495 882.5 1438Q1026 1381 1128.5 1280.5Q1231 1180 1287 1043.5Q1343 907 1343 748Q1343 588 1284.5 451.5Q1226 315 1122.5 214.5Q1019 114 877.5 57Q736 0 571 0H147ZM307 1348V150H559Q695 150 809 195.5Q923 241 1005.5 321.5Q1088 402 1134 511Q1180 620 1180 748Q1180 876 1136 986Q1092 1096 1010.5 1176.5Q929 1257 813 1302.5Q697 1348 553 1348Z" glyph-name="D" horiz-adv-x="1446" unicode="D" /><glyph d="M41 0 920 1520 1796 0ZM313 154H1526L920 1206Z" glyph-name="Delta" horiz-adv-x="1837" unicode="&#8710;" /><glyph d="M147 1495H1055V1343H307V825H1055V674H307V154H1055V0H147Z" glyph-name="E" horiz-adv-x="1178" unicode="E" /><glyph d="M147 1495H1055V1343H307V825H1055V674H307V154H1055V0H147ZM723 1946H928L631 1614H483Z" glyph-name="Eacute" horiz-adv-x="1178" unicode="&#201;" /><glyph d="M147 1495H1055V1343H307V825H1055V674H307V154H1055V0H147ZM520 1946H655L899 1614H735L588 1819L442 1614H276Z" glyph-name="Ecircumflex" horiz-adv-x="1178" unicode="&#202;" /><glyph d="M147 1495H1055V1343H307V825H1055V674H307V154H1055V0H147ZM674 1722Q674 1747 683 1768Q692 1789 707.5 1804.5Q723 1820 743.5 1828.5Q764 1837 788 1837Q838 1837 870.5 1804.5Q903 1772 903 1722Q903 1698 894.5 1677.5Q886 1657 870.5 1641.5Q855 1626 834 1617Q813 1608 788 1608Q763 1608 742 1617Q721 1626 706 1641.5Q691 1657 682.5 1677.5Q674 1698 674 1722ZM328 1722Q328 1747 337 1768Q346 1789 361.5 1804.5Q377 1820 397.5 1828.5Q418 1837 442 1837Q492 1837 524.5 1804.5Q557 1772 557 1722Q557 1698 548.5 1677.5Q540 1657 524.5 1641.5Q509 1626 488 1617Q467 1608 442 1608Q417 1608 396 1617Q375 1626 360 1641.5Q345 1657 336.5 1677.5Q328 1698 328 1722Z" glyph-name="Edieresis" horiz-adv-x="1178" unicode="&#203;" /><glyph d="M147 1495H1055V1343H307V825H1055V674H307V154H1055V0H147ZM242 1946H444L686 1614H539Z" glyph-name="Egrave" horiz-adv-x="1178" unicode="&#200;" /><glyph d="M47 823H205V1495H618Q734 1495 837 1469Q940 1443 1026.5 1395.5Q1113 1348 1182 1280.5Q1251 1213 1298.5 1130Q1346 1047 1371.5 950.5Q1397 854 1397 748Q1397 588 1338 451.5Q1279 315 1175.5 214.5Q1072 114 931 57Q790 0 625 0H205V707H47ZM365 1348V823H778V707H365V150H608Q744 150 859.5 195.5Q975 241 1059 321.5Q1143 402 1190 511Q1237 620 1237 748Q1237 876 1192 986Q1147 1096 1064 1176.5Q981 1257 863.5 1302.5Q746 1348 602 1348Z" glyph-name="Eth" horiz-adv-x="1499" unicode="&#208;" /><glyph d="M59 1034H188Q189 1138 223.5 1226Q258 1314 320.5 1378.5Q383 1443 470.5 1479.5Q558 1516 664 1516Q778 1516 869 1475.5Q960 1435 1022 1364L913 1264Q873 1316 812 1343Q751 1370 666 1370Q588 1370 528.5 1346Q469 1322 429.5 1277.5Q390 1233 369.5 1171Q349 1109 348 1034H881L858 907H348V588H807L786 461H348V455Q348 378 367.5 317Q387 256 426 213Q465 170 524 147.5Q583 125 662 125Q753 125 818 155.5Q883 186 922 242L1044 141Q984 64 889 22Q794 -20 664 -20Q547 -20 458 13.5Q369 47 309 109Q249 171 218.5 258Q188 345 188 453V461H59V588H188V907H59Z" glyph-name="Euro" horiz-adv-x="1204" unicode="&#8364;" /><glyph d="M147 1495H993V1343H307V825H993V674H307V0H147Z" glyph-name="F" horiz-adv-x="1116" unicode="F" /><glyph d="M877 -20Q768 -20 668.5 7.5Q569 35 483 85Q397 135 326.5 205Q256 275 206 360.5Q156 446 129 544Q102 642 102 748Q102 907 160.5 1046.5Q219 1186 323 1290.5Q427 1395 570.5 1455.5Q714 1516 885 1516Q993 1516 1092 1488Q1191 1460 1276 1409Q1361 1358 1430 1286Q1499 1214 1548 1126L1409 1047Q1371 1118 1317.5 1176.5Q1264 1235 1197.5 1276.5Q1131 1318 1052 1341Q973 1364 885 1364Q744 1364 630 1315Q516 1266 435 1182Q354 1098 310 986Q266 874 266 748Q266 621 311.5 509Q357 397 438.5 313Q520 229 632 180Q744 131 877 131Q1009 131 1112 170.5Q1215 210 1288.5 279Q1362 348 1406 442Q1450 536 1464 645H864V797H1630V752Q1630 597 1580.5 457.5Q1531 318 1435.5 211.5Q1340 105 1199.5 42.5Q1059 -20 877 -20Z" glyph-name="G" horiz-adv-x="1731" unicode="G" /><glyph d="M1096 676H307V0H147V1495H307V829H1096V1495H1255V0H1096Z" glyph-name="H" horiz-adv-x="1403" unicode="H" /><glyph d="M166 1495H326V0H166Z" glyph-name="I" horiz-adv-x="492" unicode="I" /><glyph d="M166 1495H326V0H166ZM399 1946H604L307 1614H160Z" glyph-name="Iacute" horiz-adv-x="492" unicode="&#205;" /><glyph d="M166 1495H326V0H166ZM172 1946H307L551 1614H387L240 1819L94 1614H-72Z" glyph-name="Icircumflex" horiz-adv-x="492" unicode="&#206;" /><glyph d="M166 1495H326V0H166ZM-76 1743Q-76 1767 -67 1788Q-58 1809 -42.5 1824.5Q-27 1840 -6 1849Q15 1858 39 1858Q63 1858 84 1849Q105 1840 120.5 1824.5Q136 1809 145 1788Q154 1767 154 1743Q154 1719 145 1698Q136 1677 120.5 1661.5Q105 1646 84 1637Q63 1628 39 1628Q13 1628 -8 1637Q-29 1646 -44 1661.5Q-59 1677 -67.5 1698Q-76 1719 -76 1743ZM334 1743Q334 1767 343 1788Q352 1809 367.5 1824.5Q383 1840 404 1849Q425 1858 449 1858Q473 1858 494 1849Q515 1840 530.5 1824.5Q546 1809 554.5 1788Q563 1767 563 1743Q563 1719 554.5 1698Q546 1677 530.5 1661.5Q515 1646 494 1637Q473 1628 449 1628Q423 1628 402 1637Q381 1646 366 1661.5Q351 1677 342.5 1698Q334 1719 334 1743Z" glyph-name="Idieresis" horiz-adv-x="492" unicode="&#207;" /><glyph d="M166 1495H326V0H166ZM-127 1946H76L317 1614H170Z" glyph-name="Igrave" horiz-adv-x="492" unicode="&#204;" /><glyph d="M444 -20Q378 -20 320 -4Q262 12 214 40Q166 68 129 106.5Q92 145 68 190L211 285Q228 251 250.5 222Q273 193 301.5 171.5Q330 150 364.5 137.5Q399 125 440 125Q542 125 602 193.5Q662 262 662 389V1495H821V393Q821 295 794.5 218Q768 141 719 88Q670 35 600 7.5Q530 -20 444 -20Z" glyph-name="J" horiz-adv-x="961" unicode="J" /><glyph d="M588 788 307 459V0H147V1495H307V672L1014 1495H1210L700 897L1276 0H1092Z" glyph-name="K" horiz-adv-x="1323" unicode="K" /><glyph d="M147 1495H307V154H975V0H147Z" glyph-name="L" horiz-adv-x="1092" unicode="L" /><glyph d="M147 1495H305L872 711L1458 1495H1612V0H1452V1237L868 451L307 1217V0H147Z" glyph-name="M" horiz-adv-x="1759" unicode="M" /><glyph d="M147 1495H326L1206 254V1495H1366V0H1196L307 1251V0H147Z" glyph-name="N" horiz-adv-x="1513" unicode="N" /><glyph d="M147 1495H326L1206 254V1495H1366V0H1196L307 1251V0H147ZM399 1614Q399 1670 414 1715.5Q429 1761 456 1793Q483 1825 520 1842.5Q557 1860 602 1860Q653 1860 692 1843Q731 1826 768 1804Q802 1783 833.5 1765Q865 1747 897 1747Q934 1747 955.5 1773Q977 1799 977 1853H1104Q1104 1796 1090.5 1750.5Q1077 1705 1051 1673Q1025 1641 987 1623.5Q949 1606 899 1606Q870 1606 844.5 1612Q819 1618 796 1628Q773 1638 752.5 1649.5Q732 1661 713 1673Q684 1690 659 1704Q634 1718 602 1718Q567 1718 546.5 1693Q526 1668 526 1614Z" glyph-name="Ntilde" horiz-adv-x="1513" unicode="&#209;" /><glyph d="M870 -20Q764 -20 666 7.5Q568 35 482.5 85Q397 135 327 205Q257 275 207 360.5Q157 446 129.5 544Q102 642 102 748Q102 854 129.5 952Q157 1050 207 1135Q257 1220 327 1290.5Q397 1361 482.5 1411Q568 1461 666 1488.5Q764 1516 870 1516Q976 1516 1074 1488.5Q1172 1461 1257.5 1411Q1343 1361 1413 1290.5Q1483 1220 1533 1135Q1583 1050 1610.5 952Q1638 854 1638 748Q1638 642 1610.5 544Q1583 446 1533 360.5Q1483 275 1413 205Q1343 135 1257.5 85Q1172 35 1074 7.5Q976 -20 870 -20ZM870 131Q999 131 1109.5 180Q1220 229 1301.5 313Q1383 397 1429 509Q1475 621 1475 748Q1475 832 1454 910.5Q1433 989 1394.5 1057.5Q1356 1126 1301.5 1182.5Q1247 1239 1180 1279.5Q1113 1320 1034.5 1342Q956 1364 870 1364Q784 1364 706 1342Q628 1320 560.5 1279.5Q493 1239 439 1182.5Q385 1126 346.5 1057.5Q308 989 287 910.5Q266 832 266 748Q266 621 312 509Q358 397 439 313Q520 229 630.5 180Q741 131 870 131Z" glyph-name="O" horiz-adv-x="1741" unicode="O" /><glyph d="M1477 297Q1428 225 1363 166Q1298 107 1220.5 66Q1143 25 1054 2.5Q965 -20 868 -20Q762 -20 664 7.5Q566 35 481 85Q396 135 326 205Q256 275 206.5 360.5Q157 446 129.5 544Q102 642 102 748Q102 854 129.5 952Q157 1050 206.5 1135Q256 1220 326 1290.5Q396 1361 481 1411Q566 1461 664 1488.5Q762 1516 868 1516Q965 1516 1054 1493.5Q1143 1471 1220.5 1429.5Q1298 1388 1363 1329Q1428 1270 1477 1198V1495H2384V1343H1636V825H2384V674H1636V154H2384V0H1477ZM868 137Q992 137 1100.5 182.5Q1209 228 1290.5 307.5Q1372 387 1421.5 494Q1471 601 1477 723V772Q1473 854 1449.5 929.5Q1426 1005 1386 1070.5Q1346 1136 1291 1189Q1236 1242 1169.5 1280Q1103 1318 1026.5 1339Q950 1360 868 1360Q742 1360 631.5 1312Q521 1264 439 1180.5Q357 1097 309.5 985.5Q262 874 262 748Q262 622 309.5 511Q357 400 439 316.5Q521 233 631.5 185Q742 137 868 137Z" glyph-name="OE" horiz-adv-x="2507" unicode="&#338;" /><glyph d="M870 -20Q764 -20 666 7.5Q568 35 482.5 85Q397 135 327 205Q257 275 207 360.5Q157 446 129.5 544Q102 642 102 748Q102 854 129.5 952Q157 1050 207 1135Q257 1220 327 1290.5Q397 1361 482.5 1411Q568 1461 666 1488.5Q764 1516 870 1516Q976 1516 1074 1488.5Q1172 1461 1257.5 1411Q1343 1361 1413 1290.5Q1483 1220 1533 1135Q1583 1050 1610.5 952Q1638 854 1638 748Q1638 642 1610.5 544Q1583 446 1533 360.5Q1483 275 1413 205Q1343 135 1257.5 85Q1172 35 1074 7.5Q976 -20 870 -20ZM870 131Q999 131 1109.5 180Q1220 229 1301.5 313Q1383 397 1429 509Q1475 621 1475 748Q1475 832 1454 910.5Q1433 989 1394.5 1057.5Q1356 1126 1301.5 1182.5Q1247 1239 1180 1279.5Q1113 1320 1034.5 1342Q956 1364 870 1364Q784 1364 706 1342Q628 1320 560.5 1279.5Q493 1239 439 1182.5Q385 1126 346.5 1057.5Q308 989 287 910.5Q266 832 266 748Q266 621 312 509Q358 397 439 313Q520 229 630.5 180Q741 131 870 131ZM1022 1946H1227L930 1614H782Z" glyph-name="Oacute" horiz-adv-x="1741" unicode="&#211;" /><glyph d="M870 -20Q764 -20 666 7.5Q568 35 482.5 85Q397 135 327 205Q257 275 207 360.5Q157 446 129.5 544Q102 642 102 748Q102 854 129.5 952Q157 1050 207 1135Q257 1220 327 1290.5Q397 1361 482.5 1411Q568 1461 666 1488.5Q764 1516 870 1516Q976 1516 1074 1488.5Q1172 1461 1257.5 1411Q1343 1361 1413 1290.5Q1483 1220 1533 1135Q1583 1050 1610.5 952Q1638 854 1638 748Q1638 642 1610.5 544Q1583 446 1533 360.5Q1483 275 1413 205Q1343 135 1257.5 85Q1172 35 1074 7.5Q976 -20 870 -20ZM870 131Q999 131 1109.5 180Q1220 229 1301.5 313Q1383 397 1429 509Q1475 621 1475 748Q1475 832 1454 910.5Q1433 989 1394.5 1057.5Q1356 1126 1301.5 1182.5Q1247 1239 1180 1279.5Q1113 1320 1034.5 1342Q956 1364 870 1364Q784 1364 706 1342Q628 1320 560.5 1279.5Q493 1239 439 1182.5Q385 1126 346.5 1057.5Q308 989 287 910.5Q266 832 266 748Q266 621 312 509Q358 397 439 313Q520 229 630.5 180Q741 131 870 131ZM795 1946H930L1174 1614H1010L862 1819L717 1614H551Z" glyph-name="Ocircumflex" horiz-adv-x="1741" unicode="&#212;" /><glyph d="M580 1722Q580 1747 589 1768Q598 1789 613.5 1804.5Q629 1820 649.5 1828.5Q670 1837 694 1837Q744 1837 776.5 1804.5Q809 1772 809 1722Q809 1698 800.5 1677.5Q792 1657 776.5 1641.5Q761 1626 740 1617Q719 1608 694 1608Q669 1608 648 1617Q627 1626 612 1641.5Q597 1657 588.5 1677.5Q580 1698 580 1722ZM926 1722Q926 1747 935 1768Q944 1789 959.5 1804.5Q975 1820 995.5 1828.5Q1016 1837 1040 1837Q1090 1837 1122.5 1804.5Q1155 1772 1155 1722Q1155 1698 1146.5 1677.5Q1138 1657 1122.5 1641.5Q1107 1626 1086 1617Q1065 1608 1040 1608Q1015 1608 994 1617Q973 1626 958 1641.5Q943 1657 934.5 1677.5Q926 1698 926 1722ZM870 -20Q764 -20 666 7.5Q568 35 482.5 85Q397 135 327 205Q257 275 207 360.5Q157 446 129.5 544Q102 642 102 748Q102 854 129.5 952Q157 1050 207 1135Q257 1220 327 1290.5Q397 1361 482.5 1411Q568 1461 666 1488.5Q764 1516 870 1516Q976 1516 1074 1488.5Q1172 1461 1257.5 1411Q1343 1361 1413 1290.5Q1483 1220 1533 1135Q1583 1050 1610.5 952Q1638 854 1638 748Q1638 642 1610.5 544Q1583 446 1533 360.5Q1483 275 1413 205Q1343 135 1257.5 85Q1172 35 1074 7.5Q976 -20 870 -20ZM870 131Q999 131 1109.5 180Q1220 229 1301.5 313Q1383 397 1429 509Q1475 621 1475 748Q1475 832 1454 910.5Q1433 989 1394.5 1057.5Q1356 1126 1301.5 1182.5Q1247 1239 1180 1279.5Q1113 1320 1034.5 1342Q956 1364 870 1364Q784 1364 706 1342Q628 1320 560.5 1279.5Q493 1239 439 1182.5Q385 1126 346.5 1057.5Q308 989 287 910.5Q266 832 266 748Q266 621 312 509Q358 397 439 313Q520 229 630.5 180Q741 131 870 131Z" glyph-name="Odieresis" horiz-adv-x="1741" unicode="&#214;" /><glyph d="M870 -20Q764 -20 666 7.5Q568 35 482.5 85Q397 135 327 205Q257 275 207 360.5Q157 446 129.5 544Q102 642 102 748Q102 854 129.5 952Q157 1050 207 1135Q257 1220 327 1290.5Q397 1361 482.5 1411Q568 1461 666 1488.5Q764 1516 870 1516Q976 1516 1074 1488.5Q1172 1461 1257.5 1411Q1343 1361 1413 1290.5Q1483 1220 1533 1135Q1583 1050 1610.5 952Q1638 854 1638 748Q1638 642 1610.5 544Q1583 446 1533 360.5Q1483 275 1413 205Q1343 135 1257.5 85Q1172 35 1074 7.5Q976 -20 870 -20ZM870 131Q999 131 1109.5 180Q1220 229 1301.5 313Q1383 397 1429 509Q1475 621 1475 748Q1475 832 1454 910.5Q1433 989 1394.5 1057.5Q1356 1126 1301.5 1182.5Q1247 1239 1180 1279.5Q1113 1320 1034.5 1342Q956 1364 870 1364Q784 1364 706 1342Q628 1320 560.5 1279.5Q493 1239 439 1182.5Q385 1126 346.5 1057.5Q308 989 287 910.5Q266 832 266 748Q266 621 312 509Q358 397 439 313Q520 229 630.5 180Q741 131 870 131ZM494 1946H696L938 1614H791Z" glyph-name="Ograve" horiz-adv-x="1741" unicode="&#210;" /><glyph d="M346 184Q234 291 168 435Q102 579 102 748Q102 854 129.5 952Q157 1050 207 1135Q257 1220 327 1290.5Q397 1361 482.5 1411Q568 1461 666 1488.5Q764 1516 870 1516Q986 1516 1090.5 1483.5Q1195 1451 1286 1393L1438 1587L1540 1507L1389 1313Q1446 1261 1492.5 1197.5Q1539 1134 1571 1062Q1603 990 1620.5 911Q1638 832 1638 748Q1638 642 1610.5 544Q1583 446 1533 360.5Q1483 275 1413 205Q1343 135 1257.5 85Q1172 35 1074 7.5Q976 -20 870 -20Q753 -20 646.5 12Q540 44 449 104L299 -88L197 -8ZM870 131Q999 131 1109.5 180Q1220 229 1301.5 313Q1383 397 1429 509Q1475 621 1475 748Q1475 878 1426 991.5Q1377 1105 1292 1190L543 225Q614 180 696 155.5Q778 131 870 131ZM266 748Q266 617 312.5 504.5Q359 392 442 307L1192 1272Q1123 1315 1041.5 1339.5Q960 1364 870 1364Q784 1364 706 1342Q628 1320 560.5 1279.5Q493 1239 439 1182.5Q385 1126 346.5 1057.5Q308 989 287 910.5Q266 832 266 748Z" glyph-name="Oslash" horiz-adv-x="1741" unicode="&#216;" /><glyph d="M870 -20Q764 -20 666 7.5Q568 35 482.5 85Q397 135 327 205Q257 275 207 360.5Q157 446 129.5 544Q102 642 102 748Q102 854 129.5 952Q157 1050 207 1135Q257 1220 327 1290.5Q397 1361 482.5 1411Q568 1461 666 1488.5Q764 1516 870 1516Q976 1516 1074 1488.5Q1172 1461 1257.5 1411Q1343 1361 1413 1290.5Q1483 1220 1533 1135Q1583 1050 1610.5 952Q1638 854 1638 748Q1638 642 1610.5 544Q1583 446 1533 360.5Q1483 275 1413 205Q1343 135 1257.5 85Q1172 35 1074 7.5Q976 -20 870 -20ZM870 131Q999 131 1109.5 180Q1220 229 1301.5 313Q1383 397 1429 509Q1475 621 1475 748Q1475 832 1454 910.5Q1433 989 1394.5 1057.5Q1356 1126 1301.5 1182.5Q1247 1239 1180 1279.5Q1113 1320 1034.5 1342Q956 1364 870 1364Q784 1364 706 1342Q628 1320 560.5 1279.5Q493 1239 439 1182.5Q385 1126 346.5 1057.5Q308 989 287 910.5Q266 832 266 748Q266 621 312 509Q358 397 439 313Q520 229 630.5 180Q741 131 870 131ZM504 1614Q504 1670 519 1715.5Q534 1761 561 1793Q588 1825 625 1842.5Q662 1860 707 1860Q758 1860 796.5 1843Q835 1826 872 1804Q907 1783 938 1765Q969 1747 1001 1747Q1039 1747 1060 1773Q1081 1799 1081 1853H1208Q1208 1796 1195 1750.5Q1182 1705 1156 1673Q1130 1641 1092 1623.5Q1054 1606 1004 1606Q975 1606 949 1612Q923 1618 900 1628Q877 1638 856.5 1649.5Q836 1661 817 1673Q788 1690 763.5 1704Q739 1718 707 1718Q671 1718 651 1693Q631 1668 631 1614Z" glyph-name="Otilde" horiz-adv-x="1741" unicode="&#213;" /><glyph d="M147 1495H614Q736 1495 836.5 1455.5Q937 1416 1008.5 1347Q1080 1278 1119.5 1184Q1159 1090 1159 981Q1159 872 1119.5 777.5Q1080 683 1008.5 613.5Q937 544 836.5 504.5Q736 465 614 465H307V0H147ZM307 1348V614H604Q696 614 769 642Q842 670 892.5 719.5Q943 769 970 836Q997 903 997 981Q997 1059 970 1126.5Q943 1194 892.5 1243Q842 1292 769 1320Q696 1348 604 1348Z" glyph-name="P" horiz-adv-x="1266" unicode="P" /><glyph d="M870 -20Q764 -20 666 7.5Q568 35 482.5 85Q397 135 327 205Q257 275 207 360.5Q157 446 129.5 544Q102 642 102 748Q102 854 129.5 952Q157 1050 207 1135Q257 1220 327 1290.5Q397 1361 482.5 1411Q568 1461 666 1488.5Q764 1516 870 1516Q976 1516 1074 1488.5Q1172 1461 1257.5 1411Q1343 1361 1413 1290.5Q1483 1220 1533 1135Q1583 1050 1610.5 952Q1638 854 1638 748Q1638 672 1623 599Q1608 526 1580.5 458.5Q1553 391 1513 330.5Q1473 270 1423 219L1606 0H1403L1305 117Q1212 52 1101.5 16Q991 -20 870 -20ZM870 131Q967 131 1053 157Q1139 183 1210 231L870 647H1067L1325 336Q1396 417 1435.5 522Q1475 627 1475 748Q1475 832 1454 910.5Q1433 989 1394.5 1057.5Q1356 1126 1301.5 1182.5Q1247 1239 1180 1279.5Q1113 1320 1034.5 1342Q956 1364 870 1364Q784 1364 706 1342Q628 1320 560.5 1279.5Q493 1239 439 1182.5Q385 1126 346.5 1057.5Q308 989 287 910.5Q266 832 266 748Q266 621 312 509Q358 397 439 313Q520 229 630.5 180Q741 131 870 131Z" glyph-name="Q" horiz-adv-x="1743" unicode="Q" /><glyph d="M147 1495H688Q798 1495 891 1458Q984 1421 1052 1356.5Q1120 1292 1158 1205.5Q1196 1119 1196 1020Q1196 945 1173.5 875.5Q1151 806 1109 747.5Q1067 689 1006 644.5Q945 600 868 575L1208 0H1022L709 541H307V0H147ZM307 1348V684H674Q758 684 825.5 713Q893 742 939.5 789Q986 836 1011 896.5Q1036 957 1036 1020Q1036 1090 1011 1150.5Q986 1211 939.5 1254.5Q893 1298 826.5 1323Q760 1348 676 1348Z" glyph-name="R" horiz-adv-x="1298" unicode="R" /><glyph d="M575 -20Q485 -20 408 -1.5Q331 17 266 52.5Q201 88 146.5 138.5Q92 189 47 254L182 356Q258 240 353 182.5Q448 125 575 125Q645 125 703.5 146Q762 167 804 205Q846 243 869.5 294.5Q893 346 893 408Q893 477 862.5 524.5Q832 572 781 605.5Q730 639 664 664Q598 689 528 713Q451 739 376.5 770.5Q302 802 243 849Q184 896 147.5 963Q111 1030 111 1128Q111 1210 145.5 1280.5Q180 1351 241.5 1403.5Q303 1456 387 1486Q471 1516 569 1516Q648 1516 715 1500.5Q782 1485 839 1456Q896 1427 943.5 1385Q991 1343 1032 1290L905 1196Q848 1286 765 1330Q682 1374 567 1374Q504 1374 450 1355Q396 1336 356.5 1303Q317 1270 294.5 1225Q272 1180 272 1128Q272 1063 302 1018.5Q332 974 381.5 942Q431 910 495.5 886Q560 862 629 838Q707 811 783 778.5Q859 746 919.5 698Q980 650 1017.5 580Q1055 510 1055 408Q1055 325 1020.5 247.5Q986 170 923 110.5Q860 51 771.5 15.5Q683 -20 575 -20Z" glyph-name="S" horiz-adv-x="1153" unicode="S" /><glyph d="M575 -20Q485 -20 408 -1.5Q331 17 266 52.5Q201 88 146.5 138.5Q92 189 47 254L182 356Q258 240 353 182.5Q448 125 575 125Q645 125 703.5 146Q762 167 804 205Q846 243 869.5 294.5Q893 346 893 408Q893 477 862.5 524.5Q832 572 781 605.5Q730 639 664 664Q598 689 528 713Q451 739 376.5 770.5Q302 802 243 849Q184 896 147.5 963Q111 1030 111 1128Q111 1210 145.5 1280.5Q180 1351 241.5 1403.5Q303 1456 387 1486Q471 1516 569 1516Q648 1516 715 1500.5Q782 1485 839 1456Q896 1427 943.5 1385Q991 1343 1032 1290L905 1196Q848 1286 765 1330Q682 1374 567 1374Q504 1374 450 1355Q396 1336 356.5 1303Q317 1270 294.5 1225Q272 1180 272 1128Q272 1063 302 1018.5Q332 974 381.5 942Q431 910 495.5 886Q560 862 629 838Q707 811 783 778.5Q859 746 919.5 698Q980 650 1017.5 580Q1055 510 1055 408Q1055 325 1020.5 247.5Q986 170 923 110.5Q860 51 771.5 15.5Q683 -20 575 -20ZM279 1946H442L588 1741L735 1946H899L655 1614H522Z" glyph-name="Scaron" horiz-adv-x="1153" unicode="&#352;" /><glyph d="M545 1348H94V1495H1153V1348H705V0H545Z" glyph-name="T" horiz-adv-x="1247" unicode="T" /><glyph d="M147 1495H307V1182H608Q710 1182 794.5 1151.5Q879 1121 939 1066.5Q999 1012 1032 935.5Q1065 859 1065 768Q1065 676 1032 600Q999 524 939 468.5Q879 413 794.5 382.5Q710 352 608 352H307V0H147ZM307 1032V500H596Q666 500 722.5 519.5Q779 539 818 574Q857 609 878 658.5Q899 708 899 768Q899 826 878 875Q857 924 818 958.5Q779 993 722.5 1012.5Q666 1032 596 1032Z" glyph-name="Thorn" horiz-adv-x="1165" unicode="&#222;" /><glyph d="M647 -20Q537 -20 444 19Q351 58 283 126Q215 194 177 287Q139 380 139 487V1495H299V479Q299 408 325.5 344.5Q352 281 398.5 233.5Q445 186 509 158.5Q573 131 647 131Q722 131 786 158.5Q850 186 897 233.5Q944 281 970.5 344.5Q997 408 997 479V1495H1157V487Q1157 380 1118.5 287Q1080 194 1012 126Q944 58 850.5 19Q757 -20 647 -20Z" glyph-name="U" horiz-adv-x="1296" unicode="U" /><glyph d="M786 1946H991L694 1614H547ZM647 -20Q537 -20 444 19Q351 58 283 126Q215 194 177 287Q139 380 139 487V1495H299V479Q299 408 325.5 344.5Q352 281 398.5 233.5Q445 186 509 158.5Q573 131 647 131Q722 131 786 158.5Q850 186 897 233.5Q944 281 970.5 344.5Q997 408 997 479V1495H1157V487Q1157 380 1118.5 287Q1080 194 1012 126Q944 58 850.5 19Q757 -20 647 -20Z" glyph-name="Uacute" horiz-adv-x="1296" unicode="&#218;" /><glyph d="M647 -20Q537 -20 444 19Q351 58 283 126Q215 194 177 287Q139 380 139 487V1495H299V479Q299 408 325.5 344.5Q352 281 398.5 233.5Q445 186 509 158.5Q573 131 647 131Q722 131 786 158.5Q850 186 897 233.5Q944 281 970.5 344.5Q997 408 997 479V1495H1157V487Q1157 380 1118.5 287Q1080 194 1012 126Q944 58 850.5 19Q757 -20 647 -20ZM571 1946H707L950 1614H786L639 1819L494 1614H328Z" glyph-name="Ucircumflex" horiz-adv-x="1296" unicode="&#219;" /><glyph d="M360 1722Q360 1747 369 1768Q378 1789 394 1804.5Q410 1820 430.5 1828.5Q451 1837 475 1837Q525 1837 557.5 1804.5Q590 1772 590 1722Q590 1698 581.5 1677.5Q573 1657 557.5 1641.5Q542 1626 521 1617Q500 1608 475 1608Q450 1608 429 1617Q408 1626 392.5 1641.5Q377 1657 368.5 1677.5Q360 1698 360 1722ZM707 1722Q707 1747 716 1768Q725 1789 740.5 1804.5Q756 1820 776.5 1828.5Q797 1837 821 1837Q871 1837 903.5 1804.5Q936 1772 936 1722Q936 1698 927.5 1677.5Q919 1657 903.5 1641.5Q888 1626 867 1617Q846 1608 821 1608Q796 1608 775 1617Q754 1626 739 1641.5Q724 1657 715.5 1677.5Q707 1698 707 1722ZM647 -20Q537 -20 444 19Q351 58 283 126Q215 194 177 287Q139 380 139 487V1495H299V479Q299 408 325.5 344.5Q352 281 398.5 233.5Q445 186 509 158.5Q573 131 647 131Q722 131 786 158.5Q850 186 897 233.5Q944 281 970.5 344.5Q997 408 997 479V1495H1157V487Q1157 380 1118.5 287Q1080 194 1012 126Q944 58 850.5 19Q757 -20 647 -20Z" glyph-name="Udieresis" horiz-adv-x="1296" unicode="&#220;" /><glyph d="M647 -20Q537 -20 444 19Q351 58 283 126Q215 194 177 287Q139 380 139 487V1495H299V479Q299 408 325.5 344.5Q352 281 398.5 233.5Q445 186 509 158.5Q573 131 647 131Q722 131 786 158.5Q850 186 897 233.5Q944 281 970.5 344.5Q997 408 997 479V1495H1157V487Q1157 380 1118.5 287Q1080 194 1012 126Q944 58 850.5 19Q757 -20 647 -20ZM283 1946H485L727 1614H580Z" glyph-name="Ugrave" horiz-adv-x="1296" unicode="&#217;" /><glyph d="M70 1495H236L696 229L1155 1495H1323L776 0H614Z" glyph-name="V" horiz-adv-x="1393" unicode="V" /><glyph d="M74 1495H244L600 248L1014 1495H1167L1577 246L1954 1495H2118L1657 0H1495L1087 1245L676 0H512Z" glyph-name="W" horiz-adv-x="2191" unicode="W" /><glyph d="M670 643 248 0H68L578 768L102 1495H283L674 903L1063 1495H1243L766 778L1274 0H1094Z" glyph-name="X" horiz-adv-x="1341" unicode="X" /><glyph d="M555 711 59 1495H238L635 862L1030 1495H1208L715 713V0H555Z" glyph-name="Y" horiz-adv-x="1268" unicode="Y" /><glyph d="M555 711 59 1495H238L635 862L1030 1495H1208L715 713V0H555ZM780 1946H985L688 1614H541Z" glyph-name="Yacute" horiz-adv-x="1268" unicode="&#221;" /><glyph d="M555 711 59 1495H238L635 862L1030 1495H1208L715 713V0H555ZM692 1722Q692 1747 701 1768Q710 1789 725.5 1804.5Q741 1820 762 1828.5Q783 1837 807 1837Q831 1837 852 1828.5Q873 1820 888.5 1804.5Q904 1789 913 1768Q922 1747 922 1722Q922 1698 913 1677.5Q904 1657 888.5 1641.5Q873 1626 852 1617Q831 1608 807 1608Q781 1608 760 1617Q739 1626 724 1641.5Q709 1657 700.5 1677.5Q692 1698 692 1722ZM346 1722Q346 1747 355 1768Q364 1789 379.5 1804.5Q395 1820 416 1828.5Q437 1837 461 1837Q510 1837 542.5 1804.5Q575 1772 575 1722Q575 1698 566.5 1677.5Q558 1657 542.5 1641.5Q527 1626 506 1617Q485 1608 461 1608Q435 1608 414 1617Q393 1626 378 1641.5Q363 1657 354.5 1677.5Q346 1698 346 1722Z" glyph-name="Ydieresis" horiz-adv-x="1268" unicode="&#376;" /><glyph d="M123 147 924 1343H147V1495H1112V1350L311 154H1112V0H123Z" glyph-name="Z" horiz-adv-x="1235" unicode="Z" /><glyph d="M123 147 924 1343H147V1495H1112V1350L311 154H1112V0H123ZM309 1946H473L618 1741L766 1946H930L686 1614H553Z" glyph-name="Zcaron" horiz-adv-x="1235" unicode="&#142;" /><glyph d="M623 -20Q510 -20 414 22Q318 64 247.5 136Q177 208 137.5 305Q98 402 98 512Q98 622 137 719Q176 816 245.5 888Q315 960 411.5 1002Q508 1044 623 1044Q672 1044 724.5 1031.5Q777 1019 827 995Q877 971 921.5 936Q966 901 999 856V1024H1157V0H999V168Q966 122 921.5 87Q877 52 827 28Q777 4 724.5 -8Q672 -20 623 -20ZM631 123Q713 123 783 153.5Q853 184 904.5 237Q956 290 985 360.5Q1014 431 1014 512Q1014 592 985 662.5Q956 733 904.5 786Q853 839 783 870Q713 901 631 901Q553 901 484.5 870.5Q416 840 366 787Q316 734 287 663.5Q258 593 258 512Q258 431 287 360.5Q316 290 366 237Q416 184 484.5 153.5Q553 123 631 123Z" glyph-name="a" horiz-adv-x="1294" unicode="a" /><glyph d="M623 -20Q510 -20 414 22Q318 64 247.5 136Q177 208 137.5 305Q98 402 98 512Q98 622 137 719Q176 816 245.5 888Q315 960 411.5 1002Q508 1044 623 1044Q672 1044 724.5 1031.5Q777 1019 827 995Q877 971 921.5 936Q966 901 999 856V1024H1157V0H999V168Q966 122 921.5 87Q877 52 827 28Q777 4 724.5 -8Q672 -20 623 -20ZM631 123Q713 123 783 153.5Q853 184 904.5 237Q956 290 985 360.5Q1014 431 1014 512Q1014 592 985 662.5Q956 733 904.5 786Q853 839 783 870Q713 901 631 901Q553 901 484.5 870.5Q416 840 366 787Q316 734 287 663.5Q258 593 258 512Q258 431 287 360.5Q316 290 366 237Q416 184 484.5 153.5Q553 123 631 123ZM770 1475H975L678 1143H530Z" glyph-name="aacute" horiz-adv-x="1294" unicode="&#225;" /><glyph d="M623 -20Q510 -20 414 22Q318 64 247.5 136Q177 208 137.5 305Q98 402 98 512Q98 622 137 719Q176 816 245.5 888Q315 960 411.5 1002Q508 1044 623 1044Q672 1044 724.5 1031.5Q777 1019 827 995Q877 971 921.5 936Q966 901 999 856V1024H1157V0H999V168Q966 122 921.5 87Q877 52 827 28Q777 4 724.5 -8Q672 -20 623 -20ZM631 123Q713 123 783 153.5Q853 184 904.5 237Q956 290 985 360.5Q1014 431 1014 512Q1014 592 985 662.5Q956 733 904.5 786Q853 839 783 870Q713 901 631 901Q553 901 484.5 870.5Q416 840 366 787Q316 734 287 663.5Q258 593 258 512Q258 431 287 360.5Q316 290 366 237Q416 184 484.5 153.5Q553 123 631 123ZM600 1475H735L979 1143H815L668 1348L522 1143H356Z" glyph-name="acircumflex" horiz-adv-x="1294" unicode="&#226;" /><glyph d="M510 1475H715L418 1143H270Z" glyph-name="acute" horiz-adv-x="1020" unicode="&#180;" /><glyph d="M623 -20Q510 -20 414 22Q318 64 247.5 136Q177 208 137.5 305Q98 402 98 512Q98 622 137 719Q176 816 245.5 888Q315 960 411.5 1002Q508 1044 623 1044Q672 1044 724.5 1031.5Q777 1019 827 995Q877 971 921.5 936Q966 901 999 856V1024H1157V0H999V168Q966 122 921.5 87Q877 52 827 28Q777 4 724.5 -8Q672 -20 623 -20ZM631 123Q713 123 783 153.5Q853 184 904.5 237Q956 290 985 360.5Q1014 431 1014 512Q1014 592 985 662.5Q956 733 904.5 786Q853 839 783 870Q713 901 631 901Q553 901 484.5 870.5Q416 840 366 787Q316 734 287 663.5Q258 593 258 512Q258 431 287 360.5Q316 290 366 237Q416 184 484.5 153.5Q553 123 631 123ZM377 1251Q377 1276 386 1297Q395 1318 410.5 1333.5Q426 1349 447 1357.5Q468 1366 492 1366Q541 1366 573.5 1333.5Q606 1301 606 1251Q606 1227 597.5 1206.5Q589 1186 573.5 1170.5Q558 1155 537 1146Q516 1137 492 1137Q466 1137 445 1146Q424 1155 409 1170.5Q394 1186 385.5 1206.5Q377 1227 377 1251ZM723 1251Q723 1276 732 1297Q741 1318 756.5 1333.5Q772 1349 793 1357.5Q814 1366 838 1366Q887 1366 919.5 1333.5Q952 1301 952 1251Q952 1227 943.5 1206.5Q935 1186 919.5 1170.5Q904 1155 883 1146Q862 1137 838 1137Q812 1137 791 1146Q770 1155 755 1170.5Q740 1186 731.5 1206.5Q723 1227 723 1251Z" glyph-name="adieresis" horiz-adv-x="1294" unicode="&#228;" /><glyph d="M1350 -20Q1192 -20 1073.5 43Q955 106 887 215Q861 170 820.5 127.5Q780 85 725 52Q670 19 602.5 -0.5Q535 -20 457 -20Q360 -20 291 1Q222 22 177.5 59.5Q133 97 112 148.5Q91 200 90 260Q89 334 117.5 386.5Q146 439 195.5 475.5Q245 512 312 536.5Q379 561 455 578Q522 593 587 606.5Q652 620 702.5 638.5Q753 657 784 684.5Q815 712 815 754Q815 789 798.5 819Q782 849 749.5 871Q717 893 668 905.5Q619 918 555 918Q483 918 427 899.5Q371 881 333 849Q295 817 275.5 772.5Q256 728 256 676V670H109V674Q109 759 140 827.5Q171 896 228 944Q285 992 366.5 1018Q448 1044 549 1044Q692 1044 792.5 996.5Q893 949 936 864Q1007 948 1109.5 996Q1212 1044 1339 1044Q1450 1044 1545.5 1007.5Q1641 971 1712 903.5Q1783 836 1823.5 741Q1864 646 1864 528V463H963Q970 387 1002 324Q1034 261 1085.5 216Q1137 171 1204.5 146Q1272 121 1350 121Q1412 121 1465 136.5Q1518 152 1561.5 179.5Q1605 207 1638.5 246Q1672 285 1696 332L1833 264Q1762 130 1642 55Q1522 -20 1350 -20ZM463 111Q536 111 597 136.5Q658 162 704.5 200.5Q751 239 781 284.5Q811 330 823 369Q815 401 812 435Q809 469 809 504Q809 519 810 534.5Q811 550 813 565Q801 547 776 533Q751 519 714.5 507Q678 495 630.5 484Q583 473 526 461Q463 449 412 434Q361 419 325 396.5Q289 374 269.5 342Q250 310 250 264Q250 232 262 204Q274 176 299.5 155.5Q325 135 365.5 123Q406 111 463 111ZM1339 903Q1270 903 1209.5 881Q1149 859 1101 819Q1053 779 1019.5 724.5Q986 670 971 606H1702Q1691 675 1661 730.5Q1631 786 1584.5 824Q1538 862 1476 882.5Q1414 903 1339 903Z" glyph-name="ae" horiz-adv-x="1966" unicode="&#230;" /><glyph d="M623 -20Q510 -20 414 22Q318 64 247.5 136Q177 208 137.5 305Q98 402 98 512Q98 622 137 719Q176 816 245.5 888Q315 960 411.5 1002Q508 1044 623 1044Q672 1044 724.5 1031.5Q777 1019 827 995Q877 971 921.5 936Q966 901 999 856V1024H1157V0H999V168Q966 122 921.5 87Q877 52 827 28Q777 4 724.5 -8Q672 -20 623 -20ZM631 123Q713 123 783 153.5Q853 184 904.5 237Q956 290 985 360.5Q1014 431 1014 512Q1014 592 985 662.5Q956 733 904.5 786Q853 839 783 870Q713 901 631 901Q553 901 484.5 870.5Q416 840 366 787Q316 734 287 663.5Q258 593 258 512Q258 431 287 360.5Q316 290 366 237Q416 184 484.5 153.5Q553 123 631 123ZM272 1475H475L717 1143H569Z" glyph-name="agrave" horiz-adv-x="1294" unicode="&#224;" /><glyph d="M1116 143Q1023 68 912.5 22.5Q802 -23 674 -23Q517 -23 406.5 21.5Q296 66 226 136.5Q156 207 124 293Q92 379 92 463Q92 538 112 605Q132 672 169 728.5Q206 785 256.5 831Q307 877 369 911Q325 970 303 1031.5Q281 1093 281 1167Q281 1238 307.5 1301.5Q334 1365 383.5 1412.5Q433 1460 504.5 1488Q576 1516 666 1516Q734 1516 790.5 1500Q847 1484 892.5 1457Q938 1430 973 1394.5Q1008 1359 1032 1321L901 1235Q884 1262 862 1287.5Q840 1313 811 1332.5Q782 1352 746 1364Q710 1376 666 1376Q615 1376 574 1359Q533 1342 504 1313.5Q475 1285 459.5 1247Q444 1209 444 1167Q444 1120 457.5 1080.5Q471 1041 501 998.5Q531 956 578 906Q625 856 692 788L1128 350Q1200 437 1243 538Q1286 639 1300 739H1059V889H1456V821Q1456 752 1440.5 678Q1425 604 1396 530.5Q1367 457 1324 386Q1281 315 1227 252L1479 0H1262ZM674 119Q773 119 859.5 152Q946 185 1018 242L563 696L461 801Q361 744 306.5 661.5Q252 579 252 465Q252 404 277 342.5Q302 281 354 231.5Q406 182 485.5 150.5Q565 119 674 119Z" glyph-name="ampersand" horiz-adv-x="1554" unicode="&amp;" /><glyph d="M92 971Q137 992 182.5 1008Q228 1024 291 1024Q337 1024 384.5 1012Q432 1000 478.5 985Q525 970 569 958Q613 946 653 946Q683 946 707.5 949.5Q732 953 755 960Q778 967 801 976.5Q824 986 850 997V856Q829 844 808 834.5Q787 825 764 818.5Q741 812 714 808.5Q687 805 653 805Q610 805 563 817Q516 829 468.5 844Q421 859 375.5 871Q330 883 291 883Q260 883 234 878.5Q208 874 184 866.5Q160 859 137.5 849.5Q115 840 92 829ZM92 629Q114 639 135.5 649Q157 659 179.5 667Q202 675 227.5 679.5Q253 684 285 684Q331 684 380 672Q429 660 477.5 646Q526 632 571.5 620Q617 608 657 608Q687 608 711 611Q735 614 757 620Q779 626 801.5 635Q824 644 850 655V514Q829 502 809 493Q789 484 766.5 478Q744 472 717.5 469.5Q691 467 657 467Q614 467 565.5 479Q517 491 467.5 505Q418 519 371 531Q324 543 285 543Q254 543 229 538.5Q204 534 181 526Q158 518 136.5 508Q115 498 92 487Z" glyph-name="approxequal" horiz-adv-x="942" unicode="&#8776;" /><glyph d="M623 -20Q510 -20 414 22Q318 64 247.5 136Q177 208 137.5 305Q98 402 98 512Q98 622 137 719Q176 816 245.5 888Q315 960 411.5 1002Q508 1044 623 1044Q672 1044 724.5 1031.5Q777 1019 827 995Q877 971 921.5 936Q966 901 999 856V1024H1157V0H999V168Q966 122 921.5 87Q877 52 827 28Q777 4 724.5 -8Q672 -20 623 -20ZM631 123Q713 123 783 153.5Q853 184 904.5 237Q956 290 985 360.5Q1014 431 1014 512Q1014 592 985 662.5Q956 733 904.5 786Q853 839 783 870Q713 901 631 901Q553 901 484.5 870.5Q416 840 366 787Q316 734 287 663.5Q258 593 258 512Q258 431 287 360.5Q316 290 366 237Q416 184 484.5 153.5Q553 123 631 123ZM639 1128Q594 1128 554.5 1145.5Q515 1163 485.5 1193Q456 1223 439 1263Q422 1303 422 1348Q422 1395 439 1435.5Q456 1476 485.5 1505.5Q515 1535 554.5 1552Q594 1569 639 1569Q686 1569 726.5 1552Q767 1535 797 1505.5Q827 1476 844.5 1435.5Q862 1395 862 1348Q862 1303 844.5 1263Q827 1223 797 1193Q767 1163 726.5 1145.5Q686 1128 639 1128ZM639 1245Q661 1245 680.5 1253Q700 1261 714 1275Q728 1289 736.5 1307.5Q745 1326 745 1348Q745 1369 736.5 1388.5Q728 1408 714 1422.5Q700 1437 680.5 1445.5Q661 1454 639 1454Q618 1454 599.5 1445.5Q581 1437 567 1422.5Q553 1408 545 1388.5Q537 1369 537 1348Q537 1326 545 1307.5Q553 1289 567 1275Q581 1261 599.5 1253Q618 1245 639 1245Z" glyph-name="aring" horiz-adv-x="1294" unicode="&#229;" /><glyph d="M444 1434H573L825 1090H662L510 1303L360 1090H197Z" glyph-name="asciicircum" horiz-adv-x="1020" unicode="^" /><glyph d="M139 1147Q140 1201 155 1245Q170 1289 196 1320.5Q222 1352 258.5 1369Q295 1386 340 1386Q391 1386 428.5 1369.5Q466 1353 498 1333Q529 1315 557.5 1297.5Q586 1280 618 1280Q688 1280 694 1376H819Q818 1322 805 1277.5Q792 1233 767 1202Q742 1171 705.5 1154Q669 1137 621 1137Q591 1137 565.5 1143Q540 1149 518 1159Q496 1169 477 1180Q458 1191 440 1202Q416 1218 392 1229.5Q368 1241 340 1241Q306 1241 288.5 1218.5Q271 1196 268 1147H139Z" glyph-name="asciitilde" horiz-adv-x="969" unicode="~" /><glyph d="M481 1073 518 770H375L410 1073L166 891L96 1016L375 1135L96 1257L168 1378L410 1196L375 1495H518L481 1196L723 1376L795 1253L516 1135L795 1016L721 893Z" glyph-name="asterisk" horiz-adv-x="893" unicode="*" /><glyph d="M864 -256Q758 -256 660 -228.5Q562 -201 477.5 -151.5Q393 -102 323 -32Q253 38 203.5 123.5Q154 209 127 307Q100 405 100 512Q100 618 128.5 716Q157 814 208 899.5Q259 985 330.5 1055Q402 1125 488.5 1175Q575 1225 674 1252.5Q773 1280 879 1280Q990 1280 1089 1253.5Q1188 1227 1271.5 1180.5Q1355 1134 1421.5 1069.5Q1488 1005 1534.5 928Q1581 851 1605.5 765Q1630 679 1630 590Q1630 501 1610 423.5Q1590 346 1550 288.5Q1510 231 1450 197.5Q1390 164 1309 164Q1222 164 1165 197Q1108 230 1079 281Q1039 227 970.5 192.5Q902 158 809 158Q744 158 682 183Q620 208 573.5 255.5Q527 303 502.5 372Q478 441 487 530Q498 623 534 691.5Q570 760 621.5 805.5Q673 851 734 873Q795 895 856 895Q933 895 991 868.5Q1049 842 1083 797Q1086 825 1088 842Q1090 859 1091 868Q1092 879 1092 883H1247L1206 512Q1194 403 1223 358Q1252 313 1321 313Q1361 313 1391.5 332.5Q1422 352 1443 388Q1464 424 1474.5 474Q1485 524 1485 586Q1485 657 1465.5 725.5Q1446 794 1409 855Q1372 916 1319 968Q1266 1020 1198.5 1057.5Q1131 1095 1050 1116Q969 1137 877 1137Q791 1137 711.5 1114.5Q632 1092 563 1051.5Q494 1011 437.5 953.5Q381 896 340.5 826.5Q300 757 278 677.5Q256 598 256 512Q256 383 302.5 269Q349 155 431 70.5Q513 -14 624 -63.5Q735 -113 864 -113Q1000 -113 1112 -64Q1224 -15 1309 72L1419 -23Q1372 -71 1311.5 -113.5Q1251 -156 1179.5 -187.5Q1108 -219 1028.5 -237.5Q949 -256 864 -256ZM840 299Q888 299 926.5 318Q965 337 992.5 369Q1020 401 1036.5 442.5Q1053 484 1057 530Q1062 575 1053 616.5Q1044 658 1022 689.5Q1000 721 965.5 739.5Q931 758 885 758Q841 758 801 742.5Q761 727 729 697.5Q697 668 676.5 626Q656 584 651 532Q644 485 655.5 442.5Q667 400 692.5 368Q718 336 756 317.5Q794 299 840 299Z" glyph-name="at" horiz-adv-x="1731" unicode="@" /><glyph d="M623 -20Q510 -20 414 22Q318 64 247.5 136Q177 208 137.5 305Q98 402 98 512Q98 622 137 719Q176 816 245.5 888Q315 960 411.5 1002Q508 1044 623 1044Q672 1044 724.5 1031.5Q777 1019 827 995Q877 971 921.5 936Q966 901 999 856V1024H1157V0H999V168Q966 122 921.5 87Q877 52 827 28Q777 4 724.5 -8Q672 -20 623 -20ZM631 123Q713 123 783 153.5Q853 184 904.5 237Q956 290 985 360.5Q1014 431 1014 512Q1014 592 985 662.5Q956 733 904.5 786Q853 839 783 870Q713 901 631 901Q553 901 484.5 870.5Q416 840 366 787Q316 734 287 663.5Q258 593 258 512Q258 431 287 360.5Q316 290 366 237Q416 184 484.5 153.5Q553 123 631 123ZM315 1143Q315 1199 330 1244.5Q345 1290 372 1322Q399 1354 436 1371.5Q473 1389 518 1389Q569 1389 608 1372Q647 1355 684 1333Q718 1312 749.5 1294Q781 1276 813 1276Q850 1276 871.5 1302Q893 1328 893 1382H1020Q1020 1325 1006.5 1279.5Q993 1234 967 1202Q941 1170 903 1152.5Q865 1135 815 1135Q786 1135 760.5 1141Q735 1147 712 1157Q689 1167 668.5 1178.5Q648 1190 629 1202Q600 1219 575 1233Q550 1247 518 1247Q483 1247 462.5 1222Q442 1197 442 1143Z" glyph-name="atilde" horiz-adv-x="1294" unicode="&#227;" /><glyph d="M668 -20Q618 -20 565 -8Q512 4 462 28Q412 52 367.5 87Q323 122 291 168V0H139V1495H293V858Q325 903 369 938Q413 973 463 996.5Q513 1020 565.5 1032Q618 1044 668 1044Q782 1044 878.5 1002Q975 960 1044.5 888Q1114 816 1153 719Q1192 622 1192 512Q1192 402 1152.5 305Q1113 208 1043 136Q973 64 877 22Q781 -20 668 -20ZM659 123Q737 123 805.5 153.5Q874 184 924 237Q974 290 1003 360.5Q1032 431 1032 512Q1032 593 1003 663.5Q974 734 924 787Q874 840 805.5 870.5Q737 901 659 901Q577 901 507 870Q437 839 385.5 786Q334 733 305 662.5Q276 592 276 512Q276 431 305 360.5Q334 290 385.5 237Q437 184 507 153.5Q577 123 659 123Z" glyph-name="b" horiz-adv-x="1290" unicode="b" /><glyph d="M55 1495H225L934 0H764Z" glyph-name="backslash" horiz-adv-x="987" unicode="\" /><glyph d="M127 1495H287V-471H127Z" glyph-name="bar" horiz-adv-x="412" unicode="|" /><glyph d="M719 -471Q591 -471 504.5 -448.5Q418 -426 365.5 -374Q313 -322 290.5 -237Q268 -152 268 -27V219Q268 279 262 320Q256 361 236.5 386.5Q217 412 178.5 423Q140 434 76 434V584Q140 584 178.5 595Q217 606 236.5 631.5Q256 657 262 698Q268 739 268 799V1051Q268 1176 290.5 1261Q313 1346 365.5 1398Q418 1450 504.5 1472.5Q591 1495 719 1495H741V1350Q643 1350 581.5 1336.5Q520 1323 485.5 1289Q451 1255 438.5 1197Q426 1139 426 1049V797Q426 681 396 610.5Q366 540 289 508Q367 476 396.5 405.5Q426 335 426 221V-25Q426 -115 438.5 -173Q451 -231 485.5 -265Q520 -299 581.5 -312.5Q643 -326 741 -326V-471Z" glyph-name="braceleft" horiz-adv-x="825" unicode="{" /><glyph d="M86 -324Q183 -324 244.5 -311Q306 -298 341 -264Q376 -230 388.5 -172.5Q401 -115 401 -25V221Q401 278 407.5 324Q414 370 430 405.5Q446 441 472.5 466.5Q499 492 539 508Q500 524 473.5 549.5Q447 575 431 611Q415 647 408 693Q401 739 401 797V1049Q401 1139 388.5 1196.5Q376 1254 341 1288Q306 1322 244.5 1335Q183 1348 86 1348V1495H109Q237 1495 323.5 1472.5Q410 1450 462.5 1398Q515 1346 537 1261Q559 1176 559 1051V799Q559 739 565 698Q571 657 591 631.5Q611 606 649 595Q687 584 752 584V434Q687 434 649 423Q611 412 591 386.5Q571 361 565 320Q559 279 559 219V-27Q559 -152 537 -237Q515 -322 462.5 -374Q410 -426 323.5 -448.5Q237 -471 109 -471H86Z" glyph-name="braceright" horiz-adv-x="825" unicode="}" /><glyph d="M106 1495H666V1343H266V-319H666V-471H106Z" glyph-name="bracketleft" horiz-adv-x="770" unicode="[" /><glyph d="M106 -322H506V1343H106V1495H666V-471H106Z" glyph-name="bracketright" horiz-adv-x="770" unicode="]" /><glyph d="M508 1130Q424 1130 361.5 1156.5Q299 1183 258.5 1228.5Q218 1274 198 1335Q178 1396 178 1464H313Q313 1367 362.5 1309Q412 1251 508 1249Q601 1251 650.5 1309Q700 1367 700 1464H840Q840 1396 817 1335Q794 1274 751 1228.5Q708 1183 646.5 1156.5Q585 1130 508 1130Z" glyph-name="breve" horiz-adv-x="1020" unicode="&#728;" /><glyph d="M127 1495H287V635H127ZM127 389H287V-471H127Z" glyph-name="brokenbar" horiz-adv-x="496" unicode="&#166;" /><glyph d="M344 362Q313 362 286 374Q259 386 238.5 406.5Q218 427 206.5 454Q195 481 195 512Q195 543 206.5 570Q218 597 238.5 617.5Q259 638 286 650Q313 662 344 662Q375 662 402 650Q429 638 449.5 617.5Q470 597 482 570Q494 543 494 512Q494 481 482 454Q470 427 449.5 406.5Q429 386 402 374Q375 362 344 362Z" glyph-name="bullet" horiz-adv-x="686" unicode="&#8226;" /><glyph d="M637 -20Q520 -20 421 21.5Q322 63 250 135Q178 207 138 304Q98 401 98 512Q98 627 139.5 724.5Q181 822 253.5 893Q326 964 424 1004Q522 1044 635 1044Q719 1044 793.5 1022Q868 1000 929.5 959.5Q991 919 1038 863Q1085 807 1114 739L971 678Q923 784 838.5 842.5Q754 901 633 901Q552 901 483.5 870.5Q415 840 365 787Q315 734 286.5 663.5Q258 593 258 512Q258 431 287 360.5Q316 290 367 237Q418 184 488 153.5Q558 123 641 123Q705 123 757.5 141Q810 159 852 191Q894 223 926 266Q958 309 979 360L1124 299Q1093 229 1047.5 170.5Q1002 112 941 69.5Q880 27 804 3.5Q728 -20 637 -20Z" glyph-name="c" horiz-adv-x="1202" unicode="c" /><glyph d="M199 1475H362L508 1270L655 1475H819L575 1143H442Z" glyph-name="caron" horiz-adv-x="1020" unicode="&#711;" /><glyph d="M651 -479Q554 -479 481 -448Q408 -417 352 -365L477 -289Q496 -304 514.5 -317.5Q533 -331 553 -341Q573 -351 597 -356.5Q621 -362 651 -362Q680 -362 705.5 -355.5Q731 -349 750 -338Q769 -327 780 -312Q791 -297 791 -279Q791 -243 753.5 -224Q716 -205 645 -205H561V-14Q458 -2 373 43.5Q288 89 227 159.5Q166 230 132 320.5Q98 411 98 512Q98 627 139.5 724.5Q181 822 253.5 893Q326 964 424 1004Q522 1044 635 1044Q719 1044 793.5 1022Q868 1000 929.5 959.5Q991 919 1038 863Q1085 807 1114 739L971 678Q923 784 838.5 842.5Q754 901 633 901Q552 901 483.5 870.5Q415 840 365 787Q315 734 286.5 663.5Q258 593 258 512Q258 431 287 360.5Q316 290 367 237Q418 184 488 153.5Q558 123 641 123Q705 123 757.5 141Q810 159 852 191Q894 223 926 266Q958 309 979 360L1124 299Q1096 234 1055 179Q1014 124 960 82.5Q906 41 839.5 15Q773 -11 694 -18V-106Q749 -106 794 -118.5Q839 -131 871 -153Q903 -175 920.5 -205.5Q938 -236 938 -272Q938 -317 915 -355Q892 -393 853 -420.5Q814 -448 761.5 -463.5Q709 -479 651 -479Z" glyph-name="ccedilla" horiz-adv-x="1202" unicode="&#231;" /><glyph d="M494 -479Q397 -479 323.5 -448Q250 -417 195 -365L319 -289Q338 -304 357 -317.5Q376 -331 396 -341Q416 -351 440 -356.5Q464 -362 494 -362Q523 -362 548.5 -355.5Q574 -349 592.5 -338Q611 -327 622 -312Q633 -297 633 -279Q633 -243 596 -224Q559 -205 487 -205H403V0H537V-106Q591 -106 636 -118.5Q681 -131 713 -153Q745 -175 762.5 -205.5Q780 -236 780 -272Q780 -317 757 -355Q734 -393 695 -420.5Q656 -448 604 -463.5Q552 -479 494 -479Z" glyph-name="cedilla" horiz-adv-x="1020" unicode="&#184;" /><glyph d="M559 -14Q458 1 373 47Q288 93 226.5 163Q165 233 130.5 322Q96 411 96 512Q96 615 131.5 705Q167 795 229 864Q291 933 376 978Q461 1023 559 1038V1290H719V1038Q789 1029 853 1003.5Q917 978 971 939.5Q1025 901 1066 850Q1107 799 1133 739L989 678Q941 784 851.5 842.5Q762 901 641 901Q560 901 490 870.5Q420 840 368 787Q316 734 286 663.5Q256 593 256 512Q256 431 286.5 360.5Q317 290 370 237Q423 184 494.5 153.5Q566 123 649 123Q713 123 767 141Q821 159 865 191Q909 223 942.5 266Q976 309 997 360L1143 299Q1115 236 1074 182.5Q1033 129 980 87.5Q927 46 861.5 19.5Q796 -7 719 -16V-266H559Z" glyph-name="cent" horiz-adv-x="1204" unicode="&#162;" /><glyph d="M442 1475H578L821 1143H657L510 1348L365 1143H199Z" glyph-name="circumflex" horiz-adv-x="1020" unicode="&#710;" /><glyph d="M92 106Q92 133 101.5 156Q111 179 128 195.5Q145 212 168 221.5Q191 231 217 231Q245 231 268 221.5Q291 212 308 195.5Q325 179 334.5 156Q344 133 344 106Q344 79 334.5 56Q325 33 308 16Q291 -1 268 -10.5Q245 -20 217 -20Q189 -20 166 -10.5Q143 -1 126.5 16Q110 33 101 56Q92 79 92 106ZM92 850Q92 877 101.5 900Q111 923 128 939.5Q145 956 168 965.5Q191 975 217 975Q245 975 268 965.5Q291 956 308 939.5Q325 923 334.5 900Q344 877 344 850Q344 823 334.5 800Q325 777 308 759.5Q291 742 268 732.5Q245 723 217 723Q189 723 166 732.5Q143 742 126.5 759.5Q110 777 101 800Q92 823 92 850Z" glyph-name="colon" horiz-adv-x="436" unicode=":" /><glyph d="M145 178H326L193 -240H66Z" glyph-name="comma" horiz-adv-x="436" unicode="," /><glyph d="M868 -20Q762 -20 664 7.5Q566 35 480.5 85Q395 135 325 205Q255 275 205 360.5Q155 446 127.5 544Q100 642 100 748Q100 854 127.5 952Q155 1050 205 1135Q255 1220 325 1290.5Q395 1361 480.5 1411Q566 1461 664 1488.5Q762 1516 868 1516Q974 1516 1072 1488.5Q1170 1461 1255.5 1411Q1341 1361 1411 1290.5Q1481 1220 1531 1135Q1581 1050 1608.5 952Q1636 854 1636 748Q1636 642 1608.5 544Q1581 446 1531 360.5Q1481 275 1411 205Q1341 135 1255.5 85Q1170 35 1072 7.5Q974 -20 868 -20ZM868 121Q1000 121 1112.5 170.5Q1225 220 1307.5 305Q1390 390 1436.5 504.5Q1483 619 1483 748Q1483 877 1436.5 991Q1390 1105 1307.5 1190Q1225 1275 1112.5 1324.5Q1000 1374 868 1374Q737 1374 624.5 1324.5Q512 1275 429.5 1190Q347 1105 300.5 991Q254 877 254 748Q254 619 300.5 504.5Q347 390 429.5 305Q512 220 624.5 170.5Q737 121 868 121ZM877 340Q789 340 714 372Q639 404 584 459.5Q529 515 498 589Q467 663 467 748Q467 832 498.5 906.5Q530 981 585 1036Q640 1091 715 1123Q790 1155 877 1155Q935 1155 988.5 1139.5Q1042 1124 1088 1097Q1134 1070 1171 1032.5Q1208 995 1233 950L1098 868Q1084 897 1062 922.5Q1040 948 1011 967Q982 986 947.5 997Q913 1008 874 1008Q821 1008 774 987.5Q727 967 692 931.5Q657 896 636.5 849Q616 802 616 748Q616 693 636.5 645.5Q657 598 692 562.5Q727 527 774 507Q821 487 874 487Q914 487 950 498.5Q986 510 1015 529.5Q1044 549 1066.5 576Q1089 603 1102 635L1239 559Q1215 511 1177.5 471Q1140 431 1093 402Q1046 373 991.5 356.5Q937 340 877 340Z" glyph-name="copyright" horiz-adv-x="1735" unicode="&#169;" /><glyph d="M801 209Q708 209 626.5 236.5Q545 264 477 315L289 119L195 213L383 408Q329 476 299.5 560.5Q270 645 270 741Q270 837 299 920Q328 1003 381 1071L190 1272L285 1366L475 1165Q543 1218 625.5 1246Q708 1274 801 1274Q892 1274 973 1246Q1054 1218 1120 1167L1300 1356L1395 1262L1217 1075Q1272 1007 1302.5 922Q1333 837 1333 741Q1333 642 1301 556Q1269 470 1212 401L1391 219L1296 125L1116 309Q1050 261 970.5 235Q891 209 801 209ZM801 352Q879 352 947.5 382.5Q1016 413 1066 466Q1116 519 1145 589.5Q1174 660 1174 741Q1174 822 1145 892.5Q1116 963 1066 1016Q1016 1069 947.5 1099.5Q879 1130 801 1130Q723 1130 655 1099.5Q587 1069 537 1016Q487 963 458.5 892.5Q430 822 430 741Q430 660 458.5 589.5Q487 519 537 466Q587 413 655 382.5Q723 352 801 352Z" glyph-name="currency" horiz-adv-x="1583" unicode="&#164;" /><glyph d="M623 -20Q510 -20 414 22Q318 64 247.5 136Q177 208 137.5 305Q98 402 98 512Q98 622 137 719Q176 816 245.5 888Q315 960 411.5 1002Q508 1044 623 1044Q672 1044 724.5 1032Q777 1020 826.5 996.5Q876 973 920 938Q964 903 997 858V1495H1151V0H999V168Q966 122 921.5 87Q877 52 827 28Q777 4 724.5 -8Q672 -20 623 -20ZM631 123Q713 123 783 153.5Q853 184 904.5 237Q956 290 985 360.5Q1014 431 1014 512Q1014 592 985 662.5Q956 733 904.5 786Q853 839 783 870Q713 901 631 901Q553 901 484.5 870.5Q416 840 366 787Q316 734 287 663.5Q258 593 258 512Q258 431 287 360.5Q316 290 366 237Q416 184 484.5 153.5Q553 123 631 123Z" glyph-name="d" horiz-adv-x="1290" unicode="d" /><glyph d="M127 1024H508V1495H668V1024H1055V883H668V0H508V883H127Z" glyph-name="dagger" horiz-adv-x="1180" unicode="&#8224;" /><glyph d="M127 1081H508V1495H668V1081H1055V942H668V569H1055V430H668V0H508V430H127V569H508V942H127Z" glyph-name="daggerdbl" horiz-adv-x="1180" unicode="&#8225;" /><glyph d="M442 989Q388 989 340 1010Q292 1031 256 1067Q220 1103 199 1151Q178 1199 178 1253Q178 1308 199 1356Q220 1404 256 1439.5Q292 1475 340 1495.5Q388 1516 442 1516Q497 1516 545 1495.5Q593 1475 628.5 1439.5Q664 1404 684.5 1356Q705 1308 705 1253Q705 1199 684.5 1151Q664 1103 628.5 1067Q593 1031 545 1010Q497 989 442 989ZM442 1122Q468 1122 491.5 1132.5Q515 1143 532.5 1160.5Q550 1178 560.5 1201.5Q571 1225 571 1251Q571 1277 560.5 1300.5Q550 1324 532.5 1341.5Q515 1359 491.5 1369.5Q468 1380 442 1380Q416 1380 392.5 1369.5Q369 1359 351.5 1341.5Q334 1324 323.5 1300.5Q313 1277 313 1251Q313 1225 323.5 1201.5Q334 1178 351.5 1160.5Q369 1143 392.5 1132.5Q416 1122 442 1122Z" glyph-name="degree" horiz-adv-x="883" unicode="&#176;" /><glyph d="M219 1251Q219 1276 228 1297Q237 1318 252.5 1333.5Q268 1349 289 1357.5Q310 1366 334 1366Q358 1366 379 1357.5Q400 1349 415.5 1333.5Q431 1318 440 1297Q449 1276 449 1251Q449 1227 440 1206.5Q431 1186 415.5 1170.5Q400 1155 379 1146Q358 1137 334 1137Q308 1137 287 1146Q266 1155 251 1170.5Q236 1186 227.5 1206.5Q219 1227 219 1251ZM565 1251Q565 1276 574 1297Q583 1318 598.5 1333.5Q614 1349 635 1357.5Q656 1366 680 1366Q704 1366 725 1357.5Q746 1349 761.5 1333.5Q777 1318 786 1297Q795 1276 795 1251Q795 1227 786 1206.5Q777 1186 761.5 1170.5Q746 1155 725 1146Q704 1137 680 1137Q654 1137 633 1146Q612 1155 597 1170.5Q582 1186 573.5 1206.5Q565 1227 565 1251Z" glyph-name="dieresis" horiz-adv-x="1032" unicode="&#168;" /><glyph d="M106 815H864V680H106ZM373 1071Q373 1095 381.5 1115.5Q390 1136 405 1150.5Q420 1165 440 1173.5Q460 1182 483 1182Q533 1182 564.5 1150.5Q596 1119 596 1071Q596 1047 587.5 1026.5Q579 1006 564 991Q549 976 528.5 967Q508 958 483 958Q459 958 438.5 967Q418 976 403.5 991Q389 1006 381 1026.5Q373 1047 373 1071ZM373 422Q373 446 381.5 466Q390 486 405 500.5Q420 515 440 523.5Q460 532 483 532Q533 532 564.5 501Q596 470 596 422Q596 398 587.5 377.5Q579 357 564 341.5Q549 326 528.5 317.5Q508 309 483 309Q434 309 403.5 341.5Q373 374 373 422Z" glyph-name="divide" horiz-adv-x="969" unicode="&#247;" /><glyph d="M1120 410Q1120 335 1090.5 263.5Q1061 192 1005.5 134Q950 76 871 36.5Q792 -3 694 -14V-246H535V-16Q455 -10 389 9.5Q323 29 266.5 60Q210 91 162.5 133.5Q115 176 72 227L193 340Q226 295 261.5 259Q297 223 338.5 196Q380 169 429 152Q478 135 537 129V735Q465 760 393 791Q321 822 262.5 867Q204 912 167.5 976Q131 1040 131 1130Q131 1207 158.5 1273Q186 1339 238 1389Q290 1439 365 1471Q440 1503 535 1511V1720H694V1509Q836 1494 932.5 1435Q1029 1376 1098 1284L969 1188Q922 1260 855.5 1307.5Q789 1355 692 1370V840Q767 814 843 782Q919 750 980.5 701.5Q1042 653 1081 583Q1120 513 1120 410ZM956 408Q956 465 934.5 508Q913 551 877 583Q841 615 793 639Q745 663 692 682V131Q754 141 803 165.5Q852 190 886 226Q920 262 938 308.5Q956 355 956 408ZM293 1130Q293 1083 312.5 1047Q332 1011 365.5 983Q399 955 443.5 933Q488 911 537 893V1374Q421 1359 357 1293.5Q293 1228 293 1130Z" glyph-name="dollar" horiz-adv-x="1204" unicode="$" /><glyph d="M371 1264Q371 1291 380.5 1313.5Q390 1336 407 1353Q424 1370 447 1379.5Q470 1389 496 1389Q523 1389 546.5 1379.5Q570 1370 587 1353Q604 1336 613.5 1313.5Q623 1291 623 1264Q623 1237 613.5 1214Q604 1191 587 1173.5Q570 1156 546.5 1146.5Q523 1137 496 1137Q468 1137 445 1146.5Q422 1156 405.5 1173.5Q389 1191 380 1214Q371 1237 371 1264Z" glyph-name="dotaccent" horiz-adv-x="1032" unicode="&#729;" /><glyph d="M297 1024V0H137V1024Z" glyph-name="dotlessi" horiz-adv-x="434" unicode="&#305;" /><glyph d="M637 -20Q515 -20 415.5 19.5Q316 59 245.5 129Q175 199 136.5 295Q98 391 98 504Q98 619 138 718Q178 817 248.5 889.5Q319 962 416.5 1003Q514 1044 629 1044Q740 1044 835.5 1007.5Q931 971 1001.5 903.5Q1072 836 1112.5 741Q1153 646 1153 528V461H252Q259 385 291.5 322.5Q324 260 375 215Q426 170 493 145.5Q560 121 637 121Q699 121 752 136.5Q805 152 848.5 179.5Q892 207 925.5 246Q959 285 983 332L1120 264Q1049 130 929 55Q809 -20 637 -20ZM629 903Q560 903 499 881Q438 859 390 819Q342 779 308.5 724.5Q275 670 260 606H991Q980 675 950 730.5Q920 786 873.5 824Q827 862 765 882.5Q703 903 629 903Z" glyph-name="e" horiz-adv-x="1253" unicode="e" /><glyph d="M637 -20Q515 -20 415.5 19.5Q316 59 245.5 129Q175 199 136.5 295Q98 391 98 504Q98 619 138 718Q178 817 248.5 889.5Q319 962 416.5 1003Q514 1044 629 1044Q740 1044 835.5 1007.5Q931 971 1001.5 903.5Q1072 836 1112.5 741Q1153 646 1153 528V461H252Q259 385 291.5 322.5Q324 260 375 215Q426 170 493 145.5Q560 121 637 121Q699 121 752 136.5Q805 152 848.5 179.5Q892 207 925.5 246Q959 285 983 332L1120 264Q1049 130 929 55Q809 -20 637 -20ZM629 903Q560 903 499 881Q438 859 390 819Q342 779 308.5 724.5Q275 670 260 606H991Q980 675 950 730.5Q920 786 873.5 824Q827 862 765 882.5Q703 903 629 903ZM772 1475H977L680 1143H532Z" glyph-name="eacute" horiz-adv-x="1253" unicode="&#233;" /><glyph d="M637 -20Q515 -20 415.5 19.5Q316 59 245.5 129Q175 199 136.5 295Q98 391 98 504Q98 619 138 718Q178 817 248.5 889.5Q319 962 416.5 1003Q514 1044 629 1044Q740 1044 835.5 1007.5Q931 971 1001.5 903.5Q1072 836 1112.5 741Q1153 646 1153 528V461H252Q259 385 291.5 322.5Q324 260 375 215Q426 170 493 145.5Q560 121 637 121Q699 121 752 136.5Q805 152 848.5 179.5Q892 207 925.5 246Q959 285 983 332L1120 264Q1049 130 929 55Q809 -20 637 -20ZM629 903Q560 903 499 881Q438 859 390 819Q342 779 308.5 724.5Q275 670 260 606H991Q980 675 950 730.5Q920 786 873.5 824Q827 862 765 882.5Q703 903 629 903ZM561 1475H696L940 1143H776L629 1348L483 1143H317Z" glyph-name="ecircumflex" horiz-adv-x="1253" unicode="&#234;" /><glyph d="M637 -20Q515 -20 415.5 19.5Q316 59 245.5 129Q175 199 136.5 295Q98 391 98 504Q98 619 138 718Q178 817 248.5 889.5Q319 962 416.5 1003Q514 1044 629 1044Q740 1044 835.5 1007.5Q931 971 1001.5 903.5Q1072 836 1112.5 741Q1153 646 1153 528V461H252Q259 385 291.5 322.5Q324 260 375 215Q426 170 493 145.5Q560 121 637 121Q699 121 752 136.5Q805 152 848.5 179.5Q892 207 925.5 246Q959 285 983 332L1120 264Q1049 130 929 55Q809 -20 637 -20ZM629 903Q560 903 499 881Q438 859 390 819Q342 779 308.5 724.5Q275 670 260 606H991Q980 675 950 730.5Q920 786 873.5 824Q827 862 765 882.5Q703 903 629 903ZM696 1251Q696 1276 705 1297Q714 1318 730 1333.5Q746 1349 766.5 1357.5Q787 1366 811 1366Q861 1366 893.5 1333.5Q926 1301 926 1251Q926 1227 917.5 1206.5Q909 1186 893.5 1170.5Q878 1155 857 1146Q836 1137 811 1137Q785 1137 764 1146Q743 1155 728 1170.5Q713 1186 704.5 1206.5Q696 1227 696 1251ZM350 1251Q350 1276 359 1297Q368 1318 383.5 1333.5Q399 1349 420 1357.5Q441 1366 465 1366Q489 1366 510 1357.5Q531 1349 546.5 1333.5Q562 1318 571 1297Q580 1276 580 1251Q580 1227 571 1206.5Q562 1186 546.5 1170.5Q531 1155 510 1146Q489 1137 465 1137Q439 1137 418 1146Q397 1155 382 1170.5Q367 1186 358.5 1206.5Q350 1227 350 1251Z" glyph-name="edieresis" horiz-adv-x="1253" unicode="&#235;" /><glyph d="M637 -20Q515 -20 415.5 19.5Q316 59 245.5 129Q175 199 136.5 295Q98 391 98 504Q98 619 138 718Q178 817 248.5 889.5Q319 962 416.5 1003Q514 1044 629 1044Q740 1044 835.5 1007.5Q931 971 1001.5 903.5Q1072 836 1112.5 741Q1153 646 1153 528V461H252Q259 385 291.5 322.5Q324 260 375 215Q426 170 493 145.5Q560 121 637 121Q699 121 752 136.5Q805 152 848.5 179.5Q892 207 925.5 246Q959 285 983 332L1120 264Q1049 130 929 55Q809 -20 637 -20ZM629 903Q560 903 499 881Q438 859 390 819Q342 779 308.5 724.5Q275 670 260 606H991Q980 675 950 730.5Q920 786 873.5 824Q827 862 765 882.5Q703 903 629 903ZM274 1475H477L719 1143H571Z" glyph-name="egrave" horiz-adv-x="1253" unicode="&#232;" /><glyph d="M602 -20Q477 -20 383 13.5Q289 47 225.5 106Q162 165 130 246Q98 327 98 422Q98 481 114.5 535.5Q131 590 161.5 637Q192 684 235.5 723Q279 762 334 791Q243 845 193 929Q143 1013 143 1118Q143 1203 175.5 1276Q208 1349 268 1402.5Q328 1456 413 1486Q498 1516 602 1516Q704 1516 789 1486Q874 1456 935.5 1402.5Q997 1349 1031 1276Q1065 1203 1065 1118Q1065 1013 1012 929Q959 845 868 791Q923 762 967 723Q1011 684 1042 637Q1073 590 1089.5 535.5Q1106 481 1106 422Q1106 327 1072 246Q1038 165 973.5 106Q909 47 815.5 13.5Q722 -20 602 -20ZM602 125Q686 125 751 148.5Q816 172 860.5 212.5Q905 253 928.5 307Q952 361 952 422Q952 481 930 534.5Q908 588 864 628.5Q820 669 754.5 693Q689 717 602 717Q515 717 449.5 693Q384 669 340 628.5Q296 588 274 534.5Q252 481 252 422Q252 361 275.5 307Q299 253 343.5 212.5Q388 172 453 148.5Q518 125 602 125ZM602 860Q681 860 740 880Q799 900 838 934.5Q877 969 896 1016.5Q915 1064 915 1118Q915 1171 895 1218Q875 1265 835.5 1299.5Q796 1334 737.5 1354Q679 1374 602 1374Q527 1374 469.5 1354Q412 1334 372 1299.5Q332 1265 311.5 1218Q291 1171 291 1118Q291 1064 310 1016.5Q329 969 367.5 934.5Q406 900 464.5 880Q523 860 602 860Z" glyph-name="eight" horiz-adv-x="1204" unicode="8" /><glyph d="M92 106Q92 133 101.5 156Q111 179 128 195.5Q145 212 168 221.5Q191 231 217 231Q245 231 268 221.5Q291 212 308 195.5Q325 179 334.5 156Q344 133 344 106Q344 79 334.5 56Q325 33 308 16Q291 -1 268 -10.5Q245 -20 217 -20Q189 -20 166 -10.5Q143 -1 126.5 16Q110 33 101 56Q92 79 92 106ZM475 106Q475 133 484.5 156Q494 179 511 195.5Q528 212 551 221.5Q574 231 600 231Q628 231 651 221.5Q674 212 691 195.5Q708 179 717.5 156Q727 133 727 106Q727 79 717.5 56Q708 33 691 16Q674 -1 651 -10.5Q628 -20 600 -20Q572 -20 549 -10.5Q526 -1 509.5 16Q493 33 484 56Q475 79 475 106ZM860 106Q860 133 869.5 156Q879 179 896 195.5Q913 212 936 221.5Q959 231 985 231Q1013 231 1036 221.5Q1059 212 1076 195.5Q1093 179 1102.5 156Q1112 133 1112 106Q1112 79 1102.5 56Q1093 33 1076 16Q1059 -1 1036 -10.5Q1013 -20 985 -20Q957 -20 934 -10.5Q911 -1 894.5 16Q878 33 869 56Q860 79 860 106Z" glyph-name="ellipsis" horiz-adv-x="1204" unicode="&#8230;" /><glyph d="M106 582H1376V442H106Z" glyph-name="emdash" horiz-adv-x="1483" unicode="&#8212;" /><glyph d="M106 582H967V442H106Z" glyph-name="endash" horiz-adv-x="1073" unicode="&#8211;" /><glyph d="M106 979H864V842H106ZM106 645H864V510H106Z" glyph-name="equal" horiz-adv-x="969" unicode="=" /><glyph d="M545 1278Q483 1329 412.5 1382.5Q342 1436 260 1495H504Q544 1463 582 1431Q620 1399 655 1368L823 1501L899 1419L737 1290Q940 1090 1035 892Q1130 694 1130 489Q1130 385 1091 294Q1052 203 983 135.5Q914 68 820 29Q726 -10 616 -10Q510 -10 417 27.5Q324 65 255 132Q186 199 146 290.5Q106 382 106 489Q106 597 145 688.5Q184 780 251.5 847.5Q319 915 408 953Q497 991 598 991Q651 991 693.5 983.5Q736 976 771 963Q806 950 834.5 932Q863 914 887 893Q843 968 781 1044.5Q719 1121 629 1202L471 1075L393 1157ZM621 135Q693 135 756.5 163Q820 191 868 239Q916 287 943.5 351.5Q971 416 971 489Q971 561 944 625Q917 689 869.5 738Q822 787 758 815.5Q694 844 621 844Q549 844 484.5 816Q420 788 371.5 739.5Q323 691 294.5 626.5Q266 562 266 489Q266 416 294.5 351.5Q323 287 371.5 239Q420 191 484.5 163Q549 135 621 135Z" glyph-name="eth" horiz-adv-x="1237" unicode="&#240;" /><glyph d="M203 365Q198 413 193.5 479Q189 545 185.5 621Q182 697 178.5 780Q175 863 173 945.5Q171 1028 169.5 1107Q168 1186 168 1255V1495H328V1255Q328 1186 326.5 1107Q325 1028 323 945.5Q321 863 317.5 780Q314 697 310 621Q306 545 301.5 479Q297 413 293 365ZM123 106Q123 133 132.5 156Q142 179 159 195.5Q176 212 199 221.5Q222 231 248 231Q276 231 299 221.5Q322 212 339 195.5Q356 179 365.5 156Q375 133 375 106Q375 79 365.5 56Q356 33 339 16Q322 -1 299 -10.5Q276 -20 248 -20Q220 -20 197 -10.5Q174 -1 157.5 16Q141 33 132 56Q123 79 123 106Z" glyph-name="exclam" horiz-adv-x="492" unicode="!" /><glyph d="M293 659Q297 610 301.5 544.5Q306 479 310 403Q314 327 317.5 244Q321 161 323 78.5Q325 -4 326.5 -83.5Q328 -163 328 -231V-471H168V-231Q168 -163 169.5 -83.5Q171 -4 173 78.5Q175 161 178.5 244Q182 327 185.5 403Q189 479 193.5 544.5Q198 610 203 659ZM373 918Q373 891 363 868Q353 845 336 828.5Q319 812 296.5 802.5Q274 793 248 793Q220 793 197 802.5Q174 812 157 828.5Q140 845 130.5 868Q121 891 121 918Q121 945 130.5 968Q140 991 157 1008Q174 1025 197 1034.5Q220 1044 248 1044Q276 1044 299 1034.5Q322 1025 338.5 1008Q355 991 364 968Q373 945 373 918Z" glyph-name="exclamdown" horiz-adv-x="492" unicode="&#161;" /><glyph d="M66 1024H242V1104Q242 1218 260.5 1293.5Q279 1369 323.5 1414Q368 1459 443 1477Q518 1495 631 1495H645V1350Q564 1350 515.5 1340.5Q467 1331 441.5 1304Q416 1277 408.5 1228.5Q401 1180 401 1102V1024H645V881H401V0H242V881H66Z" glyph-name="f" horiz-adv-x="721" unicode="f" /><glyph d="M66 1024H242V1104Q242 1218 260.5 1293.5Q279 1369 323.5 1414Q368 1459 443 1477Q518 1495 631 1495H645V1350Q564 1350 515.5 1340.5Q467 1331 441.5 1304Q416 1277 408.5 1228.5Q401 1180 401 1102V1024H645V881H401V0H242V881H66ZM858 1024H1018V0H858ZM813 1362Q813 1389 822.5 1412Q832 1435 849 1451.5Q866 1468 889 1477.5Q912 1487 938 1487Q966 1487 989 1477.5Q1012 1468 1029 1451.5Q1046 1435 1055.5 1412Q1065 1389 1065 1362Q1065 1335 1055.5 1312Q1046 1289 1029 1271.5Q1012 1254 989 1244.5Q966 1235 938 1235Q910 1235 887 1244.5Q864 1254 847.5 1271.5Q831 1289 822 1312Q813 1335 813 1362Z" glyph-name="fi" horiz-adv-x="1155" unicode="&#64257;" /><glyph d="M606 -20Q522 -20 446.5 -0.5Q371 19 308 54Q245 89 195 138.5Q145 188 111 248L260 344Q285 299 318 259.5Q351 220 393.5 191Q436 162 488.5 145.5Q541 129 606 129Q681 129 743.5 154Q806 179 851 224.5Q896 270 921 334.5Q946 399 946 477Q946 563 916 629Q886 695 837 739.5Q788 784 725.5 806.5Q663 829 598 829Q493 829 414.5 787Q336 745 285 676L125 727L240 1495H1006V1343H375L303 877Q359 922 433 949.5Q507 977 598 977Q695 977 787 946.5Q879 916 950.5 854.5Q1022 793 1065 698.5Q1108 604 1108 477Q1108 366 1071 274Q1034 182 967.5 117Q901 52 809 16Q717 -20 606 -20Z" glyph-name="five" horiz-adv-x="1204" unicode="5" /><glyph d="M74 1024H250V1104Q250 1218 268.5 1293.5Q287 1369 331.5 1414Q376 1459 451 1477Q526 1495 639 1495H653V1350Q572 1350 523.5 1340.5Q475 1331 450 1304Q425 1277 417.5 1228.5Q410 1180 410 1102V1024H653V881H410V0H250V881H74ZM786 1495H946V0H786Z" glyph-name="fl" horiz-adv-x="1073" unicode="&#64258;" /><glyph d="M229 838H557L643 1098Q679 1213 721 1289.5Q763 1366 814.5 1411.5Q866 1457 929.5 1476Q993 1495 1071 1495H1083V1350Q1032 1350 991 1338Q950 1326 916 1295.5Q882 1265 854.5 1213.5Q827 1162 803 1083L721 838H1012V696H676L578 397Q542 284 504 208Q466 132 416 85.5Q366 39 298.5 19.5Q231 0 135 0H121V147Q185 147 230 159Q275 171 308 201.5Q341 232 366.5 283.5Q392 335 418 414L510 696H229Z" glyph-name="florin" horiz-adv-x="1204" unicode="&#402;" /><glyph d="M743 344H86V492L741 1495H903V489H1118V344H903V0H743ZM743 489V1229L260 489Z" glyph-name="four" horiz-adv-x="1204" unicode="4" /><glyph d="M1135 1495H1321L242 0H55Z" glyph-name="fraction" horiz-adv-x="1372" unicode="&#8260;" /><glyph d="M623 -20Q510 -20 414 22Q318 64 247.5 136Q177 208 137.5 305Q98 402 98 512Q98 622 137 719Q176 816 245.5 888Q315 960 411.5 1002Q508 1044 623 1044Q672 1044 724.5 1031.5Q777 1019 827 995Q877 971 921.5 936Q966 901 999 856V1024H1157V18Q1157 -99 1121.5 -194.5Q1086 -290 1020 -358Q954 -426 860.5 -463Q767 -500 651 -500Q557 -500 480.5 -480Q404 -460 344.5 -423Q285 -386 241.5 -334Q198 -282 170 -217L326 -166Q344 -210 373 -245.5Q402 -281 442 -306.5Q482 -332 534 -346Q586 -360 651 -360Q735 -360 800 -332.5Q865 -305 909.5 -255.5Q954 -206 977.5 -137Q1001 -68 1001 14V170Q969 124 924.5 88.5Q880 53 829.5 29Q779 5 726 -7.5Q673 -20 623 -20ZM631 123Q713 123 783 153.5Q853 184 904.5 237Q956 290 985 360.5Q1014 431 1014 512Q1014 592 985 662.5Q956 733 904.5 786Q853 839 783 870Q713 901 631 901Q553 901 484.5 870.5Q416 840 366 787Q316 734 287 663.5Q258 593 258 512Q258 431 287 360.5Q316 290 366 237Q416 184 484.5 153.5Q553 123 631 123Z" glyph-name="g" horiz-adv-x="1296" unicode="g" /><glyph d="M-96 -319Q-26 -319 19 -305.5Q64 -292 90 -262.5Q116 -233 126.5 -186Q137 -139 137 -72V1087Q135 1178 164 1254.5Q193 1331 247 1386.5Q301 1442 378.5 1472.5Q456 1503 553 1503Q644 1503 719.5 1473Q795 1443 849.5 1390Q904 1337 934.5 1264.5Q965 1192 965 1108Q965 1005 916.5 922Q868 839 778 791Q835 767 882 730.5Q929 694 963 647Q997 600 1015.5 542.5Q1034 485 1034 418Q1034 324 1004 244.5Q974 165 917.5 107Q861 49 780.5 16.5Q700 -16 600 -16Q475 -16 399 25V176Q440 153 487.5 141Q535 129 600 129Q656 129 705.5 151.5Q755 174 792 212.5Q829 251 850.5 303.5Q872 356 872 416Q872 475 849 527Q826 579 784 618Q742 657 682 679.5Q622 702 549 702H510V850H549Q602 850 649 869Q696 888 731 922.5Q766 957 786.5 1005Q807 1053 807 1110Q807 1162 788 1209Q769 1256 735.5 1291Q702 1326 655 1347Q608 1368 551 1368Q495 1368 447.5 1350Q400 1332 364.5 1298Q329 1264 309 1215Q289 1166 289 1104V-70Q289 -177 270.5 -252.5Q252 -328 209.5 -376Q167 -424 98.5 -446.5Q30 -469 -70 -469H-96Z" glyph-name="germandbls" horiz-adv-x="1130" unicode="&#223;" /><glyph d="M270 1475H473L715 1143H567Z" glyph-name="grave" horiz-adv-x="1020" unicode="`" /><glyph d="M106 532 698 750 106 961V1104L864 817V682L106 389Z" glyph-name="greater" horiz-adv-x="969" unicode="&gt;" /><glyph d="M104 694 694 911 104 1124V1266L862 981V844L104 553ZM104 463H862V326H104Z" glyph-name="greaterequal" horiz-adv-x="969" unicode="&#8805;" /><glyph d="M133 465V559L465 797V680L231 510L465 342V227ZM485 465V559L817 797V680L584 510L817 342V227Z" glyph-name="guillemotleft" horiz-adv-x="950" unicode="&#171;" /><glyph d="M485 344 721 512 485 682V799L817 561V467L485 229ZM133 344 369 512 133 682V799L465 561V467L133 229Z" glyph-name="guillemotright" horiz-adv-x="950" unicode="&#187;" /><glyph d="M141 461V563L459 807V680L236 512L459 344V217Z" glyph-name="guilsinglleft" horiz-adv-x="598" unicode="&#8249;" /><glyph d="M141 344 362 512 141 682V809L459 565V463L141 219Z" glyph-name="guilsinglright" horiz-adv-x="598" unicode="&#8250;" /><glyph d="M139 1495H295V874Q349 952 438 998Q527 1044 643 1044Q746 1044 828.5 1011.5Q911 979 968.5 917.5Q1026 856 1056.5 768Q1087 680 1087 569V0H928V569Q928 644 908.5 705Q889 766 851 809.5Q813 853 755 877Q697 901 621 901Q551 901 491.5 875Q432 849 389 804Q346 759 321.5 698Q297 637 297 567V0H139Z" glyph-name="h" horiz-adv-x="1223" unicode="h" /><glyph d="M385 1475H578L281 1143H145ZM678 1475H870L573 1143H436Z" glyph-name="hungarumlaut" horiz-adv-x="1020" unicode="&#733;" /><glyph d="M106 582H864V442H106Z" glyph-name="hyphen" horiz-adv-x="969" unicode="-" /><glyph d="M297 1024V0H137V1024ZM92 1362Q92 1389 101.5 1412Q111 1435 128 1451.5Q145 1468 168 1477.5Q191 1487 217 1487Q245 1487 268 1477.5Q291 1468 308 1451.5Q325 1435 334.5 1412Q344 1389 344 1362Q344 1335 334.5 1312Q325 1289 308 1271.5Q291 1254 268 1244.5Q245 1235 217 1235Q189 1235 166 1244.5Q143 1254 126.5 1271.5Q110 1289 101 1312Q92 1335 92 1362Z" glyph-name="i" horiz-adv-x="434" unicode="i" /><glyph d="M297 1024V0H137V1024ZM381 1475H586L289 1143H141Z" glyph-name="iacute" horiz-adv-x="434" unicode="&#237;" /><glyph d="M297 1024V0H137V1024ZM145 1475H281L524 1143H360L213 1348L68 1143H-98Z" glyph-name="icircumflex" horiz-adv-x="434" unicode="&#238;" /><glyph d="M297 1024V0H137V1024ZM-113 1270Q-113 1294 -104 1315Q-95 1336 -79 1351.5Q-63 1367 -42.5 1375.5Q-22 1384 2 1384Q52 1384 84.5 1351.5Q117 1319 117 1270Q117 1246 108.5 1225Q100 1204 84.5 1188.5Q69 1173 48 1164Q27 1155 2 1155Q-24 1155 -45 1164Q-66 1173 -81 1188.5Q-96 1204 -104.5 1225Q-113 1246 -113 1270ZM319 1270Q319 1294 328 1315Q337 1336 353 1351.5Q369 1367 389.5 1375.5Q410 1384 434 1384Q484 1384 516.5 1351.5Q549 1319 549 1270Q549 1246 540.5 1225Q532 1204 516.5 1188.5Q501 1173 480 1164Q459 1155 434 1155Q409 1155 388 1164Q367 1173 351.5 1188.5Q336 1204 327.5 1225Q319 1246 319 1270Z" glyph-name="idieresis" horiz-adv-x="434" unicode="&#239;" /><glyph d="M297 1024V0H137V1024ZM-143 1475H59L301 1143H154Z" glyph-name="igrave" horiz-adv-x="434" unicode="&#236;" /><glyph d="M514 438Q442 438 378.5 465.5Q315 493 267 540Q219 587 191.5 650.5Q164 714 164 786Q164 858 191.5 922Q219 986 267 1033Q315 1080 378.5 1107.5Q442 1135 514 1135Q575 1135 633 1114.5Q691 1094 747.5 1060Q804 1026 858 982Q912 938 965 891Q1017 939 1071 983Q1125 1027 1180.5 1060.5Q1236 1094 1293.5 1114.5Q1351 1135 1411 1135Q1483 1135 1546.5 1107.5Q1610 1080 1657.5 1033Q1705 986 1732 922Q1759 858 1759 786Q1759 714 1732 650.5Q1705 587 1657.5 540Q1610 493 1546.5 465.5Q1483 438 1411 438Q1352 438 1294.5 459.5Q1237 481 1181 516Q1125 551 1070.5 597Q1016 643 963 692Q910 643 855.5 597Q801 551 744.5 516Q688 481 630.5 459.5Q573 438 514 438ZM516 580Q556 580 597 596.5Q638 613 681 641.5Q724 670 768 708Q812 746 858 788Q813 829 769.5 865.5Q726 902 683 929.5Q640 957 598.5 973Q557 989 516 989Q475 989 437.5 972.5Q400 956 372 927.5Q344 899 327.5 862Q311 825 311 784Q311 743 327.5 706.5Q344 670 372 641.5Q400 613 437.5 596.5Q475 580 516 580ZM1409 584Q1451 584 1488 600.5Q1525 617 1553 645.5Q1581 674 1597 710.5Q1613 747 1612 788Q1612 829 1596 866Q1580 903 1552 931.5Q1524 960 1487.5 976.5Q1451 993 1409 993Q1368 993 1327 977Q1286 961 1244 933.5Q1202 906 1159 869.5Q1116 833 1071 793Q1116 751 1160 713Q1204 675 1246.5 646.5Q1289 618 1329.5 601Q1370 584 1409 584Z" glyph-name="infinity" horiz-adv-x="1925" unicode="&#8734;" /><glyph d="M-2 -248Q79 -248 127.5 -238.5Q176 -229 201.5 -202Q227 -175 234.5 -126.5Q242 -78 242 0V1104Q242 1218 260.5 1293.5Q279 1369 323.5 1414Q368 1459 443 1477Q518 1495 631 1495H645V1350Q564 1350 515.5 1340.5Q467 1331 441.5 1304Q416 1277 408.5 1228.5Q401 1180 401 1102V0Q401 -114 382.5 -190Q364 -266 319.5 -311Q275 -356 200 -374.5Q125 -393 12 -393H-2Z" glyph-name="integral" horiz-adv-x="721" unicode="&#8747;" /><glyph d="M-109 -317Q-32 -317 16 -308.5Q64 -300 91 -274.5Q118 -249 127.5 -201.5Q137 -154 137 -76V1024H297V-78Q297 -190 278 -265Q259 -340 214.5 -385.5Q170 -431 97 -450Q24 -469 -84 -469H-109ZM92 1362Q92 1389 101.5 1412Q111 1435 128 1451.5Q145 1468 168 1477.5Q191 1487 217 1487Q245 1487 268 1477.5Q291 1468 308 1451.5Q325 1435 334.5 1412Q344 1389 344 1362Q344 1335 334.5 1312Q325 1289 308 1271.5Q291 1254 268 1244.5Q245 1235 217 1235Q189 1235 166 1244.5Q143 1254 126.5 1271.5Q110 1289 101 1312Q92 1335 92 1362Z" glyph-name="j" horiz-adv-x="434" unicode="j" /><glyph d="M502 496 295 285V0H139V1495H295V467L840 1024H1040L616 590L1042 0H858Z" glyph-name="k" horiz-adv-x="1098" unicode="k" /><glyph d="M139 1495H299V0H139Z" glyph-name="l" horiz-adv-x="438" unicode="l" /><glyph d="M106 682V817L864 1104V961L272 750L864 532V389Z" glyph-name="less" horiz-adv-x="969" unicode="&lt;" /><glyph d="M104 844V981L862 1266V1124L272 911L862 694V553ZM104 463H862V326H104Z" glyph-name="lessequal" horiz-adv-x="969" unicode="&#8804;" /><glyph d="M1004 926H57V1079H1163V416H1004Z" glyph-name="logicalnot" horiz-adv-x="1235" unicode="&#172;" /><glyph d="M68 750 846 1528 1628 745 850 -33ZM850 170 1427 748 846 1327 268 750Z" glyph-name="lozenge" horiz-adv-x="1726" unicode="&#9674;" /><glyph d="M137 1024H293V885Q344 959 427.5 1001.5Q511 1044 621 1044Q690 1044 747.5 1028.5Q805 1013 850.5 985.5Q896 958 930 920Q964 882 985 836Q1035 930 1130.5 987Q1226 1044 1356 1044Q1467 1044 1552 1012Q1637 980 1694.5 921.5Q1752 863 1782 781.5Q1812 700 1812 602V0H1653V612Q1653 676 1632 729.5Q1611 783 1572.5 821.5Q1534 860 1478.5 881.5Q1423 903 1354 903Q1291 903 1236 882Q1181 861 1140.5 821.5Q1100 782 1076.5 725Q1053 668 1053 596V0H895V631Q895 692 874.5 742.5Q854 793 816 828.5Q778 864 725 883.5Q672 903 608 903Q540 903 483 881Q426 859 384 817Q342 775 318.5 714.5Q295 654 295 578V0H137Z" glyph-name="m" horiz-adv-x="1948" unicode="m" /><glyph d="M242 1280H782V1143H242Z" glyph-name="macron" horiz-adv-x="1020" unicode="&#175;" /><glyph d="M137 1024H299V467Q299 388 321.5 324.5Q344 261 384.5 216Q425 171 481.5 147Q538 123 606 123Q676 123 735.5 149Q795 175 838 220Q881 265 905.5 326Q930 387 930 457V1024H1087V0H932V152Q878 73 790 26.5Q702 -20 588 -20Q494 -20 421 15.5Q348 51 297 106V-471H137Z" glyph-name="mu" horiz-adv-x="1225" unicode="&#181;" /><glyph d="M141 496 391 745 141 997 236 1092 485 840 735 1090 829 995 580 745 829 498 735 403 485 651 236 401Z" glyph-name="multiply" horiz-adv-x="969" unicode="&#215;" /><glyph d="M137 1024H293V872Q347 951 436 997.5Q525 1044 641 1044Q744 1044 826 1011.5Q908 979 965.5 917.5Q1023 856 1054 768Q1085 680 1085 569V0H926V569Q926 644 906.5 705Q887 766 848.5 809.5Q810 853 752.5 877Q695 901 618 901Q548 901 489 875Q430 849 387 804Q344 759 319.5 698Q295 637 295 567V0H137Z" glyph-name="n" horiz-adv-x="1219" unicode="n" /><glyph d="M365 0 717 539Q685 529 650 525.5Q615 522 580 522Q478 522 389.5 559.5Q301 597 235.5 664Q170 731 133 822Q96 913 96 1020Q96 1125 135 1215.5Q174 1306 242 1373Q310 1440 402.5 1478Q495 1516 602 1516Q712 1516 804.5 1477Q897 1438 964.5 1370.5Q1032 1303 1070 1213Q1108 1123 1108 1020Q1108 926 1078.5 836.5Q1049 747 999 678L557 0ZM604 668Q676 668 739.5 695.5Q803 723 850.5 770Q898 817 925 881Q952 945 952 1018Q952 1090 925 1154Q898 1218 850.5 1266Q803 1314 739.5 1342Q676 1370 604 1370Q532 1370 468 1342.5Q404 1315 356 1267Q308 1219 280 1155.5Q252 1092 252 1020Q252 946 280 882Q308 818 356 770.5Q404 723 468 695.5Q532 668 604 668Z" glyph-name="nine" horiz-adv-x="1204" unicode="9" /><glyph glyph-name="nonmarkingreturn" horiz-adv-x="406" /><glyph d="M662 979H864V842H594L498 645H864V510H432L369 377H223L287 510H106V645H352L449 842H106V979H516L584 1118H729Z" glyph-name="notequal" horiz-adv-x="969" unicode="&#8800;" /><glyph d="M137 1024H293V872Q347 951 436 997.5Q525 1044 641 1044Q744 1044 826 1011.5Q908 979 965.5 917.5Q1023 856 1054 768Q1085 680 1085 569V0H926V569Q926 644 906.5 705Q887 766 848.5 809.5Q810 853 752.5 877Q695 901 618 901Q548 901 489 875Q430 849 387 804Q344 759 319.5 698Q295 637 295 567V0H137ZM238 1143Q238 1199 253 1244.5Q268 1290 295 1322Q322 1354 359 1371.5Q396 1389 440 1389Q491 1389 530 1372Q569 1355 606 1333Q640 1312 671.5 1294Q703 1276 735 1276Q772 1276 793.5 1302Q815 1328 815 1382H942Q942 1325 928.5 1279.5Q915 1234 889 1202Q863 1170 825 1152.5Q787 1135 737 1135Q708 1135 682.5 1141Q657 1147 634 1157Q611 1167 590.5 1178.5Q570 1190 551 1202Q522 1219 497 1233Q472 1247 440 1247Q405 1247 385 1222Q365 1197 365 1143Z" glyph-name="ntilde" horiz-adv-x="1219" unicode="&#241;" /><glyph d="M1065 385H643V0H483V385H92V539H483V969H92V1122H483V1495H643V1122H1065V1495H1225V1122H1614V969H1225V539H1614V385H1225V0H1065ZM643 539H1065V969H643Z" glyph-name="numbersign" horiz-adv-x="1706" unicode="#" /><glyph d="M629 -20Q518 -20 421.5 21Q325 62 253 133.5Q181 205 139.5 302Q98 399 98 512Q98 625 139.5 722Q181 819 253 890.5Q325 962 421.5 1003Q518 1044 629 1044Q703 1044 771 1025.5Q839 1007 898 973Q957 939 1005.5 891Q1054 843 1088.5 784Q1123 725 1142 656Q1161 587 1161 512Q1161 437 1142 368Q1123 299 1088.5 240Q1054 181 1005.5 133Q957 85 898 51Q839 17 771 -1.5Q703 -20 629 -20ZM629 123Q707 123 775 153.5Q843 184 893.5 237Q944 290 972.5 360.5Q1001 431 1001 512Q1001 593 972.5 663.5Q944 734 893.5 787Q843 840 775 870.5Q707 901 629 901Q551 901 483 870.5Q415 840 365 787Q315 734 286.5 663.5Q258 593 258 512Q258 431 286.5 360.5Q315 290 365 237Q415 184 483 153.5Q551 123 629 123Z" glyph-name="o" horiz-adv-x="1260" unicode="o" /><glyph d="M772 1475H977L680 1143H532ZM629 -20Q518 -20 421.5 21Q325 62 253 133.5Q181 205 139.5 302Q98 399 98 512Q98 625 139.5 722Q181 819 253 890.5Q325 962 421.5 1003Q518 1044 629 1044Q703 1044 771 1025.5Q839 1007 898 973Q957 939 1005.5 891Q1054 843 1088.5 784Q1123 725 1142 656Q1161 587 1161 512Q1161 437 1142 368Q1123 299 1088.5 240Q1054 181 1005.5 133Q957 85 898 51Q839 17 771 -1.5Q703 -20 629 -20ZM629 123Q707 123 775 153.5Q843 184 893.5 237Q944 290 972.5 360.5Q1001 431 1001 512Q1001 593 972.5 663.5Q944 734 893.5 787Q843 840 775 870.5Q707 901 629 901Q551 901 483 870.5Q415 840 365 787Q315 734 286.5 663.5Q258 593 258 512Q258 431 286.5 360.5Q315 290 365 237Q415 184 483 153.5Q551 123 629 123Z" glyph-name="oacute" horiz-adv-x="1260" unicode="&#243;" /><glyph d="M629 -20Q518 -20 421.5 21Q325 62 253 133.5Q181 205 139.5 302Q98 399 98 512Q98 625 139.5 722Q181 819 253 890.5Q325 962 421.5 1003Q518 1044 629 1044Q703 1044 771 1025.5Q839 1007 898 973Q957 939 1005.5 891Q1054 843 1088.5 784Q1123 725 1142 656Q1161 587 1161 512Q1161 437 1142 368Q1123 299 1088.5 240Q1054 181 1005.5 133Q957 85 898 51Q839 17 771 -1.5Q703 -20 629 -20ZM629 123Q707 123 775 153.5Q843 184 893.5 237Q944 290 972.5 360.5Q1001 431 1001 512Q1001 593 972.5 663.5Q944 734 893.5 787Q843 840 775 870.5Q707 901 629 901Q551 901 483 870.5Q415 840 365 787Q315 734 286.5 663.5Q258 593 258 512Q258 431 286.5 360.5Q315 290 365 237Q415 184 483 153.5Q551 123 629 123ZM561 1475H696L940 1143H776L629 1348L483 1143H317Z" glyph-name="ocircumflex" horiz-adv-x="1260" unicode="&#244;" /><glyph d="M348 1257Q348 1282 357 1303Q366 1324 381.5 1339.5Q397 1355 418 1363.5Q439 1372 463 1372Q487 1372 508 1363.5Q529 1355 544.5 1339.5Q560 1324 569 1303Q578 1282 578 1257Q578 1233 569 1212.5Q560 1192 544.5 1176.5Q529 1161 508 1152Q487 1143 463 1143Q437 1143 416 1152Q395 1161 380 1176.5Q365 1192 356.5 1212.5Q348 1233 348 1257ZM694 1257Q694 1282 703 1303Q712 1324 727.5 1339.5Q743 1355 764 1363.5Q785 1372 809 1372Q833 1372 854 1363.5Q875 1355 890.5 1339.5Q906 1324 915 1303Q924 1282 924 1257Q924 1233 915 1212.5Q906 1192 890.5 1176.5Q875 1161 854 1152Q833 1143 809 1143Q783 1143 762 1152Q741 1161 726 1176.5Q711 1192 702.5 1212.5Q694 1233 694 1257ZM629 -20Q518 -20 421.5 21Q325 62 253 133.5Q181 205 139.5 302Q98 399 98 512Q98 625 139.5 722Q181 819 253 890.5Q325 962 421.5 1003Q518 1044 629 1044Q703 1044 771 1025.5Q839 1007 898 973Q957 939 1005.5 891Q1054 843 1088.5 784Q1123 725 1142 656Q1161 587 1161 512Q1161 437 1142 368Q1123 299 1088.5 240Q1054 181 1005.5 133Q957 85 898 51Q839 17 771 -1.5Q703 -20 629 -20ZM629 123Q707 123 775 153.5Q843 184 893.5 237Q944 290 972.5 360.5Q1001 431 1001 512Q1001 593 972.5 663.5Q944 734 893.5 787Q843 840 775 870.5Q707 901 629 901Q551 901 483 870.5Q415 840 365 787Q315 734 286.5 663.5Q258 593 258 512Q258 431 286.5 360.5Q315 290 365 237Q415 184 483 153.5Q551 123 629 123Z" glyph-name="odieresis" horiz-adv-x="1260" unicode="&#246;" /><glyph d="M629 -20Q518 -20 421.5 21Q325 62 253 133.5Q181 205 139.5 302Q98 399 98 512Q98 625 139.5 722Q181 819 253 890.5Q325 962 421.5 1003Q518 1044 629 1044Q701 1044 768 1026Q835 1008 893.5 975Q952 942 1000 896Q1048 850 1083 793Q1117 850 1164.5 896.5Q1212 943 1270 976Q1328 1009 1395.5 1026.5Q1463 1044 1538 1044Q1649 1044 1744.5 1006.5Q1840 969 1910.5 900.5Q1981 832 2021.5 736Q2062 640 2062 522V457H1161Q1170 382 1202 320Q1234 258 1285 213.5Q1336 169 1402.5 145Q1469 121 1546 121Q1666 121 1749 172.5Q1832 224 1882 311L2015 233Q1937 114 1821.5 47Q1706 -20 1546 -20Q1385 -20 1265 45.5Q1145 111 1079 225Q1044 169 995.5 124Q947 79 889 47Q831 15 765 -2.5Q699 -20 629 -20ZM629 123Q707 123 775 153.5Q843 184 893.5 237Q944 290 972.5 360.5Q1001 431 1001 512Q1001 593 972.5 663.5Q944 734 893.5 787Q843 840 775 870.5Q707 901 629 901Q551 901 483 870.5Q415 840 365 787Q315 734 286.5 663.5Q258 593 258 512Q258 431 286.5 360.5Q315 290 365 237Q415 184 483 153.5Q551 123 629 123ZM1538 903Q1468 903 1407 880.5Q1346 858 1298 818Q1250 778 1217 722.5Q1184 667 1169 602H1901Q1891 672 1861 727.5Q1831 783 1784.5 822Q1738 861 1675.5 882Q1613 903 1538 903Z" glyph-name="oe" horiz-adv-x="2165" unicode="&#339;" /><glyph d="M498 -444Q436 -444 385.5 -428Q335 -412 298 -384Q261 -356 241 -318.5Q221 -281 221 -238Q221 -199 235 -162Q249 -125 282.5 -87.5Q316 -50 371.5 -12Q427 26 510 66L637 -2Q559 -49 509.5 -82Q460 -115 431.5 -140.5Q403 -166 392 -186.5Q381 -207 381 -229Q381 -271 414.5 -292Q448 -313 498 -313Q548 -313 582.5 -292.5Q617 -272 649 -244L774 -330Q748 -353 716 -373.5Q684 -394 648 -410Q612 -426 573.5 -435Q535 -444 498 -444Z" glyph-name="ogonek" horiz-adv-x="1020" unicode="&#731;" /><glyph d="M629 -20Q518 -20 421.5 21Q325 62 253 133.5Q181 205 139.5 302Q98 399 98 512Q98 625 139.5 722Q181 819 253 890.5Q325 962 421.5 1003Q518 1044 629 1044Q703 1044 771 1025.5Q839 1007 898 973Q957 939 1005.5 891Q1054 843 1088.5 784Q1123 725 1142 656Q1161 587 1161 512Q1161 437 1142 368Q1123 299 1088.5 240Q1054 181 1005.5 133Q957 85 898 51Q839 17 771 -1.5Q703 -20 629 -20ZM629 123Q707 123 775 153.5Q843 184 893.5 237Q944 290 972.5 360.5Q1001 431 1001 512Q1001 593 972.5 663.5Q944 734 893.5 787Q843 840 775 870.5Q707 901 629 901Q551 901 483 870.5Q415 840 365 787Q315 734 286.5 663.5Q258 593 258 512Q258 431 286.5 360.5Q315 290 365 237Q415 184 483 153.5Q551 123 629 123ZM268 1475H471L713 1143H565Z" glyph-name="ograve" horiz-adv-x="1260" unicode="&#242;" /><glyph d="M86 154H512V1180Q496 1156 468.5 1138Q441 1120 408 1107.5Q375 1095 338.5 1089Q302 1083 268 1083H244V1249H254Q328 1249 378.5 1272.5Q429 1296 460 1332Q491 1368 504.5 1411.5Q518 1455 518 1495H672V154H1118V0H86Z" glyph-name="one" horiz-adv-x="1204" unicode="1" /><glyph d="M1303 1495H1489L410 0H223ZM1104 135Q1104 190 1124.5 234.5Q1145 279 1178 316Q1211 353 1251.5 384.5Q1292 416 1333 444Q1367 468 1398.5 490.5Q1430 513 1454 536Q1478 559 1492.5 583.5Q1507 608 1507 637Q1507 661 1498.5 681.5Q1490 702 1473 718Q1456 734 1431 743Q1406 752 1374 752Q1315 752 1276 717.5Q1237 683 1212 629L1090 690Q1128 775 1200 826Q1272 877 1374 877Q1438 877 1490 858Q1542 839 1578 806Q1614 773 1633.5 729Q1653 685 1653 635Q1653 584 1633.5 542.5Q1614 501 1583 466.5Q1552 432 1513 403Q1474 374 1434 346Q1398 322 1365 298.5Q1332 275 1306 250Q1280 225 1264.5 197Q1249 169 1249 137H1655V0H1104ZM66 768H238V1270Q229 1255 213 1242.5Q197 1230 178 1221Q159 1212 137.5 1207Q116 1202 96 1202H82V1354H88Q131 1354 160.5 1367.5Q190 1381 208 1401.5Q226 1422 234 1447Q242 1472 242 1495H381V768H545V631H66Z" glyph-name="onehalf" horiz-adv-x="1733" unicode="&#189;" /><glyph d="M1321 199H942V330L1315 864H1462V330H1587V199H1462V0H1321ZM1303 1495H1489L410 0H223ZM66 768H238V1270Q229 1255 213 1242.5Q197 1230 178 1221Q159 1212 137.5 1207Q116 1202 96 1202H82V1354H88Q131 1354 160.5 1367.5Q190 1381 208 1401.5Q226 1422 234 1447Q242 1472 242 1495H381V768H545V631H66ZM1321 330V647L1098 330Z" glyph-name="onequarter" horiz-adv-x="1653" unicode="&#188;" /><glyph d="M66 768H238V1270Q229 1255 213 1242.5Q197 1230 178 1221Q159 1212 137.5 1207Q116 1202 96 1202H82V1354H88Q131 1354 160.5 1367.5Q190 1381 208 1401.5Q226 1422 234 1447Q242 1472 242 1495H381V768H545V631H66Z" glyph-name="onesuperior" horiz-adv-x="600" unicode="&#185;" /><glyph d="M401 891Q349 891 297 911.5Q245 932 203 971.5Q161 1011 135 1068Q109 1125 109 1198Q109 1273 135.5 1330.5Q162 1388 204 1427Q246 1466 298.5 1486.5Q351 1507 403 1507Q468 1507 520.5 1484.5Q573 1462 610 1423V1495H729V903H610V977Q573 937 519.5 914Q466 891 401 891ZM424 1001Q466 1001 500.5 1017Q535 1033 560.5 1060Q586 1087 600 1123Q614 1159 614 1200Q614 1241 600 1277Q586 1313 560.5 1339.5Q535 1366 500.5 1381.5Q466 1397 424 1397Q382 1397 346 1382Q310 1367 283.5 1341Q257 1315 242 1278.5Q227 1242 227 1200Q227 1159 242 1122.5Q257 1086 283.5 1059Q310 1032 346 1016.5Q382 1001 424 1001Z" glyph-name="ordfeminine" horiz-adv-x="840" unicode="&#170;" /><glyph d="M416 891Q352 891 296 915Q240 939 198.5 980.5Q157 1022 133 1078Q109 1134 109 1198Q109 1262 133 1318.5Q157 1375 198.5 1417Q240 1459 296 1483Q352 1507 416 1507Q480 1507 536.5 1483Q593 1459 634 1417Q675 1375 699 1318.5Q723 1262 723 1198Q723 1134 699 1078Q675 1022 634 980.5Q593 939 536.5 915Q480 891 416 891ZM416 1008Q456 1008 490 1023Q524 1038 549.5 1064Q575 1090 589.5 1124.5Q604 1159 604 1198Q604 1238 589.5 1273.5Q575 1309 549.5 1335.5Q524 1362 490 1377.5Q456 1393 416 1393Q377 1393 342.5 1377.5Q308 1362 282.5 1335.5Q257 1309 242 1273.5Q227 1238 227 1198Q227 1159 242 1124.5Q257 1090 282.5 1064Q308 1038 342.5 1023Q377 1008 416 1008Z" glyph-name="ordmasculine" horiz-adv-x="831" unicode="&#186;" /><glyph d="M244 141Q176 213 137 307Q98 401 98 512Q98 625 139.5 722Q181 819 253 890.5Q325 962 421.5 1003Q518 1044 629 1044Q707 1044 779.5 1022.5Q852 1001 915 963L1020 1092L1118 1018L1010 885Q1081 814 1121 718.5Q1161 623 1161 512Q1161 437 1142 368Q1123 299 1088.5 240Q1054 181 1005.5 133Q957 85 898 51Q839 17 771 -1.5Q703 -20 629 -20Q467 -20 342 61L233 -74L133 4ZM629 123Q707 123 775 153.5Q843 184 893.5 237Q944 290 972.5 360.5Q1001 431 1001 512Q1001 584 977 648.5Q953 713 911 764L436 178Q478 152 526.5 137.5Q575 123 629 123ZM258 512Q258 440 280 376.5Q302 313 342 262L819 846Q777 872 729 886.5Q681 901 629 901Q551 901 483 870.5Q415 840 365 787Q315 734 286.5 663.5Q258 593 258 512Z" glyph-name="oslash" horiz-adv-x="1260" unicode="&#248;" /><glyph d="M629 -20Q518 -20 421.5 21Q325 62 253 133.5Q181 205 139.5 302Q98 399 98 512Q98 625 139.5 722Q181 819 253 890.5Q325 962 421.5 1003Q518 1044 629 1044Q703 1044 771 1025.5Q839 1007 898 973Q957 939 1005.5 891Q1054 843 1088.5 784Q1123 725 1142 656Q1161 587 1161 512Q1161 437 1142 368Q1123 299 1088.5 240Q1054 181 1005.5 133Q957 85 898 51Q839 17 771 -1.5Q703 -20 629 -20ZM629 123Q707 123 775 153.5Q843 184 893.5 237Q944 290 972.5 360.5Q1001 431 1001 512Q1001 593 972.5 663.5Q944 734 893.5 787Q843 840 775 870.5Q707 901 629 901Q551 901 483 870.5Q415 840 365 787Q315 734 286.5 663.5Q258 593 258 512Q258 431 286.5 360.5Q315 290 365 237Q415 184 483 153.5Q551 123 629 123ZM283 1143Q283 1199 298 1244.5Q313 1290 340 1322Q367 1354 404 1371.5Q441 1389 485 1389Q536 1389 575 1372Q614 1355 651 1333Q685 1312 716.5 1294Q748 1276 780 1276Q817 1276 838.5 1302Q860 1328 860 1382H987Q987 1325 973.5 1279.5Q960 1234 934 1202Q908 1170 870 1152.5Q832 1135 782 1135Q753 1135 727.5 1141Q702 1147 679 1157Q656 1167 635.5 1178.5Q615 1190 596 1202Q567 1219 542 1233Q517 1247 485 1247Q450 1247 430 1222Q410 1197 410 1143Z" glyph-name="otilde" horiz-adv-x="1260" unicode="&#245;" /><glyph d="M666 -20Q612 -20 558.5 -9Q505 2 456 23.5Q407 45 364.5 78Q322 111 291 156V-471H137V1024H289V856Q321 901 365 936Q409 971 459.5 995Q510 1019 563 1031.5Q616 1044 666 1044Q780 1044 876.5 1002Q973 960 1042.5 888Q1112 816 1151 719Q1190 622 1190 512Q1190 402 1150.5 305Q1111 208 1041 136Q971 64 875 22Q779 -20 666 -20ZM657 123Q735 123 803.5 153.5Q872 184 922 237Q972 290 1001 360.5Q1030 431 1030 512Q1030 593 1001 663.5Q972 734 922 787Q872 840 803.5 870.5Q735 901 657 901Q575 901 505 870Q435 839 383.5 786Q332 733 303 662.5Q274 592 274 512Q274 431 303 360.5Q332 290 383.5 237Q435 184 505 153.5Q575 123 657 123Z" glyph-name="p" horiz-adv-x="1288" unicode="p" /><glyph d="M707 618H520Q425 618 343.5 652Q262 686 202.5 745Q143 804 109.5 884.5Q76 965 76 1057Q76 1148 109.5 1228Q143 1308 202.5 1367Q262 1426 342.5 1460.5Q423 1495 518 1495H1110V0H969V1350H846V0H707Z" glyph-name="paragraph" horiz-adv-x="1235" unicode="&#182;" /><glyph d="M668 -506Q551 -425 447.5 -324Q344 -223 267 -98Q190 27 145 178Q100 329 100 512Q100 695 145 846Q190 997 267 1121Q344 1245 446.5 1346.5Q549 1448 664 1532L774 1407Q664 1330 571.5 1239.5Q479 1149 412 1040Q345 931 307.5 801Q270 671 270 514Q270 356 307.5 225.5Q345 95 412 -14.5Q479 -124 572 -214.5Q665 -305 776 -381L668 -506Z" glyph-name="parenleft" horiz-adv-x="883" unicode="(" /><glyph d="M612 512Q612 669 574.5 799Q537 929 470 1038Q403 1147 310.5 1237.5Q218 1328 109 1405L219 1530Q333 1446 435.5 1344.5Q538 1243 615 1119Q692 995 737 844Q782 693 782 510Q782 327 737 176Q692 25 615 -100Q538 -225 435 -326Q332 -427 215 -508L106 -383Q217 -307 310 -216.5Q403 -126 470 -16.5Q537 93 574.5 223.5Q612 354 612 512Z" glyph-name="parenright" horiz-adv-x="883" unicode=")" /><glyph d="M616 -10Q510 -10 417 27.5Q324 65 255 132Q186 199 146 290.5Q106 382 106 489Q106 597 145 688.5Q184 780 251.5 847.5Q319 915 408 953Q497 991 598 991Q651 991 693.5 983.5Q736 976 771 963Q806 950 834.5 932Q863 914 887 893Q848 961 791 1031.5Q734 1102 657 1176.5Q580 1251 481.5 1330Q383 1409 260 1495H504Q667 1368 785 1243Q903 1118 979.5 993.5Q1056 869 1093 743Q1130 617 1130 489Q1130 385 1091 294Q1052 203 983 135.5Q914 68 820 29Q726 -10 616 -10ZM621 135Q693 135 756.5 163Q820 191 868 239Q916 287 943.5 351.5Q971 416 971 489Q971 561 944 625Q917 689 869.5 738Q822 787 758 815.5Q694 844 621 844Q549 844 484.5 816Q420 788 371.5 739.5Q323 691 294.5 626.5Q266 562 266 489Q266 416 294.5 351.5Q323 287 371.5 239Q420 191 484.5 163Q549 135 621 135Z" glyph-name="partialdiff" horiz-adv-x="1237" unicode="&#8706;" /><glyph d="M272 1169Q272 1124 288.5 1085Q305 1046 333.5 1016.5Q362 987 400 970.5Q438 954 481 954Q524 954 562 970.5Q600 987 628 1016.5Q656 1046 672 1085Q688 1124 688 1169Q688 1214 672 1253Q656 1292 628 1320.5Q600 1349 562 1365.5Q524 1382 481 1382Q438 1382 400 1365.5Q362 1349 333.5 1320.5Q305 1292 288.5 1253Q272 1214 272 1169ZM950 326Q950 398 977 461Q1004 524 1051 571Q1098 618 1161 645Q1224 672 1296 672Q1368 672 1432 645Q1496 618 1543 571Q1590 524 1617.5 461Q1645 398 1645 326Q1645 254 1617.5 190Q1590 126 1543 79Q1496 32 1432 4.5Q1368 -23 1296 -23Q1224 -23 1161 4.5Q1098 32 1051 79Q1004 126 977 190Q950 254 950 326ZM1430 1495H1632L348 0H145ZM1090 326Q1090 281 1106 241.5Q1122 202 1150 173Q1178 144 1215.5 127.5Q1253 111 1296 111Q1339 111 1377 127.5Q1415 144 1443.5 173Q1472 202 1488.5 241.5Q1505 281 1505 326Q1505 371 1488.5 410Q1472 449 1443.5 477.5Q1415 506 1377 522.5Q1339 539 1296 539Q1253 539 1215.5 522.5Q1178 506 1150 477.5Q1122 449 1106 410Q1090 371 1090 326ZM133 1169Q133 1241 160.5 1304.5Q188 1368 235 1415Q282 1462 345.5 1489Q409 1516 481 1516Q553 1516 616 1489Q679 1462 726 1415Q773 1368 800 1304.5Q827 1241 827 1169Q827 1097 800 1033.5Q773 970 726 923Q679 876 616 848.5Q553 821 481 821Q409 821 345.5 848.5Q282 876 235 923Q188 970 160.5 1033.5Q133 1097 133 1169Z" glyph-name="percent" horiz-adv-x="1753" unicode="%" /><glyph d="M92 106Q92 133 101.5 156Q111 179 128 195.5Q145 212 168 221.5Q191 231 217 231Q245 231 268 221.5Q291 212 308 195.5Q325 179 334.5 156Q344 133 344 106Q344 79 334.5 56Q325 33 308 16Q291 -1 268 -10.5Q245 -20 217 -20Q189 -20 166 -10.5Q143 -1 126.5 16Q110 33 101 56Q92 79 92 106Z" glyph-name="period" horiz-adv-x="436" unicode="." /><glyph d="M92 512Q92 539 101.5 562Q111 585 128 601.5Q145 618 168 627.5Q191 637 217 637Q245 637 268 627.5Q291 618 308 601.5Q325 585 334.5 562Q344 539 344 512Q344 485 334.5 462Q325 439 308 421.5Q291 404 268 394.5Q245 385 217 385Q189 385 166 394.5Q143 404 126.5 421.5Q110 439 101 462Q92 485 92 512Z" glyph-name="periodcentered" horiz-adv-x="436" unicode="&#183;" /><glyph d="M1430 1495H1632L348 0H145ZM1296 -23Q1224 -23 1161 4.5Q1098 32 1051 79Q1004 126 977 190Q950 254 950 326Q950 398 977 461Q1004 524 1051 571Q1098 618 1161 645Q1224 672 1296 672Q1368 672 1432 645Q1496 618 1543 571Q1590 524 1617.5 461Q1645 398 1645 326Q1645 254 1617.5 190Q1590 126 1543 79Q1496 32 1432 4.5Q1368 -23 1296 -23ZM1296 111Q1339 111 1377 127.5Q1415 144 1443.5 173Q1472 202 1488.5 241.5Q1505 281 1505 326Q1505 371 1488.5 410Q1472 449 1443.5 477.5Q1415 506 1377 522.5Q1339 539 1296 539Q1253 539 1215.5 522.5Q1178 506 1150 477.5Q1122 449 1106 410Q1090 371 1090 326Q1090 281 1106 241.5Q1122 202 1150 173Q1178 144 1215.5 127.5Q1253 111 1296 111ZM481 821Q409 821 345.5 848.5Q282 876 235 923Q188 970 160.5 1033.5Q133 1097 133 1169Q133 1241 160.5 1304.5Q188 1368 235 1415Q282 1462 345.5 1489Q409 1516 481 1516Q553 1516 616 1489Q679 1462 726 1415Q773 1368 800 1304.5Q827 1241 827 1169Q827 1097 800 1033.5Q773 970 726 923Q679 876 616 848.5Q553 821 481 821ZM481 954Q524 954 562 970.5Q600 987 628 1016.5Q656 1046 672 1085Q688 1124 688 1169Q688 1214 672 1253Q656 1292 628 1320.5Q600 1349 562 1365.5Q524 1382 481 1382Q438 1382 400 1365.5Q362 1349 333.5 1320.5Q305 1292 288.5 1253Q272 1214 272 1169Q272 1124 288.5 1085Q305 1046 333.5 1016.5Q362 987 400 970.5Q438 954 481 954ZM2101 -23Q2029 -23 1966 4.5Q1903 32 1856 79Q1809 126 1782 190Q1755 254 1755 326Q1755 398 1782 461Q1809 524 1856 571Q1903 618 1966 645Q2029 672 2101 672Q2173 672 2236.5 645Q2300 618 2347.5 571Q2395 524 2422 461Q2449 398 2449 326Q2449 254 2422 190Q2395 126 2347.5 79Q2300 32 2236.5 4.5Q2173 -23 2101 -23ZM2101 111Q2144 111 2182 127.5Q2220 144 2248.5 173Q2277 202 2293.5 241.5Q2310 281 2310 326Q2310 371 2293.5 410Q2277 449 2248.5 477.5Q2220 506 2182 522.5Q2144 539 2101 539Q2058 539 2020.5 522.5Q1983 506 1955 477.5Q1927 449 1910.5 410Q1894 371 1894 326Q1894 281 1910.5 241.5Q1927 202 1955 173Q1983 144 2020.5 127.5Q2058 111 2101 111Z" glyph-name="perthousand" horiz-adv-x="2583" unicode="&#8240;" /><glyph d="M88 1495H1452V1339H1157V410Q1157 342 1167.5 293Q1178 244 1202 212Q1226 180 1264 165Q1302 150 1358 150H1448V0H1350Q1255 0 1188 27Q1121 54 1078.5 105.5Q1036 157 1016.5 233Q997 309 997 408V1339H516V0H356V1339H88Z" glyph-name="pi" horiz-adv-x="1538" unicode="&#960;" /><glyph d="M106 815H418V1124H553V815H864V680H553V367H418V680H106Z" glyph-name="plus" horiz-adv-x="969" unicode="+" /><glyph d="M106 1022H418V1331H553V1022H864V885H553V573H418V885H106ZM106 397H864V260H106Z" glyph-name="plusminus" horiz-adv-x="969" unicode="&#177;" /><glyph d="M88 1495H1452V1339H1182V0H1022V1339H516V0H356V1339H88Z" glyph-name="product" horiz-adv-x="1538" unicode="&#8719;" /><glyph d="M623 -20Q510 -20 414 22Q318 64 247.5 136Q177 208 137.5 305Q98 402 98 512Q98 622 137 719Q176 816 245.5 888Q315 960 411.5 1002Q508 1044 623 1044Q672 1044 724.5 1031.5Q777 1019 827 995Q877 971 921.5 936Q966 901 999 856V1024H1151V-471H997V156Q965 111 922.5 78Q880 45 831 23.5Q782 2 729 -9Q676 -20 623 -20ZM631 123Q713 123 783 153.5Q853 184 904.5 237Q956 290 985 360.5Q1014 431 1014 512Q1014 592 985 662.5Q956 733 904.5 786Q853 839 783 870Q713 901 631 901Q553 901 484.5 870.5Q416 840 366 787Q316 734 287 663.5Q258 593 258 512Q258 431 287 360.5Q316 290 366 237Q416 184 484.5 153.5Q553 123 631 123Z" glyph-name="q" horiz-adv-x="1290" unicode="q" /><glyph d="M455 387Q455 483 472 554.5Q489 626 516.5 679.5Q544 733 579 772Q614 811 650.5 843.5Q687 876 722 905Q757 934 784.5 967.5Q812 1001 829 1042Q846 1083 846 1139Q846 1191 824 1234.5Q802 1278 764 1309.5Q726 1341 674 1358.5Q622 1376 561 1376Q501 1376 454 1362Q407 1348 370 1322.5Q333 1297 304.5 1262Q276 1227 252 1186L111 1251Q138 1305 181.5 1353Q225 1401 282.5 1437.5Q340 1474 410.5 1495Q481 1516 563 1516Q658 1516 739.5 1488.5Q821 1461 880.5 1411.5Q940 1362 974 1292Q1008 1222 1008 1137Q1008 1064 990.5 1011.5Q973 959 944.5 919Q916 879 879 847Q842 815 804 783.5Q766 752 729 717.5Q692 683 663.5 637Q635 591 617.5 530.5Q600 470 600 387V369H455ZM403 106Q403 133 413 156Q423 179 440 195.5Q457 212 479.5 221.5Q502 231 528 231Q556 231 579 221.5Q602 212 619 195.5Q636 179 645.5 156Q655 133 655 106Q655 79 645.5 56Q636 33 619 16Q602 -1 579 -10.5Q556 -20 528 -20Q501 -20 478 -10.5Q455 -1 438.5 16Q422 33 412.5 56Q403 79 403 106Z" glyph-name="question" horiz-adv-x="1120" unicode="?" /><glyph d="M555 -492Q460 -492 378.5 -464.5Q297 -437 237.5 -387.5Q178 -338 144.5 -268Q111 -198 111 -113Q111 -40 128.5 12.5Q146 65 174.5 105Q203 145 239.5 177Q276 209 314.5 240.5Q353 272 389.5 306.5Q426 341 454.5 387Q483 433 500.5 493.5Q518 554 518 637V655H664V637Q664 541 647 469.5Q630 398 602.5 344.5Q575 291 540 252Q505 213 468 180.5Q431 148 396 119Q361 90 333.5 56.5Q306 23 289 -18Q272 -59 272 -115Q272 -167 293.5 -210.5Q315 -254 353.5 -285.5Q392 -317 444 -334.5Q496 -352 557 -352Q617 -352 664 -338Q711 -324 748 -298.5Q785 -273 813.5 -238Q842 -203 866 -162L1008 -227Q980 -281 936.5 -329Q893 -377 835.5 -413.5Q778 -450 707.5 -471Q637 -492 555 -492ZM590 793Q562 793 539 802.5Q516 812 499 828.5Q482 845 472.5 868Q463 891 463 918Q463 945 472.5 968Q482 991 499 1008Q516 1025 539 1034.5Q562 1044 590 1044Q618 1044 641 1034.5Q664 1025 680.5 1008Q697 991 706 968Q715 945 715 918Q715 891 705 868Q695 845 678 828.5Q661 812 638.5 802.5Q616 793 590 793Z" glyph-name="questiondown" horiz-adv-x="1120" unicode="&#191;" /><glyph d="M166 1024Q161 1043 153.5 1078.5Q146 1114 139 1156.5Q132 1199 126.5 1243Q121 1287 121 1323V1495H260V1323Q260 1288 254.5 1244.5Q249 1201 242 1158Q235 1115 227 1079Q219 1043 215 1024ZM406 1024Q401 1043 393.5 1078.5Q386 1114 378.5 1156.5Q371 1199 365.5 1243Q360 1287 360 1323V1495H500V1323Q500 1288 494.5 1244.5Q489 1201 482 1158Q475 1115 467 1079Q459 1043 455 1024Z" glyph-name="quotedbl" horiz-adv-x="618" unicode="&quot;" /><glyph d="M70 -240 156 178H309L176 -240ZM315 -240 401 178H555L422 -240Z" glyph-name="quotedblbase" horiz-adv-x="655" unicode="&#8222;" /><glyph d="M319 1077H217L88 1495H233ZM563 1077H461L334 1495H479Z" glyph-name="quotedblleft" horiz-adv-x="653" unicode="&#8220;" /><glyph d="M86 1077 172 1495H326L193 1077ZM332 1077 418 1495H571L438 1077Z" glyph-name="quotedblright" horiz-adv-x="653" unicode="&#8221;" /><glyph d="M319 1077H213L80 1495H233Z" glyph-name="quoteleft" horiz-adv-x="410" unicode="&#8216;" /><glyph d="M86 1077 172 1495H326L193 1077Z" glyph-name="quoteright" horiz-adv-x="410" unicode="&#8217;" /><glyph d="M63 -240 150 178H303L170 -240Z" glyph-name="quotesinglbase" horiz-adv-x="412" unicode="&#8218;" /><glyph d="M166 1024Q161 1043 153.5 1078.5Q146 1114 139 1156.5Q132 1199 126.5 1243Q121 1287 121 1323V1495H260V1323Q260 1288 254.5 1244.5Q249 1201 242 1158Q235 1115 227 1079Q219 1043 215 1024Z" glyph-name="quotesingle" horiz-adv-x="379" unicode="&apos;" /><glyph d="M137 1024H295V864Q341 942 421 983Q501 1024 612 1024H707V877H606Q523 877 464.5 856Q406 835 368.5 792.5Q331 750 314 684.5Q297 619 297 530V0H137Z" glyph-name="r" horiz-adv-x="797" unicode="r" /><glyph d="M289 862H92V1024H403L723 168L1333 1495H1509L811 0H621Z" glyph-name="radical" horiz-adv-x="1616" unicode="&#8730;" /><glyph d="M868 -256Q762 -256 664 -228.5Q566 -201 480.5 -151Q395 -101 325 -31Q255 39 205 124.5Q155 210 127.5 308Q100 406 100 512Q100 618 127.5 716Q155 814 205 899.5Q255 985 325 1055Q395 1125 480.5 1175Q566 1225 664 1252.5Q762 1280 868 1280Q974 1280 1072 1252.5Q1170 1225 1255.5 1175Q1341 1125 1411 1055Q1481 985 1531 899.5Q1581 814 1608.5 716Q1636 618 1636 512Q1636 406 1608.5 308Q1581 210 1531 124.5Q1481 39 1411 -31Q1341 -101 1255.5 -151Q1170 -201 1072 -228.5Q974 -256 868 -256ZM868 -115Q1000 -115 1112.5 -65.5Q1225 -16 1307.5 69.5Q1390 155 1436.5 269Q1483 383 1483 512Q1483 641 1436.5 755Q1390 869 1307.5 954.5Q1225 1040 1112.5 1089.5Q1000 1139 868 1139Q737 1139 624.5 1089.5Q512 1040 429.5 954.5Q347 869 300.5 755Q254 641 254 512Q254 383 300.5 269Q347 155 429.5 69.5Q512 -16 624.5 -65.5Q737 -115 868 -115ZM596 911H893Q962 911 1017.5 890.5Q1073 870 1111.5 835.5Q1150 801 1171 755.5Q1192 710 1192 659Q1192 616 1181.5 576.5Q1171 537 1149.5 503.5Q1128 470 1095.5 445.5Q1063 421 1020 408L1190 145H1016L799 504H870Q906 504 936 514.5Q966 525 988.5 544Q1011 563 1023.5 590.5Q1036 618 1036 653Q1036 687 1023 711.5Q1010 736 988 752Q966 768 936 775Q906 782 872 782H743V145H596Z" glyph-name="registered" horiz-adv-x="1735" unicode="&#174;" /><glyph d="M504 1135Q459 1135 419.5 1152Q380 1169 350.5 1199Q321 1229 304 1269Q287 1309 287 1354Q287 1401 304 1441.5Q321 1482 350.5 1511.5Q380 1541 419.5 1558Q459 1575 504 1575Q551 1575 591.5 1558Q632 1541 662 1511.5Q692 1482 709.5 1441.5Q727 1401 727 1354Q727 1309 709.5 1269Q692 1229 662 1199Q632 1169 591.5 1152Q551 1135 504 1135ZM504 1251Q526 1251 545.5 1259Q565 1267 579 1281Q593 1295 601.5 1313.5Q610 1332 610 1354Q610 1375 601.5 1394.5Q593 1414 579 1428.5Q565 1443 545.5 1451.5Q526 1460 504 1460Q483 1460 464.5 1451.5Q446 1443 432 1428.5Q418 1414 409.5 1394.5Q401 1375 401 1354Q401 1332 409.5 1313.5Q418 1295 432 1281Q446 1267 464.5 1259Q483 1251 504 1251Z" glyph-name="ring" horiz-adv-x="1020" unicode="&#730;" /><glyph d="M483 -20Q338 -20 228.5 26.5Q119 73 41 164L166 274Q229 200 306.5 159.5Q384 119 492 119Q552 119 598 132.5Q644 146 675 169.5Q706 193 721.5 224.5Q737 256 737 291Q737 333 712 360Q687 387 646 405Q605 423 553.5 435Q502 447 449 459Q387 474 325 493Q263 512 213 544Q163 576 131.5 625.5Q100 675 100 750Q100 807 126 861Q152 915 201 956Q250 997 320.5 1022Q391 1047 479 1047Q604 1047 705 1008Q806 969 879 889L758 791Q732 821 703 843.5Q674 866 640 881Q606 896 566.5 903.5Q527 911 479 911Q424 911 382 898.5Q340 886 312 864.5Q284 843 270 814Q256 785 256 752Q256 713 277 688.5Q298 664 335 647.5Q372 631 422.5 619Q473 607 532 592Q596 577 660 557.5Q724 538 776 505Q828 472 860.5 420.5Q893 369 893 291Q893 232 867.5 176.5Q842 121 791 77Q740 33 663 6.5Q586 -20 483 -20Z" glyph-name="s" horiz-adv-x="975" unicode="s" /><glyph d="M483 -20Q338 -20 228.5 26.5Q119 73 41 164L166 274Q229 200 306.5 159.5Q384 119 492 119Q552 119 598 132.5Q644 146 675 169.5Q706 193 721.5 224.5Q737 256 737 291Q737 333 712 360Q687 387 646 405Q605 423 553.5 435Q502 447 449 459Q387 474 325 493Q263 512 213 544Q163 576 131.5 625.5Q100 675 100 750Q100 807 126 861Q152 915 201 956Q250 997 320.5 1022Q391 1047 479 1047Q604 1047 705 1008Q806 969 879 889L758 791Q732 821 703 843.5Q674 866 640 881Q606 896 566.5 903.5Q527 911 479 911Q424 911 382 898.5Q340 886 312 864.5Q284 843 270 814Q256 785 256 752Q256 713 277 688.5Q298 664 335 647.5Q372 631 422.5 619Q473 607 532 592Q596 577 660 557.5Q724 538 776 505Q828 472 860.5 420.5Q893 369 893 291Q893 232 867.5 176.5Q842 121 791 77Q740 33 663 6.5Q586 -20 483 -20ZM162 1475H326L471 1270L618 1475H782L539 1143H406Z" glyph-name="scaron" horiz-adv-x="973" unicode="&#353;" /><glyph d="M614 -20Q503 -20 417 7.5Q331 35 271 79.5Q211 124 176.5 181.5Q142 239 133 299L293 338Q297 291 320 249.5Q343 208 384 176.5Q425 145 483.5 127Q542 109 618 109Q668 109 716.5 118.5Q765 128 803 149Q841 170 864 202.5Q887 235 887 281Q887 322 862 348Q837 374 790.5 393Q744 412 678 427Q612 442 530 461Q422 487 342.5 515Q263 543 211.5 578Q160 613 134.5 657Q109 701 109 760Q109 803 123.5 842.5Q138 882 164.5 915Q191 948 228.5 972.5Q266 997 311 1010Q254 1045 223.5 1093Q193 1141 193 1210Q193 1281 222.5 1338Q252 1395 306 1434.5Q360 1474 435 1495.5Q510 1517 602 1516Q707 1516 786 1490.5Q865 1465 920.5 1423Q976 1381 1007 1326.5Q1038 1272 1047 1214L895 1180Q888 1227 868.5 1266Q849 1305 814 1332.5Q779 1360 726 1375.5Q673 1391 600 1391Q549 1391 502.5 1381Q456 1371 420.5 1350Q385 1329 363.5 1296Q342 1263 342 1217Q342 1175 367 1148Q392 1121 438.5 1101Q485 1081 551 1065Q617 1049 698 1030Q806 1004 885.5 976Q965 948 1017 913Q1069 878 1094.5 833.5Q1120 789 1120 731Q1120 691 1105.5 652.5Q1091 614 1064.5 580Q1038 546 1001 520Q964 494 920 479Q975 447 1005.5 401Q1036 355 1036 287Q1036 216 1004.5 159Q973 102 916.5 61.5Q860 21 782.5 0Q705 -21 614 -20ZM612 582Q660 571 703 560.5Q746 550 784 539Q880 562 924.5 611Q969 660 969 719Q969 753 943.5 780.5Q918 808 871.5 830.5Q825 853 760 872Q695 891 616 909Q570 919 529 929.5Q488 940 451 952Q406 948 371 932.5Q336 917 311 893.5Q286 870 273 840.5Q260 811 260 780Q260 739 285.5 710Q311 681 357 658.5Q403 636 468 618Q533 600 612 582Z" glyph-name="section" horiz-adv-x="1237" unicode="&#167;" /><glyph d="M145 178H326L193 -240H66ZM92 850Q92 877 101.5 900Q111 923 128 939.5Q145 956 168 965.5Q191 975 217 975Q245 975 268 965.5Q291 956 308 939.5Q325 923 334.5 900Q344 877 344 850Q344 823 334.5 800Q325 777 308 759.5Q291 742 268 732.5Q245 723 217 723Q189 723 166 732.5Q143 742 126.5 759.5Q110 777 101 800Q92 823 92 850Z" glyph-name="semicolon" horiz-adv-x="436" unicode=";" /><glyph d="M938 1341H86V1495H1118V1356L496 0H322Z" glyph-name="seven" horiz-adv-x="1204" unicode="7" /><glyph d="M602 -20Q492 -20 399.5 19Q307 58 239.5 125Q172 192 134 282Q96 372 96 475Q96 569 125.5 658.5Q155 748 205 817L647 1495H840L487 956Q519 964 553 968.5Q587 973 625 973Q727 973 815 935.5Q903 898 968.5 831Q1034 764 1071 673Q1108 582 1108 475Q1108 370 1069 279.5Q1030 189 962 122.5Q894 56 801.5 18Q709 -20 602 -20ZM600 125Q672 125 736 152.5Q800 180 848 228Q896 276 924 339.5Q952 403 952 475Q952 549 924 613Q896 677 848 724.5Q800 772 736 799.5Q672 827 600 827Q528 827 464.5 799.5Q401 772 354 725Q307 678 279.5 614Q252 550 252 477Q252 405 279.5 341Q307 277 354 229Q401 181 464.5 153Q528 125 600 125Z" glyph-name="six" horiz-adv-x="1204" unicode="6" /><glyph d="M764 1495H934L225 0H55Z" glyph-name="slash" horiz-adv-x="987" unicode="/" /><glyph glyph-name="space" horiz-adv-x="406" unicode=" " /><glyph d="M123 829H317Q282 888 257.5 957.5Q233 1027 233 1120Q233 1207 265.5 1279.5Q298 1352 353.5 1404.5Q409 1457 483 1486.5Q557 1516 639 1516Q714 1516 776 1499Q838 1482 888 1452Q938 1422 978.5 1381Q1019 1340 1051 1292L913 1206Q860 1289 795.5 1328.5Q731 1368 633 1368Q588 1368 545 1350.5Q502 1333 468.5 1300.5Q435 1268 415 1222Q395 1176 395 1120Q395 1036 424.5 966Q454 896 496 829H956V700H575Q597 664 616.5 625.5Q636 587 650.5 545Q665 503 673.5 456.5Q682 410 682 358Q682 292 659 229Q706 186 748.5 155.5Q791 125 838 125Q883 125 899 149.5Q915 174 915 223V412H1077V229Q1077 155 1058 106.5Q1039 58 1006 30Q973 2 927.5 -9Q882 -20 829 -20Q797 -20 766.5 -9.5Q736 1 707 18Q678 35 650.5 58Q623 81 596 106Q553 49 489.5 14.5Q426 -20 342 -20Q282 -20 234 -3.5Q186 13 153 42.5Q120 72 102 112Q84 152 84 199Q84 246 100.5 285.5Q117 325 147 353.5Q177 382 218.5 398Q260 414 311 414Q383 414 440 389.5Q497 365 547 328V350Q547 407 535.5 455Q524 503 505 545Q486 587 461.5 625Q437 663 410 700H123ZM340 104Q399 104 440 126Q481 148 506 188Q461 229 415 257Q369 285 319 285Q274 285 249.5 259Q225 233 225 193Q225 149 257.5 126.5Q290 104 340 104Z" glyph-name="sterling" horiz-adv-x="1204" unicode="&#163;" /><glyph d="M72 164 608 776 92 1333V1495H1081V1343H293L813 774L266 154H1081V0H72Z" glyph-name="summation" horiz-adv-x="1153" unicode="&#8721;" /><glyph d="M70 1024H246V1266L406 1354V1024H647V881H406V393Q406 315 415 267Q424 219 450.5 193Q477 167 524 158.5Q571 150 647 150V0H625Q513 0 439.5 18Q366 36 323 81Q280 126 263 201.5Q246 277 246 391V881H70Z" glyph-name="t" horiz-adv-x="743" unicode="t" /><glyph d="M668 -20Q608 -20 553.5 -7Q499 6 451 29Q403 52 362.5 84Q322 116 291 154V-471H139V1495H291V862Q324 901 366 934.5Q408 968 456.5 992.5Q505 1017 559.5 1030.5Q614 1044 672 1044Q786 1044 882 1003Q978 962 1047.5 890.5Q1117 819 1155.5 723Q1194 627 1194 516Q1194 405 1154.5 307.5Q1115 210 1045 137.5Q975 65 878.5 22.5Q782 -20 668 -20ZM662 123Q745 123 813.5 155Q882 187 931.5 241Q981 295 1008.5 366.5Q1036 438 1036 516Q1036 594 1009.5 664Q983 734 934 786.5Q885 839 817 870Q749 901 666 901Q585 901 515.5 870.5Q446 840 394 787Q342 734 312.5 663.5Q283 593 283 512Q283 434 313 363Q343 292 394.5 239Q446 186 515 154.5Q584 123 662 123Z" glyph-name="thorn" horiz-adv-x="1292" unicode="&#254;" /><glyph d="M586 -18Q498 -18 424.5 -4Q351 10 289 37.5Q227 65 175.5 106Q124 147 80 201L207 305Q276 219 366.5 172Q457 125 586 125Q666 125 730.5 147.5Q795 170 840 209Q885 248 909.5 301Q934 354 934 416Q934 481 906 533.5Q878 586 829 623Q780 660 713.5 680Q647 700 571 700H426V852H571Q644 852 704 870Q764 888 807 921Q850 954 873.5 1002Q897 1050 897 1110Q897 1170 875 1218.5Q853 1267 811.5 1301Q770 1335 711 1353.5Q652 1372 578 1372Q528 1372 477 1360Q426 1348 379.5 1326Q333 1304 294.5 1273.5Q256 1243 231 1206L100 1298Q135 1343 186.5 1383Q238 1423 300.5 1452.5Q363 1482 435 1499Q507 1516 582 1516Q696 1516 784.5 1485.5Q873 1455 933 1401Q993 1347 1024 1272.5Q1055 1198 1055 1110Q1055 994 998.5 910Q942 826 840 778Q898 754 945 719.5Q992 685 1025 639.5Q1058 594 1076 538Q1094 482 1094 416Q1094 321 1059 241Q1024 161 958.5 103.5Q893 46 799 14Q705 -18 586 -18Z" glyph-name="three" horiz-adv-x="1204" unicode="3" /><glyph d="M1321 199H942V330L1315 864H1462V330H1587V199H1462V0H1321ZM1303 1495H1489L410 0H223ZM313 618Q230 618 160.5 647Q91 676 35 741L158 834Q189 790 227 770Q265 750 313 750Q344 750 370.5 759Q397 768 416.5 785Q436 802 446.5 826Q457 850 457 879Q457 909 445 932.5Q433 956 411 973Q389 990 359 999Q329 1008 293 1008H205V1143H293Q367 1143 405.5 1178Q444 1213 444 1266Q444 1318 406 1350Q368 1382 305 1382Q253 1382 219 1358.5Q185 1335 162 1294L41 1362Q78 1428 147.5 1467.5Q217 1507 305 1507Q369 1507 420 1490Q471 1473 507 1442Q543 1411 562.5 1366.5Q582 1322 582 1268Q582 1206 554.5 1158Q527 1110 477 1079Q534 1048 567 998Q600 948 600 879Q600 823 581 775Q562 727 525 692Q488 657 435 637.5Q382 618 313 618ZM1321 330V647L1098 330Z" glyph-name="threequarters" horiz-adv-x="1653" unicode="&#190;" /><glyph d="M313 618Q230 618 160.5 647Q91 676 35 741L158 834Q189 790 227 770Q265 750 313 750Q344 750 370.5 759Q397 768 416.5 785Q436 802 446.5 826Q457 850 457 879Q457 909 445 932.5Q433 956 411 973Q389 990 359 999Q329 1008 293 1008H205V1143H293Q367 1143 405.5 1178Q444 1213 444 1266Q444 1318 406 1350Q368 1382 305 1382Q253 1382 219 1358.5Q185 1335 162 1294L41 1362Q78 1428 147.5 1467.5Q217 1507 305 1507Q369 1507 420 1490Q471 1473 507 1442Q543 1411 562.5 1366.5Q582 1322 582 1268Q582 1206 554.5 1158Q527 1110 477 1079Q534 1048 567 998Q600 948 600 879Q600 823 581 775Q562 727 525 692Q488 657 435 637.5Q382 618 313 618Z" glyph-name="threesuperior" horiz-adv-x="657" unicode="&#179;" /><glyph d="M154 1143Q154 1199 169 1244.5Q184 1290 211 1322Q238 1354 275 1371.5Q312 1389 356 1389Q407 1389 446 1372Q485 1355 522 1333Q556 1312 587.5 1294Q619 1276 651 1276Q688 1276 709.5 1302Q731 1328 731 1382H858Q858 1325 844.5 1279.5Q831 1234 805 1202Q779 1170 741 1152.5Q703 1135 653 1135Q624 1135 598.5 1141Q573 1147 550 1157Q527 1167 506.5 1178.5Q486 1190 467 1202Q438 1219 413 1233Q388 1247 356 1247Q321 1247 301 1222Q281 1197 281 1143H154Z" glyph-name="tilde" horiz-adv-x="1020" unicode="&#732;" /><glyph d="M635 1495H743L961 1206L1188 1495H1288V901H1171V1303L961 1042L750 1305V901H635ZM272 1389H84V1495H573V1389H387V901H272Z" glyph-name="trademark" horiz-adv-x="1399" unicode="&#8482;" /><glyph d="M123 158Q123 246 158.5 320Q194 394 252 458Q310 522 383 578.5Q456 635 530 688Q599 737 665.5 785Q732 833 784.5 883Q837 933 869 986.5Q901 1040 901 1102Q901 1161 880 1210.5Q859 1260 819.5 1296Q780 1332 723.5 1352Q667 1372 596 1372Q538 1372 487.5 1356Q437 1340 394 1311Q351 1282 316 1241.5Q281 1201 256 1153L117 1227Q148 1289 197 1342Q246 1395 307.5 1433.5Q369 1472 441.5 1494Q514 1516 594 1516Q701 1516 788 1483Q875 1450 936.5 1393Q998 1336 1031.5 1260.5Q1065 1185 1065 1100Q1065 1014 1028 942Q991 870 932 808Q873 746 799 691Q725 636 651 584Q582 536 517 487.5Q452 439 402 387.5Q352 336 321.5 279.5Q291 223 291 158V154H1094V0H123Z" glyph-name="two" horiz-adv-x="1204" unicode="2" /><glyph d="M72 766Q72 820 92.5 864.5Q113 909 146 946.5Q179 984 219.5 1015Q260 1046 301 1075Q335 1099 366.5 1121.5Q398 1144 422 1167Q446 1190 460.5 1214.5Q475 1239 475 1268Q475 1316 441 1349Q407 1382 342 1382Q283 1382 244 1348Q205 1314 180 1260L57 1321Q96 1406 168 1456.5Q240 1507 342 1507Q406 1507 458 1488Q510 1469 546 1436.5Q582 1404 601.5 1360Q621 1316 621 1266Q621 1214 601.5 1173Q582 1132 551 1097.5Q520 1063 480.5 1034Q441 1005 401 977Q366 953 332.5 929.5Q299 906 273.5 881Q248 856 232.5 828Q217 800 217 768H623V631H72Z" glyph-name="twosuperior" horiz-adv-x="692" unicode="&#178;" /><glyph d="M586 -20Q474 -20 389 12.5Q304 45 247 106.5Q190 168 161.5 256Q133 344 133 455V1024H293V455Q293 380 312 319Q331 258 369.5 214.5Q408 171 465.5 147Q523 123 600 123Q670 123 729 149Q788 175 831.5 220Q875 265 899.5 326Q924 387 924 457V1024H1081V0H926V152Q872 73 784.5 26.5Q697 -20 586 -20Z" glyph-name="u" horiz-adv-x="1219" unicode="u" /><glyph d="M586 -20Q474 -20 389 12.5Q304 45 247 106.5Q190 168 161.5 256Q133 344 133 455V1024H293V455Q293 380 312 319Q331 258 369.5 214.5Q408 171 465.5 147Q523 123 600 123Q670 123 729 149Q788 175 831.5 220Q875 265 899.5 326Q924 387 924 457V1024H1081V0H926V152Q872 73 784.5 26.5Q697 -20 586 -20ZM745 1475H950L653 1143H506Z" glyph-name="uacute" horiz-adv-x="1219" unicode="&#250;" /><glyph d="M586 -20Q474 -20 389 12.5Q304 45 247 106.5Q190 168 161.5 256Q133 344 133 455V1024H293V455Q293 380 312 319Q331 258 369.5 214.5Q408 171 465.5 147Q523 123 600 123Q670 123 729 149Q788 175 831.5 220Q875 265 899.5 326Q924 387 924 457V1024H1081V0H926V152Q872 73 784.5 26.5Q697 -20 586 -20ZM530 1475H666L909 1143H745L598 1348L453 1143H287Z" glyph-name="ucircumflex" horiz-adv-x="1219" unicode="&#251;" /><glyph d="M586 -20Q474 -20 389 12.5Q304 45 247 106.5Q190 168 161.5 256Q133 344 133 455V1024H293V455Q293 380 312 319Q331 258 369.5 214.5Q408 171 465.5 147Q523 123 600 123Q670 123 729 149Q788 175 831.5 220Q875 265 899.5 326Q924 387 924 457V1024H1081V0H926V152Q872 73 784.5 26.5Q697 -20 586 -20ZM666 1251Q666 1276 675 1297Q684 1318 699.5 1333.5Q715 1349 735.5 1357.5Q756 1366 780 1366Q830 1366 862.5 1333.5Q895 1301 895 1251Q895 1227 886.5 1206.5Q878 1186 862.5 1170.5Q847 1155 826 1146Q805 1137 780 1137Q755 1137 734 1146Q713 1155 698 1170.5Q683 1186 674.5 1206.5Q666 1227 666 1251ZM319 1251Q319 1276 328 1297Q337 1318 353 1333.5Q369 1349 389.5 1357.5Q410 1366 434 1366Q484 1366 516.5 1333.5Q549 1301 549 1251Q549 1227 540.5 1206.5Q532 1186 516.5 1170.5Q501 1155 480 1146Q459 1137 434 1137Q409 1137 388 1146Q367 1155 351.5 1170.5Q336 1186 327.5 1206.5Q319 1227 319 1251Z" glyph-name="udieresis" horiz-adv-x="1219" unicode="&#252;" /><glyph d="M586 -20Q474 -20 389 12.5Q304 45 247 106.5Q190 168 161.5 256Q133 344 133 455V1024H293V455Q293 380 312 319Q331 258 369.5 214.5Q408 171 465.5 147Q523 123 600 123Q670 123 729 149Q788 175 831.5 220Q875 265 899.5 326Q924 387 924 457V1024H1081V0H926V152Q872 73 784.5 26.5Q697 -20 586 -20ZM248 1475H451L692 1143H545Z" glyph-name="ugrave" horiz-adv-x="1219" unicode="&#249;" /><glyph d="M106 -20H1069V-158H106Z" glyph-name="underscore" horiz-adv-x="1174" unicode="_" /><glyph d="M106 582H864V442H106Z" glyph-name="uni00AD" horiz-adv-x="969" unicode="&#173;" /><glyph d="M61 1024H233L541 215L844 1024H1014L616 0H459Z" glyph-name="v" horiz-adv-x="1075" unicode="v" /><glyph d="M74 1024H242L500 225L803 1024H956L1268 221L1530 1024H1696L1350 0H1196L879 805L569 0H412Z" glyph-name="w" horiz-adv-x="1769" unicode="w" /><glyph d="M446 520 61 1024H250L547 635L844 1024H1034L643 522L1051 0H856L543 401L238 0H43Z" glyph-name="x" horiz-adv-x="1092" unicode="x" /><glyph d="M504 59 61 1024H236L588 242L913 1024H1085L440 -473H272Z" glyph-name="y" horiz-adv-x="1147" unicode="y" /><glyph d="M504 59 61 1024H236L588 242L913 1024H1085L440 -473H272ZM719 1475H924L627 1143H479Z" glyph-name="yacute" horiz-adv-x="1147" unicode="&#253;" /><glyph d="M504 59 61 1024H236L588 242L913 1024H1085L440 -473H272ZM637 1251Q637 1276 646 1297Q655 1318 670.5 1333.5Q686 1349 707 1357.5Q728 1366 752 1366Q801 1366 833.5 1333.5Q866 1301 866 1251Q866 1227 857.5 1206.5Q849 1186 833.5 1170.5Q818 1155 797 1146Q776 1137 752 1137Q726 1137 705 1146Q684 1155 669 1170.5Q654 1186 645.5 1206.5Q637 1227 637 1251ZM291 1251Q291 1276 300 1297Q309 1318 324.5 1333.5Q340 1349 361 1357.5Q382 1366 406 1366Q455 1366 487.5 1333.5Q520 1301 520 1251Q520 1227 511.5 1206.5Q503 1186 487.5 1170.5Q472 1155 451 1146Q430 1137 406 1137Q380 1137 359 1146Q338 1155 323 1170.5Q308 1186 299.5 1206.5Q291 1227 291 1251Z" glyph-name="ydieresis" horiz-adv-x="1147" unicode="&#255;" /><glyph d="M182 766H524V788L78 1495H256L604 940L950 1495H1128L684 791V766H1022V635H684V410H1022V279H684V0H524V279H182V410H524V635H182Z" glyph-name="yen" horiz-adv-x="1204" unicode="&#165;" /><glyph d="M102 152 791 877H121V1024H985V872L295 145H991V0H102Z" glyph-name="z" horiz-adv-x="1094" unicode="z" /><glyph d="M102 152 791 877H121V1024H985V872L295 145H991V0H102ZM250 1475H414L559 1270L707 1475H870L627 1143H494Z" glyph-name="zcaron" horiz-adv-x="1094" unicode="&#158;" /><glyph d="M600 125Q679 125 738.5 148.5Q798 172 838 214.5Q878 257 898 317.5Q918 378 918 453V1028Q918 1191 838 1280.5Q758 1370 604 1370Q525 1370 465.5 1345.5Q406 1321 366.5 1276Q327 1231 307 1168Q287 1105 287 1028V455Q287 378 306 317Q325 256 364 213Q403 170 462 147.5Q521 125 600 125ZM602 -20Q485 -20 396.5 13.5Q308 47 248 109Q188 171 157.5 258Q127 345 127 453V1028Q127 1133 161 1222.5Q195 1312 257.5 1377.5Q320 1443 407.5 1479.5Q495 1516 602 1516Q712 1516 800 1478.5Q888 1441 949.5 1375Q1011 1309 1044 1220Q1077 1131 1077 1028V453Q1077 343 1045.5 255.5Q1014 168 953 106.5Q892 45 804 12.5Q716 -20 602 -20Z" glyph-name="zero" horiz-adv-x="1204" unicode="0" /></font>
</defs>
</svg>
