<?xml version="1.0" encoding="utf-8"?>
<!-- Generator: Adobe Illustrator 19.0.0, SVG Export Plug-In . SVG Version: 6.00 Build 0)  -->
<svg version="1.1" id="Layer_1" xmlns="http://www.w3.org/2000/svg" xmlns:xlink="http://www.w3.org/1999/xlink" x="0px" y="0px"
	 viewBox="0 0 77.6 77.6" style="enable-background:new 0 0 77.6 77.6;" xml:space="preserve">
<style type="text/css">
	.st0{fill:#F05C77;}
	.st1{fill:#FFFFFF;}
</style>
<path class="st0" d="M66.2,77.6H11.4C5.1,77.6,0,72.5,0,66.2V11.4C0,5.1,5.1,0,11.4,0h54.9c6.3,0,11.4,5.1,11.4,11.4v54.9
	C77.6,72.5,72.5,77.6,66.2,77.6z"/>
<path class="st1" d="M32.7,38.4c-0.5-0.1-0.7-0.1-0.9-0.2c-3.4-0.2-3.4-0.2-3.5-3.6c0-0.1,0-0.1,0-0.2c0-1.4-0.4-3.1,0.3-4
	c0.6-0.8,2.5-0.6,4.1-0.9c0-1.3,0-2.7,0-4.2c0-6.3,3.5-9.9,9.9-9.9c1.7,0,3.5,0,5.2,0c1.1,0,1.6,0.4,1.6,1.6c-0.1,1.7-0.1,3.3,0,5
	c0,1.2-0.5,1.6-1.6,1.5c-1.2-0.1-2.4-0.2-3.6,0.1c-0.7,0.2-1.2,1-1.7,1.6c0,0,0,0.1,0,0.2c-0.4,4.5-0.4,4.5,4.1,4.5c0.5,0,1,0,1.4,0
	c1.1-0.1,1.5,0.5,1.3,1.5c-0.2,1.8-0.4,3.6-0.5,5.3c-0.1,1.1-0.6,1.6-1.7,1.5c-0.2,0-0.4,0-0.5,0c-4.1,0-4.1,0-4.1,4.2
	c0,5.3,0,10.6,0,15.9c0,1.6-0.4,2.3-2.1,2.2c-2-0.1-3.9-0.1-5.9,0c-1.3,0.1-1.8-0.5-1.7-1.8c0-6,0-12,0-18.1
	C32.7,39.9,32.7,39.2,32.7,38.4z"/>
</svg>
