<?xml version="1.0" encoding="utf-8"?>
<!-- Generator: Adobe Illustrator 19.0.0, SVG Export Plug-In . SVG Version: 6.00 Build 0)  -->
<svg version="1.1" id="Layer_1" xmlns="http://www.w3.org/2000/svg" xmlns:xlink="http://www.w3.org/1999/xlink" x="0px" y="0px"
	 viewBox="0 0 77.6 77.6" style="enable-background:new 0 0 77.6 77.6;" xml:space="preserve">
<style type="text/css">
	.st0{fill:#F05C77;}
	.st1{fill:#FFFFFF;}
</style>
<path id="XMLID_6_" class="st0" d="M66.2,77.6H11.4C5.1,77.6,0,72.5,0,66.2V11.4C0,5.1,5.1,0,11.4,0h54.9c6.3,0,11.4,5.1,11.4,11.4
	v54.9C77.6,72.5,72.5,77.6,66.2,77.6z"/>
<path id="XMLID_5_" class="st1" d="M43.6,33c0.3-0.5,0.6-0.9,0.9-1.3c1.6-1.9,3.6-3.1,6.1-3.5c2.8-0.5,5.5-0.3,8.1,0.8
	c2,0.9,3.4,2.4,4.4,4.3c0.6,1.4,1,2.8,1.2,4.3c0.3,1.6,0.3,3.3,0.3,4.9c0,5.7,0,11.4,0,17.1c0,0.5,0,0.5-0.5,0.5c-3,0-5.9,0-8.9,0
	c-0.5,0-0.5,0-0.5-0.5c0-5.2,0-10.5,0-15.7c0-1.4-0.1-2.8-0.5-4.1C54,38.6,53.3,37.5,52,37c-0.8-0.3-1.7-0.4-2.6-0.4
	c-1,0.1-1.9,0.3-2.7,0.8c-1.1,0.7-1.8,1.7-2.1,3c-0.4,1.2-0.5,2.5-0.5,3.7c0,5.2,0,10.4,0,15.6c0,0.5,0,0.5-0.5,0.5
	c-2.9,0-5.9,0-8.8,0c-0.5,0-0.5,0-0.5-0.5c0-10.2,0-20.4,0-30.5c0-0.5,0-0.5,0.5-0.5c2.9,0,5.7,0,8.6,0c0.4,0,0.4,0,0.4,0.4
	c0,1.2,0,2.3,0,3.5C43.6,32.7,43.6,32.8,43.6,33z"/>
<path id="XMLID_4_" class="st1" d="M28.1,44.5c0,5,0,10.1,0,15.1c0,0.6,0,0.6-0.6,0.6c-2.9,0-5.8,0-8.6,0c-0.5,0-0.6,0-0.6-0.6
	c0-10.1,0-20.3,0-30.4c0-0.5,0-0.5,0.5-0.5c2.9,0,5.9,0,8.8,0c0.5,0,0.5,0,0.5,0.5C28.1,34.3,28.1,39.4,28.1,44.5z"/>
<path id="XMLID_3_" class="st1" d="M23.2,24.5c-3.1,0.1-5.7-2.6-5.7-5.7c0-3,2.6-5.7,5.8-5.7c2.8,0,5.7,2.3,5.6,5.7
	C28.9,22.2,26,24.6,23.2,24.5z"/>
</svg>
