<?xml version="1.0" encoding="utf-8"?>
<!-- Generator: Adobe Illustrator 19.0.0, SVG Export Plug-In . SVG Version: 6.00 Build 0)  -->
<svg version="1.1" id="Layer_1" xmlns="http://www.w3.org/2000/svg" xmlns:xlink="http://www.w3.org/1999/xlink" x="0px" y="0px"
	 viewBox="0 0 132.5 108.9" style="enable-background:new 0 0 132.5 108.9;" xml:space="preserve">
<style type="text/css">
	.st0{fill:none;}
	.st1{fill:#FFFFFF;}
</style>
<g>
	<path class="st0" d="M23.6,74.7c0-0.1,0-0.1-0.1-0.2c-0.1,0.1-0.1,0.1-0.2,0.2C23.4,74.6,23.5,74.6,23.6,74.7z"/>
	<path class="st0" d="M79.5,40.4c-2.6-2.5-4.3-5.8-4.9-9.3c-0.4-2.5-0.2-5.1,0.5-7.5c-0.8,0.3-1.6,0.5-2.4,0.6
		c-0.7,0.1-1.3,0.2-2,0.2c-4.2,0-7.9-2.1-10.2-5.3c-2.1,0.2-4.6,0.3-7.2,0.3c-4.5,0-8.6-0.3-11.3-0.9c-1.6-0.3-3.3-0.7-5-1.2
		c-7.3-1.8-15.5-3.9-21.4,0.1c-2.7,1.8-4.6,4.7-5.1,7.9c-0.4,2.4-0.2,4.9,0.2,8c0.9,6.1,2.2,12.3,3.8,18.6c4.5,0.2,8.7,2.6,11.1,6.6
		c1.1,1.8,1.7,3.9,1.8,5.9c0.3-0.2,0.6-0.4,0.9-0.6c4.8-2.7,10.9-1,13.7,3.6c1.3,2.2,1.7,4.8,1,7.3c-0.7,2.6-2.4,4.7-4.7,6
		c-1.6,0.9-3.3,1.3-5,1.3c-1.3,0-2.6-0.3-3.9-0.8c0.1,0.8,0,1.6-0.2,2.4c-0.4,1.3-1.1,2.4-2,3.4c1,2.2,2,4.4,3.1,6.5
		c1.3,2.6,5.2,10.3,9.7,11.6c1.3,0.4,2.6,0.2,3.9-0.6c1.8-1.1,2.4-3.5,2-7.9c-0.2-2.1-0.2-2.6-0.2-2.9c0-0.2-0.1-0.8-0.2-2
		c-0.2-1.9-0.3-3.9-0.1-5.9c-0.9-0.1-1.8-0.4-2.7-0.7c-0.9-0.3-1.3-1.3-1-2.2c0.3-0.9,1.4-1.3,2.2-1c0.3,0.1,0.5,0.2,0.8,0.2
		l12.8-12.2c-0.1-0.2-0.1-0.5-0.2-0.7c-0.4-0.9,0.1-1.9,1-2.3c0.9-0.4,1.9,0.1,2.3,1c1.7,4.3,0.9,9.4-2,13c0,0,0,0,0,0l11.6-11.1
		c-0.1-0.2-0.1-0.5-0.2-0.7c-0.4-0.9,0.1-1.9,1-2.3c0.9-0.4,1.9,0.1,2.3,1c2,4.8,0.7,10.7-3.1,14.3c-2.5,2.4-5.9,3.6-9.4,3.7
		c0.2,2,0,4-0.1,5.8c-0.1,1.2-0.2,1.8-0.2,2c0.1,0.3,0,0.8-0.2,2.9c-0.4,4.4,0.2,6.9,2,7.9c1.3,0.8,2.6,1,3.9,0.6
		c4.5-1.3,8.4-9.1,9.7-11.6l0.3-0.6C85.4,74.8,90,65.5,93.8,45.2c-0.6,0.1-1.2,0.1-1.9,0.1C87.3,45.4,82.8,43.6,79.5,40.4z"/>
	<path class="st1" d="M132.5,30.2c0-0.1,0-0.2,0-0.3c0-0.1-0.1-0.2-0.1-0.3c-0.1-0.1-0.1-0.2-0.2-0.3c-0.1-0.1-0.2-0.1-0.2-0.2
		c-0.1-0.1-0.1-0.2-0.2-0.2c0,0,0,0,0,0c0,0,0,0,0,0c-1.1-0.6-3.1-1.6-5-2.6c-1.9-1-3.9-2-5-2.6c-0.8-0.5-1.9-0.1-2.3,0.7
		c-0.5,0.8-0.1,1.9,0.7,2.3c1.1,0.6,3.1,1.6,5,2.6c1.2,0.6,2.4,1.2,3.4,1.7l-1.9,3.2c-0.1-0.1-0.3-0.3-0.5-0.4l-7.6-3.9
		c-0.9-0.4-1.9-0.1-2.3,0.8c-0.4,0.9-0.1,1.9,0.8,2.3l7.6,3.9c0.1,0.1,0.2,0.1,0.4,0.1l-1.9,3.2c-0.2-0.3-0.4-0.5-0.7-0.6
		c-0.9-0.4-2.3-1.2-3.7-1.9c-1.5-0.8-3-1.6-4-2.1c-0.9-0.4-1.9,0-2.3,0.9c-0.4,0.9,0,1.9,0.9,2.3c0.9,0.4,2.3,1.2,3.7,1.9
		c1.5,0.8,3,1.6,4,2.1c0.2,0.1,0.3,0.1,0.5,0.1l-2.3,3.9l-8.6-4.6c-0.8-0.5-1.9-0.1-2.3,0.7c-0.5,0.8-0.1,1.9,0.7,2.3l8.5,4.6
		l-9.8,16.4c-2.7-2.9-8.1-9.3-11-15.7c0.4-1.9,0.8-3.9,1.2-6c3.6-1.1,6.7-3.4,8.9-6.4c2.6-3.7,3.7-8.1,2.9-12.5
		c-1.3-7.5-7.5-13.1-14.9-14.1c1.1-1.6,1.5-3.4,1.2-5.3c-0.7-4-4.6-6.7-8.7-6.1c-2,0.3-3.8,1.4-5,3.1c-0.5,0.7-0.9,1.5-1.1,2.3
		c-2.6-3.6-7.3-5.7-12.1-4.9c-3.3,0.5-6.2,2.3-8.2,5c-1.9,2.6-2.6,5.7-2.1,8.8c0.1,0.5,0.2,0.9,0.4,1.4c-1.7,0.1-3.6,0.2-5.6,0.2
		c-4.3,0-8.1-0.3-10.6-0.8c-1.5-0.3-3.2-0.7-4.9-1.1c-8-2-17-4.2-24.2,0.6C10,17,7.6,20.7,6.9,24.8c-0.5,3.2-0.1,6.3,0.2,9
		c0.9,6,2.1,12.2,3.8,18.4c-1.4,0.3-2.8,0.8-4,1.5c-3.2,1.8-5.5,4.7-6.4,8.2c-0.9,3.4-0.4,7,1.4,10c2.5,4.2,7.2,6.6,11.9,6.6
		c0.5,0,1,0,1.5-0.1c-0.3,0.5-0.5,1-0.6,1.6c-0.5,1.9-0.2,3.9,0.8,5.6c1.4,2.4,4,3.7,6.6,3.7c0.8,0,1.6-0.1,2.3-0.4
		c1,2.1,2,4.2,3,6.3c2.5,5,6.5,11.9,11.8,13.4c2.3,0.7,4.5,0.3,6.7-1c4.4-2.7,3.8-8.9,3.6-11.2c-0.1-1.2-0.2-1.8-0.2-2
		c0.1-0.3,0-0.8-0.2-2.9c-0.2-1.9-0.3-3.8-0.1-5.5c2-0.2,3.9-0.7,5.6-1.6c0.2,0.4,0.5,0.7,0.9,0.8c0.6,0.2,1.2,0.4,1.8,0.5
		c0.3,1.9,0.1,3.9,0,5.8c-0.2,2.1-0.2,2.6-0.2,2.9c0,0.2-0.1,0.8-0.2,2c-0.2,2.3-0.8,8.6,3.6,11.2c1.5,0.9,2.9,1.3,4.4,1.3
		c0.7,0,1.5-0.1,2.3-0.3c5.4-1.6,9.3-8.4,11.8-13.4l0.3-0.6c4.9-9.8,8.6-17.2,11.6-25.2c1.3,1.2,2.7,2.3,4.1,3.3
		c1.7,1.2,3.3,2.4,4.6,3.8c0,0.6,0.1,1.2,0.4,1.8l-5,8.3c-0.5,0.8-0.2,1.9,0.6,2.4c0.3,0.2,0.6,0.2,0.9,0.2c0.6,0,1.2-0.3,1.5-0.8
		l4.7-7.8c0.8,0.4,1.5,0.6,1.8,0.7c0.6,0.1,1.2,0.2,1.8,0.2c1.5,0,3-0.4,4.4-1.3c1.8-1.1,3.1-2.9,3.5-4.8c0.4-1.7-0.1-3.6-1.3-5.3
		c-0.7-1-1.5-1.8-2.5-2.5l21.8-36.4c0,0,0,0,0,0c0,0,0,0,0,0c0-0.1,0.1-0.2,0.1-0.3c0-0.1,0.1-0.2,0.1-0.3
		C132.5,30.4,132.5,30.3,132.5,30.2z M110.1,72.1c0.6,0.9,0.9,1.8,0.7,2.6c-0.2,1-0.9,2-2,2.6c-1.1,0.7-2.4,0.9-3.5,0.6
		c-0.3-0.1-0.6-0.2-0.9-0.3c-0.9-0.4-1.4-0.9-1.4-1.1c0.2-0.6,0.1-1.2-0.3-1.7c-0.1-0.2-0.3-0.3-0.4-0.4c-1.6-1.8-3.5-3.2-5.3-4.5
		c-1.8-1.3-3.5-2.5-4.9-4.1c1-3.1,2-6.5,2.9-10.1c3.4,5.8,8,11.1,10.1,13.4c0.1,0.1,0.2,0.1,0.2,0.2c0.2,0.2,0.5,0.3,0.8,0.4
		c0.8,0.1,1.6,0.5,2.4,1.1C109.2,71,109.7,71.5,110.1,72.1z M61.8,13.7c-0.4-2.2,0.1-4.4,1.5-6.2c1.4-1.9,3.5-3.2,5.9-3.6
		c0.5-0.1,1-0.1,1.4-0.1c4.3,0,8.1,3,8.8,7.2c0,0.3,0,0.5,0.1,0.8c0.1,1.2-0.1,2.4-0.5,3.6c-0.3,0.6-0.6,1.3-1,1.8
		c-1.4,1.9-3.5,3.2-5.9,3.6c-2.9,0.5-5.6-0.5-7.6-2.3c-0.9-0.9-1.7-1.9-2.2-3.1C62.1,14.8,61.9,14.3,61.8,13.7z M87.3,3.5
		c0.2,0,0.5-0.1,0.7-0.1c2,0,3.8,1.4,4.1,3.3c0.2,1-0.1,2-0.7,2.8c-0.6,0.9-1.6,1.5-2.7,1.7c-2.3,0.4-4.4-1.1-4.8-3.3
		c-0.2-1,0.1-2,0.7-2.8C85.2,4.3,86.2,3.7,87.3,3.5z M103.5,36.1c-1.4,2-3.3,3.5-5.4,4.5c-1.2,0.5-2.4,0.9-3.7,1.2
		c-0.1,0-0.1,0-0.2,0c-4.5,0.7-9.1-0.7-12.3-3.8c-2.1-2-3.5-4.6-3.9-7.4c-0.6-3.5,0.2-7,2.3-9.9c1.6-2.3,3.9-4,6.5-4.9
		c0.9-0.3,1.8-0.6,2.8-0.7c0.8-0.1,1.5-0.2,2.3-0.2c0.4,0,0.8,0.1,1.3,0.1c6.3,0.6,11.6,5.1,12.7,11.3
		C106.4,29.6,105.6,33.2,103.5,36.1z M18.3,83.8c-0.5-0.9-0.7-1.9-0.4-2.9c0.3-1,0.9-1.8,1.8-2.3c0,0,0.1,0,0.1-0.1
		c1.1-0.6,2.4-0.7,3.5-0.3c0.9,0.3,1.7,0.9,2.2,1.7c0.5,0.9,0.7,1.9,0.4,2.9c-0.1,0.3-0.2,0.5-0.3,0.7c-0.4,0.7-0.9,1.3-1.6,1.7
		c-0.4,0.2-0.8,0.3-1.2,0.4C21,86,19.2,85.3,18.3,83.8z M4.8,70.1c-1.3-2.2-1.7-4.8-1-7.3c0.7-2.6,2.4-4.7,4.8-6
		c1-0.6,2.1-0.9,3.2-1.1c0.6-0.1,1.3-0.2,1.9-0.2c0.6,0,1.1,0.1,1.7,0.2c2.9,0.5,5.6,2.1,7.2,4.8c1.3,2.2,1.7,4.8,1,7.3
		c-0.5,1.7-1.4,3.2-2.7,4.5c-0.6,0.6-1.3,1.1-2.1,1.6c-0.3,0.2-0.6,0.2-0.9,0.4C13.2,76.2,7.5,74.5,4.8,70.1z M23.5,74.4
		c0,0.1,0,0.1,0.1,0.2c-0.1,0-0.2,0-0.2,0C23.4,74.6,23.5,74.5,23.5,74.4z M27.6,75.4c-0.9-1.4-1.1-3.1-0.7-4.7
		c0.4-1.6,1.5-3,3.1-3.9c1-0.6,2.2-0.9,3.3-0.9c2.3,0,4.5,1.1,5.7,3.2c0.9,1.4,1.1,3.1,0.7,4.7c-0.4,1.6-1.5,3-3.1,3.9
		C33.4,79.5,29.4,78.4,27.6,75.4z M76.3,93L76,93.6c-1.3,2.6-5.2,10.3-9.7,11.6c-1.3,0.4-2.6,0.2-3.9-0.6c-1.8-1.1-2.4-3.5-2-7.9
		c0.2-2.1,0.2-2.6,0.2-2.9c0-0.2,0.1-0.8,0.2-2C60.9,90,61,88,60.8,86c3.5-0.1,6.9-1.4,9.4-3.7c3.8-3.6,5.1-9.5,3.1-14.3
		C73,67,72,66.6,71.1,67c-0.9,0.4-1.3,1.4-1,2.3c0.1,0.2,0.1,0.5,0.2,0.7c1.1,3.4,0.1,7.3-2.5,9.8c-2.1,2-5,3-7.9,2.8
		c-0.8,0-1.5-0.2-2.3-0.4c0.2-0.2,0.4-0.4,0.6-0.7l0.5-0.5c0,0,0,0,0,0c2.9-3.6,3.7-8.8,2-13c-0.4-0.9-1.4-1.3-2.3-1
		c-0.9,0.4-1.3,1.4-1,2.3c0.1,0.2,0.1,0.5,0.2,0.7c1,3.1,0.2,6.6-1.9,9.1c-0.2,0.2-0.4,0.5-0.6,0.7c-2.2,2.1-5.6,3.1-8.7,2.7
		c-0.5-0.1-1.1-0.2-1.6-0.3c-0.3-0.1-0.5-0.1-0.8-0.2c-0.9-0.3-1.9,0.1-2.2,1c-0.3,0.9,0.1,1.9,1,2.2c0.9,0.3,1.8,0.6,2.7,0.7
		c-0.2,2-0.1,4,0.1,5.9c0.1,1.2,0.2,1.8,0.2,2c-0.1,0.3,0,0.8,0.2,2.9c0.4,4.4-0.2,6.9-2,7.9c-1.3,0.8-2.6,1-3.9,0.6
		c-4.5-1.3-8.4-9.1-9.7-11.6c-1.1-2.2-2.1-4.3-3.1-6.5c1-0.9,1.7-2.1,2-3.4c0.2-0.8,0.3-1.6,0.2-2.4c1.2,0.5,2.5,0.8,3.9,0.8
		c1.7,0,3.4-0.4,5-1.3c2.4-1.3,4-3.4,4.7-6c0.7-2.5,0.3-5.1-1-7.3c-2.8-4.6-8.9-6.2-13.7-3.6c-0.3,0.2-0.6,0.4-0.9,0.6
		c-0.1-2.1-0.7-4.1-1.8-5.9c-2.4-4-6.7-6.4-11.1-6.6c-1.7-6.3-3-12.6-3.8-18.6c-0.4-3-0.6-5.5-0.2-8c0.5-3.2,2.4-6.1,5.1-7.9
		c5.9-4,14.1-1.9,21.4-0.1c1.7,0.4,3.4,0.9,5,1.2c2.7,0.5,6.8,0.9,11.3,0.9c2.6,0,5.1-0.1,7.2-0.3c2.3,3.2,6,5.3,10.2,5.3
		c0.7,0,1.3-0.1,2-0.2c0.8-0.1,1.7-0.3,2.4-0.6c-0.7,2.4-0.9,5-0.5,7.5c0.6,3.6,2.3,6.8,4.9,9.3c3.3,3.2,7.8,5,12.4,5
		c0.6,0,1.2-0.1,1.9-0.1C90,65.5,85.4,74.8,76.3,93z"/>
</g>
</svg>
