<?xml version="1.0" encoding="utf-8"?>
<!-- Generator: Adobe Illustrator 19.0.0, SVG Export Plug-In . SVG Version: 6.00 Build 0)  -->
<svg version="1.1" id="Layer_1" xmlns="http://www.w3.org/2000/svg" xmlns:xlink="http://www.w3.org/1999/xlink" x="0px" y="0px"
	 viewBox="0 0 84.1 98.8" style="enable-background:new 0 0 84.1 98.8;" xml:space="preserve">
<style type="text/css">
	.st0{fill:#FFFFFF;}
</style>
<g>
	<path class="st0" d="M63.9,53.3c1.1,2.6,1,5.8,0.5,8.5c-1.5,8.6-7.9,15.3-14.5,20.5c-1.8,1.4,0.7,3.9,2.5,2.5
		c7.1-5.5,13.8-12.9,15.5-22.1c0.6-3.3,0.8-7.2-0.5-10.4C66.4,50.2,63,51.2,63.9,53.3L63.9,53.3z"/>
	<path class="st0" d="M40.1,27.6c0.4-3.2,0.3-6.3-0.4-9.4c-1.3-5.6-3.9-10.4-7.8-14.6c-0.9-1-1-2.2-0.1-3.1c0.9-0.8,2.1-0.8,3,0.2
		c3,3,5.2,6.5,6.9,10.4c0.1,0.2,0.2,0.4,0.2,0.5c0.9-1.2,1.7-2.4,2.7-3.5c2.8-2.9,6.3-4.5,10.2-5.4c4.6-1.1,9.3-1.1,14-0.6
		c1.5,0.2,3.1,0.4,4.6,0.6c1.5,0.2,2.3,1.3,1.8,2.8c-2.5,7.2-6.7,13.2-13.8,16.5c-4.5,2.1-9.2,2.2-13.9,1.1
		c-1.1-0.3-2.1-0.6-3.3-0.9c0,1.8,0,3.6,0,5.4c1.5,0,3-0.1,4.5-0.7c8.4-3.3,16.2-2.2,23.5,2.9c5.3,3.7,8.5,8.8,10.4,14.8
		c2.1,6.7,1.5,13.3-0.5,19.9c-2.5,8.1-6.8,15.1-12.1,21.6c-2.6,3.2-5.5,6.2-8.6,8.8c-3.4,2.8-7.3,4.2-11.7,3.9
		c-2.5-0.1-4.9-0.8-7.2-1.8c-0.4-0.2-0.8-0.2-1.2,0c-4.1,1.9-8.4,2.5-12.8,1.2c-2.6-0.7-4.8-2.1-6.8-3.9
		C13.2,86.6,6.5,77.5,2.4,66.5c-1.8-4.8-2.7-9.8-2.4-15c0.4-6.4,2.5-12.2,6.5-17.1c4.3-5.2,10-8.4,16.7-9.3
		c3.9-0.5,7.7,0.1,11.3,1.5C36.4,27.4,38,27.7,40.1,27.6z M4.2,53.4c0,0.6,0,1.2,0,1.9c0,0.2,0,0.3,0,0.5C4.7,61,6.3,65.9,8.6,70.6
		c3.3,6.6,7.6,12.4,12.8,17.6c1.7,1.8,3.5,3.5,5.7,4.7c4.5,2.5,9,2.1,13.4-0.1c1.1-0.6,2.1-0.6,3.2,0c5.4,2.8,11,2.6,15.9-1.6
		c3.5-3.1,6.6-6.5,9.4-10.1c3.8-5,7-10.4,9.1-16.4c1.9-5.5,2.7-11.1,1.4-16.9c-1.3-5.6-3.8-10.6-8.7-14.1c-2.7-1.9-5.5-3.5-8.7-4.2
		c-3.8-0.8-7.4-0.2-11,1c-1,0.3-2,0.8-3.1,0.9c-2.7,0.2-5.3,0.3-8,0.3c-2.6,0.1-5.1-0.5-7.6-1.5c-2.2-0.9-4.7-1.1-7.1-1.1
		c-3.2,0-6.1,1.1-8.8,2.6c-2.2,1.3-4.4,2.6-6,4.6C6.2,41.3,4.1,47,4.2,53.4z M70.7,6.5C67.3,6,63.9,5.9,60.6,6.1
		c-2.9,0.2-5.8,0.7-8.4,1.9c-4.1,1.8-6.8,4.8-7.6,9.3c-0.1,0.4,0,0.6,0.4,0.8c0.9,0.3,1.8,0.6,2.7,0.9c4.5,1.3,8.8,1.3,13-0.9
		c3.4-1.8,5.9-4.5,7.9-7.7C69.3,9.1,70,7.8,70.7,6.5z"/>
</g>
</svg>
