<?xml version="1.0" encoding="utf-8"?>
<!-- Generator: Adobe Illustrator 19.0.0, SVG Export Plug-In . SVG Version: 6.00 Build 0)  -->
<svg version="1.1" id="Layer_1" xmlns="http://www.w3.org/2000/svg" xmlns:xlink="http://www.w3.org/1999/xlink" x="0px" y="0px"
	 viewBox="0 0 116.7 98.1" style="enable-background:new 0 0 116.7 98.1;" xml:space="preserve">
<style type="text/css">
	.st0{fill:#FFFFFF;}
</style>
<g>
	<g>
		<path class="st0" d="M116.7,35.6C116.7,35.6,116.7,35.6,116.7,35.6c0-0.3-0.1-0.6-0.2-0.8c0-0.1-0.1-0.1-0.1-0.2
			c-0.1-0.2-0.3-0.3-0.4-0.4c0,0-0.1-0.1-0.1-0.1l-54-30.6c-0.6-0.3-1.2-0.3-1.8,0l-7.9,4.8c1-1.9,2.4-3.7,4-5.1
			c0.7-0.6,0.8-1.7,0.2-2.5c-0.6-0.8-1.7-0.8-2.5-0.2c-3.3,2.7-5.7,6.5-6.7,10.7c0,0,0,0,0,0.1l-32,19.3c0.7-3.4,2.1-6.7,4.1-9.5
			c0.6-0.8,0.4-1.9-0.4-2.5c-0.8-0.6-1.9-0.4-2.5,0.4c-2.8,3.9-4.6,8.6-5.1,13.5c0,0.1,0,0.3,0,0.4L1,39c0,0-0.1,0.1-0.1,0.1
			c-0.2,0.1-0.3,0.3-0.4,0.4c0,0.1-0.1,0.1-0.1,0.2c-0.1,0.2-0.2,0.5-0.2,0.8c0,0,0,0,0,0v0v9.9c-0.1,0.4-0.1,0.8,0,1.2v14.1
			c0,0.6,0.3,1.2,0.9,1.5l54,30.6c0.3,0.2,0.6,0.2,0.9,0.2c0.3,0,0.6-0.1,0.9-0.3l59.1-35.5c0.5-0.3,0.9-0.9,0.9-1.5V35.6
			C116.7,35.6,116.7,35.6,116.7,35.6C116.7,35.6,116.7,35.6,116.7,35.6z M113.2,59.8L55.9,94.3L3.6,64.6v-9.8c2.9,1.8,6.4,2.8,7.6,3
			c1.1,0.2,2,1.1,2.6,2.1c0,0,0,0,0,0c0.2,0.3,0.4,0.6,0.6,0.9c0.2,0.4,0.4,0.8,0.6,1.2c0.7,1.5,1.5,3.2,2.9,4.5
			c2.5,2.3,6,2.7,9.1,3.1c0.7,0.1,1.5,0.2,2.2,0.3c1.8,0.3,4.3,2.2,5.7,3.4c1.3,1,2,1.6,2.8,1.5c4.5,1.1,15.4,10.1,17,12
			c0,0,0,0,0,0c0.2,0.2,0.4,0.3,0.6,0.4c0.1,0,0.2,0,0.2,0.1c0.1,0,0.3,0.1,0.4,0.1c0,0,0.1,0,0.1,0c0,0,0,0,0,0c0,0,0,0,0,0
			c0.2,0,0.4,0,0.6-0.1c0.1,0,0.2-0.1,0.2-0.1c0.1-0.1,0.2-0.1,0.3-0.2c0,0,0,0,0,0c0.1-0.1,0.2-0.2,0.3-0.3c0-0.1,0.1-0.1,0.1-0.2
			c0-0.1,0-0.2,0.1-0.3c0-0.1,0.1-0.3,0.1-0.4c0,0,0,0,0,0c0.1-2.2,4.4-6.7,6.9-7.1l0.6-0.1c3.2-0.6,7.2-1.3,9.1-4.5
			c0.9-1.5,1.1-3.2,1.2-4.6c0.1-1.3,0.3-2.4,0.8-3.3c1-1.5,3.2-1.9,5.6-2.4c1-0.2,2-0.4,2.9-0.6c3.3-0.9,6-2.9,8.7-4.8l0.9-0.6
			c2.6-1.9,5.5-3.7,8.5-3.9c1.3-0.1,3.1,0.2,4.8,0.5c2,0.4,3.8,0.6,5.1,0.4V59.8z M60.9,7l50.5,28.6l-0.2,0.1l-12.7,7.6
			c1-2,2.4-3.8,4.1-5.2c0.6-0.5,0.8-1.4,0.4-2.1c-0.1-0.1-0.1-0.3-0.2-0.4c-0.6-0.8-1.7-0.8-2.5-0.2c-0.3,0.2-0.6,0.5-0.8,0.8
			c-2.9,2.7-5,6.3-5.9,10.1l-28.3,17c0.8-3,2-5.6,3.7-8c0.6-0.8,0.4-1.9-0.4-2.5c-0.8-0.6-1.9-0.4-2.5,0.4c-2.6,3.6-4.2,7.7-5,12.5
			l-5.3,3.2l-11-6.3c0.6-1.7,1.4-3.3,2.2-4.4c0.6-0.8,0.4-1.9-0.4-2.5c-0.8-0.6-1.9-0.4-2.5,0.4c-0.9,1.2-1.7,2.8-2.4,4.7L17.8,47.5
			c0.9-2.1,2.2-3.8,3.2-5.3l0.5-0.7c0.4-0.6,0.4-1.3,0.1-1.9c-0.1-0.2-0.3-0.4-0.5-0.6c-0.8-0.6-1.9-0.4-2.5,0.4l-0.2,0.3l-0.3,0.4
			c-1.1,1.5-2.4,3.4-3.5,5.6l-9.4-5.3l0.2-0.1L60.9,7z M113.2,51.1c-0.3,0.1-0.5,0.2-0.7,0.4c-0.7,0.1-2.5-0.2-3.8-0.5
			c-2-0.3-4-0.7-5.7-0.6c-2.3,0.2-4.4,0.9-6.3,2c-0.1-1.3-0.1-2.6,0.2-3.9l16.3-9.8V51.1z M55.4,82.6c-2.8-2.5-7.9-6.5-12.2-9.1
			c-0.2-2.4,0.1-4.9,0.6-7.3L55,72.7c0.3,0.2,0.6,0.2,0.9,0.2c0.3,0,0.6-0.1,0.9-0.3l3.9-2.4c-0.1,2.1-0.1,4.2,0.1,6.5
			C58.7,78.2,56.6,80.4,55.4,82.6z M29.8,66.5c-0.8-0.1-1.6-0.2-2.4-0.3c-2.8-0.3-5.4-0.6-7.1-2.1c-0.9-0.9-1.5-2.1-2.2-3.4
			c-0.2-0.4-0.4-0.9-0.6-1.3c-0.2-0.3-0.4-0.6-0.5-0.9c-0.7-2.9-0.7-5.4-0.3-7.5l23.9,13.5c-0.6,2.3-1,4.8-1,7.4
			c-0.5-0.2-1-0.3-1.4-0.4c0,0,0,0,0,0c-0.2-0.2-0.6-0.4-0.9-0.7C35.4,69.2,32.6,67,29.8,66.5z M3.6,43.5l9.9,5.6
			c-0.4,1.7-0.7,3.5-0.6,5.6c-0.3-0.1-0.7-0.3-1-0.3c-2.1-0.4-6.4-2-8.2-3.9V43.5z M64.2,75.3c-0.1-2.6-0.1-5,0.2-7.2l28.6-17.2
			c0,1,0,1.9,0.2,2.9c0,0.3,0.1,0.5,0.3,0.7c-0.3,0.2-0.6,0.4-0.8,0.6l-0.9,0.7c-2.5,1.8-4.8,3.5-7.6,4.2c-0.8,0.2-1.7,0.4-2.6,0.6
			c-2.9,0.5-6.1,1.1-7.9,3.9c-1,1.5-1.2,3.3-1.4,4.8c-0.1,1.2-0.3,2.4-0.8,3.2c-1.1,1.8-4,2.3-6.7,2.8L64.2,75.3z"/>
		<path class="st0" d="M65,49.8C65.1,49.8,65.1,49.8,65,49.8c1,0,1.8-0.7,1.9-1.7c0.2-3.9,2-7.6,4.9-10.1c0.2-0.2,0.3-0.4,0.4-0.6
			c0.3-0.6,0.2-1.4-0.2-1.9c-0.6-0.7-1.8-0.8-2.5-0.2c-0.8,0.7-1.6,1.5-2.2,2.3c-2.3,2.9-3.7,6.5-3.9,10.3
			C63.3,49,64.1,49.8,65,49.8z"/>
		<path class="st0" d="M38.2,51.3c0.1,0,0.1,0,0.2,0c0.9,0,1.7-0.7,1.8-1.6c0.4-4,1.8-7.8,4-11.1c0.2-0.3,0.3-0.5,0.5-0.8
			c0.6-0.8,0.4-1.9-0.4-2.5c-0.8-0.6-1.9-0.4-2.5,0.4c-0.7,1-1.3,2-1.9,3c-1.7,3.2-2.8,6.8-3.2,10.5C36.5,50.3,37.2,51.2,38.2,51.3z
			"/>
		<path class="st0" d="M69.5,31.5c0.1,0,0.3,0.1,0.4,0.1c0.8,0,1.5-0.5,1.7-1.3c0.9-3.5,2.9-6.6,5.6-8.9c0.7-0.6,0.8-1.7,0.2-2.5
			c-0.6-0.8-1.7-0.8-2.5-0.2c-3.3,2.7-5.7,6.5-6.7,10.7C68,30.3,68.6,31.2,69.5,31.5z"/>
		<path class="st0" d="M43.9,31.7C43.9,31.7,44,31.7,43.9,31.7c1,0,1.8-0.7,1.9-1.7c0.2-3.9,2-7.6,4.9-10.1c0.7-0.6,0.8-1.8,0.2-2.5
			c-0.6-0.7-1.8-0.8-2.5-0.2c-3.7,3.1-5.9,7.7-6.2,12.6C42.2,30.8,42.9,31.6,43.9,31.7z"/>
	</g>
</g>
</svg>
