<?xml version="1.0" encoding="utf-8"?>
<!-- Generator: Adobe Illustrator 19.2.0, SVG Export Plug-In . SVG Version: 6.00 Build 0)  -->
<svg version="1.1" id="Layer_1" xmlns="http://www.w3.org/2000/svg" xmlns:xlink="http://www.w3.org/1999/xlink" x="0px" y="0px"
	 viewBox="0 0 618.3 510.8" style="enable-background:new 0 0 618.3 510.8;" xml:space="preserve">
<style type="text/css">
	.st0{fill:#76D0EB;}
	.st1{fill:#F3F3F4;}
	.st2{fill:none;stroke:#F3F3F4;stroke-width:55.5589;stroke-miterlimit:10;}
	.st3{fill:#F5B1C6;}
	.st4{fill:#11254A;}
	.st5{fill:#F16574;}
	.st6{fill:#F7B2C7;}
	.st7{fill:#13264A;}
	.st8{fill:#12254A;}
	.st9{fill:none;stroke:#11254A;stroke-width:2.1486;stroke-miterlimit:10;}
	.st10{fill:#FEF04E;}
	.st11{fill:#51C8EB;}
	.st12{fill:#5CC1A0;}
	.st13{fill:none;}
</style>
<g>
	<polygon class="st0" points="347.4,513.9 344.4,215.2 283.2,217.1 276.7,513.9 	"/>
	<polygon class="st1" points="413.6,215 383,215 377.1,215 364.5,215 344.4,215.2 347.4,513.9 377.3,513.9 442.8,513.9 	"/>
	<path class="st1" d="M222.5,218.2c-15.5,4.1-36,8.6-49.4,17.7c-15.4,10.4-42.2,40.4-53,57s27.6,67.3,24.4,85.6
		s11.9,96.1,32.4,135.2h72v0.2h27.8l6.5-296.8C283.2,217.1,248,214.5,222.5,218.2z"/>
</g>
<path class="st2" d="M364.7,242.7H420l0,0c42,0,75.8,35.3,74.7,78.2l-0.4,15.3c-0.9,36.8-27.6,67.7-63.3,73.4l-50.4,8"/>
<g>
	<path class="st3" d="M283.2,217.1c0,0,8-1.3,8-12.6v-11.4c0-7.2-4.7-10.2-4.7-10.2l0,0c-12.6-8.9-22.1-23.3-22.1-39V66.2
		c0-27.6,22.6-50.2,50.2-50.3c27.6,0,50.2,22.6,50.2,50.2v77.7c0,15.7-9.5,30-22.1,39l0,0c0,0-5.7,2.1-5.7,9.3v11.4
		c0,0-1.1,10,7.4,11.7C344.4,215.2,318.1,248.3,283.2,217.1z"/>
	<g>
		<path id="XMLID_27_" class="st4" d="M292.2,130.7c2.9,0,5.3-2.4,5.3-5.3c0-2.9-2.4-5.3-5.3-5.3s-5.3,2.4-5.3,5.3
			C286.8,128.3,289.2,130.7,292.2,130.7"/>
		<path id="XMLID_26_" class="st4" d="M334.7,130.7c2.9,0,5.3-2.4,5.3-5.3c0-2.9-2.4-5.3-5.3-5.3s-5.3,2.4-5.3,5.3
			C329.4,128.3,331.8,130.7,334.7,130.7"/>
	</g>
	<path id="XMLID_24_" class="st5" d="M364.7,91.5c0-15.1-16.3-30.7-16.3-30.7S342.6,78,322.1,85c-22.4,7.7-57.3-1.8-57.3,20.5
		l0.1,31.6c-26.3,0-26-40.7-26-40.7c0-53.5,32.4-86.2,75.7-86.2l0,0l0,0l0,0l0,0c43.3,0,75.7,32.7,75.7,86.2
		c0,40.3-25.5,40.7-25.5,40.7L364.7,91.5z"/>
</g>
<path class="st6" d="M368.5,410v-0.1c-3.9,0-7.1-3.2-7.1-7.1s3.2-7.1,7.1-7.1l0,0c5.4,0,3.2,0,12.1,0h0.1l0,0c5.5,0,9.9-4.4,9.9-9.9
	v-10.3c0-8.2,3.3-14.9,11.5-14.9l3.4,20.5c0,0,1.5,15.8,12.7,15.8h5h1.2v21.2v7.7l-1.7,0.1c-16.9,0-17,9.8-30.4,9.8l-21.2,0.2h-1
	c-3.2,0-5.7-2.6-5.7-5.7c0-3.2,2.6-5.7,5.7-5.7h-1.4c-3.9,0-7.1-3.2-7.1-7.1C361.4,413.1,364.5,410,368.5,410z"/>
<path class="st6" d="M370.6,423.6v-0.1c-3.4,0-6.2-2.8-6.2-6.2c0-3.4,2.8-6.2,6.2-6.2l0,0c4.8,0,2.8,0,10.6,0h0.1l0,0
	c4.8,0,8.7-3.9,8.7-8.7v-9c0-7.2,2.9-13.1,10.1-13.1l3,18c0,0,1.3,13.8,11.1,13.8h4.4h6v25.3l-6.4,0.1c-14.9,0-14.9,8.6-26.7,8.6
	l-18.6,0.2H372c-2.8,0-5-2.3-5-5c0-2.8,2.3-5,5-5h-1.2c-3.4,0-6.2-2.8-6.2-6.2C364.3,426.4,367.1,423.6,370.6,423.6z"/>
<g>
	<rect id="XMLID_23_" x="378.9" y="215" class="st7" width="5.8" height="50.6"/>
	<g id="XMLID_22_">
		<path class="st8" d="M395.6,338.4c-0.1,0-0.2,0-0.4,0c-1.6-0.2-2.7-1.7-2.5-3.2L399,287c-0.1-9.4-7.7-17-17.1-17
			s-17,7.6-17.1,16.9l6.2,48.2c0.2,1.6-0.9,3-2.5,3.2s-3-0.9-3.2-2.5l-6.2-48.3c0-0.1,0-0.2,0-0.4c0-12.6,10.3-22.9,22.9-22.9
			s22.9,10.3,22.9,22.9c0,0.1,0,0.2,0,0.4l-6.2,48.3C398.3,337.4,397.1,338.4,395.6,338.4z"/>
		<path class="st5" d="M376.9,345.4c-6.6,0-12-5.4-12-12c0-1.6,1.3-2.9,2.9-2.9s2.9,1.3,2.9,2.9c0,3.4,2.8,6.2,6.2,6.2
			c1.6,0,2.9,1.3,2.9,2.9S378.5,345.4,376.9,345.4z"/>
		<path class="st5" d="M386.8,345.4c-1.6,0-2.9-1.3-2.9-2.9s1.3-2.9,2.9-2.9c3.4,0,6.2-2.8,6.2-6.2c0-1.6,1.3-2.9,2.9-2.9
			s2.9,1.3,2.9,2.9C398.8,340,393.4,345.4,386.8,345.4z"/>
	</g>
</g>
<g>
	<path class="st8" d="M245.8,293.8c-7.3,0-13.3-6-13.3-13.3s6-13.3,13.3-13.3s13.3,6,13.3,13.3S253.1,293.8,245.8,293.8z
		 M245.8,273.1c-4.1,0-7.4,3.3-7.4,7.4s3.3,7.4,7.4,7.4c4.1,0,7.4-3.3,7.4-7.4S249.9,273.1,245.8,273.1z"/>
	<polygon id="XMLID_21_" class="st7" points="248.8,270.5 242.9,270.5 242.7,216.5 248.6,216.5 	"/>
</g>
<g>
	<path class="st8" d="M313.7,163.3c-1,0-1.9,0-3-0.1c-0.2,0-0.3,0-0.5,0h-0.3c-0.7-0.1-1.4-0.1-2.2-0.2c-0.2,0-0.5-0.1-0.7-0.1h-0.2
		c-0.7-0.1-1.3-0.2-2-0.3c-0.3-0.1-0.6-0.1-0.9-0.2c-0.7-0.1-1.4-0.3-2-0.5c0,0-0.6-0.2-0.8-0.2c-0.8-0.2-1.5-0.4-2.3-0.7l-0.4-0.1
		c-1.7-0.6-3.3-1.2-4.9-1.9l-0.1-0.1c-1.1-0.5-2-1-2.9-1.4l2.8-5.1c3.1,1.7,6.3,3,9.7,3.8h0.1l0,0c2.7,0.7,5.6,1.1,8.5,1.3
		c0.7,0,1.4,0.1,2.1,0.1c0.9,0,1.8,0,2.7-0.1c0.5,0,1-0.1,1.5-0.1l0.6-0.1c0.2,0,0.3,0,0.5,0c0.8-0.1,1.6-0.2,2.4-0.4h0.1
		c0.8-0.1,1.6-0.3,2.3-0.5c3.6-0.9,7-2.2,10.2-3.9l2.8,5.1c-0.9,0.5-1.8,0.9-2.9,1.4l-0.1,0.1l0,0c-1.6,0.7-3.2,1.4-4.9,1.9
		l-0.4,0.1c-0.8,0.2-1.5,0.5-2.3,0.7c-0.2,0-0.8,0.2-0.8,0.2c-0.7,0.2-1.3,0.3-2,0.5c-0.3,0.1-0.6,0.1-0.9,0.2
		c-0.7,0.1-1.3,0.2-2,0.3h-0.2c-0.2,0-0.5,0.1-0.7,0.1c-0.7,0.1-1.4,0.2-2.2,0.2c0,0-0.6,0.1-0.8,0.1
		C315.6,163.3,314.7,163.3,313.7,163.3L313.7,163.3z"/>
</g>
<g>
	<g>
		<path class="st6" d="M288.6,463.4H24.3c-11.5,0-20.9-9.4-20.9-20.9V302.1c0-11.5,9.4-20.9,20.9-20.9h264.4
			c11.5,0,20.9,9.4,20.9,20.9v140.3C309.5,454,300.1,463.4,288.6,463.4"/>
		<path class="st6" d="M208.7,504.5c-17.4,0-18.2-23.4-18.2-29.7V451v-4.2h-63.3v4.2v23.7c0,6.3-0.8,29.7-18.2,29.7H91.5v4.2v0.9
			v4.2h67.3h67.3v-4.2v-0.9v-4.2h-17.4L208.7,504.5L208.7,504.5z"/>
		<circle class="st9" cx="158.9" cy="452.3" r="5.7"/>
		<rect x="26.9" y="302.9" class="st10" width="259.9" height="136.7"/>
	</g>
</g>
<polygon class="st1" points="426.4,445.6 418.4,384.2 445.1,393.6 "/>
<rect x="32.1" y="169.7" transform="matrix(0.7071 -0.7071 0.7071 0.7071 -114.2107 81.1878)" class="st8" width="17.6" height="17.6"/>
<rect x="132.1" y="51.7" transform="matrix(0.7071 -0.7071 0.7071 0.7071 -1.4839 117.3382)" class="st10" width="17.6" height="17.6"/>
<rect x="474.5" y="143.7" transform="matrix(0.7071 -0.7071 0.7071 0.7071 33.7199 386.406)" class="st11" width="17.6" height="17.6"/>
<rect x="7" y="27.7" transform="matrix(0.7071 -0.7071 0.7071 0.7071 -21.1681 21.8567)" class="st12" width="17.6" height="17.6"/>
<g id="XMLID_6_">
	<g id="XMLID_9_">
		<path id="XMLID_10_" class="st8" d="M182.6,393.9c-6.9,3.8-14.9,6-23.4,6c-5.2,0-10.1-0.8-14.8-2.3l37.9-55.9
			c0.2-0.3,0.3-0.6,0.3-0.9v-0.1v-5.3l0,0l0,0l-46.7-0.1v7.2h36.8l-36.5,53.9c-0.2,0.3-0.3,0.6-0.3,0.9v0.1l0,0v4.5
			c7.1,3.3,15,5.1,23.3,5.1c9.8,0,18.9-2.5,26.9-6.9L182.6,393.9z"/>
	</g>
	<path id="XMLID_8_" class="st8" d="M137.6,374.8c3,0,5.4-2.4,5.4-5.4s-2.4-5.4-5.4-5.4s-5.4,2.4-5.4,5.4
		C132.2,372.4,134.6,374.8,137.6,374.8"/>
	
		<rect id="XMLID_7_" x="178.9" y="364.1" transform="matrix(1.244587e-03 -1 1 1.244587e-03 -188.9895 549.7158)" class="st8" width="3.6" height="10.8"/>
</g>
<rect class="st13" width="618.3" height="510.8"/>
</svg>
