<?xml version="1.0" standalone="no"?><!DOCTYPE svg PUBLIC "-//W3C//DTD SVG 1.1//EN" "http://www.w3.org/Graphics/SVG/1.1/DTD/svg11.dtd" ><svg version="1.1" xmlns="http://www.w3.org/2000/svg"><defs><font horiz-adv-x="0" id="font"><font-face ascent="2048" bbox="-178 -524 2419 2021" cap-height="1434" descent="-512" font-family="Sharp Sans Zoc Doc" font-stretch="normal" font-style="normal" font-weight="600" units-per-em="2048" x-height="1012" /><missing-glyph d="M205 1495H1692V0H205ZM365 154H1532V1341H365ZM565 442 858 748 561 1059 655 1153 950 844 1245 1153 1339 1059 1042 748 1331 446 1237 352 950 651 659 348Z" horiz-adv-x="1896" /><glyph glyph-name=".null" horiz-adv-x="0" /><glyph d="M559 1495H846L1376 0H1079L989 260H416L326 0H29ZM510 532H895L702 1090Z" glyph-name="A" horiz-adv-x="1405" unicode="A" /><glyph d="M705 1495H1845V1223H1063L1149 887H1845V614H1219L1305 272H1845V0H1075L1012 258H436L322 0H25ZM555 522H946L807 1087Z" glyph-name="AE" horiz-adv-x="1911" unicode="&#198;" /><glyph d="M559 1495H846L1376 0H1079L989 260H416L326 0H29ZM510 532H895L702 1090ZM842 1946H1104L797 1597H608Z" glyph-name="Aacute" horiz-adv-x="1405" unicode="&#193;" /><glyph d="M559 1495H846L1376 0H1079L989 260H416L326 0H29ZM614 1946H788L1032 1597H821L700 1778L582 1597H371ZM510 532H895L702 1090Z" glyph-name="Acircumflex" horiz-adv-x="1405" unicode="&#194;" /><glyph d="M559 1495H846L1376 0H1079L989 260H416L326 0H29ZM510 532H895L702 1090ZM328 1733Q328 1807 372.5 1852.5Q417 1898 492 1898Q529 1898 559 1886Q589 1874 611 1852Q633 1830 645 1800Q657 1770 657 1733Q657 1658 611.5 1613.5Q566 1569 492 1569Q417 1569 372.5 1613.5Q328 1658 328 1733ZM750 1733Q750 1807 794.5 1852.5Q839 1898 913 1898Q950 1898 980.5 1886Q1011 1874 1033 1852Q1055 1830 1067 1800Q1079 1770 1079 1733Q1079 1658 1033.5 1613.5Q988 1569 913 1569Q839 1569 794.5 1613.5Q750 1658 750 1733Z" glyph-name="Adieresis" horiz-adv-x="1405" unicode="&#196;" /><glyph d="M559 1495H846L1376 0H1079L989 260H416L326 0H29ZM510 532H895L702 1090ZM307 1946H569L803 1597H614Z" glyph-name="Agrave" horiz-adv-x="1405" unicode="&#192;" /><glyph d="M559 1495H846L1376 0H1079L989 260H416L326 0H29ZM709 1579Q664 1579 624 1596Q584 1613 554 1643Q524 1673 506.5 1713Q489 1753 489 1798Q489 1845 506.5 1885.5Q524 1926 554 1956Q584 1986 624 2003.5Q664 2021 709 2021Q756 2021 796.5 2003.5Q837 1986 867 1956Q897 1926 914.5 1885.5Q932 1845 932 1798Q932 1753 914.5 1713Q897 1673 867 1643Q837 1613 796.5 1596Q756 1579 709 1579ZM510 532H895L702 1090ZM709 1702Q729 1702 747 1710Q765 1718 779 1731Q793 1744 801 1761.5Q809 1779 809 1798Q809 1818 801 1836Q793 1854 779 1868Q765 1882 747 1890Q729 1898 709 1898Q689 1898 671.5 1890Q654 1882 641 1868Q628 1854 620 1836Q612 1818 612 1798Q612 1779 620 1761.5Q628 1744 641 1731Q654 1718 671.5 1710Q689 1702 709 1702Z" glyph-name="Aring" horiz-adv-x="1405" unicode="&#197;" /><glyph d="M559 1495H846L1376 0H1079L989 260H416L326 0H29ZM354 1597Q354 1659 368.5 1710Q383 1761 411 1797.5Q439 1834 478.5 1854Q518 1874 569 1874Q620 1874 657 1858.5Q694 1843 725 1825Q754 1806 779.5 1791Q805 1776 831 1776Q859 1776 873 1797.5Q887 1819 887 1866H1049Q1049 1803 1035.5 1752Q1022 1701 995 1664.5Q968 1628 928 1608.5Q888 1589 834 1589Q804 1589 778.5 1595Q753 1601 731.5 1610Q710 1619 691 1630Q672 1641 655 1651Q632 1665 611.5 1675.5Q591 1686 569 1686Q541 1686 528.5 1665Q516 1644 516 1597ZM510 532H895L702 1090Z" glyph-name="Atilde" horiz-adv-x="1405" unicode="&#195;" /><glyph d="M82 1495H549Q673 1495 770.5 1468Q868 1441 935.5 1387.5Q1003 1334 1038 1255.5Q1073 1177 1073 1075Q1073 981 1032.5 907.5Q992 834 911 786Q1015 738 1070.5 653Q1126 568 1126 444Q1126 333 1088.5 249.5Q1051 166 981.5 110.5Q912 55 812 27.5Q712 0 588 0H82ZM367 635V262H588Q713 262 776.5 311Q840 360 840 451Q840 496 827.5 530.5Q815 565 784.5 588Q754 611 702.5 623Q651 635 573 635ZM367 1233V901H549Q615 901 660.5 913.5Q706 926 733.5 949Q761 972 773.5 1004Q786 1036 786 1075Q786 1157 731.5 1195Q677 1233 551 1233Z" glyph-name="B" horiz-adv-x="1167" unicode="B" /><glyph d="M809 -20Q693 -20 591 7.5Q489 35 404 84.5Q319 134 251.5 204Q184 274 137 359.5Q90 445 65.5 543Q41 641 41 748Q41 859 68 959.5Q95 1060 144 1145.5Q193 1231 263 1299.5Q333 1368 418 1416Q503 1464 602 1490Q701 1516 809 1516Q914 1516 1011.5 1489.5Q1109 1463 1193 1414Q1277 1365 1346 1297Q1415 1229 1464 1145L1214 985Q1151 1102 1051 1168.5Q951 1235 809 1235Q704 1235 615.5 1197.5Q527 1160 462 1094.5Q397 1029 360.5 940Q324 851 324 748Q324 647 360 559Q396 471 460 405.5Q524 340 612 302Q700 264 803 264Q880 264 945 285Q1010 306 1063.5 343.5Q1117 381 1157.5 432Q1198 483 1227 543L1487 406Q1438 311 1367.5 232.5Q1297 154 1210 98Q1123 42 1021.5 11Q920 -20 809 -20Z" glyph-name="C" horiz-adv-x="1505" unicode="C" /><glyph d="M791 -492Q710 -492 633 -457.5Q556 -423 498 -371L657 -274Q675 -288 692 -300.5Q709 -313 727 -322Q745 -331 766 -336.5Q787 -342 813 -342Q835 -342 855 -337.5Q875 -333 890.5 -324.5Q906 -316 915 -305Q924 -294 924 -281Q924 -225 807 -225H702V-12Q551 6 429 71.5Q307 137 220.5 238Q134 339 87.5 469.5Q41 600 41 748Q41 859 68 959.5Q95 1060 144 1145.5Q193 1231 263 1299.5Q333 1368 418 1416Q503 1464 602 1490Q701 1516 809 1516Q914 1516 1011.5 1489.5Q1109 1463 1193 1414Q1277 1365 1346 1297Q1415 1229 1464 1145L1214 985Q1151 1102 1051 1168.5Q951 1235 809 1235Q704 1235 615.5 1197.5Q527 1160 462 1094.5Q397 1029 360.5 940Q324 851 324 748Q324 647 360 559Q396 471 460 405.5Q524 340 612 302Q700 264 803 264Q880 264 945 285Q1010 306 1063.5 343.5Q1117 381 1157.5 432Q1198 483 1227 543L1487 406Q1442 317 1378 243.5Q1314 170 1236 115Q1158 60 1067.5 26Q977 -8 877 -16V-109Q934 -106 978 -117.5Q1022 -129 1052 -150.5Q1082 -172 1097 -203.5Q1112 -235 1112 -272Q1112 -320 1087 -360Q1062 -400 1019 -429.5Q976 -459 917 -475.5Q858 -492 791 -492Z" glyph-name="Ccedilla" horiz-adv-x="1505" unicode="&#199;" /><glyph d="M82 1495H489Q679 1495 826 1438Q973 1381 1074 1280.5Q1175 1180 1227.5 1043.5Q1280 907 1280 748Q1280 588 1222.5 451.5Q1165 315 1062 214.5Q959 114 816 57Q673 0 502 0H82ZM367 1231V264H469Q590 264 687.5 301Q785 338 853.5 403Q922 468 958.5 556.5Q995 645 995 748Q995 854 962.5 942.5Q930 1031 863.5 1095Q797 1159 695.5 1195Q594 1231 457 1231Z" glyph-name="D" horiz-adv-x="1321" unicode="D" /><glyph d="M41 0 920 1520 1796 0ZM512 272H1323L918 977Z" glyph-name="Delta" horiz-adv-x="1837" unicode="&#8710;" /><glyph d="M82 1495H969V1223H367V887H969V614H367V272H969V0H82Z" glyph-name="E" horiz-adv-x="1034" unicode="E" /><glyph d="M82 1495H969V1223H367V887H969V614H367V272H969V0H82ZM645 1946H907L600 1597H412Z" glyph-name="Eacute" horiz-adv-x="1034" unicode="&#201;" /><glyph d="M82 1495H969V1223H367V887H969V614H367V272H969V0H82ZM438 1946H612L856 1597H645L524 1778L406 1597H195Z" glyph-name="Ecircumflex" horiz-adv-x="1034" unicode="&#202;" /><glyph d="M82 1495H969V1223H367V887H969V614H367V272H969V0H82ZM170 1737Q170 1774 182 1804.5Q194 1835 215.5 1857Q237 1879 267 1891Q297 1903 334 1903Q371 1903 401.5 1891Q432 1879 454 1857Q476 1835 488 1804.5Q500 1774 500 1737Q500 1662 454 1617.5Q408 1573 334 1573Q260 1573 215 1617.5Q170 1662 170 1737ZM592 1737Q592 1811 636.5 1857Q681 1903 756 1903Q793 1903 823.5 1891Q854 1879 876 1857Q898 1835 910 1804.5Q922 1774 922 1737Q922 1662 876 1617.5Q830 1573 756 1573Q681 1573 636.5 1617.5Q592 1662 592 1737Z" glyph-name="Edieresis" horiz-adv-x="1034" unicode="&#203;" /><glyph d="M82 1495H969V1223H367V887H969V614H367V272H969V0H82ZM143 1946H406L639 1597H451Z" glyph-name="Egrave" horiz-adv-x="1034" unicode="&#200;" /><glyph d="M41 850H180V1495H588Q778 1495 925 1438Q1072 1381 1172.5 1280.5Q1273 1180 1325.5 1043.5Q1378 907 1378 748Q1378 588 1320.5 451.5Q1263 315 1160 214.5Q1057 114 914 57Q771 0 600 0H180V692H41ZM465 1231V850H799V692H465V264H567Q688 264 786 301Q884 338 952 403Q1020 468 1057 556.5Q1094 645 1094 748Q1094 854 1061.5 942.5Q1029 1031 962 1095Q895 1159 794 1195Q693 1231 555 1231Z" glyph-name="Eth" horiz-adv-x="1419" unicode="&#208;" /><glyph d="M63 1061H252Q259 1158 299.5 1241.5Q340 1325 406.5 1386Q473 1447 563 1481.5Q653 1516 760 1516Q882 1516 978.5 1473Q1075 1430 1143 1356L928 1163Q899 1195 856.5 1215Q814 1235 760 1235Q713 1235 675.5 1222Q638 1209 610 1185.5Q582 1162 564 1130Q546 1098 539 1061H995L956 838H535V657H930L895 434H537Q543 396 560 364.5Q577 333 604 310.5Q631 288 668.5 275Q706 262 754 262Q786 262 811.5 269.5Q837 277 857.5 290Q878 303 894 320Q910 337 924 356L1180 188Q1117 91 1012 35.5Q907 -20 756 -20Q637 -20 545 13Q453 46 389 106Q325 166 290 249.5Q255 333 250 434H63V657H250V838H63Z" glyph-name="Euro" horiz-adv-x="1204" unicode="&#8364;" /><glyph d="M82 1495H928V1223H367V887H928V614H367V0H82Z" glyph-name="F" horiz-adv-x="999" unicode="F" /><glyph d="M817 -20Q700 -20 597 8Q494 36 408 87Q322 138 254 209Q186 280 138.5 365Q91 450 66 547Q41 644 41 748Q41 854 67 952.5Q93 1051 141 1136.5Q189 1222 257 1292Q325 1362 410 1411.5Q495 1461 594.5 1488.5Q694 1516 805 1516Q922 1516 1025 1488Q1128 1460 1214 1409Q1300 1358 1368.5 1287.5Q1437 1217 1485 1133L1235 981Q1166 1109 1059.5 1174Q953 1239 807 1239Q705 1239 617 1200Q529 1161 463.5 1094Q398 1027 361 937.5Q324 848 324 748Q324 645 360.5 555Q397 465 462.5 398.5Q528 332 618.5 294Q709 256 817 256Q898 256 967 278Q1036 300 1090.5 341Q1145 382 1183 440Q1221 498 1241 569H772V842H1548V727Q1548 627 1525 532.5Q1502 438 1457.5 355Q1413 272 1349.5 203Q1286 134 1204.5 84.5Q1123 35 1025.5 7.5Q928 -20 817 -20Z" glyph-name="G" horiz-adv-x="1589" unicode="G" /><glyph d="M930 612H367V0H82V1495H367V885H930V1495H1214V0H930Z" glyph-name="H" horiz-adv-x="1296" unicode="H" /><glyph d="M92 1495H377V0H92Z" glyph-name="I" horiz-adv-x="469" unicode="I" /><glyph d="M92 1495H377V0H92ZM377 1946H639L332 1597H143Z" glyph-name="Iacute" horiz-adv-x="469" unicode="&#205;" /><glyph d="M92 1495H377V0H92ZM150 1946H324L567 1597H356L236 1778L117 1597H-94Z" glyph-name="Icircumflex" horiz-adv-x="469" unicode="&#206;" /><glyph d="M92 1495H377V0H92ZM-141 1737Q-141 1811 -96.5 1857Q-52 1903 23 1903Q60 1903 90 1891Q120 1879 142 1857Q164 1835 176 1804.5Q188 1774 188 1737Q188 1662 142.5 1617.5Q97 1573 23 1573Q-52 1573 -96.5 1617.5Q-141 1662 -141 1737ZM281 1737Q281 1774 292.5 1804.5Q304 1835 325.5 1857Q347 1879 377 1891Q407 1903 444 1903Q481 1903 511.5 1891Q542 1879 564 1857Q586 1835 598 1804.5Q610 1774 610 1737Q610 1662 564.5 1617.5Q519 1573 444 1573Q370 1573 325.5 1617.5Q281 1662 281 1737Z" glyph-name="Idieresis" horiz-adv-x="469" unicode="&#207;" /><glyph d="M92 1495H377V0H92ZM-166 1946H96L330 1597H141Z" glyph-name="Igrave" horiz-adv-x="469" unicode="&#204;" /><glyph d="M510 -20Q418 -20 340 4Q262 28 200.5 73Q139 118 97 181.5Q55 245 37 324L319 414Q326 378 342.5 347Q359 316 383.5 293.5Q408 271 439 258.5Q470 246 506 246Q547 246 577 261Q607 276 626.5 301.5Q646 327 655 360.5Q664 394 664 432V1495H948V459Q948 346 918.5 257Q889 168 833 106.5Q777 45 695.5 12.5Q614 -20 510 -20Z" glyph-name="J" horiz-adv-x="1030" unicode="J" /><glyph d="M522 715 367 520V0H82V1495H367V893L850 1495H1196L725 913L1237 0H913Z" glyph-name="K" horiz-adv-x="1262" unicode="K" /><glyph d="M82 1495H367V272H907V0H82Z" glyph-name="L" horiz-adv-x="979" unicode="L" /><glyph d="M82 1495H365L813 872L1278 1495H1546V0H1262V1036L811 428L367 1030V0H82Z" glyph-name="M" horiz-adv-x="1628" unicode="M" /><glyph d="M82 1495H406L1040 489V1495H1325V0H1022L367 1038V0H82Z" glyph-name="N" horiz-adv-x="1407" unicode="N" /><glyph d="M82 1495H406L1040 489V1495H1325V0H1022L367 1038V0H82ZM352 1597Q352 1659 366.5 1710Q381 1761 409 1797.5Q437 1834 476.5 1854Q516 1874 567 1874Q618 1874 655 1858.5Q692 1843 723 1825Q752 1806 777.5 1791Q803 1776 829 1776Q857 1776 871 1797.5Q885 1819 885 1866H1047Q1047 1803 1033.5 1752Q1020 1701 993 1664.5Q966 1628 925.5 1608.5Q885 1589 831 1589Q801 1589 776 1595Q751 1601 729 1610Q707 1619 688.5 1630Q670 1641 653 1651Q630 1665 609.5 1675.5Q589 1686 567 1686Q539 1686 526.5 1665Q514 1644 514 1597Z" glyph-name="Ntilde" horiz-adv-x="1407" unicode="&#209;" /><glyph d="M805 -20Q699 -20 601 7.5Q503 35 418.5 84.5Q334 134 264 204Q194 274 144.5 359.5Q95 445 68 543Q41 641 41 748Q41 854 68 952Q95 1050 144.5 1135Q194 1220 264 1290.5Q334 1361 418.5 1411Q503 1461 601 1488.5Q699 1516 805 1516Q911 1516 1009.5 1488.5Q1108 1461 1193 1411Q1278 1361 1347.5 1290.5Q1417 1220 1467 1135Q1517 1050 1544 952Q1571 854 1571 748Q1571 642 1544 543.5Q1517 445 1467 359.5Q1417 274 1347.5 204Q1278 134 1193 84.5Q1108 35 1009.5 7.5Q911 -20 805 -20ZM805 260Q905 260 993.5 298.5Q1082 337 1147 403Q1212 469 1250 558Q1288 647 1288 748Q1288 848 1250 937Q1212 1026 1147 1092Q1082 1158 993.5 1196.5Q905 1235 805 1235Q704 1235 616.5 1196.5Q529 1158 464 1092Q399 1026 361.5 937Q324 848 324 748Q324 647 361.5 558Q399 469 464 403Q529 337 616.5 298.5Q704 260 805 260Z" glyph-name="O" horiz-adv-x="1612" unicode="O" /><glyph d="M1288 164Q1194 77 1072 28.5Q950 -20 805 -20Q699 -20 601 7.5Q503 35 418.5 84.5Q334 134 264 204Q194 274 144.5 359.5Q95 445 68 543Q41 641 41 748Q41 854 68 952Q95 1050 144.5 1135Q194 1220 264 1290.5Q334 1361 418.5 1411Q503 1461 601 1488.5Q699 1516 805 1516Q950 1516 1072 1466Q1194 1416 1288 1329V1495H2175V1223H1573V887H2175V614H1573V272H2175V0H1288ZM805 260Q905 260 993.5 298.5Q1082 337 1147 403Q1212 469 1250 558Q1288 647 1288 748V768Q1284 865 1244.5 950Q1205 1035 1140 1098.5Q1075 1162 988.5 1198.5Q902 1235 805 1235Q704 1235 616.5 1196.5Q529 1158 464 1092Q399 1026 361.5 937Q324 848 324 748Q324 647 361.5 558Q399 469 464 403Q529 337 616.5 298.5Q704 260 805 260Z" glyph-name="OE" horiz-adv-x="2241" unicode="&#338;" /><glyph d="M805 -20Q699 -20 601 7.5Q503 35 418.5 84.5Q334 134 264 204Q194 274 144.5 359.5Q95 445 68 543Q41 641 41 748Q41 854 68 952Q95 1050 144.5 1135Q194 1220 264 1290.5Q334 1361 418.5 1411Q503 1461 601 1488.5Q699 1516 805 1516Q911 1516 1009.5 1488.5Q1108 1461 1193 1411Q1278 1361 1347.5 1290.5Q1417 1220 1467 1135Q1517 1050 1544 952Q1571 854 1571 748Q1571 642 1544 543.5Q1517 445 1467 359.5Q1417 274 1347.5 204Q1278 134 1193 84.5Q1108 35 1009.5 7.5Q911 -20 805 -20ZM805 260Q905 260 993.5 298.5Q1082 337 1147 403Q1212 469 1250 558Q1288 647 1288 748Q1288 848 1250 937Q1212 1026 1147 1092Q1082 1158 993.5 1196.5Q905 1235 805 1235Q704 1235 616.5 1196.5Q529 1158 464 1092Q399 1026 361.5 937Q324 848 324 748Q324 647 361.5 558Q399 469 464 403Q529 337 616.5 298.5Q704 260 805 260ZM932 1946H1194L887 1597H698Z" glyph-name="Oacute" horiz-adv-x="1612" unicode="&#211;" /><glyph d="M805 -20Q699 -20 601 7.5Q503 35 418.5 84.5Q334 134 264 204Q194 274 144.5 359.5Q95 445 68 543Q41 641 41 748Q41 854 68 952Q95 1050 144.5 1135Q194 1220 264 1290.5Q334 1361 418.5 1411Q503 1461 601 1488.5Q699 1516 805 1516Q911 1516 1009.5 1488.5Q1108 1461 1193 1411Q1278 1361 1347.5 1290.5Q1417 1220 1467 1135Q1517 1050 1544 952Q1571 854 1571 748Q1571 642 1544 543.5Q1517 445 1467 359.5Q1417 274 1347.5 204Q1278 134 1193 84.5Q1108 35 1009.5 7.5Q911 -20 805 -20ZM805 260Q905 260 993.5 298.5Q1082 337 1147 403Q1212 469 1250 558Q1288 647 1288 748Q1288 848 1250 937Q1212 1026 1147 1092Q1082 1158 993.5 1196.5Q905 1235 805 1235Q704 1235 616.5 1196.5Q529 1158 464 1092Q399 1026 361.5 937Q324 848 324 748Q324 647 361.5 558Q399 469 464 403Q529 337 616.5 298.5Q704 260 805 260ZM711 1946H885L1128 1597H918L797 1778L678 1597H467Z" glyph-name="Ocircumflex" horiz-adv-x="1612" unicode="&#212;" /><glyph d="M805 -20Q699 -20 601 7.5Q503 35 418.5 84.5Q334 134 264 204Q194 274 144.5 359.5Q95 445 68 543Q41 641 41 748Q41 854 68 952Q95 1050 144.5 1135Q194 1220 264 1290.5Q334 1361 418.5 1411Q503 1461 601 1488.5Q699 1516 805 1516Q911 1516 1009.5 1488.5Q1108 1461 1193 1411Q1278 1361 1347.5 1290.5Q1417 1220 1467 1135Q1517 1050 1544 952Q1571 854 1571 748Q1571 642 1544 543.5Q1517 445 1467 359.5Q1417 274 1347.5 204Q1278 134 1193 84.5Q1108 35 1009.5 7.5Q911 -20 805 -20ZM805 260Q905 260 993.5 298.5Q1082 337 1147 403Q1212 469 1250 558Q1288 647 1288 748Q1288 848 1250 937Q1212 1026 1147 1092Q1082 1158 993.5 1196.5Q905 1235 805 1235Q704 1235 616.5 1196.5Q529 1158 464 1092Q399 1026 361.5 937Q324 848 324 748Q324 647 361.5 558Q399 469 464 403Q529 337 616.5 298.5Q704 260 805 260ZM436 1741Q436 1778 448 1808.5Q460 1839 481.5 1861Q503 1883 533 1895Q563 1907 600 1907Q637 1907 667.5 1895Q698 1883 720 1861Q742 1839 754 1808.5Q766 1778 766 1741Q766 1666 720 1621.5Q674 1577 600 1577Q526 1577 481 1621.5Q436 1666 436 1741ZM858 1741Q858 1778 870 1808.5Q882 1839 903.5 1861Q925 1883 955 1895Q985 1907 1022 1907Q1059 1907 1089.5 1895Q1120 1883 1142 1861Q1164 1839 1176 1808.5Q1188 1778 1188 1741Q1188 1666 1142 1621.5Q1096 1577 1022 1577Q948 1577 903 1621.5Q858 1666 858 1741Z" glyph-name="Odieresis" horiz-adv-x="1612" unicode="&#214;" /><glyph d="M805 -20Q699 -20 601 7.5Q503 35 418.5 84.5Q334 134 264 204Q194 274 144.5 359.5Q95 445 68 543Q41 641 41 748Q41 854 68 952Q95 1050 144.5 1135Q194 1220 264 1290.5Q334 1361 418.5 1411Q503 1461 601 1488.5Q699 1516 805 1516Q911 1516 1009.5 1488.5Q1108 1461 1193 1411Q1278 1361 1347.5 1290.5Q1417 1220 1467 1135Q1517 1050 1544 952Q1571 854 1571 748Q1571 642 1544 543.5Q1517 445 1467 359.5Q1417 274 1347.5 204Q1278 134 1193 84.5Q1108 35 1009.5 7.5Q911 -20 805 -20ZM805 260Q905 260 993.5 298.5Q1082 337 1147 403Q1212 469 1250 558Q1288 647 1288 748Q1288 848 1250 937Q1212 1026 1147 1092Q1082 1158 993.5 1196.5Q905 1235 805 1235Q704 1235 616.5 1196.5Q529 1158 464 1092Q399 1026 361.5 937Q324 848 324 748Q324 647 361.5 558Q399 469 464 403Q529 337 616.5 298.5Q704 260 805 260ZM403 1946H666L899 1597H711Z" glyph-name="Ograve" horiz-adv-x="1612" unicode="&#210;" /><glyph d="M268 199Q162 304 101.5 444.5Q41 585 41 748Q41 854 68 952Q95 1050 144.5 1135Q194 1220 264 1290.5Q334 1361 418.5 1411Q503 1461 601 1488.5Q699 1516 805 1516Q926 1516 1033 1481Q1140 1446 1233 1384L1413 1606L1534 1516L1350 1288Q1453 1183 1512 1044.5Q1571 906 1571 748Q1571 642 1544 543.5Q1517 445 1467 359.5Q1417 274 1347.5 204Q1278 134 1193 84.5Q1108 35 1009.5 7.5Q911 -20 805 -20Q687 -20 580.5 12Q474 44 383 104L209 -109L88 -20ZM324 748Q324 652 356 568.5Q388 485 446 420L1055 1165Q999 1197 936 1216Q873 1235 805 1235Q704 1235 616.5 1196.5Q529 1158 464 1092Q399 1026 361.5 937Q324 848 324 748ZM805 260Q905 260 993.5 298.5Q1082 337 1147 403Q1212 469 1250 558Q1288 647 1288 748Q1288 840 1256.5 921Q1225 1002 1169 1067L563 326Q616 294 677.5 277Q739 260 805 260Z" glyph-name="Oslash" horiz-adv-x="1612" unicode="&#216;" /><glyph d="M805 -20Q699 -20 601 7.5Q503 35 418.5 84.5Q334 134 264 204Q194 274 144.5 359.5Q95 445 68 543Q41 641 41 748Q41 854 68 952Q95 1050 144.5 1135Q194 1220 264 1290.5Q334 1361 418.5 1411Q503 1461 601 1488.5Q699 1516 805 1516Q911 1516 1009.5 1488.5Q1108 1461 1193 1411Q1278 1361 1347.5 1290.5Q1417 1220 1467 1135Q1517 1050 1544 952Q1571 854 1571 748Q1571 642 1544 543.5Q1517 445 1467 359.5Q1417 274 1347.5 204Q1278 134 1193 84.5Q1108 35 1009.5 7.5Q911 -20 805 -20ZM805 260Q905 260 993.5 298.5Q1082 337 1147 403Q1212 469 1250 558Q1288 647 1288 748Q1288 848 1250 937Q1212 1026 1147 1092Q1082 1158 993.5 1196.5Q905 1235 805 1235Q704 1235 616.5 1196.5Q529 1158 464 1092Q399 1026 361.5 937Q324 848 324 748Q324 647 361.5 558Q399 469 464 403Q529 337 616.5 298.5Q704 260 805 260ZM446 1597Q446 1659 460.5 1710Q475 1761 503 1797.5Q531 1834 571 1854Q611 1874 662 1874Q713 1874 749.5 1858.5Q786 1843 817 1825Q846 1806 872 1791Q898 1776 924 1776Q952 1776 965.5 1797.5Q979 1819 979 1866H1141Q1141 1803 1127.5 1752Q1114 1701 1087 1664.5Q1060 1628 1020 1608.5Q980 1589 926 1589Q896 1589 871 1595Q846 1601 824 1610Q802 1619 783.5 1630Q765 1641 748 1651Q725 1665 704 1675.5Q683 1686 662 1686Q634 1686 621 1665Q608 1644 608 1597Z" glyph-name="Otilde" horiz-adv-x="1612" unicode="&#213;" /><glyph d="M82 1495H596Q712 1495 810.5 1453Q909 1411 981 1339Q1053 1267 1094 1169.5Q1135 1072 1135 961Q1135 850 1094 752.5Q1053 655 981 582.5Q909 510 810 468Q711 426 594 426H367V0H82ZM367 1231V690H575Q636 690 686 711Q736 732 772 769Q808 806 828 855.5Q848 905 848 961Q848 1017 828 1066Q808 1115 772 1152Q736 1189 686 1210Q636 1231 575 1231Z" glyph-name="P" horiz-adv-x="1186" unicode="P" /><glyph d="M805 -20Q699 -20 601 7.5Q503 35 418.5 84.5Q334 134 264 204Q194 274 144.5 359.5Q95 445 68 543Q41 641 41 748Q41 854 68 952Q95 1050 144.5 1135Q194 1220 264 1290.5Q334 1361 418.5 1411Q503 1461 601 1488.5Q699 1516 805 1516Q911 1516 1009.5 1488.5Q1108 1461 1193 1411Q1278 1361 1347.5 1290.5Q1417 1220 1467 1135Q1517 1050 1544 952Q1571 854 1571 748Q1571 613 1523.5 491Q1476 369 1395 270L1604 0H1255L1186 90Q1099 37 1003 8.5Q907 -20 805 -20ZM805 260Q923 260 1020 307L692 739H1032L1221 494Q1253 549 1270.5 612.5Q1288 676 1288 748Q1288 848 1250 937Q1212 1026 1147 1092Q1082 1158 993.5 1196.5Q905 1235 805 1235Q704 1235 616.5 1196.5Q529 1158 464 1092Q399 1026 361.5 937Q324 848 324 748Q324 647 361.5 558Q399 469 464 403Q529 337 616.5 298.5Q704 260 805 260Z" glyph-name="Q" horiz-adv-x="1612" unicode="Q" /><glyph d="M82 1495H561Q696 1495 800.5 1457Q905 1419 977 1350Q1049 1281 1086.5 1184.5Q1124 1088 1124 971Q1124 904 1108 840.5Q1092 777 1061 720.5Q1030 664 983.5 617Q937 570 877 537L1171 0H848L616 451H367V0H82ZM367 1229V713H537Q624 713 682 734Q740 755 775 792Q810 829 825 878Q840 927 840 983Q840 1039 822.5 1084.5Q805 1130 768.5 1162Q732 1194 674.5 1211.5Q617 1229 537 1229Z" glyph-name="R" horiz-adv-x="1194" unicode="R" /><glyph d="M590 -20Q488 -20 403 0Q318 20 246 56Q174 92 114.5 141Q55 190 4 248L264 453Q320 357 404 304.5Q488 252 588 252Q642 252 684 268.5Q726 285 754 312Q782 339 796.5 374.5Q811 410 811 449Q811 495 785 526.5Q759 558 716.5 581.5Q674 605 618 623Q562 641 502 659Q427 682 351 711.5Q275 741 214.5 788Q154 835 116 906.5Q78 978 78 1085Q78 1175 115 1253.5Q152 1332 218.5 1390.5Q285 1449 376 1482.5Q467 1516 575 1516Q666 1516 739.5 1499.5Q813 1483 873 1454Q933 1425 983.5 1385Q1034 1345 1079 1298L844 1120Q797 1189 731.5 1225.5Q666 1262 578 1262Q528 1262 489.5 1249.5Q451 1237 425 1214.5Q399 1192 386 1161.5Q373 1131 373 1096Q373 1053 398 1022.5Q423 992 464.5 969Q506 946 561 927.5Q616 909 676 889Q727 873 778.5 853.5Q830 834 878 808.5Q926 783 968 750Q1010 717 1041 673.5Q1072 630 1090 574Q1108 518 1108 446Q1108 357 1073.5 273Q1039 189 973 124Q907 59 810.5 19.5Q714 -20 590 -20Z" glyph-name="S" horiz-adv-x="1153" unicode="S" /><glyph d="M590 -20Q488 -20 403 0Q318 20 246 56Q174 92 114.5 141Q55 190 4 248L264 453Q320 357 404 304.5Q488 252 588 252Q642 252 684 268.5Q726 285 754 312Q782 339 796.5 374.5Q811 410 811 449Q811 495 785 526.5Q759 558 716.5 581.5Q674 605 618 623Q562 641 502 659Q427 682 351 711.5Q275 741 214.5 788Q154 835 116 906.5Q78 978 78 1085Q78 1175 115 1253.5Q152 1332 218.5 1390.5Q285 1449 376 1482.5Q467 1516 575 1516Q666 1516 739.5 1499.5Q813 1483 873 1454Q933 1425 983.5 1385Q1034 1345 1079 1298L844 1120Q797 1189 731.5 1225.5Q666 1262 578 1262Q528 1262 489.5 1249.5Q451 1237 425 1214.5Q399 1192 386 1161.5Q373 1131 373 1096Q373 1053 398 1022.5Q423 992 464.5 969Q506 946 561 927.5Q616 909 676 889Q727 873 778.5 853.5Q830 834 878 808.5Q926 783 968 750Q1010 717 1041 673.5Q1072 630 1090 574Q1108 518 1108 446Q1108 357 1073.5 273Q1039 189 973 124Q907 59 810.5 19.5Q714 -20 590 -20ZM248 1946H459L578 1765L698 1946H909L666 1597H492Z" glyph-name="Scaron" horiz-adv-x="1153" unicode="&#352;" /><glyph d="M449 1223H51V1495H1130V1223H733V0H449Z" glyph-name="T" horiz-adv-x="1182" unicode="T" /><glyph d="M82 1495H367V1237H612Q716 1237 803.5 1199.5Q891 1162 955 1097.5Q1019 1033 1054.5 946Q1090 859 1090 760Q1090 660 1054 573Q1018 486 954.5 421Q891 356 803 318.5Q715 281 610 281H367V0H82ZM367 973V545H596Q644 545 682.5 562Q721 579 749 608Q777 637 792 676Q807 715 807 760Q807 804 792 842.5Q777 881 749 910Q721 939 682.5 956Q644 973 596 973Z" glyph-name="Thorn" horiz-adv-x="1141" unicode="&#222;" /><glyph d="M621 -20Q504 -20 405 14Q306 48 234.5 115.5Q163 183 122.5 283.5Q82 384 82 518V1495H367V500Q367 446 386 399Q405 352 439 317.5Q473 283 518.5 263.5Q564 244 618 244Q672 244 719 263.5Q766 283 801.5 317.5Q837 352 857 399Q877 446 877 500V1495H1161V518Q1161 384 1120.5 283.5Q1080 183 1008 115.5Q936 48 837 14Q738 -20 621 -20Z" glyph-name="U" horiz-adv-x="1243" unicode="U" /><glyph d="M621 -20Q504 -20 405 14Q306 48 234.5 115.5Q163 183 122.5 283.5Q82 384 82 518V1495H367V500Q367 446 386 399Q405 352 439 317.5Q473 283 518.5 263.5Q564 244 618 244Q672 244 719 263.5Q766 283 801.5 317.5Q837 352 857 399Q877 446 877 500V1495H1161V518Q1161 384 1120.5 283.5Q1080 183 1008 115.5Q936 48 837 14Q738 -20 621 -20ZM745 1946H1008L700 1597H512Z" glyph-name="Uacute" horiz-adv-x="1243" unicode="&#218;" /><glyph d="M621 -20Q504 -20 405 14Q306 48 234.5 115.5Q163 183 122.5 283.5Q82 384 82 518V1495H367V500Q367 446 386 399Q405 352 439 317.5Q473 283 518.5 263.5Q564 244 618 244Q672 244 719 263.5Q766 283 801.5 317.5Q837 352 857 399Q877 446 877 500V1495H1161V518Q1161 384 1120.5 283.5Q1080 183 1008 115.5Q936 48 837 14Q738 -20 621 -20ZM535 1946H709L952 1597H741L621 1778L502 1597H291Z" glyph-name="Ucircumflex" horiz-adv-x="1243" unicode="&#219;" /><glyph d="M621 -20Q504 -20 405 14Q306 48 234.5 115.5Q163 183 122.5 283.5Q82 384 82 518V1495H367V500Q367 446 386 399Q405 352 439 317.5Q473 283 518.5 263.5Q564 244 618 244Q672 244 719 263.5Q766 283 801.5 317.5Q837 352 857 399Q877 446 877 500V1495H1161V518Q1161 384 1120.5 283.5Q1080 183 1008 115.5Q936 48 837 14Q738 -20 621 -20ZM244 1737Q244 1811 288.5 1857Q333 1903 408 1903Q445 1903 475 1891Q505 1879 527 1857Q549 1835 561 1804.5Q573 1774 573 1737Q573 1662 527.5 1617.5Q482 1573 408 1573Q333 1573 288.5 1617.5Q244 1662 244 1737ZM666 1737Q666 1774 677.5 1804.5Q689 1835 710.5 1857Q732 1879 762 1891Q792 1903 829 1903Q866 1903 896.5 1891Q927 1879 949 1857Q971 1835 983 1804.5Q995 1774 995 1737Q995 1662 949.5 1617.5Q904 1573 829 1573Q755 1573 710.5 1617.5Q666 1662 666 1737Z" glyph-name="Udieresis" horiz-adv-x="1243" unicode="&#220;" /><glyph d="M621 -20Q504 -20 405 14Q306 48 234.5 115.5Q163 183 122.5 283.5Q82 384 82 518V1495H367V500Q367 446 386 399Q405 352 439 317.5Q473 283 518.5 263.5Q564 244 618 244Q672 244 719 263.5Q766 283 801.5 317.5Q837 352 857 399Q877 446 877 500V1495H1161V518Q1161 384 1120.5 283.5Q1080 183 1008 115.5Q936 48 837 14Q738 -20 621 -20ZM238 1946H500L733 1597H545Z" glyph-name="Ugrave" horiz-adv-x="1243" unicode="&#217;" /><glyph d="M29 1495H324L672 434L1020 1495H1315L815 0H528Z" glyph-name="V" horiz-adv-x="1343" unicode="V" /><glyph d="M27 1495H324L602 461L909 1495H1190L1497 465L1772 1495H2060L1638 0H1358L1049 1044L741 0H451Z" glyph-name="W" horiz-adv-x="2089" unicode="W" /><glyph d="M643 506 340 0H20L475 756L29 1495H348L643 1004L940 1495H1260L811 756L1268 0H948Z" glyph-name="X" horiz-adv-x="1288" unicode="X" /><glyph d="M500 709 25 1495H338L643 981L950 1495H1264L784 702V0H500Z" glyph-name="Y" horiz-adv-x="1288" unicode="Y" /><glyph d="M500 709 25 1495H338L643 981L950 1495H1264L784 702V0H500ZM774 1946H1036L729 1597H541Z" glyph-name="Yacute" horiz-adv-x="1288" unicode="&#221;" /><glyph d="M500 709 25 1495H338L643 981L950 1495H1264L784 702V0H500ZM690 1731Q690 1768 702 1798Q714 1828 735.5 1850Q757 1872 787 1884Q817 1896 854 1896Q891 1896 921.5 1884Q952 1872 974 1850Q996 1828 1008 1798Q1020 1768 1020 1731Q1020 1656 974 1611.5Q928 1567 854 1567Q780 1567 735 1611.5Q690 1656 690 1731ZM268 1731Q268 1768 280 1798Q292 1828 313.5 1850Q335 1872 365 1884Q395 1896 432 1896Q469 1896 499.5 1884Q530 1872 552 1850Q574 1828 586 1798Q598 1768 598 1731Q598 1656 552 1611.5Q506 1567 432 1567Q358 1567 313 1611.5Q268 1656 268 1731Z" glyph-name="Ydieresis" horiz-adv-x="1288" unicode="&#376;" /><glyph d="M72 262 723 1223H94V1495H1061V1235L408 272H1061V0H72Z" glyph-name="Z" horiz-adv-x="1133" unicode="Z" /><glyph d="M72 262 723 1223H94V1495H1061V1235L408 272H1061V0H72ZM248 1946H459L578 1765L698 1946H909L666 1597H492Z" glyph-name="Zcaron" horiz-adv-x="1133" unicode="&#142;" /><glyph d="M535 -20Q481 -20 423 -5.5Q365 9 310 38Q255 67 206 111Q157 155 120.5 214Q84 273 62.5 347.5Q41 422 41 512Q41 648 86 748Q131 848 203 914Q275 980 363.5 1012Q452 1044 539 1044Q639 1044 716 1011Q793 978 844 924V1024H1124V0H844V115Q793 55 714 17.5Q635 -20 535 -20ZM590 238Q647 238 695 259.5Q743 281 778 318.5Q813 356 832.5 406.5Q852 457 852 514Q852 571 832.5 621Q813 671 778 708Q743 745 695 766.5Q647 788 590 788Q531 788 481 767.5Q431 747 394 710.5Q357 674 336 623.5Q315 573 315 514Q315 455 336 404.5Q357 354 394 317Q431 280 481 259Q531 238 590 238Z" glyph-name="a" horiz-adv-x="1196" unicode="a" /><glyph d="M535 -20Q481 -20 423 -5.5Q365 9 310 38Q255 67 206 111Q157 155 120.5 214Q84 273 62.5 347.5Q41 422 41 512Q41 648 86 748Q131 848 203 914Q275 980 363.5 1012Q452 1044 539 1044Q639 1044 716 1011Q793 978 844 924V1024H1124V0H844V115Q793 55 714 17.5Q635 -20 535 -20ZM590 238Q647 238 695 259.5Q743 281 778 318.5Q813 356 832.5 406.5Q852 457 852 514Q852 571 832.5 621Q813 671 778 708Q743 745 695 766.5Q647 788 590 788Q531 788 481 767.5Q431 747 394 710.5Q357 674 336 623.5Q315 573 315 514Q315 455 336 404.5Q357 354 394 317Q431 280 481 259Q531 238 590 238ZM664 1475H926L618 1126H430Z" glyph-name="aacute" horiz-adv-x="1196" unicode="&#225;" /><glyph d="M535 -20Q481 -20 423 -5.5Q365 9 310 38Q255 67 206 111Q157 155 120.5 214Q84 273 62.5 347.5Q41 422 41 512Q41 648 86 748Q131 848 203 914Q275 980 363.5 1012Q452 1044 539 1044Q639 1044 716 1011Q793 978 844 924V1024H1124V0H844V115Q793 55 714 17.5Q635 -20 535 -20ZM590 238Q647 238 695 259.5Q743 281 778 318.5Q813 356 832.5 406.5Q852 457 852 514Q852 571 832.5 621Q813 671 778 708Q743 745 695 766.5Q647 788 590 788Q531 788 481 767.5Q431 747 394 710.5Q357 674 336 623.5Q315 573 315 514Q315 455 336 404.5Q357 354 394 317Q431 280 481 259Q531 238 590 238ZM537 1475H711L954 1126H743L623 1307L504 1126H293Z" glyph-name="acircumflex" horiz-adv-x="1196" unicode="&#226;" /><glyph d="M446 1475H709L401 1126H213Z" glyph-name="acute" horiz-adv-x="965" unicode="&#180;" /><glyph d="M535 -20Q481 -20 423 -5.5Q365 9 310 38Q255 67 206 111Q157 155 120.5 214Q84 273 62.5 347.5Q41 422 41 512Q41 648 86 748Q131 848 203 914Q275 980 363.5 1012Q452 1044 539 1044Q639 1044 716 1011Q793 978 844 924V1024H1124V0H844V115Q793 55 714 17.5Q635 -20 535 -20ZM590 238Q647 238 695 259.5Q743 281 778 318.5Q813 356 832.5 406.5Q852 457 852 514Q852 571 832.5 621Q813 671 778 708Q743 745 695 766.5Q647 788 590 788Q531 788 481 767.5Q431 747 394 710.5Q357 674 336 623.5Q315 573 315 514Q315 455 336 404.5Q357 354 394 317Q431 280 481 259Q531 238 590 238ZM231 1266Q231 1303 243 1333.5Q255 1364 276.5 1386Q298 1408 328 1420Q358 1432 395 1432Q432 1432 462.5 1420Q493 1408 515 1386Q537 1364 549 1333.5Q561 1303 561 1266Q561 1191 515.5 1146.5Q470 1102 395 1102Q321 1102 276 1146.5Q231 1191 231 1266ZM653 1266Q653 1303 665 1333.5Q677 1364 698.5 1386Q720 1408 750 1420Q780 1432 817 1432Q854 1432 884.5 1420Q915 1408 937 1386Q959 1364 971 1333.5Q983 1303 983 1266Q983 1191 937 1146.5Q891 1102 817 1102Q743 1102 698 1146.5Q653 1191 653 1266Z" glyph-name="adieresis" horiz-adv-x="1196" unicode="&#228;" /><glyph d="M1249 -20Q1110 -20 1002.5 34Q895 88 825 182Q798 137 756.5 100Q715 63 662 36.5Q609 10 546.5 -5Q484 -20 416 -20Q318 -20 247 2Q176 24 130 63Q84 102 62.5 155.5Q41 209 41 272Q41 344 65 397Q89 450 132 488.5Q175 527 234.5 554Q294 581 365 600Q427 617 486.5 631Q546 645 593 660.5Q640 676 669 695.5Q698 715 698 743Q698 775 660 800Q622 825 547 825Q488 825 447 811Q406 797 380 774Q354 751 342 720.5Q330 690 330 657V651H76V655Q76 747 107 819.5Q138 892 196.5 942Q255 992 340.5 1018Q426 1044 535 1044Q650 1044 741.5 1010Q833 976 889 911Q958 973 1047 1008.5Q1136 1044 1239 1044Q1354 1044 1451.5 1002.5Q1549 961 1619.5 889Q1690 817 1729.5 720Q1769 623 1769 512V422H977Q988 378 1011 342Q1034 306 1068.5 280Q1103 254 1148.5 239.5Q1194 225 1251 225Q1294 225 1333.5 237.5Q1373 250 1407 272.5Q1441 295 1467.5 326Q1494 357 1511 395L1743 301Q1713 230 1663.5 171Q1614 112 1550 69.5Q1486 27 1409.5 3.5Q1333 -20 1249 -20ZM430 211Q487 211 537 235Q587 259 624.5 293.5Q662 328 683.5 366Q705 404 705 432V481Q702 474 686 465Q670 456 643 445.5Q616 435 579.5 423.5Q543 412 500 401Q403 378 360 352Q317 326 317 281Q317 249 345 230Q373 211 430 211ZM1241 799Q1154 799 1090.5 757Q1027 715 995 647H1481Q1450 721 1387.5 760Q1325 799 1241 799Z" glyph-name="ae" horiz-adv-x="1810" unicode="&#230;" /><glyph d="M535 -20Q481 -20 423 -5.5Q365 9 310 38Q255 67 206 111Q157 155 120.5 214Q84 273 62.5 347.5Q41 422 41 512Q41 648 86 748Q131 848 203 914Q275 980 363.5 1012Q452 1044 539 1044Q639 1044 716 1011Q793 978 844 924V1024H1124V0H844V115Q793 55 714 17.5Q635 -20 535 -20ZM590 238Q647 238 695 259.5Q743 281 778 318.5Q813 356 832.5 406.5Q852 457 852 514Q852 571 832.5 621Q813 671 778 708Q743 745 695 766.5Q647 788 590 788Q531 788 481 767.5Q431 747 394 710.5Q357 674 336 623.5Q315 573 315 514Q315 455 336 404.5Q357 354 394 317Q431 280 481 259Q531 238 590 238ZM166 1475H428L662 1126H473Z" glyph-name="agrave" horiz-adv-x="1196" unicode="&#224;" /><glyph d="M1030 115Q942 52 842 14.5Q742 -23 631 -23Q522 -23 436 -3Q350 17 284.5 52.5Q219 88 172.5 135Q126 182 97 236.5Q68 291 54.5 349.5Q41 408 41 465Q41 535 60.5 597Q80 659 114.5 711.5Q149 764 196 807Q243 850 299 883Q265 938 247 997.5Q229 1057 229 1128Q229 1210 261.5 1281Q294 1352 351.5 1404.5Q409 1457 487.5 1486.5Q566 1516 659 1516Q754 1516 827 1493.5Q900 1471 953.5 1432Q1007 1393 1043 1341.5Q1079 1290 1100 1233L821 1135Q813 1162 800.5 1185Q788 1208 769.5 1225Q751 1242 726 1252Q701 1262 670 1262Q639 1262 613 1252Q587 1242 568 1224Q549 1206 538.5 1181.5Q528 1157 528 1128Q528 1084 539 1050Q550 1016 578.5 977.5Q607 939 654.5 889Q702 839 776 764L1053 485Q1096 547 1126 616Q1156 685 1171 754H920V1024H1454V893Q1454 823 1438.5 748Q1423 673 1394.5 598Q1366 523 1324.5 449.5Q1283 376 1231 309L1536 0H1147ZM629 227Q688 227 743.5 243.5Q799 260 850 291L541 604Q519 626 498 646Q477 666 459 686Q393 646 358.5 594Q324 542 324 467Q324 419 343.5 375.5Q363 332 401.5 299Q440 266 497 246.5Q554 227 629 227Z" glyph-name="ampersand" horiz-adv-x="1532" unicode="&amp;" /><glyph d="M72 1024Q116 1046 161.5 1061.5Q207 1077 270 1077Q316 1077 363.5 1065Q411 1053 457.5 1038Q504 1023 548.5 1011Q593 999 633 999Q663 999 687.5 1003Q712 1007 735 1013.5Q758 1020 780.5 1029.5Q803 1039 829 1051V811Q808 799 787 789.5Q766 780 743 773.5Q720 767 693.5 763.5Q667 760 633 760Q590 760 542.5 772Q495 784 447.5 799Q400 814 354.5 826Q309 838 270 838Q239 838 213 833.5Q187 829 163 821.5Q139 814 117 804.5Q95 795 72 784ZM72 682Q94 693 115 703Q136 713 158.5 720.5Q181 728 206.5 732.5Q232 737 264 737Q310 737 359 725.5Q408 714 456.5 699.5Q505 685 551 673.5Q597 662 637 662Q667 662 691 665Q715 668 737 674Q759 680 781 688.5Q803 697 829 709V469Q808 457 788 448Q768 439 745.5 433Q723 427 697 424.5Q671 422 637 422Q594 422 545 434Q496 446 446.5 460Q397 474 350 486Q303 498 264 498Q233 498 208 493.5Q183 489 160.5 481Q138 473 116.5 463Q95 453 72 442Z" glyph-name="approxequal" horiz-adv-x="901" unicode="&#8776;" /><glyph d="M535 -20Q481 -20 423 -5.5Q365 9 310 38Q255 67 206 111Q157 155 120.5 214Q84 273 62.5 347.5Q41 422 41 512Q41 648 86 748Q131 848 203 914Q275 980 363.5 1012Q452 1044 539 1044Q639 1044 716 1011Q793 978 844 924V1024H1124V0H844V115Q793 55 714 17.5Q635 -20 535 -20ZM590 238Q647 238 695 259.5Q743 281 778 318.5Q813 356 832.5 406.5Q852 457 852 514Q852 571 832.5 621Q813 671 778 708Q743 745 695 766.5Q647 788 590 788Q531 788 481 767.5Q431 747 394 710.5Q357 674 336 623.5Q315 573 315 514Q315 455 336 404.5Q357 354 394 317Q431 280 481 259Q531 238 590 238ZM567 1130Q522 1130 482 1147.5Q442 1165 412 1195Q382 1225 365 1265Q348 1305 348 1350Q348 1397 365 1437.5Q382 1478 412 1508Q442 1538 482 1555.5Q522 1573 567 1573Q614 1573 655 1555.5Q696 1538 726 1508Q756 1478 773.5 1437.5Q791 1397 791 1350Q791 1305 773.5 1265Q756 1225 726 1195Q696 1165 655 1147.5Q614 1130 567 1130ZM567 1253Q587 1253 605.5 1261Q624 1269 638 1282Q652 1295 660 1312.5Q668 1330 668 1350Q668 1370 660 1388Q652 1406 638 1420Q624 1434 605.5 1442Q587 1450 567 1450Q548 1450 530.5 1442Q513 1434 500 1420Q487 1406 479 1388Q471 1370 471 1350Q471 1330 479 1312.5Q487 1295 500 1282Q513 1269 530.5 1261Q548 1253 567 1253Z" glyph-name="aring" horiz-adv-x="1196" unicode="&#229;" /><glyph d="M395 1475H569L813 1126H602L481 1307L362 1126H152Z" glyph-name="asciicircum" horiz-adv-x="965" unicode="^" /><glyph d="M129 1178Q129 1240 143.5 1291Q158 1342 186 1378Q214 1414 253.5 1434Q293 1454 344 1454Q395 1454 432 1439Q469 1424 500 1405Q529 1386 554.5 1371Q580 1356 606 1356Q634 1356 648 1377.5Q662 1399 662 1446H823Q823 1383 809.5 1332Q796 1281 769.5 1244.5Q743 1208 702.5 1188.5Q662 1169 608 1169Q578 1169 553 1175Q528 1181 506 1190Q484 1199 465.5 1210Q447 1221 430 1231Q407 1245 386.5 1255.5Q366 1266 344 1266Q316 1266 303.5 1245Q291 1224 291 1178H129Z" glyph-name="asciitilde" horiz-adv-x="965" unicode="~" /><glyph d="M489 1004 535 772H291L338 1004L158 848L39 1061L260 1135L39 1212L164 1421L338 1266L291 1497H535L487 1262L668 1421L788 1208L559 1133L788 1057L664 848Z" glyph-name="asterisk" horiz-adv-x="825" unicode="*" /><glyph d="M805 -256Q699 -256 601 -228.5Q503 -201 418.5 -151.5Q334 -102 264 -32Q194 38 144.5 123.5Q95 209 68 307Q41 405 41 512Q41 618 68 716Q95 814 144.5 899.5Q194 985 264 1055Q334 1125 418.5 1175Q503 1225 601 1252.5Q699 1280 805 1280Q922 1280 1024.5 1253Q1127 1226 1211.5 1178Q1296 1130 1362.5 1064.5Q1429 999 1475 922.5Q1521 846 1545 761Q1569 676 1569 590Q1569 502 1544 423.5Q1519 345 1473.5 286Q1428 227 1363 192.5Q1298 158 1217 158Q1126 158 1064.5 191Q1003 224 969 270Q931 219 866.5 189.5Q802 160 713 160Q652 160 592 184Q532 208 485.5 255Q439 302 413.5 370.5Q388 439 397 528Q407 622 445.5 691.5Q484 761 537 807Q590 853 650 875Q710 897 764 897Q829 897 879 876.5Q929 856 961 821Q963 843 964.5 855.5Q966 868 967 875Q968 883 969 885H1192L1153 514Q1145 451 1164.5 415Q1184 379 1235 379Q1259 379 1279 394.5Q1299 410 1314 437.5Q1329 465 1337.5 504Q1346 543 1346 590Q1346 677 1308.5 761Q1271 845 1201 912Q1131 979 1030.5 1020Q930 1061 805 1061Q691 1061 592 1018Q493 975 419.5 900Q346 825 304 724.5Q262 624 262 510Q262 396 304 296Q346 196 419.5 121.5Q493 47 592 4Q691 -39 805 -39Q927 -39 1030 9.5Q1133 58 1208 141L1378 2Q1326 -57 1262 -105Q1198 -153 1125 -186.5Q1052 -220 971.5 -238Q891 -256 805 -256ZM764 371Q798 371 828.5 384Q859 397 881.5 419Q904 441 918.5 471Q933 501 936 535Q940 568 931.5 597.5Q923 627 905 648.5Q887 670 860 683Q833 696 799 696Q765 696 734 684Q703 672 679 650Q655 628 639.5 598.5Q624 569 623 535Q618 500 627 470Q636 440 655 418Q674 396 702 383.5Q730 371 764 371Z" glyph-name="at" horiz-adv-x="1610" unicode="@" /><glyph d="M535 -20Q481 -20 423 -5.5Q365 9 310 38Q255 67 206 111Q157 155 120.5 214Q84 273 62.5 347.5Q41 422 41 512Q41 648 86 748Q131 848 203 914Q275 980 363.5 1012Q452 1044 539 1044Q639 1044 716 1011Q793 978 844 924V1024H1124V0H844V115Q793 55 714 17.5Q635 -20 535 -20ZM590 238Q647 238 695 259.5Q743 281 778 318.5Q813 356 832.5 406.5Q852 457 852 514Q852 571 832.5 621Q813 671 778 708Q743 745 695 766.5Q647 788 590 788Q531 788 481 767.5Q431 747 394 710.5Q357 674 336 623.5Q315 573 315 514Q315 455 336 404.5Q357 354 394 317Q431 280 481 259Q531 238 590 238ZM250 1126Q250 1188 264.5 1239Q279 1290 307 1326.5Q335 1363 374.5 1383Q414 1403 465 1403Q516 1403 553 1387.5Q590 1372 621 1354Q650 1335 675.5 1320Q701 1305 727 1305Q755 1305 768.5 1326.5Q782 1348 782 1395H944Q944 1332 930.5 1281Q917 1230 890 1193.5Q863 1157 823 1137.5Q783 1118 729 1118Q699 1118 674 1124Q649 1130 627 1139Q605 1148 586.5 1159Q568 1170 551 1180Q528 1194 507.5 1204Q487 1214 465 1214Q437 1214 424.5 1193.5Q412 1173 412 1126Z" glyph-name="atilde" horiz-adv-x="1196" unicode="&#227;" /><glyph d="M664 -20Q561 -20 481.5 15.5Q402 51 352 111V0H72V1495H352V911Q402 971 479 1007.5Q556 1044 659 1044Q746 1044 834.5 1012Q923 980 994 914Q1065 848 1110 748Q1155 648 1155 512Q1155 422 1133.5 347.5Q1112 273 1075.5 214Q1039 155 990.5 111Q942 67 887.5 38Q833 9 775.5 -5.5Q718 -20 664 -20ZM606 238Q664 238 714.5 259Q765 280 802 317Q839 354 860 404.5Q881 455 881 514Q881 573 860 623.5Q839 674 802 710.5Q765 747 714.5 767.5Q664 788 606 788Q549 788 501 766.5Q453 745 418 708Q383 671 363.5 621Q344 571 344 514Q344 457 363.5 406.5Q383 356 418 318.5Q453 281 501 259.5Q549 238 606 238Z" glyph-name="b" horiz-adv-x="1188" unicode="b" /><glyph d="M20 1495H322L1030 0H729Z" glyph-name="backslash" horiz-adv-x="1049" unicode="\" /><glyph d="M72 1495H356V-471H72Z" glyph-name="bar" horiz-adv-x="428" unicode="|" /><glyph d="M684 -471Q556 -471 469.5 -448.5Q383 -426 330.5 -374Q278 -322 255.5 -237Q233 -152 233 -27V170Q233 230 227 269.5Q221 309 201.5 332.5Q182 356 143.5 365.5Q105 375 41 375V637Q105 637 143.5 646.5Q182 656 201.5 679.5Q221 703 227 742.5Q233 782 233 842V1051Q233 1176 255.5 1261Q278 1346 330.5 1398Q383 1450 469.5 1472.5Q556 1495 684 1495H707V1233Q642 1233 604 1226.5Q566 1220 546 1200.5Q526 1181 520 1145Q514 1109 514 1049V840Q514 710 478.5 629Q443 548 358 506Q443 464 478.5 383Q514 302 514 172V-25Q514 -85 520 -121Q526 -157 546 -176.5Q566 -196 604 -202.5Q642 -209 707 -209V-471Z" glyph-name="braceleft" horiz-adv-x="758" unicode="{" /><glyph d="M51 -209Q115 -209 153.5 -202.5Q192 -196 212 -176.5Q232 -157 238 -121Q244 -85 244 -25V172Q244 301 278.5 383Q313 465 397 506Q313 547 278.5 629Q244 711 244 840V1049Q244 1109 238 1145Q232 1181 212 1200.5Q192 1220 153.5 1226.5Q115 1233 51 1233V1495H74Q202 1495 288.5 1472.5Q375 1450 427.5 1398Q480 1346 502 1261Q524 1176 524 1051V842Q524 782 530 742.5Q536 703 556 679.5Q576 656 614 646.5Q652 637 717 637V375Q652 375 614 365.5Q576 356 556 332.5Q536 309 530 269.5Q524 230 524 170V-27Q524 -152 502 -237Q480 -322 427.5 -374Q375 -426 288.5 -448.5Q202 -471 74 -471H51Z" glyph-name="braceright" horiz-adv-x="758" unicode="}" /><glyph d="M72 1495H631V1223H356V-199H631V-471H72Z" glyph-name="bracketleft" horiz-adv-x="702" unicode="[" /><glyph d="M72 -199H346V1223H72V1495H631V-471H72Z" glyph-name="bracketright" horiz-adv-x="702" unicode="]" /><glyph d="M479 1116Q395 1116 333 1142.5Q271 1169 230.5 1215.5Q190 1262 170 1326Q150 1390 150 1464H326Q326 1365 365.5 1318Q405 1271 479 1268Q554 1271 593.5 1318Q633 1365 633 1464H811Q811 1390 788 1326Q765 1262 722 1215.5Q679 1169 617.5 1142.5Q556 1116 479 1116Z" glyph-name="breve" horiz-adv-x="965" unicode="&#728;" /><glyph d="M72 1495H356V635H72ZM72 389H356V-471H72Z" glyph-name="brokenbar" horiz-adv-x="428" unicode="&#166;" /><glyph d="M408 291Q360 291 318 309Q276 327 244.5 358.5Q213 390 194.5 432Q176 474 176 522Q176 570 194.5 612Q213 654 244.5 685.5Q276 717 318 735.5Q360 754 408 754Q456 754 498 735.5Q540 717 571.5 685.5Q603 654 621 612Q639 570 639 522Q639 474 621 432Q603 390 571.5 358.5Q540 327 498 309Q456 291 408 291Z" glyph-name="bullet" horiz-adv-x="815" unicode="&#8226;" /><glyph d="M571 -20Q497 -20 429 -1Q361 18 302.5 52.5Q244 87 195.5 135.5Q147 184 113 243Q79 302 60 370Q41 438 41 512Q41 586 60 654Q79 722 113 781Q147 840 195.5 888.5Q244 937 302.5 971.5Q361 1006 429 1025Q497 1044 571 1044Q659 1044 736 1020Q813 996 876 953.5Q939 911 987 851.5Q1035 792 1065 721L815 614Q800 650 776 680.5Q752 711 720.5 732.5Q689 754 651.5 766Q614 778 573 778Q518 778 470 757Q422 736 387 700Q352 664 331.5 615.5Q311 567 311 512Q311 457 331.5 408.5Q352 360 387 324Q422 288 470 267Q518 246 573 246Q614 246 651.5 258Q689 270 720.5 291.5Q752 313 776 343.5Q800 374 815 410L1065 303Q1035 232 987 172.5Q939 113 876 70Q813 27 736 3.5Q659 -20 571 -20Z" glyph-name="c" horiz-adv-x="1096" unicode="c" /><glyph d="M150 1475H360L479 1294L600 1475H811L567 1126H393Z" glyph-name="caron" horiz-adv-x="965" unicode="&#711;" /><glyph d="M571 -492Q491 -492 414 -457.5Q337 -423 279 -371L438 -274Q456 -288 472.5 -300.5Q489 -313 507.5 -322Q526 -331 547 -336.5Q568 -342 594 -342Q616 -342 636 -337.5Q656 -333 671.5 -324.5Q687 -316 696 -305Q705 -294 705 -281Q705 -225 588 -225H483V-12Q388 3 307.5 49.5Q227 96 167.5 165.5Q108 235 74.5 323.5Q41 412 41 512Q41 586 60 654Q79 722 113 781Q147 840 195.5 888.5Q244 937 302.5 971.5Q361 1006 429 1025Q497 1044 571 1044Q659 1044 736 1020Q813 996 876 953.5Q939 911 987 851.5Q1035 792 1065 721L815 614Q800 650 776 680.5Q752 711 720.5 732.5Q689 754 651.5 766Q614 778 573 778Q518 778 470 757Q422 736 387 700Q352 664 331.5 615.5Q311 567 311 512Q311 457 331.5 408.5Q352 360 387 324Q422 288 470 267Q518 246 573 246Q614 246 651.5 258Q689 270 720.5 291.5Q752 313 776 343.5Q800 374 815 410L1065 303Q1039 241 998.5 187.5Q958 134 906 92.5Q854 51 791.5 23.5Q729 -4 657 -14V-109Q715 -106 759 -117.5Q803 -129 833 -150.5Q863 -172 878 -203.5Q893 -235 893 -272Q893 -320 868 -360Q843 -400 799.5 -429.5Q756 -459 697.5 -475.5Q639 -492 571 -492Z" glyph-name="ccedilla" horiz-adv-x="1096" unicode="&#231;" /><glyph d="M432 -492Q352 -492 275 -457.5Q198 -423 139 -371L299 -274Q317 -288 333.5 -300.5Q350 -313 368.5 -322Q387 -331 408 -336.5Q429 -342 455 -342Q477 -342 497 -337.5Q517 -333 532 -324.5Q547 -316 556 -305Q565 -294 565 -281Q565 -225 449 -225H344V0H518V-109Q576 -106 620 -117.5Q664 -129 694 -150.5Q724 -172 739 -203.5Q754 -235 754 -272Q754 -320 729 -360Q704 -400 660.5 -429.5Q617 -459 558 -475.5Q499 -492 432 -492Z" glyph-name="cedilla" horiz-adv-x="965" unicode="&#184;" /><glyph d="M475 0Q385 25 309.5 76.5Q234 128 178.5 200Q123 272 92 360.5Q61 449 61 547Q61 645 92 733.5Q123 822 178.5 894Q234 966 309.5 1017.5Q385 1069 475 1094V1362H760V1100Q829 1085 889 1054.5Q949 1024 999 981Q1049 938 1088 884.5Q1127 831 1153 770L901 662Q884 703 856.5 737.5Q829 772 794 796.5Q759 821 716.5 834.5Q674 848 627 848Q565 848 511 824.5Q457 801 417 760.5Q377 720 354.5 665Q332 610 332 547Q332 484 354.5 429Q377 374 417 333.5Q457 293 511 269.5Q565 246 627 246Q674 246 716.5 259.5Q759 273 794 297.5Q829 322 856.5 355.5Q884 389 901 430L1153 324Q1100 199 999.5 112Q899 25 760 -6V-266H475Z" glyph-name="cent" horiz-adv-x="1204" unicode="&#162;" /><glyph d="M395 1475H569L813 1126H602L481 1307L362 1126H152Z" glyph-name="circumflex" horiz-adv-x="965" unicode="&#710;" /><glyph d="M43 139Q43 177 55 208Q67 239 89.5 261.5Q112 284 142.5 296.5Q173 309 211 309Q248 309 279.5 296.5Q311 284 333.5 261.5Q356 239 368.5 208Q381 177 381 139Q381 101 368.5 70.5Q356 40 333.5 17.5Q311 -5 279.5 -17Q248 -29 211 -29Q173 -29 142.5 -17Q112 -5 89.5 17.5Q67 40 55 70.5Q43 101 43 139ZM43 881Q43 918 55 949.5Q67 981 89.5 1003.5Q112 1026 142.5 1038.5Q173 1051 211 1051Q248 1051 279.5 1038.5Q311 1026 333.5 1003.5Q356 981 368.5 949.5Q381 918 381 881Q381 843 368.5 812Q356 781 333.5 759Q311 737 279.5 725Q248 713 211 713Q173 713 142.5 725Q112 737 89.5 759Q67 781 55 812Q43 843 43 881Z" glyph-name="colon" horiz-adv-x="424" unicode=":" /><glyph d="M113 178H360L217 -240H43Z" glyph-name="comma" horiz-adv-x="424" unicode="," /><glyph d="M805 -20Q699 -20 601 7.5Q503 35 418.5 84.5Q334 134 264 204Q194 274 144.5 359.5Q95 445 68 543Q41 641 41 748Q41 854 68 952Q95 1050 144.5 1135Q194 1220 264 1290.5Q334 1361 418.5 1411Q503 1461 601 1488.5Q699 1516 805 1516Q911 1516 1009.5 1488.5Q1108 1461 1193 1411Q1278 1361 1347.5 1290.5Q1417 1220 1467 1135Q1517 1050 1544 952Q1571 854 1571 748Q1571 642 1544 543.5Q1517 445 1467 359.5Q1417 274 1347.5 204Q1278 134 1193 84.5Q1108 35 1009.5 7.5Q911 -20 805 -20ZM805 197Q919 197 1018.5 240.5Q1118 284 1192 358.5Q1266 433 1309 533.5Q1352 634 1352 748Q1352 862 1309 962Q1266 1062 1192 1136.5Q1118 1211 1018.5 1254.5Q919 1298 805 1298Q689 1298 590.5 1254.5Q492 1211 420 1136.5Q348 1062 307 962Q266 862 266 748Q266 634 307 533.5Q348 433 420 358.5Q492 284 590.5 240.5Q689 197 805 197ZM819 334Q727 334 649.5 366.5Q572 399 516.5 455Q461 511 430 586.5Q399 662 399 748Q399 834 430.5 909Q462 984 517.5 1040Q573 1096 650 1128.5Q727 1161 819 1161Q881 1161 937.5 1143.5Q994 1126 1041 1096Q1088 1066 1124.5 1025Q1161 984 1184 936L967 838Q962 857 950 875Q938 893 919.5 907Q901 921 875 929.5Q849 938 817 938Q777 938 743 923Q709 908 683.5 882.5Q658 857 643.5 822.5Q629 788 629 748Q629 708 643.5 673Q658 638 683.5 612.5Q709 587 743 572Q777 557 817 557Q848 557 873.5 566Q899 575 919 589Q939 603 952 621.5Q965 640 971 659L1194 582Q1171 529 1134 484Q1097 439 1049 405.5Q1001 372 942.5 353Q884 334 819 334Z" glyph-name="copyright" horiz-adv-x="1612" unicode="&#169;" /><glyph d="M799 209Q726 209 659.5 226.5Q593 244 535 276L272 6L66 209L334 483Q302 540 285 605Q268 670 268 741Q268 814 286 880.5Q304 947 336 1006L61 1294L270 1491L541 1208Q598 1239 663 1256.5Q728 1274 799 1274Q868 1274 932 1257.5Q996 1241 1053 1210L1311 1475L1518 1274L1257 1008Q1292 949 1310.5 881.5Q1329 814 1329 741Q1329 666 1310 598Q1291 530 1255 471L1518 199L1311 0L1049 270Q993 241 930 225Q867 209 799 209ZM799 475Q853 475 900 496Q947 517 982 553.5Q1017 590 1037 638.5Q1057 687 1057 741Q1057 796 1037 844.5Q1017 893 982 929.5Q947 966 900 987Q853 1008 799 1008Q744 1008 697.5 987Q651 966 616.5 929.5Q582 893 562.5 844.5Q543 796 543 741Q543 687 562.5 638.5Q582 590 616.5 553.5Q651 517 697.5 496Q744 475 799 475Z" glyph-name="currency" horiz-adv-x="1583" unicode="&#164;" /><glyph d="M535 -20Q481 -20 423 -5.5Q365 9 310 38Q255 67 206 111Q157 155 120.5 214Q84 273 62.5 347.5Q41 422 41 512Q41 648 86 748Q131 848 203 914Q275 980 363.5 1012Q452 1044 539 1044Q639 1044 716 1011Q793 978 844 924V1495H1124V0H844V115Q793 55 714 17.5Q635 -20 535 -20ZM590 238Q647 238 695 259.5Q743 281 778 318.5Q813 356 832.5 406.5Q852 457 852 514Q852 571 832.5 621Q813 671 778 708Q743 745 695 766.5Q647 788 590 788Q531 788 481 767.5Q431 747 394 710.5Q357 674 336 623.5Q315 573 315 514Q315 455 336 404.5Q357 354 394 317Q431 280 481 259Q531 238 590 238Z" glyph-name="d" horiz-adv-x="1196" unicode="d" /><glyph d="M72 1024H393V1495H678V1024H999V770H678V0H393V770H72Z" glyph-name="dagger" horiz-adv-x="1071" unicode="&#8224;" /><glyph d="M72 1139H393V1495H678V1139H999V889H678V625H999V375H678V0H393V375H72V625H393V889H72Z" glyph-name="daggerdbl" horiz-adv-x="1071" unicode="&#8225;" /><glyph d="M408 782Q332 782 265 811Q198 840 148.5 889.5Q99 939 70 1006Q41 1073 41 1149Q41 1225 70 1292Q99 1359 148.5 1408.5Q198 1458 265 1487Q332 1516 408 1516Q484 1516 550.5 1487Q617 1458 666.5 1408.5Q716 1359 745 1292Q774 1225 774 1149Q774 1073 745 1006Q716 939 666.5 889.5Q617 840 550.5 811Q484 782 408 782ZM408 1020Q434 1020 457.5 1030.5Q481 1041 498.5 1058.5Q516 1076 526.5 1099.5Q537 1123 537 1149Q537 1175 526.5 1198.5Q516 1222 498.5 1239.5Q481 1257 457.5 1267.5Q434 1278 408 1278Q382 1278 358.5 1267.5Q335 1257 317.5 1239.5Q300 1222 289.5 1198.5Q279 1175 279 1149Q279 1123 289.5 1099.5Q300 1076 317.5 1058.5Q335 1041 358.5 1030.5Q382 1020 408 1020Z" glyph-name="degree" horiz-adv-x="815" unicode="&#176;" /><glyph d="M106 1266Q106 1303 118 1333.5Q130 1364 151.5 1386Q173 1408 203 1420Q233 1432 270 1432Q307 1432 337.5 1420Q368 1408 390 1386Q412 1364 424 1333.5Q436 1303 436 1266Q436 1191 390.5 1146.5Q345 1102 270 1102Q196 1102 151 1146.5Q106 1191 106 1266ZM528 1266Q528 1303 540 1333.5Q552 1364 573.5 1386Q595 1408 625 1420Q655 1432 692 1432Q729 1432 759.5 1420Q790 1408 812 1386Q834 1364 846 1333.5Q858 1303 858 1266Q858 1191 812.5 1146.5Q767 1102 692 1102Q618 1102 573 1146.5Q528 1191 528 1266Z" glyph-name="dieresis" horiz-adv-x="965" unicode="&#168;" /><glyph d="M72 866H829V627H72ZM315 1067Q315 1129 352 1167.5Q389 1206 451 1206Q481 1206 506.5 1196Q532 1186 550.5 1167.5Q569 1149 579.5 1123.5Q590 1098 590 1067Q590 1005 551 968.5Q512 932 451 932Q389 932 352 968.5Q315 1005 315 1067ZM315 422Q315 484 352 522.5Q389 561 451 561Q481 561 506.5 551Q532 541 550.5 522.5Q569 504 579.5 478.5Q590 453 590 422Q590 360 551 323.5Q512 287 451 287Q389 287 352 323.5Q315 360 315 422Z" glyph-name="divide" horiz-adv-x="901" unicode="&#247;" /><glyph d="M1157 446Q1157 369 1130.5 295Q1104 221 1052.5 159.5Q1001 98 926.5 54Q852 10 756 -8V-246H471V-6Q327 20 215.5 88Q104 156 25 248L285 453Q319 394 369.5 350.5Q420 307 479 283V666Q408 687 336.5 719Q265 751 208 800Q151 849 115.5 918.5Q80 988 80 1085Q80 1162 108.5 1231Q137 1300 189 1355.5Q241 1411 312.5 1450Q384 1489 471 1505V1720H756V1499Q871 1474 956 1422Q1041 1370 1110 1298L874 1120Q850 1155 817.5 1182.5Q785 1210 748 1227V881Q820 857 893 823Q966 789 1024.5 738Q1083 687 1120 616Q1157 545 1157 446ZM868 449Q868 499 834.5 532Q801 565 748 588V274Q805 299 836.5 347Q868 395 868 449ZM365 1096Q365 1043 395 1013Q425 983 479 963V1241Q425 1221 395 1183Q365 1145 365 1096Z" glyph-name="dollar" horiz-adv-x="1204" unicode="$" /><glyph d="M293 1266Q293 1303 305 1334.5Q317 1366 339 1388.5Q361 1411 392 1423.5Q423 1436 461 1436Q498 1436 529.5 1423.5Q561 1411 583.5 1388.5Q606 1366 618.5 1334.5Q631 1303 631 1266Q631 1228 618.5 1197Q606 1166 583.5 1144Q561 1122 529.5 1110Q498 1098 461 1098Q385 1098 339 1144Q293 1190 293 1266Z" glyph-name="dotaccent" horiz-adv-x="965" unicode="&#729;" /><glyph d="M72 1024H352V0H72Z" glyph-name="dotlessi" horiz-adv-x="424" unicode="&#305;" /><glyph d="M582 -20Q462 -20 362.5 21.5Q263 63 191.5 135Q120 207 80.5 304Q41 401 41 512Q41 586 60 654Q79 722 113.5 781Q148 840 196.5 888.5Q245 937 304.5 971.5Q364 1006 431.5 1025Q499 1044 573 1044Q691 1044 788 1002.5Q885 961 955 889.5Q1025 818 1063.5 721.5Q1102 625 1102 514V412H311Q336 327 404 276Q472 225 584 225Q669 225 735.5 268Q802 311 836 385L1059 252Q1026 192 979.5 142Q933 92 873 56Q813 20 740 0Q667 -20 582 -20ZM575 799Q531 799 492 787Q453 775 421 754Q389 733 364.5 703Q340 673 324 637H819Q791 717 728 758Q665 799 575 799Z" glyph-name="e" horiz-adv-x="1145" unicode="e" /><glyph d="M582 -20Q462 -20 362.5 21.5Q263 63 191.5 135Q120 207 80.5 304Q41 401 41 512Q41 586 60 654Q79 722 113.5 781Q148 840 196.5 888.5Q245 937 304.5 971.5Q364 1006 431.5 1025Q499 1044 573 1044Q691 1044 788 1002.5Q885 961 955 889.5Q1025 818 1063.5 721.5Q1102 625 1102 514V412H311Q336 327 404 276Q472 225 584 225Q669 225 735.5 268Q802 311 836 385L1059 252Q1026 192 979.5 142Q933 92 873 56Q813 20 740 0Q667 -20 582 -20ZM690 1475H952L645 1126H457ZM575 799Q531 799 492 787Q453 775 421 754Q389 733 364.5 703Q340 673 324 637H819Q791 717 728 758Q665 799 575 799Z" glyph-name="eacute" horiz-adv-x="1145" unicode="&#233;" /><glyph d="M582 -20Q462 -20 362.5 21.5Q263 63 191.5 135Q120 207 80.5 304Q41 401 41 512Q41 586 60 654Q79 722 113.5 781Q148 840 196.5 888.5Q245 937 304.5 971.5Q364 1006 431.5 1025Q499 1044 573 1044Q691 1044 788 1002.5Q885 961 955 889.5Q1025 818 1063.5 721.5Q1102 625 1102 514V412H311Q336 327 404 276Q472 225 584 225Q669 225 735.5 268Q802 311 836 385L1059 252Q1026 192 979.5 142Q933 92 873 56Q813 20 740 0Q667 -20 582 -20ZM477 1475H651L895 1126H684L563 1307L444 1126H233ZM575 799Q531 799 492 787Q453 775 421 754Q389 733 364.5 703Q340 673 324 637H819Q791 717 728 758Q665 799 575 799Z" glyph-name="ecircumflex" horiz-adv-x="1145" unicode="&#234;" /><glyph d="M582 -20Q462 -20 362.5 21.5Q263 63 191.5 135Q120 207 80.5 304Q41 401 41 512Q41 586 60 654Q79 722 113.5 781Q148 840 196.5 888.5Q245 937 304.5 971.5Q364 1006 431.5 1025Q499 1044 573 1044Q691 1044 788 1002.5Q885 961 955 889.5Q1025 818 1063.5 721.5Q1102 625 1102 514V412H311Q336 327 404 276Q472 225 584 225Q669 225 735.5 268Q802 311 836 385L1059 252Q1026 192 979.5 142Q933 92 873 56Q813 20 740 0Q667 -20 582 -20ZM195 1266Q195 1303 206.5 1333.5Q218 1364 239.5 1386Q261 1408 291 1420Q321 1432 358 1432Q395 1432 425.5 1420Q456 1408 478 1386Q500 1364 512 1333.5Q524 1303 524 1266Q524 1191 478.5 1146.5Q433 1102 358 1102Q284 1102 239.5 1146.5Q195 1191 195 1266ZM616 1266Q616 1303 628 1333.5Q640 1364 661.5 1386Q683 1408 713 1420Q743 1432 780 1432Q817 1432 847.5 1420Q878 1408 900 1386Q922 1364 934 1333.5Q946 1303 946 1266Q946 1191 900.5 1146.5Q855 1102 780 1102Q706 1102 661 1146.5Q616 1191 616 1266ZM575 799Q531 799 492 787Q453 775 421 754Q389 733 364.5 703Q340 673 324 637H819Q791 717 728 758Q665 799 575 799Z" glyph-name="edieresis" horiz-adv-x="1145" unicode="&#235;" /><glyph d="M582 -20Q462 -20 362.5 21.5Q263 63 191.5 135Q120 207 80.5 304Q41 401 41 512Q41 586 60 654Q79 722 113.5 781Q148 840 196.5 888.5Q245 937 304.5 971.5Q364 1006 431.5 1025Q499 1044 573 1044Q691 1044 788 1002.5Q885 961 955 889.5Q1025 818 1063.5 721.5Q1102 625 1102 514V412H311Q336 327 404 276Q472 225 584 225Q669 225 735.5 268Q802 311 836 385L1059 252Q1026 192 979.5 142Q933 92 873 56Q813 20 740 0Q667 -20 582 -20ZM193 1475H455L688 1126H500ZM575 799Q531 799 492 787Q453 775 421 754Q389 733 364.5 703Q340 673 324 637H819Q791 717 728 758Q665 799 575 799Z" glyph-name="egrave" horiz-adv-x="1145" unicode="&#232;" /><glyph d="M600 -20Q473 -20 374 12.5Q275 45 207 106Q139 167 103.5 254Q68 341 68 449Q68 563 115.5 650.5Q163 738 250 797Q188 849 153.5 921Q119 993 119 1087Q119 1185 154 1264Q189 1343 253.5 1399Q318 1455 408.5 1485.5Q499 1516 610 1516Q719 1516 809 1485.5Q899 1455 963 1399Q1027 1343 1062.5 1264Q1098 1185 1098 1087Q1098 993 1060.5 920Q1023 847 958 795Q1043 736 1090 649.5Q1137 563 1137 449Q1137 341 1100.5 254Q1064 167 994.5 106Q925 45 825.5 12.5Q726 -20 600 -20ZM600 231Q665 231 714.5 248Q764 265 797 294.5Q830 324 847 364Q864 404 864 449Q864 494 847.5 533.5Q831 573 798 602.5Q765 632 717 649Q669 666 606 666Q542 666 493 648.5Q444 631 410.5 601.5Q377 572 359.5 532.5Q342 493 342 449Q342 404 357.5 364Q373 324 405 294.5Q437 265 485.5 248Q534 231 600 231ZM604 903Q662 903 705.5 917.5Q749 932 778.5 957Q808 982 823 1015.5Q838 1049 838 1087Q838 1126 823 1160Q808 1194 779 1219.5Q750 1245 708 1259.5Q666 1274 612 1274Q557 1274 513.5 1259.5Q470 1245 440 1219.5Q410 1194 394.5 1160Q379 1126 379 1087Q379 1048 393 1014.5Q407 981 435 956Q463 931 505 917Q547 903 604 903Z" glyph-name="eight" horiz-adv-x="1204" unicode="8" /><glyph d="M43 139Q43 177 55 208Q67 239 89.5 261.5Q112 284 142.5 296.5Q173 309 211 309Q248 309 279.5 296.5Q311 284 333.5 261.5Q356 239 368.5 208Q381 177 381 139Q381 101 368.5 70.5Q356 40 333.5 17.5Q311 -5 279.5 -17Q248 -29 211 -29Q173 -29 142.5 -17Q112 -5 89.5 17.5Q67 40 55 70.5Q43 101 43 139ZM446 139Q446 177 458 208Q470 239 492.5 261.5Q515 284 545.5 296.5Q576 309 614 309Q652 309 683 296.5Q714 284 736.5 261.5Q759 239 771.5 208Q784 177 784 139Q784 101 771.5 70.5Q759 40 736.5 17.5Q714 -5 683 -17Q652 -29 614 -29Q576 -29 545.5 -17Q515 -5 492.5 17.5Q470 40 458 70.5Q446 101 446 139ZM848 139Q848 177 860 208Q872 239 894 261.5Q916 284 947 296.5Q978 309 1016 309Q1053 309 1084.5 296.5Q1116 284 1138.5 261.5Q1161 239 1173.5 208Q1186 177 1186 139Q1186 101 1173.5 70.5Q1161 40 1138.5 17.5Q1116 -5 1084.5 -17Q1053 -29 1016 -29Q978 -29 947 -17Q916 -5 894 17.5Q872 40 860 70.5Q848 101 848 139Z" glyph-name="ellipsis" horiz-adv-x="1231" unicode="&#8230;" /><glyph d="M72 641H1300V401H72Z" glyph-name="emdash" horiz-adv-x="1372" unicode="&#8212;" /><glyph d="M72 641H891V401H72Z" glyph-name="endash" horiz-adv-x="963" unicode="&#8211;" /><glyph d="M72 1034H829V795H72ZM72 692H829V453H72Z" glyph-name="equal" horiz-adv-x="901" unicode="=" /><glyph d="M442 1253Q374 1309 295.5 1369Q217 1429 121 1495H510Q541 1470 570 1447Q599 1424 625 1399L766 1511L862 1415L725 1305Q827 1203 898.5 1103.5Q970 1004 1015.5 906.5Q1061 809 1081.5 713.5Q1102 618 1102 526Q1102 410 1061 310.5Q1020 211 948 137.5Q876 64 778.5 22Q681 -20 569 -20Q463 -20 367.5 20Q272 60 199.5 130.5Q127 201 84 298.5Q41 396 41 510Q41 622 79.5 716Q118 810 185 877.5Q252 945 343.5 982.5Q435 1020 541 1020Q595 1020 638.5 1008.5Q682 997 717 977Q683 1022 641 1067.5Q599 1113 547 1161L406 1049L307 1145ZM571 246Q623 246 670 267.5Q717 289 752.5 325Q788 361 808.5 409Q829 457 829 510Q829 565 809.5 614Q790 663 755.5 699.5Q721 736 674.5 757Q628 778 573 778Q522 778 475 758.5Q428 739 392.5 704Q357 669 336 619.5Q315 570 315 510Q315 452 335.5 403.5Q356 355 391.5 320Q427 285 473.5 265.5Q520 246 571 246Z" glyph-name="eth" horiz-adv-x="1149" unicode="&#240;" /><glyph d="M135 403Q121 496 109.5 602Q98 708 89.5 819Q81 930 76.5 1041Q72 1152 72 1255V1495H352V1255Q352 1152 347.5 1041Q343 930 334.5 819Q326 708 314.5 602Q303 496 289 403ZM43 139Q43 177 55 208Q67 239 89.5 261.5Q112 284 142.5 296.5Q173 309 211 309Q248 309 279.5 296.5Q311 284 333.5 261.5Q356 239 368.5 208Q381 177 381 139Q381 101 368.5 70.5Q356 40 333.5 17.5Q311 -5 279.5 -17Q248 -29 211 -29Q173 -29 142.5 -17Q112 -5 89.5 17.5Q67 40 55 70.5Q43 101 43 139Z" glyph-name="exclam" horiz-adv-x="424" unicode="!" /><glyph d="M289 621Q303 528 314.5 422Q326 316 334.5 205Q343 94 347.5 -17Q352 -128 352 -231V-471H72V-231Q72 -128 76.5 -17Q81 94 89.5 205Q98 316 109.5 422Q121 528 135 621ZM381 883Q381 845 368.5 814Q356 783 333.5 761Q311 739 279.5 727Q248 715 211 715Q173 715 142.5 727Q112 739 89.5 761Q67 783 55 814Q43 845 43 883Q43 920 55 951.5Q67 983 89.5 1005.5Q112 1028 142.5 1040.5Q173 1053 211 1053Q248 1053 279.5 1040.5Q311 1028 333.5 1005.5Q356 983 368.5 951.5Q381 920 381 883Z" glyph-name="exclamdown" horiz-adv-x="424" unicode="&#161;" /><glyph d="M51 1024H225V1051Q225 1176 247.5 1261Q270 1346 322.5 1398Q375 1450 461.5 1472.5Q548 1495 676 1495H698V1233Q633 1233 595 1226.5Q557 1220 537.5 1200.5Q518 1181 512 1145Q506 1109 506 1049V1024H698V772H506V0H225V772H51Z" glyph-name="f" horiz-adv-x="750" unicode="f" /><glyph d="M51 1024H225V1051Q225 1176 247.5 1261Q270 1346 322.5 1398Q375 1450 461.5 1472.5Q548 1495 676 1495H698V1233Q633 1233 595 1226.5Q557 1220 537.5 1200.5Q518 1181 512 1145Q506 1109 506 1049V1024H698V772H506V0H225V772H51ZM801 1024H1081V0H801ZM772 1294Q772 1332 784 1363Q796 1394 818.5 1416.5Q841 1439 871.5 1451.5Q902 1464 940 1464Q977 1464 1008.5 1451.5Q1040 1439 1062.5 1416.5Q1085 1394 1097.5 1363Q1110 1332 1110 1294Q1110 1256 1097.5 1225.5Q1085 1195 1062.5 1172.5Q1040 1150 1008.5 1138Q977 1126 940 1126Q902 1126 871.5 1138Q841 1150 818.5 1172.5Q796 1195 784 1225.5Q772 1256 772 1294Z" glyph-name="fi" horiz-adv-x="1153" unicode="&#64257;" /><glyph d="M600 -20Q494 -20 407 2Q320 24 251.5 63Q183 102 133 155Q83 208 51 270L328 430Q359 345 430 293.5Q501 242 604 242Q653 242 698.5 261.5Q744 281 779 315.5Q814 350 835 398Q856 446 856 504Q856 560 838 609Q820 658 786.5 695Q753 732 705 753Q657 774 596 774Q548 774 508.5 763Q469 752 437 732.5Q405 713 379 686Q353 659 332 627L78 758L184 1495H1079V1229H408L369 965Q415 992 481.5 1013Q548 1034 639 1034Q741 1034 832.5 1001Q924 968 993 902Q1062 836 1102.5 736Q1143 636 1143 502Q1143 391 1102.5 295.5Q1062 200 989.5 130Q917 60 817.5 20Q718 -20 600 -20Z" glyph-name="five" horiz-adv-x="1204" unicode="5" /><glyph d="M51 1024H225V1051Q225 1176 247.5 1261Q270 1346 322.5 1398Q375 1450 461.5 1472.5Q548 1495 676 1495H698V1233Q633 1233 595 1226.5Q557 1220 537.5 1200.5Q518 1181 512 1145Q506 1109 506 1049V1024H698V772H506V0H225V772H51ZM1081 1495V0H801V1495Z" glyph-name="fl" horiz-adv-x="1153" unicode="&#64258;" /><glyph d="M92 872H485L535 1051Q570 1178 621.5 1263.5Q673 1349 742 1400.5Q811 1452 898 1473.5Q985 1495 1092 1495H1114V1233Q1043 1233 994 1225Q945 1217 911.5 1196Q878 1175 857 1139.5Q836 1104 821 1049L772 872H1112V621H702L653 444Q618 321 572.5 236Q527 151 465 98.5Q403 46 322.5 23Q242 0 139 0H92V262Q154 262 199.5 271Q245 280 277 301Q309 322 330.5 357.5Q352 393 367 446L414 621H92Z" glyph-name="florin" horiz-adv-x="1204" unicode="&#402;" /><glyph d="M688 303H82V563L653 1495H965V563H1122V303H965V0H688ZM688 563V1069L377 563Z" glyph-name="four" horiz-adv-x="1204" unicode="4" /><glyph d="M1100 1495H1427L348 0H20Z" glyph-name="fraction" horiz-adv-x="1446" unicode="&#8260;" /><glyph d="M535 -20Q481 -20 423 -5.5Q365 9 310 38Q255 67 206 111Q157 155 120.5 214Q84 273 62.5 347.5Q41 422 41 512Q41 648 86 748Q131 848 203 914Q275 980 363.5 1012Q452 1044 539 1044Q639 1044 716 1007Q793 970 844 913V1024H1124V29Q1124 -79 1090 -174.5Q1056 -270 989.5 -341Q923 -412 824.5 -453Q726 -494 596 -494Q498 -494 414.5 -470.5Q331 -447 263 -406.5Q195 -366 144.5 -312.5Q94 -259 63 -199L311 -59Q352 -140 422.5 -186.5Q493 -233 596 -233Q653 -233 699 -212.5Q745 -192 777 -157.5Q809 -123 826.5 -77.5Q844 -32 844 18V115Q793 55 714 17.5Q635 -20 535 -20ZM590 238Q647 238 695 259.5Q743 281 778 318.5Q813 356 832.5 406.5Q852 457 852 514Q852 571 832.5 621Q813 671 778 708Q743 745 695 766.5Q647 788 590 788Q531 788 481 767.5Q431 747 394 710.5Q357 674 336 623.5Q315 573 315 514Q315 455 336 404.5Q357 354 394 317Q431 280 481 259Q531 238 590 238Z" glyph-name="g" horiz-adv-x="1196" unicode="g" /><glyph d="M-121 -209Q-57 -209 -18.5 -202.5Q20 -196 40 -176.5Q60 -157 66 -121Q72 -85 72 -25V1034Q69 1135 96.5 1219Q124 1303 181.5 1363.5Q239 1424 326 1457.5Q413 1491 528 1491Q628 1491 710.5 1459.5Q793 1428 851.5 1372.5Q910 1317 942.5 1239.5Q975 1162 975 1071Q975 972 932.5 896.5Q890 821 815 768L809 764Q853 746 891.5 713.5Q930 681 958.5 637.5Q987 594 1003.5 542Q1020 490 1020 432Q1020 333 985 250Q950 167 887 107Q824 47 735.5 13.5Q647 -20 541 -20Q521 -20 492 -19.5Q463 -19 438 -14V231H537Q580 231 616.5 246Q653 261 678.5 288Q704 315 718.5 351.5Q733 388 733 430Q733 471 716 507.5Q699 544 667.5 571.5Q636 599 589.5 615Q543 631 485 631H438V885H485Q537 885 577.5 899.5Q618 914 646.5 939Q675 964 690 998Q705 1032 705 1071Q705 1110 692.5 1143Q680 1176 657 1200.5Q634 1225 600 1239Q566 1253 524 1253Q435 1253 385.5 1208Q336 1163 336 1063V-27Q336 -152 317 -237Q298 -322 250.5 -374Q203 -426 122.5 -448.5Q42 -471 -80 -471H-121Z" glyph-name="germandbls" horiz-adv-x="1061" unicode="&#223;" /><glyph d="M213 1475H475L709 1126H520Z" glyph-name="grave" horiz-adv-x="965" unicode="`" /><glyph d="M72 598 522 743 72 889V1137L829 864V625L72 350Z" glyph-name="greater" horiz-adv-x="901" unicode="&gt;" /><glyph d="M70 780 520 926 70 1071V1319L827 1047V807L70 532ZM70 469H827V229H70Z" glyph-name="greaterequal" horiz-adv-x="901" unicode="&#8805;" /><glyph d="M92 444V602L469 834V643L266 522L469 403V213ZM510 444V602L887 834V643L684 522L887 403V213Z" glyph-name="guillemotleft" horiz-adv-x="979" unicode="&#171;" /><glyph d="M510 403 713 522 510 643V834L887 602V444L510 213ZM92 403 295 522 92 643V834L469 602V444L92 213Z" glyph-name="guillemotright" horiz-adv-x="979" unicode="&#187;" /><glyph d="M106 436V610L455 854V643L274 522L455 403V193Z" glyph-name="guilsinglleft" horiz-adv-x="561" unicode="&#8249;" /><glyph d="M106 406 287 524 106 645V856L455 612V438L106 195Z" glyph-name="guilsinglright" horiz-adv-x="561" unicode="&#8250;" /><glyph d="M72 1495H350V911Q401 973 473 1008.5Q545 1044 633 1044Q723 1044 795 1015.5Q867 987 917 933.5Q967 880 993.5 802Q1020 724 1020 625V0H735V586Q735 691 688 748Q641 805 547 805Q507 805 471.5 790.5Q436 776 409.5 746Q383 716 367.5 669.5Q352 623 352 559V0H72Z" glyph-name="h" horiz-adv-x="1092" unicode="h" /><glyph d="M303 1475H551L244 1126H70ZM645 1475H893L586 1126H412Z" glyph-name="hungarumlaut" horiz-adv-x="965" unicode="&#733;" /><glyph d="M72 641H829V401H72Z" glyph-name="hyphen" horiz-adv-x="901" unicode="-" /><glyph d="M72 1024H352V0H72ZM43 1294Q43 1332 55 1363Q67 1394 89.5 1416.5Q112 1439 142.5 1451.5Q173 1464 211 1464Q248 1464 279.5 1451.5Q311 1439 333.5 1416.5Q356 1394 368.5 1363Q381 1332 381 1294Q381 1256 368.5 1225.5Q356 1195 333.5 1172.5Q311 1150 279.5 1138Q248 1126 211 1126Q173 1126 142.5 1138Q112 1150 89.5 1172.5Q67 1195 55 1225.5Q43 1256 43 1294Z" glyph-name="i" horiz-adv-x="424" unicode="i" /><glyph d="M72 1024H352V0H72ZM313 1475H575L268 1126H80Z" glyph-name="iacute" horiz-adv-x="424" unicode="&#237;" /><glyph d="M72 1024H352V0H72ZM125 1475H299L543 1126H332L211 1307L92 1126H-119Z" glyph-name="icircumflex" horiz-adv-x="424" unicode="&#238;" /><glyph d="M72 1024H352V0H72ZM-164 1264Q-164 1301 -152 1331.5Q-140 1362 -118.5 1384Q-97 1406 -67 1418Q-37 1430 0 1430Q37 1430 67.5 1418Q98 1406 120 1384Q142 1362 154 1331.5Q166 1301 166 1264Q166 1189 120 1144.5Q74 1100 0 1100Q-74 1100 -119 1144.5Q-164 1189 -164 1264ZM258 1264Q258 1301 270 1331.5Q282 1362 303.5 1384Q325 1406 355 1418Q385 1430 422 1430Q459 1430 489.5 1418Q520 1406 542 1384Q564 1362 576 1331.5Q588 1301 588 1264Q588 1189 542 1144.5Q496 1100 422 1100Q348 1100 303 1144.5Q258 1189 258 1264Z" glyph-name="idieresis" horiz-adv-x="424" unicode="&#239;" /><glyph d="M72 1024H352V0H72ZM-178 1475H84L317 1126H129Z" glyph-name="igrave" horiz-adv-x="424" unicode="&#236;" /><glyph d="M510 420Q434 420 367 449Q300 478 250.5 527.5Q201 577 172 643.5Q143 710 143 786Q143 862 172 929Q201 996 250.5 1045.5Q300 1095 367 1124Q434 1153 510 1153Q570 1153 624.5 1136.5Q679 1120 729 1091.5Q779 1063 824.5 1026Q870 989 913 948Q955 989 1001 1026Q1047 1063 1096.5 1091.5Q1146 1120 1200 1136.5Q1254 1153 1313 1153Q1389 1153 1456 1124Q1523 1095 1572.5 1045.5Q1622 996 1650.5 929Q1679 862 1679 786Q1679 710 1650.5 643.5Q1622 577 1572.5 527.5Q1523 478 1456 449Q1389 420 1313 420Q1254 420 1200 436.5Q1146 453 1096.5 481Q1047 509 1001.5 546Q956 583 913 623Q870 583 824.5 546Q779 509 729 481Q679 453 624.5 436.5Q570 420 510 420ZM510 657Q570 657 628.5 694Q687 731 745 786Q687 842 628.5 878.5Q570 915 510 915Q484 915 460.5 904.5Q437 894 419.5 876.5Q402 859 391.5 835.5Q381 812 381 786Q381 760 391.5 736.5Q402 713 419.5 695.5Q437 678 460.5 667.5Q484 657 510 657ZM1313 657Q1339 657 1362.5 667.5Q1386 678 1403.5 695.5Q1421 713 1431.5 736.5Q1442 760 1442 786Q1442 812 1431.5 835.5Q1421 859 1403.5 876.5Q1386 894 1362.5 904.5Q1339 915 1313 915Q1253 915 1196 878.5Q1139 842 1079 786Q1139 731 1196 694Q1253 657 1313 657Z" glyph-name="infinity" horiz-adv-x="1823" unicode="&#8734;" /><glyph d="M33 -180Q97 -180 135.5 -174Q174 -168 193.5 -148.5Q213 -129 219 -94Q225 -59 225 0V1051Q225 1176 247.5 1261Q270 1346 322.5 1398Q375 1450 461.5 1472.5Q548 1495 676 1495H698V1233Q633 1233 595 1226.5Q557 1220 537.5 1200.5Q518 1181 512 1145Q506 1109 506 1049V2Q506 -123 483.5 -208Q461 -293 408.5 -345Q356 -397 269.5 -419.5Q183 -442 55 -442H33Z" glyph-name="integral" horiz-adv-x="748" unicode="&#8747;" /><glyph d="M-121 -209Q-57 -209 -18.5 -202.5Q20 -196 40 -176.5Q60 -157 66 -121Q72 -85 72 -25V1024H352V-27Q352 -152 330.5 -237Q309 -322 258.5 -374Q208 -426 125 -448.5Q42 -471 -80 -471H-121ZM43 1294Q43 1332 55 1363Q67 1394 89.5 1416.5Q112 1439 142.5 1451.5Q173 1464 211 1464Q248 1464 279.5 1451.5Q311 1439 333.5 1416.5Q356 1394 368.5 1363Q381 1332 381 1294Q381 1256 368.5 1225.5Q356 1195 333.5 1172.5Q311 1150 279.5 1138Q248 1126 211 1126Q173 1126 142.5 1138Q112 1150 89.5 1172.5Q67 1195 55 1225.5Q43 1256 43 1294Z" glyph-name="j" horiz-adv-x="424" unicode="j" /><glyph d="M489 410 352 248V0H72V1495H352V571L729 1024H1055L682 582L1075 0H768Z" glyph-name="k" horiz-adv-x="1110" unicode="k" /><glyph d="M352 1495V0H72V1495Z" glyph-name="l" horiz-adv-x="424" unicode="l" /><glyph d="M72 625V864L829 1137V889L379 743L829 598V350Z" glyph-name="less" horiz-adv-x="901" unicode="&lt;" /><glyph d="M70 807V1047L827 1319V1071L377 926L827 780V532ZM70 469H827V229H70Z" glyph-name="lessequal" horiz-adv-x="901" unicode="&#8804;" /><glyph d="M879 786H57V1059H1163V313H879Z" glyph-name="logicalnot" horiz-adv-x="1235" unicode="&#172;" /><glyph d="M68 750 846 1528 1628 745 850 -33ZM852 334 1260 741 842 1159 434 752Z" glyph-name="lozenge" horiz-adv-x="1726" unicode="&#9674;" /><glyph d="M72 1024H350V915Q398 975 467 1009.5Q536 1044 623 1044Q732 1044 812 1002.5Q892 961 938 883Q991 957 1074 1000.5Q1157 1044 1257 1044Q1355 1044 1428 1015.5Q1501 987 1550 933.5Q1599 880 1623 802Q1647 724 1647 625V0H1362V588Q1362 691 1320 748Q1278 805 1184 805Q1144 805 1110 790.5Q1076 776 1051.5 746Q1027 716 1013 669.5Q999 623 999 559V0H715V588Q715 691 673 748Q631 805 537 805Q497 805 463 790.5Q429 776 404.5 746Q380 716 366 669.5Q352 623 352 559V0H72Z" glyph-name="m" horiz-adv-x="1718" unicode="m" /><glyph d="M213 1303H754V1126H213Z" glyph-name="macron" horiz-adv-x="965" unicode="&#175;" /><glyph d="M61 1024H346V492Q346 360 392 290.5Q438 221 532 221Q572 221 608 235Q644 249 671 278.5Q698 308 713.5 354Q729 400 729 465V1024H1010V0H731V98Q686 43 622 11.5Q558 -20 479 -20Q441 -20 406 -12Q371 -4 340 10V-471H61Z" glyph-name="mu" horiz-adv-x="1071" unicode="&#181;" /><glyph d="M72 530 285 743 70 958 236 1124 451 909 666 1124 831 958 616 743 829 530 664 365 451 578 238 365Z" glyph-name="multiply" horiz-adv-x="901" unicode="&#215;" /><glyph d="M72 1024H350V909Q400 972 472.5 1008Q545 1044 633 1044Q723 1044 795 1015.5Q867 987 917 933.5Q967 880 993.5 802Q1020 724 1020 625V0H735V588Q735 691 688 748Q641 805 547 805Q507 805 471.5 790.5Q436 776 409.5 746Q383 716 367.5 669.5Q352 623 352 559V0H72Z" glyph-name="n" horiz-adv-x="1092" unicode="n" /><glyph d="M309 0 621 483Q601 478 581 476.5Q561 475 543 475Q443 475 355 513.5Q267 552 202 621Q137 690 99 785.5Q61 881 61 995Q61 1109 102 1205Q143 1301 215.5 1370Q288 1439 386.5 1477.5Q485 1516 600 1516Q718 1516 817.5 1475.5Q917 1435 989.5 1365Q1062 1295 1102.5 1200Q1143 1105 1143 997Q1143 891 1112 795Q1081 699 1028 621L645 0ZM606 723Q660 723 707 744.5Q754 766 789 802.5Q824 839 844 888Q864 937 864 991Q864 1046 844 1094.5Q824 1143 789 1179Q754 1215 707 1236Q660 1257 606 1257Q552 1257 504 1236Q456 1215 420 1178.5Q384 1142 363 1093Q342 1044 342 989Q342 935 363 887Q384 839 420 802.5Q456 766 504 744.5Q552 723 606 723Z" glyph-name="nine" horiz-adv-x="1204" unicode="9" /><glyph glyph-name="nonmarkingreturn" horiz-adv-x="383" /><glyph d="M678 1034H829V795H571L526 692H829V453H420L356 309H158L219 453H72V692H324L367 795H72V1034H471L535 1178H743Z" glyph-name="notequal" horiz-adv-x="901" unicode="&#8800;" /><glyph d="M72 1024H350V909Q400 972 472.5 1008Q545 1044 633 1044Q723 1044 795 1015.5Q867 987 917 933.5Q967 880 993.5 802Q1020 724 1020 625V0H735V588Q735 691 688 748Q641 805 547 805Q507 805 471.5 790.5Q436 776 409.5 746Q383 716 367.5 669.5Q352 623 352 559V0H72ZM201 1128Q201 1190 215.5 1241Q230 1292 258 1328.5Q286 1365 325.5 1385Q365 1405 416 1405Q467 1405 503.5 1389.5Q540 1374 571 1356Q600 1337 626 1322Q652 1307 678 1307Q706 1307 719.5 1328.5Q733 1350 733 1397H895Q895 1334 881.5 1283Q868 1232 841 1195.5Q814 1159 774 1139.5Q734 1120 680 1120Q650 1120 625 1126Q600 1132 578 1141Q556 1150 537.5 1161Q519 1172 502 1182Q479 1196 458 1206.5Q437 1217 416 1217Q388 1217 375 1196Q362 1175 362 1128Z" glyph-name="ntilde" horiz-adv-x="1092" unicode="&#241;" /><glyph d="M987 313H635V0H350V313H51V586H350V930H51V1202H350V1495H635V1202H987V1495H1272V1202H1587V930H1272V586H1587V313H1272V0H987ZM635 586H987V930H635Z" glyph-name="numbersign" horiz-adv-x="1638" unicode="#" /><glyph d="M571 -20Q497 -20 429 -1Q361 18 302.5 52.5Q244 87 195.5 135.5Q147 184 113 243Q79 302 60 370Q41 438 41 512Q41 586 60 654Q79 722 113 781Q147 840 195.5 888.5Q244 937 302.5 971.5Q361 1006 429 1025Q497 1044 571 1044Q682 1044 778.5 1002.5Q875 961 947 889Q1019 817 1060.5 720Q1102 623 1102 512Q1102 401 1060.5 304Q1019 207 947 135Q875 63 778.5 21.5Q682 -20 571 -20ZM571 246Q625 246 672 267Q719 288 754 324.5Q789 361 809 409.5Q829 458 829 512Q829 566 809 614.5Q789 663 754 699.5Q719 736 672 757Q625 778 571 778Q517 778 470 757Q423 736 388.5 699.5Q354 663 334.5 614.5Q315 566 315 512Q315 458 334.5 409.5Q354 361 388.5 324.5Q423 288 470 267Q517 246 571 246Z" glyph-name="o" horiz-adv-x="1143" unicode="o" /><glyph d="M571 -20Q497 -20 429 -1Q361 18 302.5 52.5Q244 87 195.5 135.5Q147 184 113 243Q79 302 60 370Q41 438 41 512Q41 586 60 654Q79 722 113 781Q147 840 195.5 888.5Q244 937 302.5 971.5Q361 1006 429 1025Q497 1044 571 1044Q682 1044 778.5 1002.5Q875 961 947 889Q1019 817 1060.5 720Q1102 623 1102 512Q1102 401 1060.5 304Q1019 207 947 135Q875 63 778.5 21.5Q682 -20 571 -20ZM571 246Q625 246 672 267Q719 288 754 324.5Q789 361 809 409.5Q829 458 829 512Q829 566 809 614.5Q789 663 754 699.5Q719 736 672 757Q625 778 571 778Q517 778 470 757Q423 736 388.5 699.5Q354 663 334.5 614.5Q315 566 315 512Q315 458 334.5 409.5Q354 361 388.5 324.5Q423 288 470 267Q517 246 571 246ZM702 1475H965L657 1126H469Z" glyph-name="oacute" horiz-adv-x="1143" unicode="&#243;" /><glyph d="M571 -20Q497 -20 429 -1Q361 18 302.5 52.5Q244 87 195.5 135.5Q147 184 113 243Q79 302 60 370Q41 438 41 512Q41 586 60 654Q79 722 113 781Q147 840 195.5 888.5Q244 937 302.5 971.5Q361 1006 429 1025Q497 1044 571 1044Q682 1044 778.5 1002.5Q875 961 947 889Q1019 817 1060.5 720Q1102 623 1102 512Q1102 401 1060.5 304Q1019 207 947 135Q875 63 778.5 21.5Q682 -20 571 -20ZM571 246Q625 246 672 267Q719 288 754 324.5Q789 361 809 409.5Q829 458 829 512Q829 566 809 614.5Q789 663 754 699.5Q719 736 672 757Q625 778 571 778Q517 778 470 757Q423 736 388.5 699.5Q354 663 334.5 614.5Q315 566 315 512Q315 458 334.5 409.5Q354 361 388.5 324.5Q423 288 470 267Q517 246 571 246ZM483 1475H657L901 1126H690L569 1307L451 1126H240Z" glyph-name="ocircumflex" horiz-adv-x="1143" unicode="&#244;" /><glyph d="M571 -20Q497 -20 429 -1Q361 18 302.5 52.5Q244 87 195.5 135.5Q147 184 113 243Q79 302 60 370Q41 438 41 512Q41 586 60 654Q79 722 113 781Q147 840 195.5 888.5Q244 937 302.5 971.5Q361 1006 429 1025Q497 1044 571 1044Q682 1044 778.5 1002.5Q875 961 947 889Q1019 817 1060.5 720Q1102 623 1102 512Q1102 401 1060.5 304Q1019 207 947 135Q875 63 778.5 21.5Q682 -20 571 -20ZM571 246Q625 246 672 267Q719 288 754 324.5Q789 361 809 409.5Q829 458 829 512Q829 566 809 614.5Q789 663 754 699.5Q719 736 672 757Q625 778 571 778Q517 778 470 757Q423 736 388.5 699.5Q354 663 334.5 614.5Q315 566 315 512Q315 458 334.5 409.5Q354 361 388.5 324.5Q423 288 470 267Q517 246 571 246ZM199 1266Q199 1303 210.5 1333.5Q222 1364 243.5 1386Q265 1408 295 1420Q325 1432 362 1432Q399 1432 429.5 1420Q460 1408 482 1386Q504 1364 516 1333.5Q528 1303 528 1266Q528 1191 482.5 1146.5Q437 1102 362 1102Q288 1102 243.5 1146.5Q199 1191 199 1266ZM621 1266Q621 1303 632.5 1333.5Q644 1364 665.5 1386Q687 1408 717 1420Q747 1432 784 1432Q821 1432 851.5 1420Q882 1408 904 1386Q926 1364 938 1333.5Q950 1303 950 1266Q950 1191 904.5 1146.5Q859 1102 784 1102Q710 1102 665.5 1146.5Q621 1191 621 1266Z" glyph-name="odieresis" horiz-adv-x="1143" unicode="&#246;" /><glyph d="M571 -20Q497 -20 429 -1Q361 18 302.5 52.5Q244 87 195.5 135.5Q147 184 113 243Q79 302 60 370Q41 438 41 512Q41 586 60 654Q79 722 113 781Q147 840 195.5 888.5Q244 937 302.5 971.5Q361 1006 429 1025Q497 1044 571 1044Q699 1044 799 995Q899 946 967 862Q1039 947 1138.5 995.5Q1238 1044 1368 1044Q1485 1044 1581.5 1002.5Q1678 961 1747 889.5Q1816 818 1854 721.5Q1892 625 1892 514V414H1102Q1125 327 1193.5 276Q1262 225 1374 225Q1452 225 1512.5 260Q1573 295 1610 358L1843 229Q1804 172 1756.5 126Q1709 80 1650.5 47.5Q1592 15 1522.5 -2.5Q1453 -20 1370 -20Q1237 -20 1135.5 26.5Q1034 73 965 158Q895 76 796.5 28Q698 -20 571 -20ZM571 246Q626 246 673.5 267Q721 288 756 324Q791 360 811 408.5Q831 457 831 512Q831 567 811 615.5Q791 664 756 700Q721 736 673.5 757Q626 778 571 778Q516 778 468.5 757Q421 736 386 700Q351 664 331 615.5Q311 567 311 512Q311 457 331 408.5Q351 360 386 324Q421 288 468.5 267Q516 246 571 246ZM1368 799Q1278 799 1211.5 754Q1145 709 1114 635H1610Q1584 716 1521 757.5Q1458 799 1368 799Z" glyph-name="oe" horiz-adv-x="1933" unicode="&#339;" /><glyph d="M473 -465Q407 -465 352.5 -447.5Q298 -430 259.5 -400Q221 -370 199.5 -329.5Q178 -289 178 -242Q178 -201 192 -161.5Q206 -122 241 -82.5Q276 -43 335.5 -1Q395 41 485 86L653 0Q569 -55 517 -90.5Q465 -126 436 -150.5Q407 -175 397 -193Q387 -211 387 -231Q387 -265 413 -279Q439 -293 473 -293Q494 -293 510.5 -288Q527 -283 541.5 -275Q556 -267 569 -257Q582 -247 596 -236L760 -346Q732 -371 697.5 -392.5Q663 -414 625.5 -430Q588 -446 549 -455.5Q510 -465 473 -465Z" glyph-name="ogonek" horiz-adv-x="965" unicode="&#731;" /><glyph d="M571 -20Q497 -20 429 -1Q361 18 302.5 52.5Q244 87 195.5 135.5Q147 184 113 243Q79 302 60 370Q41 438 41 512Q41 586 60 654Q79 722 113 781Q147 840 195.5 888.5Q244 937 302.5 971.5Q361 1006 429 1025Q497 1044 571 1044Q682 1044 778.5 1002.5Q875 961 947 889Q1019 817 1060.5 720Q1102 623 1102 512Q1102 401 1060.5 304Q1019 207 947 135Q875 63 778.5 21.5Q682 -20 571 -20ZM571 246Q625 246 672 267Q719 288 754 324.5Q789 361 809 409.5Q829 458 829 512Q829 566 809 614.5Q789 663 754 699.5Q719 736 672 757Q625 778 571 778Q517 778 470 757Q423 736 388.5 699.5Q354 663 334.5 614.5Q315 566 315 512Q315 458 334.5 409.5Q354 361 388.5 324.5Q423 288 470 267Q517 246 571 246ZM178 1475H440L674 1126H485Z" glyph-name="ograve" horiz-adv-x="1143" unicode="&#242;" /><glyph d="M92 272H465V1073Q447 1047 420 1024.5Q393 1002 361 985.5Q329 969 293 959.5Q257 950 223 950H201V1249H211Q285 1249 335.5 1272.5Q386 1296 417 1332Q448 1368 461.5 1411.5Q475 1455 475 1495H750V272H1112V0H92Z" glyph-name="one" horiz-adv-x="1204" unicode="1" /><glyph d="M1251 1495H1579L500 0H172ZM1135 172Q1135 236 1156 285Q1177 334 1211 370.5Q1245 407 1287 434.5Q1329 462 1370 483Q1401 500 1428.5 515Q1456 530 1477 545Q1498 560 1510 576Q1522 592 1522 610Q1522 636 1502 655Q1482 674 1442 674Q1418 674 1398.5 664Q1379 654 1363 638.5Q1347 623 1335.5 603Q1324 583 1317 563L1114 668Q1161 765 1243 821Q1325 877 1446 877Q1516 877 1574.5 857Q1633 837 1675 802Q1717 767 1740 718.5Q1763 670 1763 612Q1763 551 1740 504.5Q1717 458 1682 422.5Q1647 387 1603.5 360.5Q1560 334 1520 313Q1494 300 1471 288Q1448 276 1430 264.5Q1412 253 1400.5 241Q1389 229 1386 217H1757V0H1135ZM27 848H193V1180Q171 1152 137.5 1139Q104 1126 63 1126H51V1350H57Q100 1350 128 1364Q156 1378 172 1399.5Q188 1421 194.5 1446.5Q201 1472 201 1495H428V848H588V631H27Z" glyph-name="onehalf" horiz-adv-x="1784" unicode="&#189;" /><glyph d="M1251 1495H1579L500 0H172ZM1382 170H1038V377L1380 864H1599V369H1726V170H1599V0H1382ZM27 848H193V1180Q171 1152 137.5 1139Q104 1126 63 1126H51V1350H57Q100 1350 128 1364Q156 1378 172 1399.5Q188 1421 194.5 1446.5Q201 1472 201 1495H428V848H588V631H27ZM1382 369V516L1280 369Z" glyph-name="onequarter" horiz-adv-x="1753" unicode="&#188;" /><glyph d="M27 848H193V1180Q171 1152 137.5 1139Q104 1126 63 1126H51V1350H57Q100 1350 128 1364Q156 1378 172 1399.5Q188 1421 194.5 1446.5Q201 1472 201 1495H428V848H588V631H27Z" glyph-name="onesuperior" horiz-adv-x="610" unicode="&#185;" /><glyph d="M305 891Q263 891 216 908Q169 925 129 962Q89 999 63 1057.5Q37 1116 37 1198Q37 1282 63.5 1340.5Q90 1399 130.5 1436Q171 1473 219 1490Q267 1507 309 1507Q360 1507 398.5 1489.5Q437 1472 463 1444V1495H668V901H463V963Q435 931 395 911Q355 891 305 891ZM356 1079Q381 1079 402 1089Q423 1099 438 1115.5Q453 1132 461 1154Q469 1176 469 1200Q469 1225 461 1246.5Q453 1268 438 1284Q423 1300 402 1309.5Q381 1319 356 1319Q331 1319 309.5 1310.5Q288 1302 272 1286.5Q256 1271 247 1249Q238 1227 238 1200Q238 1174 247 1151.5Q256 1129 272 1113Q288 1097 309.5 1088Q331 1079 356 1079Z" glyph-name="ordfeminine" horiz-adv-x="739" unicode="&#170;" /><glyph d="M344 891Q280 891 224 915Q168 939 126.5 980.5Q85 1022 61 1078Q37 1134 37 1198Q37 1262 61 1318.5Q85 1375 126.5 1417Q168 1459 224 1483Q280 1507 344 1507Q408 1507 463.5 1483Q519 1459 560 1417Q601 1375 625 1318.5Q649 1262 649 1198Q649 1134 625 1078Q601 1022 560 980.5Q519 939 463.5 915Q408 891 344 891ZM344 1085Q367 1085 387 1094Q407 1103 421.5 1118.5Q436 1134 444.5 1154.5Q453 1175 453 1198Q453 1222 444.5 1243Q436 1264 421.5 1279.5Q407 1295 387 1304Q367 1313 344 1313Q320 1313 300.5 1304Q281 1295 266.5 1279.5Q252 1264 244 1243Q236 1222 236 1198Q236 1175 244 1154.5Q252 1134 266.5 1118.5Q281 1103 300.5 1094Q320 1085 344 1085Z" glyph-name="ordmasculine" horiz-adv-x="686" unicode="&#186;" /><glyph d="M188 141Q119 214 80 309Q41 404 41 512Q41 586 60 654Q79 722 113 781Q147 840 195.5 888.5Q244 937 302.5 971.5Q361 1006 429 1025Q497 1044 571 1044Q649 1044 718.5 1024Q788 1004 848 967L952 1096L1065 1008L958 877Q1027 804 1064.5 711Q1102 618 1102 512Q1102 401 1060.5 304Q1019 207 947 135Q875 63 778.5 21.5Q682 -20 571 -20Q496 -20 427.5 -1Q359 18 299 53L184 -88L72 -2ZM309 512Q309 467 321 426.5Q333 386 356 352L682 760Q632 784 571 784Q515 784 467 762.5Q419 741 384 704Q349 667 329 617.5Q309 568 309 512ZM571 240Q626 240 674.5 261.5Q723 283 759 320Q795 357 815.5 406.5Q836 456 836 512Q836 554 824 593Q812 632 791 666L465 262Q490 251 516 245.5Q542 240 571 240Z" glyph-name="oslash" horiz-adv-x="1143" unicode="&#248;" /><glyph d="M571 -20Q497 -20 429 -1Q361 18 302.5 52.5Q244 87 195.5 135.5Q147 184 113 243Q79 302 60 370Q41 438 41 512Q41 586 60 654Q79 722 113 781Q147 840 195.5 888.5Q244 937 302.5 971.5Q361 1006 429 1025Q497 1044 571 1044Q682 1044 778.5 1002.5Q875 961 947 889Q1019 817 1060.5 720Q1102 623 1102 512Q1102 401 1060.5 304Q1019 207 947 135Q875 63 778.5 21.5Q682 -20 571 -20ZM571 246Q625 246 672 267Q719 288 754 324.5Q789 361 809 409.5Q829 458 829 512Q829 566 809 614.5Q789 663 754 699.5Q719 736 672 757Q625 778 571 778Q517 778 470 757Q423 736 388.5 699.5Q354 663 334.5 614.5Q315 566 315 512Q315 458 334.5 409.5Q354 361 388.5 324.5Q423 288 470 267Q517 246 571 246ZM233 1126Q233 1188 247.5 1239Q262 1290 290 1326.5Q318 1363 358 1383Q398 1403 449 1403Q500 1403 536.5 1387.5Q573 1372 604 1354Q633 1335 659 1320Q685 1305 711 1305Q739 1305 752.5 1326.5Q766 1348 766 1395H928Q928 1332 914.5 1281Q901 1230 874 1193.5Q847 1157 807 1137.5Q767 1118 713 1118Q683 1118 658 1124Q633 1130 611 1139Q589 1148 570.5 1159Q552 1170 535 1180Q512 1194 491 1204Q470 1214 449 1214Q421 1214 408 1193.5Q395 1173 395 1126Z" glyph-name="otilde" horiz-adv-x="1143" unicode="&#245;" /><glyph d="M664 -20Q561 -20 481.5 11.5Q402 43 352 100V-471H72V1024H352V907Q402 967 479 1005.5Q556 1044 659 1044Q746 1044 834.5 1012Q923 980 994 914Q1065 848 1110 748Q1155 648 1155 512Q1155 422 1133.5 347.5Q1112 273 1075.5 214Q1039 155 990.5 111Q942 67 887.5 38Q833 9 775.5 -5.5Q718 -20 664 -20ZM606 238Q664 238 714.5 259Q765 280 802 317Q839 354 860 404.5Q881 455 881 514Q881 573 860 623.5Q839 674 802 710.5Q765 747 714.5 767.5Q664 788 606 788Q549 788 501 766.5Q453 745 418 708Q383 671 363.5 621Q344 571 344 514Q344 457 363.5 406.5Q383 356 418 318.5Q453 281 501 259.5Q549 238 606 238Z" glyph-name="p" horiz-adv-x="1188" unicode="p" /><glyph d="M672 618H485Q390 618 308.5 652Q227 686 167.5 745Q108 804 74.5 884.5Q41 965 41 1057Q41 1148 74.5 1228Q108 1308 167.5 1367Q227 1426 307.5 1460.5Q388 1495 483 1495H1282V0H1038V1231H915V0H672Z" glyph-name="paragraph" horiz-adv-x="1354" unicode="&#182;" /><glyph d="M612 -520Q484 -434 379 -328Q274 -222 199 -93.5Q124 35 82.5 186Q41 337 41 512Q41 687 80 833Q119 979 190 1102.5Q261 1226 362 1329.5Q463 1433 588 1524L778 1319Q683 1255 602.5 1174.5Q522 1094 463.5 994Q405 894 372.5 774Q340 654 340 512Q340 245 455 47Q570 -151 788 -287L612 -520Z" glyph-name="parenleft" horiz-adv-x="791" unicode="(" /><glyph d="M451 508Q451 650 418 770Q385 890 326.5 990Q268 1090 187.5 1170.5Q107 1251 12 1315L203 1520Q327 1429 428.5 1325.5Q530 1222 601 1098.5Q672 975 711 829Q750 683 750 508Q750 333 708.5 182Q667 31 591.5 -97.5Q516 -226 410.5 -332Q305 -438 178 -524L2 -291Q220 -156 335.5 42.5Q451 241 451 508Z" glyph-name="parenright" horiz-adv-x="791" unicode=")" /><glyph d="M569 -20Q463 -20 367.5 20Q272 60 199.5 130.5Q127 201 84 298.5Q41 396 41 510Q41 622 79.5 716Q118 810 185 877.5Q252 945 343.5 982.5Q435 1020 541 1020Q595 1020 638.5 1008.5Q682 997 717 977Q674 1034 617 1093.5Q560 1153 486.5 1216.5Q413 1280 322.5 1349Q232 1418 121 1495H539Q702 1368 810 1243.5Q918 1119 983 997.5Q1048 876 1075 758Q1102 640 1102 526Q1102 410 1061 310.5Q1020 211 948 137.5Q876 64 778.5 22Q681 -20 569 -20ZM571 246Q623 246 670 267.5Q717 289 752.5 325Q788 361 808.5 409Q829 457 829 510Q829 565 809.5 614Q790 663 755.5 699.5Q721 736 674.5 757Q628 778 573 778Q522 778 475 758.5Q428 739 392.5 704Q357 669 336 619.5Q315 570 315 510Q315 452 335.5 403.5Q356 355 391.5 320Q427 285 473.5 265.5Q520 246 571 246Z" glyph-name="partialdiff" horiz-adv-x="1149" unicode="&#8706;" /><glyph d="M279 1149Q279 1123 289.5 1099.5Q300 1076 317.5 1058.5Q335 1041 358.5 1030.5Q382 1020 408 1020Q434 1020 457.5 1030.5Q481 1041 498.5 1058.5Q516 1076 526.5 1099.5Q537 1123 537 1149Q537 1175 526.5 1198.5Q516 1222 498.5 1239.5Q481 1257 457.5 1267.5Q434 1278 408 1278Q382 1278 358.5 1267.5Q335 1257 317.5 1239.5Q300 1222 289.5 1198.5Q279 1175 279 1149ZM911 344Q911 420 940 487Q969 554 1018.5 603.5Q1068 653 1135 682Q1202 711 1278 711Q1354 711 1421 682Q1488 653 1537.5 603.5Q1587 554 1616 487Q1645 420 1645 344Q1645 268 1616 201Q1587 134 1537.5 84.5Q1488 35 1421 6Q1354 -23 1278 -23Q1202 -23 1135 6Q1068 35 1018.5 84.5Q969 134 940 201Q911 268 911 344ZM1305 1495H1665L381 0H20ZM1149 344Q1149 318 1159.5 294.5Q1170 271 1187.5 253.5Q1205 236 1228.5 225.5Q1252 215 1278 215Q1304 215 1327.5 225.5Q1351 236 1368.5 253.5Q1386 271 1396.5 294.5Q1407 318 1407 344Q1407 370 1396.5 393.5Q1386 417 1368.5 434.5Q1351 452 1327.5 462.5Q1304 473 1278 473Q1252 473 1228.5 462.5Q1205 452 1187.5 434.5Q1170 417 1159.5 393.5Q1149 370 1149 344ZM41 1149Q41 1225 70 1292Q99 1359 148.5 1408.5Q198 1458 265 1487Q332 1516 408 1516Q484 1516 550.5 1487Q617 1458 666.5 1408.5Q716 1359 745 1292Q774 1225 774 1149Q774 1073 745 1006Q716 939 666.5 889.5Q617 840 550.5 811Q484 782 408 782Q332 782 265 811Q198 840 148.5 889.5Q99 939 70 1006Q41 1073 41 1149Z" glyph-name="percent" horiz-adv-x="1686" unicode="%" /><glyph d="M43 139Q43 177 55 208Q67 239 89.5 261.5Q112 284 142.5 296.5Q173 309 211 309Q248 309 279.5 296.5Q311 284 333.5 261.5Q356 239 368.5 208Q381 177 381 139Q381 101 368.5 70.5Q356 40 333.5 17.5Q311 -5 279.5 -17Q248 -29 211 -29Q173 -29 142.5 -17Q112 -5 89.5 17.5Q67 40 55 70.5Q43 101 43 139Z" glyph-name="period" horiz-adv-x="424" unicode="." /><glyph d="M43 520Q43 558 55 589Q67 620 89.5 642.5Q112 665 142.5 677.5Q173 690 211 690Q248 690 279.5 677.5Q311 665 333.5 642.5Q356 620 368.5 589Q381 558 381 520Q381 482 368.5 451.5Q356 421 333.5 398.5Q311 376 279.5 364Q248 352 211 352Q173 352 142.5 364Q112 376 89.5 398.5Q67 421 55 451.5Q43 482 43 520Z" glyph-name="periodcentered" horiz-adv-x="424" unicode="&#183;" /><glyph d="M1305 1495H1665L381 0H20ZM1278 -23Q1202 -23 1135 6Q1068 35 1018.5 84.5Q969 134 940 201Q911 268 911 344Q911 420 940 487Q969 554 1018.5 603.5Q1068 653 1135 682Q1202 711 1278 711Q1354 711 1421 682Q1488 653 1537.5 603.5Q1587 554 1616 487Q1645 420 1645 344Q1645 268 1616 201Q1587 134 1537.5 84.5Q1488 35 1421 6Q1354 -23 1278 -23ZM1278 215Q1304 215 1327.5 225.5Q1351 236 1368.5 253.5Q1386 271 1396.5 294.5Q1407 318 1407 344Q1407 370 1396.5 393.5Q1386 417 1368.5 434.5Q1351 452 1327.5 462.5Q1304 473 1278 473Q1252 473 1228.5 462.5Q1205 452 1187.5 434.5Q1170 417 1159.5 393.5Q1149 370 1149 344Q1149 318 1159.5 294.5Q1170 271 1187.5 253.5Q1205 236 1228.5 225.5Q1252 215 1278 215ZM408 782Q332 782 265 811Q198 840 148.5 889.5Q99 939 70 1006Q41 1073 41 1149Q41 1225 70 1292Q99 1359 148.5 1408.5Q198 1458 265 1487Q332 1516 408 1516Q484 1516 550.5 1487Q617 1458 666.5 1408.5Q716 1359 745 1292Q774 1225 774 1149Q774 1073 745 1006Q716 939 666.5 889.5Q617 840 550.5 811Q484 782 408 782ZM408 1020Q434 1020 457.5 1030.5Q481 1041 498.5 1058.5Q516 1076 526.5 1099.5Q537 1123 537 1149Q537 1175 526.5 1198.5Q516 1222 498.5 1239.5Q481 1257 457.5 1267.5Q434 1278 408 1278Q382 1278 358.5 1267.5Q335 1257 317.5 1239.5Q300 1222 289.5 1198.5Q279 1175 279 1149Q279 1123 289.5 1099.5Q300 1076 317.5 1058.5Q335 1041 358.5 1030.5Q382 1020 408 1020ZM2052 -23Q1976 -23 1909 6Q1842 35 1792.5 84.5Q1743 134 1714.5 201Q1686 268 1686 344Q1686 420 1714.5 487Q1743 554 1792.5 603.5Q1842 653 1909 682Q1976 711 2052 711Q2128 711 2195 682Q2262 653 2311.5 603.5Q2361 554 2390 487Q2419 420 2419 344Q2419 268 2390 201Q2361 134 2311.5 84.5Q2262 35 2195 6Q2128 -23 2052 -23ZM2052 215Q2078 215 2101.5 225.5Q2125 236 2142.5 253.5Q2160 271 2170.5 294.5Q2181 318 2181 344Q2181 370 2170.5 393.5Q2160 417 2142.5 434.5Q2125 452 2101.5 462.5Q2078 473 2052 473Q2026 473 2002.5 462.5Q1979 452 1961.5 434.5Q1944 417 1933.5 393.5Q1923 370 1923 344Q1923 318 1933.5 294.5Q1944 271 1961.5 253.5Q1979 236 2002.5 225.5Q2026 215 2052 215Z" glyph-name="perthousand" horiz-adv-x="2460" unicode="&#8240;" /><glyph d="M74 1495H1524V1223H1264L1262 422Q1262 375 1267.5 347Q1273 319 1288.5 304Q1304 289 1332.5 284Q1361 279 1407 279H1456V0H1376Q1251 0 1173 22Q1095 44 1052 95Q1009 146 993.5 228.5Q978 311 977 432L979 1223H606V0H322V1223H74Z" glyph-name="pi" horiz-adv-x="1597" unicode="&#960;" /><glyph d="M72 866H334V1124H569V866H829V627H569V367H334V627H72Z" glyph-name="plus" horiz-adv-x="901" unicode="+" /><glyph d="M72 1092H334V1350H569V1092H829V852H569V592H334V852H72ZM72 477H829V238H72Z" glyph-name="plusminus" horiz-adv-x="901" unicode="&#177;" /><glyph d="M74 1495H1524V1223H1276V0H991V1223H606V0H322V1223H74Z" glyph-name="product" horiz-adv-x="1597" unicode="&#8719;" /><glyph d="M535 -20Q481 -20 423 -5.5Q365 9 310 38Q255 67 206 111Q157 155 120.5 214Q84 273 62.5 347.5Q41 422 41 512Q41 648 86 748Q131 848 203 914Q275 980 363.5 1012Q452 1044 539 1044Q639 1044 716 1007Q793 970 844 913V1024H1124V-471H844V102Q793 45 714 12.5Q635 -20 535 -20ZM590 238Q647 238 695 259.5Q743 281 778 318.5Q813 356 832.5 406.5Q852 457 852 514Q852 571 832.5 621Q813 671 778 708Q743 745 695 766.5Q647 788 590 788Q531 788 481 767.5Q431 747 394 710.5Q357 674 336 623.5Q315 573 315 514Q315 455 336 404.5Q357 354 394 317Q431 280 481 259Q531 238 590 238Z" glyph-name="q" horiz-adv-x="1196" unicode="q" /><glyph d="M367 408Q367 501 381.5 570Q396 639 419.5 690Q443 741 473 778Q503 815 534.5 844Q566 873 596 898Q626 923 649.5 950.5Q673 978 687.5 1011Q702 1044 702 1090Q702 1128 689 1160.5Q676 1193 651 1217Q626 1241 591 1254.5Q556 1268 512 1268Q472 1268 439 1254.5Q406 1241 380.5 1217.5Q355 1194 337.5 1162.5Q320 1131 311 1094L47 1182Q65 1256 104 1317.5Q143 1379 201.5 1423Q260 1467 339 1491.5Q418 1516 516 1516Q621 1516 708 1485Q795 1454 858 1397.5Q921 1341 956 1261.5Q991 1182 991 1085Q991 1012 975 959.5Q959 907 932.5 867.5Q906 828 872.5 797.5Q839 767 804.5 739Q770 711 736.5 682Q703 653 676.5 615Q650 577 634 527Q618 477 618 408V385H367ZM324 139Q324 177 336 208Q348 239 370 261.5Q392 284 423 296.5Q454 309 492 309Q529 309 560.5 296.5Q592 284 614.5 261.5Q637 239 649.5 208Q662 177 662 139Q662 101 649.5 70.5Q637 40 614.5 17.5Q592 -5 560.5 -17Q529 -29 492 -29Q454 -29 423 -17Q392 -5 370 17.5Q348 40 336 70.5Q324 101 324 139Z" glyph-name="question" horiz-adv-x="1055" unicode="?" /><glyph d="M539 -492Q434 -492 346.5 -461Q259 -430 196 -373.5Q133 -317 98 -237.5Q63 -158 63 -61Q63 12 79 64.5Q95 117 121.5 156.5Q148 196 181.5 226.5Q215 257 249.5 285Q284 313 317.5 342Q351 371 377.5 409Q404 447 420 497Q436 547 436 616V639H688V616Q688 523 673.5 454Q659 385 635.5 334Q612 283 581.5 246Q551 209 519.5 180Q488 151 458 126Q428 101 404.5 73.5Q381 46 366.5 13Q352 -20 352 -66Q352 -104 365.5 -136.5Q379 -169 403.5 -193Q428 -217 463.5 -230.5Q499 -244 543 -244Q583 -244 616 -230.5Q649 -217 674.5 -193.5Q700 -170 717.5 -138.5Q735 -107 743 -70L1008 -158Q989 -232 950.5 -293.5Q912 -355 853 -399Q794 -443 715.5 -467.5Q637 -492 539 -492ZM561 715Q523 715 492.5 727Q462 739 439.5 761Q417 783 405 814Q393 845 393 883Q393 920 405 951.5Q417 983 439.5 1005.5Q462 1028 492.5 1040.5Q523 1053 561 1053Q599 1053 630 1040.5Q661 1028 683.5 1005.5Q706 983 718.5 951.5Q731 920 731 883Q731 845 718.5 814Q706 783 683.5 761Q661 739 630 727Q599 715 561 715Z" glyph-name="questiondown" horiz-adv-x="1055" unicode="&#191;" /><glyph d="M141 1024Q133 1042 121.5 1082Q110 1122 99 1167Q88 1212 80 1255Q72 1298 72 1323V1495H291V1323Q291 1297 282.5 1254Q274 1211 262.5 1165.5Q251 1120 239 1081Q227 1042 219 1024ZM442 1024Q434 1042 422.5 1082Q411 1122 400 1167Q389 1212 381 1255Q373 1298 373 1323V1495H592V1323Q592 1297 583.5 1254Q575 1211 563.5 1165.5Q552 1120 540 1081Q528 1042 520 1024Z" glyph-name="quotedbl" horiz-adv-x="664" unicode="&quot;" /><glyph d="M43 -240 113 178H360L217 -240ZM377 -240 446 178H694L551 -240Z" glyph-name="quotedblbase" horiz-adv-x="758" unicode="&#8222;" /><glyph d="M371 1077H197L53 1495H301ZM705 1077H530L387 1495H635Z" glyph-name="quotedblleft" horiz-adv-x="758" unicode="&#8220;" /><glyph d="M55 1077 125 1495H373L229 1077ZM389 1077 459 1495H707L563 1077Z" glyph-name="quotedblright" horiz-adv-x="758" unicode="&#8221;" /><glyph d="M362 1077H188L45 1495H293Z" glyph-name="quoteleft" horiz-adv-x="424" unicode="&#8216;" /><glyph d="M55 1077 125 1495H373L229 1077Z" glyph-name="quoteright" horiz-adv-x="424" unicode="&#8217;" /><glyph d="M43 -240 113 178H360L217 -240Z" glyph-name="quotesinglbase" horiz-adv-x="424" unicode="&#8218;" /><glyph d="M141 1024Q133 1042 121.5 1082Q110 1122 99 1167Q88 1212 80 1255Q72 1298 72 1323V1495H291V1323Q291 1297 282.5 1254Q274 1211 262.5 1165.5Q251 1120 239 1081Q227 1042 219 1024Z" glyph-name="quotesingle" horiz-adv-x="362" unicode="&apos;" /><glyph d="M72 1024H350V856Q388 937 458 980.5Q528 1024 633 1024H735V752H567Q455 752 403.5 689Q352 626 352 483V0H72Z" glyph-name="r" horiz-adv-x="791" unicode="r" /><glyph d="M270 776H92V1024H465L719 340L1245 1495H1548L846 0H569Z" glyph-name="radical" horiz-adv-x="1616" unicode="&#8730;" /><glyph d="M805 -256Q699 -256 601 -228.5Q503 -201 418.5 -151.5Q334 -102 264 -32Q194 38 144.5 123.5Q95 209 68 307Q41 405 41 512Q41 618 68 716Q95 814 144.5 899.5Q194 985 264 1055Q334 1125 418.5 1175Q503 1225 601 1252.5Q699 1280 805 1280Q911 1280 1009.5 1252.5Q1108 1225 1193 1175Q1278 1125 1347.5 1055Q1417 985 1467 899.5Q1517 814 1544 716Q1571 618 1571 512Q1571 406 1544 307.5Q1517 209 1467 123.5Q1417 38 1347.5 -32Q1278 -102 1193 -151.5Q1108 -201 1009.5 -228.5Q911 -256 805 -256ZM805 -39Q919 -39 1018.5 4.5Q1118 48 1192 123Q1266 198 1309 298Q1352 398 1352 512Q1352 626 1309 726Q1266 826 1192 901Q1118 976 1018.5 1019.5Q919 1063 805 1063Q689 1063 590.5 1019.5Q492 976 420 901Q348 826 307 726Q266 626 266 512Q266 398 307 298Q348 198 420 123Q492 48 590.5 4.5Q689 -39 805 -39ZM477 899H836Q920 899 985.5 875.5Q1051 852 1095.5 814Q1140 776 1163 726.5Q1186 677 1186 625Q1186 540 1148 478Q1110 416 1032 387L1182 133H922L723 514H827Q851 514 872.5 519.5Q894 525 910.5 537Q927 549 936.5 567.5Q946 586 946 612Q946 638 936 656Q926 674 909 685Q892 696 870 700.5Q848 705 823 705H713V133H477Z" glyph-name="registered" horiz-adv-x="1612" unicode="&#174;" /><glyph d="M479 1137Q434 1137 394 1154Q354 1171 324 1201Q294 1231 277 1271Q260 1311 260 1356Q260 1403 277 1443.5Q294 1484 324 1514Q354 1544 394 1561.5Q434 1579 479 1579Q526 1579 566.5 1561.5Q607 1544 637 1514Q667 1484 684.5 1443.5Q702 1403 702 1356Q702 1311 684.5 1271Q667 1231 637 1201Q607 1171 566.5 1154Q526 1137 479 1137ZM479 1260Q499 1260 517 1268Q535 1276 549 1289Q563 1302 571.5 1319.5Q580 1337 580 1356Q580 1376 571.5 1394Q563 1412 549 1426Q535 1440 517 1448Q499 1456 479 1456Q460 1456 442.5 1448Q425 1440 412 1426Q399 1412 391 1394Q383 1376 383 1356Q383 1337 391 1319.5Q399 1302 412 1289Q425 1276 442.5 1268Q460 1260 479 1260Z" glyph-name="ring" horiz-adv-x="965" unicode="&#730;" /><glyph d="M481 -20Q295 -20 180 50.5Q65 121 10 256L279 360Q306 289 362 255Q418 221 494 221Q563 221 599 248.5Q635 276 635 313Q635 334 617.5 348Q600 362 570 372.5Q540 383 500.5 391Q461 399 416 408Q347 420 280.5 440Q214 460 162 495.5Q110 531 78.5 586Q47 641 47 723Q47 787 77 846Q107 905 162 949.5Q217 994 294.5 1020Q372 1046 467 1044Q553 1044 621 1027Q689 1010 742 979Q795 948 834 904.5Q873 861 901 807L653 702Q633 753 583.5 784Q534 815 465 815Q396 815 364 790Q332 765 332 731Q332 714 343.5 702Q355 690 380.5 680Q406 670 446.5 660.5Q487 651 545 639Q609 626 675 606Q741 586 794.5 550.5Q848 515 881.5 460Q915 405 915 322Q915 266 888.5 204.5Q862 143 808.5 92.5Q755 42 673.5 10Q592 -22 481 -20Z" glyph-name="s" horiz-adv-x="956" unicode="s" /><glyph d="M481 -20Q295 -20 180 50.5Q65 121 10 256L279 360Q306 289 362 255Q418 221 494 221Q563 221 599 248.5Q635 276 635 313Q635 334 617.5 348Q600 362 570 372.5Q540 383 500.5 391Q461 399 416 408Q347 420 280.5 440Q214 460 162 495.5Q110 531 78.5 586Q47 641 47 723Q47 787 77 846Q107 905 162 949.5Q217 994 294.5 1020Q372 1046 467 1044Q553 1044 621 1027Q689 1010 742 979Q795 948 834 904.5Q873 861 901 807L653 702Q633 753 583.5 784Q534 815 465 815Q396 815 364 790Q332 765 332 731Q332 714 343.5 702Q355 690 380.5 680Q406 670 446.5 660.5Q487 651 545 639Q609 626 675 606Q741 586 794.5 550.5Q848 515 881.5 460Q915 405 915 322Q915 266 888.5 204.5Q862 143 808.5 92.5Q755 42 673.5 10Q592 -22 481 -20ZM127 1475H338L457 1294L578 1475H788L545 1126H371Z" glyph-name="scaron" horiz-adv-x="956" unicode="&#353;" /><glyph d="M582 -20Q484 -20 400.5 6.5Q317 33 252.5 76.5Q188 120 144.5 175.5Q101 231 84 289L367 367Q376 333 397.5 304.5Q419 276 450 256Q481 236 520 224.5Q559 213 604 213Q688 213 729 239Q770 265 770 305Q770 333 748 352Q726 371 687 385.5Q648 400 594.5 411.5Q541 423 479 438Q387 460 306.5 486.5Q226 513 166 551.5Q106 590 71.5 643.5Q37 697 37 772Q37 813 50 850Q63 887 86.5 918Q110 949 141.5 973.5Q173 998 211 1014Q180 1052 163.5 1097.5Q147 1143 147 1196Q147 1263 175 1322Q203 1381 257.5 1424.5Q312 1468 392.5 1492.5Q473 1517 578 1516Q671 1516 749 1492Q827 1468 887.5 1428.5Q948 1389 988 1338Q1028 1287 1044 1233L776 1157Q771 1185 754 1210.5Q737 1236 710.5 1255Q684 1274 648.5 1285Q613 1296 571 1296Q491 1296 452.5 1271.5Q414 1247 414 1208Q414 1181 434.5 1160Q455 1139 492 1121.5Q529 1104 580.5 1089Q632 1074 694 1059Q786 1037 867 1010.5Q948 984 1008 945.5Q1068 907 1102.5 854.5Q1137 802 1137 729Q1137 649 1093.5 589.5Q1050 530 981 496Q1015 461 1033 417Q1051 373 1051 317Q1051 247 1017.5 185Q984 123 922.5 77Q861 31 774.5 4.5Q688 -22 582 -20ZM641 653Q681 644 717.5 633.5Q754 623 786 610Q818 624 836 644.5Q854 665 854 690Q854 718 832 738.5Q810 759 769 776.5Q728 794 668 810Q608 826 532 844Q495 852 460.5 862.5Q426 873 395 887Q358 874 338.5 852.5Q319 831 319 805Q319 777 341 756.5Q363 736 404 719Q445 702 505 686.5Q565 671 641 653Z" glyph-name="section" horiz-adv-x="1174" unicode="&#167;" /><glyph d="M113 178H360L217 -240H43ZM43 881Q43 918 55 949.5Q67 981 89.5 1003.5Q112 1026 142.5 1038.5Q173 1051 211 1051Q248 1051 279.5 1038.5Q311 1026 333.5 1003.5Q356 981 368.5 949.5Q381 918 381 881Q381 843 368.5 812Q356 781 333.5 759Q311 737 279.5 725Q248 713 211 713Q173 713 142.5 725Q112 737 89.5 759Q67 781 55 812Q43 843 43 881Z" glyph-name="semicolon" horiz-adv-x="424" unicode=";" /><glyph d="M813 1223H92V1495H1112V1247L524 0H221Z" glyph-name="seven" horiz-adv-x="1204" unicode="7" /><glyph d="M604 -20Q486 -20 386.5 20.5Q287 61 214.5 131Q142 201 101.5 295.5Q61 390 61 498Q61 604 92 700Q123 796 176 874L559 1495H895L580 1006Q619 1018 662 1018Q762 1018 849.5 980Q937 942 1002 873.5Q1067 805 1105 709.5Q1143 614 1143 500Q1143 386 1102 290.5Q1061 195 988.5 126Q916 57 817.5 18.5Q719 -20 604 -20ZM598 238Q652 238 700 259Q748 280 784 316.5Q820 353 841 401.5Q862 450 862 506Q862 560 841 608Q820 656 784 692.5Q748 729 700 750.5Q652 772 598 772Q544 772 497 750.5Q450 729 415 692.5Q380 656 360 607Q340 558 340 504Q340 449 360 400.5Q380 352 415 316Q450 280 497 259Q544 238 598 238Z" glyph-name="six" horiz-adv-x="1204" unicode="6" /><glyph d="M729 1495H1030L322 0H20Z" glyph-name="slash" horiz-adv-x="1049" unicode="/" /><glyph glyph-name="space" horiz-adv-x="383" unicode=" " /><glyph d="M111 897H221Q204 940 195 987.5Q186 1035 186 1087Q186 1184 218.5 1263Q251 1342 310.5 1398.5Q370 1455 454.5 1485.5Q539 1516 643 1516Q737 1516 813 1494.5Q889 1473 946.5 1433.5Q1004 1394 1042.5 1337.5Q1081 1281 1102 1212L831 1116Q813 1187 769.5 1227.5Q726 1268 647 1268Q603 1268 570.5 1255Q538 1242 517 1218.5Q496 1195 485.5 1162.5Q475 1130 475 1092Q475 1041 489 994Q503 947 524 897H918V672H633Q662 603 682 523.5Q702 444 702 350Q702 324 699 297Q696 270 688 244Q727 205 758 205Q778 205 790.5 210.5Q803 216 809.5 229.5Q816 243 818.5 266Q821 289 821 324V489H1112V332Q1112 240 1099 173.5Q1086 107 1054 64Q1022 21 967.5 0.5Q913 -20 831 -20Q760 -20 702.5 8Q645 36 594 76Q554 31 500 4Q446 -23 381 -23Q300 -23 240.5 -6.5Q181 10 143 40.5Q105 71 86.5 114Q68 157 68 211Q68 262 85 306.5Q102 351 135 384Q168 417 216 436Q264 455 326 455Q374 455 416 441.5Q458 428 494 408Q487 438 472 469.5Q457 501 436.5 533.5Q416 566 392.5 600.5Q369 635 344 672H111ZM362 168Q411 168 444 203Q418 221 393.5 233.5Q369 246 346 246Q326 246 315.5 234.5Q305 223 305 209Q305 192 320 180Q335 168 362 168Z" glyph-name="sterling" horiz-adv-x="1204" unicode="&#163;" /><glyph d="M72 305 518 766 86 1223V1495H1081V1223H451L883 766L406 272H1081V0H72Z" glyph-name="summation" horiz-adv-x="1153" unicode="&#8721;" /><glyph d="M51 1024H225V1264L506 1417V1024H698V772H506V446Q506 386 512 350Q518 314 537.5 294.5Q557 275 595 268.5Q633 262 698 262V0H657Q535 0 452.5 22.5Q370 45 319.5 97Q269 149 247 234Q225 319 225 444V772H51Z" glyph-name="t" horiz-adv-x="760" unicode="t" /><glyph d="M668 -20Q564 -20 483.5 19Q403 58 352 123V-471H72V1495H352V907Q402 969 481 1006.5Q560 1044 664 1044Q749 1044 835 1012Q921 980 990.5 914Q1060 848 1103.5 748.5Q1147 649 1147 514Q1147 424 1126.5 349Q1106 274 1070.5 214.5Q1035 155 987.5 111Q940 67 887 38Q834 9 777.5 -5.5Q721 -20 668 -20ZM606 238Q664 238 714.5 259Q765 280 802 317Q839 354 860 404.5Q881 455 881 514Q881 573 860 623.5Q839 674 802 710.5Q765 747 714.5 767.5Q664 788 606 788Q549 788 501 766.5Q453 745 418 708Q383 671 363.5 621Q344 571 344 514Q344 457 363.5 406.5Q383 356 418 318.5Q453 281 501 259.5Q549 238 606 238Z" glyph-name="thorn" horiz-adv-x="1180" unicode="&#254;" /><glyph d="M612 -20Q514 -20 433.5 -4Q353 12 284.5 45.5Q216 79 157.5 131.5Q99 184 45 256L293 434Q353 331 432.5 285.5Q512 240 614 240Q666 240 711 253.5Q756 267 788.5 293.5Q821 320 839.5 358Q858 396 858 444Q858 486 844.5 520Q831 554 803.5 579Q776 604 734 617.5Q692 631 635 631H438V893H631Q691 893 732.5 909.5Q774 926 800.5 954Q827 982 838.5 1018.5Q850 1055 850 1094Q850 1126 835 1157.5Q820 1189 791 1213.5Q762 1238 718.5 1253Q675 1268 618 1268Q557 1268 511.5 1257Q466 1246 430.5 1223Q395 1200 368 1165.5Q341 1131 317 1083L70 1206Q151 1364 289 1440Q427 1516 616 1516Q727 1516 820.5 1486Q914 1456 982 1402Q1050 1348 1088 1272.5Q1126 1197 1126 1106Q1126 994 1081 909Q1036 824 952 768Q1042 718 1092.5 636.5Q1143 555 1143 436Q1143 340 1107 256.5Q1071 173 1002.5 111.5Q934 50 835.5 15Q737 -20 612 -20Z" glyph-name="three" horiz-adv-x="1204" unicode="3" /><glyph d="M1266 1495H1593L514 0H186ZM1397 170H1053V377L1395 864H1614V369H1741V170H1614V0H1397ZM324 618Q280 618 236 624.5Q192 631 150.5 644Q109 657 72.5 677.5Q36 698 8 727L186 887Q239 831 309 831Q347 831 372 849Q397 867 397 901Q397 936 364.5 951.5Q332 967 281 967H190V1171H276Q326 1171 352.5 1190Q379 1209 379 1241Q379 1270 357 1286.5Q335 1303 295 1303Q263 1303 234.5 1287.5Q206 1272 190 1247L23 1393Q49 1420 82 1441Q115 1462 152 1476.5Q189 1491 227.5 1499Q266 1507 303 1507Q375 1507 434.5 1489Q494 1471 536.5 1438Q579 1405 603 1357Q627 1309 627 1249Q627 1200 605 1156.5Q583 1113 543 1081Q592 1050 619.5 1003.5Q647 957 647 895Q647 836 624.5 785.5Q602 735 560 698Q518 661 458 639.5Q398 618 324 618ZM1397 369V516L1294 369Z" glyph-name="threequarters" horiz-adv-x="1767" unicode="&#190;" /><glyph d="M324 618Q280 618 236 624.5Q192 631 150.5 644Q109 657 72.5 677.5Q36 698 8 727L186 887Q239 831 309 831Q347 831 372 849Q397 867 397 901Q397 936 364.5 951.5Q332 967 281 967H190V1171H276Q326 1171 352.5 1190Q379 1209 379 1241Q379 1270 357 1286.5Q335 1303 295 1303Q263 1303 234.5 1287.5Q206 1272 190 1247L23 1393Q49 1420 82 1441Q115 1462 152 1476.5Q189 1491 227.5 1499Q266 1507 303 1507Q375 1507 434.5 1489Q494 1471 536.5 1438Q579 1405 603 1357Q627 1309 627 1249Q627 1200 605 1156.5Q583 1113 543 1081Q592 1050 619.5 1003.5Q647 957 647 895Q647 836 624.5 785.5Q602 735 560 698Q518 661 458 639.5Q398 618 324 618Z" glyph-name="threesuperior" horiz-adv-x="666" unicode="&#179;" /><glyph d="M129 1126Q129 1188 143.5 1239Q158 1290 186 1326.5Q214 1363 253.5 1383Q293 1403 344 1403Q395 1403 432 1387.5Q469 1372 500 1354Q529 1335 554.5 1320Q580 1305 606 1305Q634 1305 648 1326.5Q662 1348 662 1395H823Q823 1332 809.5 1281Q796 1230 769.5 1193.5Q743 1157 702.5 1137.5Q662 1118 608 1118Q578 1118 553 1124Q528 1130 506 1139Q484 1148 465.5 1159Q447 1170 430 1180Q407 1194 386.5 1204Q366 1214 344 1214Q316 1214 303.5 1193.5Q291 1173 291 1126H129Z" glyph-name="tilde" horiz-adv-x="965" unicode="&#732;" /><glyph d="M602 1495H793L932 1313L1081 1495H1255V901H1055V1184L928 1042L803 1184V901H602ZM199 1309H51V1495H541V1309H397V901H199Z" glyph-name="trademark" horiz-adv-x="1327" unicode="&#8482;" /><glyph d="M92 268Q92 364 131 442Q170 520 232 584.5Q294 649 371 702.5Q448 756 524 803Q584 840 639.5 875Q695 910 737.5 945.5Q780 981 805.5 1018.5Q831 1056 831 1098Q831 1133 816.5 1164.5Q802 1196 773 1219.5Q744 1243 701 1256.5Q658 1270 602 1270Q548 1270 502.5 1254.5Q457 1239 420.5 1211.5Q384 1184 355 1145Q326 1106 305 1059L59 1182Q96 1258 148.5 1320Q201 1382 269 1425.5Q337 1469 419.5 1492.5Q502 1516 600 1516Q723 1516 819.5 1483.5Q916 1451 983 1394Q1050 1337 1085 1260.5Q1120 1184 1120 1096Q1120 1007 1083.5 936Q1047 865 989 807Q931 749 857.5 701Q784 653 711 608Q647 569 587 531.5Q527 494 480.5 453.5Q434 413 406 368.5Q378 324 377 272H1112V0H92Z" glyph-name="two" horiz-adv-x="1204" unicode="2" /><glyph d="M27 803Q27 867 48 916Q69 965 103 1001.5Q137 1038 179 1065.5Q221 1093 262 1114Q293 1131 320.5 1146Q348 1161 369 1176Q390 1191 402 1207Q414 1223 414 1241Q414 1267 394 1286Q374 1305 334 1305Q310 1305 290.5 1295Q271 1285 255 1269.5Q239 1254 227.5 1234Q216 1214 209 1194L6 1298Q53 1395 135 1451Q217 1507 338 1507Q408 1507 466.5 1487.5Q525 1468 567 1433Q609 1398 632 1349.5Q655 1301 655 1243Q655 1181 632 1134.5Q609 1088 574 1052.5Q539 1017 495.5 991Q452 965 412 944Q386 931 363 919Q340 907 322 895.5Q304 884 292.5 872Q281 860 279 848H649V631H27Z" glyph-name="twosuperior" horiz-adv-x="676" unicode="&#178;" /><glyph d="M459 -20Q368 -20 296.5 8.5Q225 37 175 90.5Q125 144 98.5 222Q72 300 72 399V1024H356V436Q356 333 403.5 276Q451 219 545 219Q585 219 620 233Q655 247 681.5 277Q708 307 723.5 353.5Q739 400 739 465V1024H1020V0H741V113Q690 51 618.5 15.5Q547 -20 459 -20Z" glyph-name="u" horiz-adv-x="1092" unicode="u" /><glyph d="M459 -20Q368 -20 296.5 8.5Q225 37 175 90.5Q125 144 98.5 222Q72 300 72 399V1024H356V436Q356 333 403.5 276Q451 219 545 219Q585 219 620 233Q655 247 681.5 277Q708 307 723.5 353.5Q739 400 739 465V1024H1020V0H741V113Q690 51 618.5 15.5Q547 -20 459 -20ZM674 1475H936L629 1126H440Z" glyph-name="uacute" horiz-adv-x="1092" unicode="&#250;" /><glyph d="M459 -20Q368 -20 296.5 8.5Q225 37 175 90.5Q125 144 98.5 222Q72 300 72 399V1024H356V436Q356 333 403.5 276Q451 219 545 219Q585 219 620 233Q655 247 681.5 277Q708 307 723.5 353.5Q739 400 739 465V1024H1020V0H741V113Q690 51 618.5 15.5Q547 -20 459 -20ZM457 1475H631L874 1126H664L543 1307L424 1126H213Z" glyph-name="ucircumflex" horiz-adv-x="1092" unicode="&#251;" /><glyph d="M459 -20Q368 -20 296.5 8.5Q225 37 175 90.5Q125 144 98.5 222Q72 300 72 399V1024H356V436Q356 333 403.5 276Q451 219 545 219Q585 219 620 233Q655 247 681.5 277Q708 307 723.5 353.5Q739 400 739 465V1024H1020V0H741V113Q690 51 618.5 15.5Q547 -20 459 -20ZM594 1266Q594 1340 638.5 1386Q683 1432 758 1432Q795 1432 825.5 1420Q856 1408 878 1386Q900 1364 912 1333.5Q924 1303 924 1266Q924 1191 878 1146.5Q832 1102 758 1102Q683 1102 638.5 1146.5Q594 1191 594 1266ZM172 1266Q172 1303 184 1333.5Q196 1364 217.5 1386Q239 1408 269 1420Q299 1432 336 1432Q373 1432 403.5 1420Q434 1408 456 1386Q478 1364 490 1333.5Q502 1303 502 1266Q502 1191 456 1146.5Q410 1102 336 1102Q262 1102 217 1146.5Q172 1191 172 1266Z" glyph-name="udieresis" horiz-adv-x="1092" unicode="&#252;" /><glyph d="M459 -20Q368 -20 296.5 8.5Q225 37 175 90.5Q125 144 98.5 222Q72 300 72 399V1024H356V436Q356 333 403.5 276Q451 219 545 219Q585 219 620 233Q655 247 681.5 277Q708 307 723.5 353.5Q739 400 739 465V1024H1020V0H741V113Q690 51 618.5 15.5Q547 -20 459 -20ZM150 1475H412L645 1126H457Z" glyph-name="ugrave" horiz-adv-x="1092" unicode="&#249;" /><glyph d="M72 -20H829V-260H72Z" glyph-name="underscore" horiz-adv-x="901" unicode="_" /><glyph d="M72 641H829V401H72Z" glyph-name="uni00AD" horiz-adv-x="901" unicode="&#173;" /><glyph d="M33 1024H322L561 358L795 1024H1079L702 0H420Z" glyph-name="v" horiz-adv-x="1116" unicode="v" /><glyph d="M51 1024H332L541 371L774 1024H1053L1272 371L1493 1024H1772L1407 0H1137L907 651L668 0H395Z" glyph-name="w" horiz-adv-x="1810" unicode="w" /><glyph d="M408 520 45 1024H387L586 737L780 1024H1110L756 518L1139 0H797L582 299L373 0H31Z" glyph-name="x" horiz-adv-x="1151" unicode="x" /><glyph d="M432 45 25 1024H319L571 393L807 1024H1098L504 -473H223Z" glyph-name="y" horiz-adv-x="1128" unicode="y" /><glyph d="M432 45 25 1024H319L571 393L807 1024H1098L504 -473H223ZM696 1475H958L651 1126H463Z" glyph-name="yacute" horiz-adv-x="1128" unicode="&#253;" /><glyph d="M432 45 25 1024H319L571 393L807 1024H1098L504 -473H223ZM616 1266Q616 1303 628 1333.5Q640 1364 661.5 1386Q683 1408 713 1420Q743 1432 780 1432Q817 1432 847.5 1420Q878 1408 900 1386Q922 1364 934 1333.5Q946 1303 946 1266Q946 1191 900.5 1146.5Q855 1102 780 1102Q706 1102 661 1146.5Q616 1191 616 1266ZM195 1266Q195 1303 206.5 1333.5Q218 1364 239.5 1386Q261 1408 291 1420Q321 1432 358 1432Q395 1432 425.5 1420Q456 1408 478 1386Q500 1364 512 1333.5Q524 1303 524 1266Q524 1191 478.5 1146.5Q433 1102 358 1102Q284 1102 239.5 1146.5Q195 1191 195 1266Z" glyph-name="ydieresis" horiz-adv-x="1128" unicode="&#255;" /><glyph d="M162 803H459V854L45 1495H365L604 1098L844 1495H1159L743 850V803H1042V573H743V416H1042V186H743V0H459V186H162V416H459V573H162Z" glyph-name="yen" horiz-adv-x="1204" unicode="&#165;" /><glyph d="M61 250 600 776H70V1024H977V772L438 248H987V0H61Z" glyph-name="z" horiz-adv-x="1049" unicode="z" /><glyph d="M61 250 600 776H70V1024H977V772L438 248H987V0H61ZM205 1475H416L535 1294L655 1475H866L623 1126H449Z" glyph-name="zcaron" horiz-adv-x="1049" unicode="&#158;" /><glyph d="M600 262Q654 262 696.5 279Q739 296 768 325Q797 354 812 394Q827 434 827 479V1006Q827 1057 812 1099.5Q797 1142 768.5 1172Q740 1202 698.5 1218.5Q657 1235 604 1235Q550 1235 507.5 1217.5Q465 1200 436 1169Q407 1138 392 1096Q377 1054 377 1006V481Q377 434 391.5 394Q406 354 434 324.5Q462 295 504 278.5Q546 262 600 262ZM602 -20Q478 -20 383 15.5Q288 51 223.5 115.5Q159 180 125.5 269.5Q92 359 92 467V1016Q92 1122 129.5 1213Q167 1304 234.5 1371.5Q302 1439 395.5 1477.5Q489 1516 602 1516Q718 1516 812 1476.5Q906 1437 973 1369.5Q1040 1302 1076 1211.5Q1112 1121 1112 1018V467Q1112 357 1077.5 267Q1043 177 977 113.5Q911 50 816.5 15Q722 -20 602 -20Z" glyph-name="zero" horiz-adv-x="1204" unicode="0" /></font>
</defs>
</svg>
